<svg width="100" height="42" viewBox="0 0 100 42" fill="none" xmlns="http://www.w3.org/2000/svg">
<g clip-path="url(#clip0_572_50451)">
<path fill-rule="evenodd" clip-rule="evenodd" d="M35.5031 40.4963C25.1703 39.9756 16.9509 31.4314 16.9509 20.9693C16.9509 10.5146 25.2198 2.02361 35.5031 1.50374V40.4963ZM36.5031 0.478516C36.1679 0.478516 35.8345 0.486575 35.5031 0.502512C24.689 1.02253 15.9772 9.92978 15.951 20.9197V3.84515V3.68709V2.71789L16.0123 2.68709H15.951V2.71789C15.6121 2.88875 15.2786 3.0686 14.951 3.25713C8.78602 6.80414 4.66264 13.4226 4.66264 21.0306C4.66264 28.6603 8.80944 35.2947 14.951 38.8343C15.2787 39.0232 15.6122 39.2033 15.951 39.3742V38.2467V21.0191C15.9771 32.0108 24.6341 40.9767 35.5031 41.4976C35.8344 41.5134 36.1678 41.5215 36.5031 41.5215V40.5215V21.0307C36.5031 32.3813 45.7046 41.5828 57.0552 41.5828C68.4059 41.5828 77.6074 32.3813 77.6074 21.0307V39.81V40.8466C77.9443 40.7571 78.2777 40.6592 78.6074 40.5532C85.653 38.2887 90.9833 32.3275 92.3927 24.9431V35.6086V36.9202C92.7351 36.6418 93.0686 36.3521 93.3927 36.0518C97.4246 32.316 100 26.9317 100 20.9693C100 15.0012 97.4723 9.66496 93.3927 5.93647C93.069 5.64061 92.7355 5.35487 92.3927 5.07974V6.38386V17.1345C90.9773 9.74486 85.6121 3.77795 78.6074 1.51015C78.2776 1.40338 77.9442 1.30481 77.6074 1.21468V2.25181V21.0307C77.6074 9.68003 68.4059 0.478516 57.0552 0.478516C45.7046 0.478516 36.5031 9.68003 36.5031 21.0307V1.47852V0.478516ZM76.6074 21.0307C76.6074 31.829 67.8536 40.5828 57.0552 40.5828C46.2569 40.5828 37.5031 31.829 37.5031 21.0307C37.5031 10.2323 46.2569 1.47852 57.0552 1.47852C67.8536 1.47852 76.6074 10.2323 76.6074 21.0307ZM14.951 37.6701V4.42069C9.36142 7.86033 5.66264 14.0019 5.66264 21.0306C5.66264 28.0795 9.38257 34.2361 14.951 37.6701ZM1 21.0306C1 17.4315 1.98087 14.0676 3.66258 11.1699V30.8642C1.98212 27.9958 1 24.6323 1 21.0306ZM0 21.0306C0 16.6645 1.37343 12.6299 3.66258 9.30132C3.97883 8.84146 4.31257 8.39507 4.66258 7.96315V9.61609V32.4001V34.0368C4.31257 33.6123 3.97883 33.1724 3.66258 32.7183C1.37343 29.4314 0 25.3968 0 21.0306ZM78.6074 39.5C86.2941 36.8871 91.7607 29.6192 91.7607 21.0306C91.7607 12.4486 86.246 5.18049 78.6074 2.56413V39.5ZM99.0001 20.9693C99.0001 26.2969 96.8378 31.1418 93.3927 34.6574V7.32149C96.8744 10.8241 99.0001 15.6289 99.0001 20.9693Z" fill="white" fill-opacity="0.5"/>
</g>
<defs>
<clipPath id="clip0_572_50451">
<rect width="100" height="41.0429" fill="white" transform="translate(0 0.478516)"/>
</clipPath>
</defs>
</svg>
