<svg width="100" height="30" viewBox="0 0 100 30" fill="none" xmlns="http://www.w3.org/2000/svg">
<path d="M31.0194 7.13596H35.3398V23.0583H31.165V20.8253C30.2427 22.4758 28.5922 23.5437 25.8738 23.5437C22.1359 23.5437 19.7087 21.4563 19.7087 17.2816V7.13596H24.0291V16.5049C24.0291 18.5923 25.0485 19.7573 26.4563 19.7573H28.2039C29.7087 19.7573 31.0194 18.4466 31.0194 16.5049V7.13596ZM14.3204 5.09712H13.0583V23.1068H17.3786V0.922363H14.2718V5.09712H14.3204ZM3.00971 5.04858V7.13596H0V10.5826H3.00971V23.0583H7.3301V10.5826H10.2427V7.13596H7.28155V6.11654C7.28155 5.09712 7.42718 4.32042 8.68932 4.32042H11.5049V0.922363H7.18447C4.32039 0.922363 3.00971 2.71848 3.00971 5.04858ZM67.0874 2.9612H69.3689V0.922363H64.5631V4.90295H67.0874V2.9612ZM57.4757 1.4078H61.9417V23.0583H57.6214V20.8253C56.4078 22.2816 54.7087 23.4952 51.9903 23.4952C47.233 23.4952 44.0291 20.0486 44.0291 15.1942C44.0291 10.3398 47.3786 6.94178 52.0874 6.94178C54.5631 6.94178 56.4563 8.00974 57.4757 9.22333V1.4078ZM57.0388 15.2428C57.0388 11.2622 54.9029 10.4369 52.2816 10.4369C49.6602 10.4369 47.8641 12.5243 47.8641 15.2428C47.8641 18.0097 49.6602 20.0486 52.2816 20.0486C54.9029 20.0486 57.0388 18.6894 57.0388 15.2428ZM62.9126 10.8253H65.0485V23.0583H69.3689V7.13596H62.9126V10.8253ZM36.3107 10.8253H38.4466V23.0583H42.767V7.13596H36.3107V10.8253ZM95.7281 7.13596L91.2136 19.1748H90.534L86.165 7.13596H81.8447H77.8641V2.71848H73.5437V7.13596H70.534V10.5826H73.5437V19.1262C73.5437 21.6505 75.0485 23.0583 77.8155 23.0583H82.0388V19.4175H79.3204C78.2039 19.4175 77.8641 19.0292 77.8641 18.0097V10.5826H81.9417V7.42722L87.7184 23.0583H89.8058L87.6699 28.7379H91.7476L99.7573 7.08741H95.7281V7.13596ZM40.3398 2.86411H38.0583V4.90295H42.8641V0.922363H40.3398V2.86411Z" fill="white"/>
</svg>
