<?xml version="1.0" encoding="UTF-8" standalone="no"?>

<svg
   width="132.29167mm"
   height="132.29167mm"
   viewBox="0 0 132.29167 132.29167"
   version="1.1"
   id="svg5"
   xmlns:inkscape="http://www.inkscape.org/namespaces/inkscape"
   xmlns:sodipodi="http://sodipodi.sourceforge.net/DTD/sodipodi-0.dtd"
   xmlns="http://www.w3.org/2000/svg"
   xmlns:svg="http://www.w3.org/2000/svg">
  <sodipodi:namedview
     id="namedview7"
     pagecolor="#ffffff"
     bordercolor="#666666"
     borderopacity="1.0"
     inkscape:pageshadow="2"
     inkscape:pageopacity="0.0"
     inkscape:pagecheckerboard="0"
     inkscape:document-units="mm"
     showgrid="false"
     inkscape:zoom="0.32382506"
     inkscape:cx="182.19714"
     inkscape:cy="426.15603"
     inkscape:window-width="2552"
     inkscape:window-height="1395"
     inkscape:window-x="1084"
     inkscape:window-y="406"
     inkscape:window-maximized="1"
     inkscape:current-layer="layer1"
     fit-margin-top="0"
     fit-margin-left="0"
     fit-margin-right="0"
     fit-margin-bottom="0" />
  <defs
     id="defs2">
    <style
       id="style1539">
      .cls-1 {
        fill: #2433b8;
      }

      .cls-2, .cls-3 {
        fill: #fff;
      }

      .cls-3, .cls-5 {
        fill-rule: evenodd;
      }

      .cls-4, .cls-5 {
        fill: #0b0e14;
      }
    </style>
  </defs>
  <g
     inkscape:label="Layer 1"
     inkscape:groupmode="layer"
     id="layer1"
     transform="translate(-37.211801,-74.387867)">
    <g
       id="g1151"
       transform="matrix(0.26458333,0,0,0.26458333,37.211801,74.387867)">
      <path
         id="Coin_BG"
         class="st0"
         d="m 250,500 v 0 C 112.5,500 0,387.5 0,250 v 0 C 0,112.5 112.5,0 250,0 v 0 c 137.5,0 250,112.5 250,250 v 0 c 0,137.5 -112.5,250 -250,250 z"
         style="fill:#2433b8;fill-opacity:1" />
      <g
         id="g1574"
         transform="translate(-83.858918,-335.0369)">
        <g
           id="g3156"
           transform="matrix(2.2729169,0,0,2.2729169,-400.40573,-720.66708)">
          <path
             class="cls-2"
             d="m 270.54949,518.46182 h 35 a 35,35 0 0 1 -35,35 z"
             id="path1549" />
          <path
             class="cls-2"
             d="m 340.54949,518.46182 a 35,35 0 0 0 -35,35 v 77 h 35 v -77 h 35 v -35 z"
             id="path1551"
             inkscape:label="path1551" />
        </g>
      </g>
    </g>
  </g>
  <style
     type="text/css"
     id="style1100">
	.st0{fill:#002868;}
	.st1{fill:#FFFFFF;}
</style>
</svg>
