<svg width="80" height="80" viewBox="0 0 80 80" fill="none" xmlns="http://www.w3.org/2000/svg">
<path d="M37.5 56.25C37.5 63.8439 31.3439 70 23.75 70C16.1561 70 10 63.8439 10 56.25C10 48.6561 16.1561 42.5 23.75 42.5" stroke="url(#paint0_angular_828_7102)" stroke-width="2" stroke-miterlimit="10"/>
<path d="M28.6374 59.0006C28.6374 59.6423 28.474 60.2256 28.1474 60.7506C27.8324 61.2756 27.3832 61.7014 26.7999 62.0281C26.2282 62.3431 25.569 62.5298 24.8224 62.5881V64.3731H23.4924V62.5706C22.279 62.4306 21.3165 61.9931 20.6049 61.2581C19.9049 60.5231 19.5315 59.6014 19.4849 58.4931H20.9899C21.0482 59.3214 21.3807 59.9864 21.9874 60.4881C22.594 60.9781 23.364 61.2231 24.2974 61.2231C25.1374 61.2231 25.814 61.0423 26.3274 60.6806C26.8524 60.3073 27.1149 59.7939 27.1149 59.1406C27.1149 58.6623 26.969 58.2831 26.6774 58.0031C26.3974 57.7231 26.0299 57.5189 25.5749 57.3906C25.1315 57.2506 24.5249 57.1164 23.7549 56.9881C22.5299 56.7781 21.5557 56.4339 20.8324 55.9556C20.109 55.4773 19.7474 54.7014 19.7474 53.6281C19.7474 52.6481 20.0915 51.8431 20.7799 51.2131C21.4682 50.5831 22.3724 50.2273 23.4924 50.1456V48.3606H24.8224V50.1981C25.8724 50.3498 26.724 50.7581 27.3774 51.4231C28.0307 52.0764 28.3865 52.8931 28.4449 53.8731H26.9399C26.8465 53.1614 26.5257 52.5898 25.9774 52.1581C25.429 51.7264 24.7465 51.5106 23.9299 51.5106C23.1132 51.5106 22.4657 51.6914 21.9874 52.0531C21.509 52.4031 21.2699 52.8989 21.2699 53.5406C21.2699 54.0073 21.4099 54.3748 21.6899 54.6431C21.9699 54.8998 22.3315 55.0981 22.7749 55.2381C23.2182 55.3664 23.8249 55.4948 24.5949 55.6231C25.8199 55.8331 26.7999 56.1831 27.5349 56.6731C28.2699 57.1514 28.6374 57.9273 28.6374 59.0006Z" fill="white"/>
<path d="M48.75 45C56.3439 45 62.5 38.8439 62.5 31.25C62.5 23.6561 56.3439 17.5 48.75 17.5C41.1561 17.5 35 23.6561 35 31.25C35 38.8439 41.1561 45 48.75 45Z" stroke="white" stroke-width="2" stroke-miterlimit="10"/>
<path d="M53.6374 34.0006C53.6374 34.6423 53.474 35.2256 53.1474 35.7506C52.8324 36.2756 52.3832 36.7014 51.7999 37.0281C51.2282 37.3431 50.569 37.5298 49.8224 37.5881V39.3731H48.4924V37.5706C47.279 37.4306 46.3165 36.9931 45.6049 36.2581C44.9049 35.5231 44.5315 34.6014 44.4849 33.4931H45.9899C46.0482 34.3214 46.3807 34.9864 46.9874 35.4881C47.594 35.9781 48.364 36.2231 49.2974 36.2231C50.1374 36.2231 50.814 36.0423 51.3274 35.6806C51.8524 35.3073 52.1149 34.7939 52.1149 34.1406C52.1149 33.6623 51.969 33.2831 51.6774 33.0031C51.3974 32.7231 51.0299 32.5189 50.5749 32.3906C50.1315 32.2506 49.5249 32.1164 48.7549 31.9881C47.5299 31.7781 46.5557 31.4339 45.8324 30.9556C45.109 30.4773 44.7474 29.7014 44.7474 28.6281C44.7474 27.6481 45.0915 26.8431 45.7799 26.2131C46.4682 25.5831 47.3724 25.2273 48.4924 25.1456V23.3606H49.8224V25.1981C50.8724 25.3498 51.724 25.7581 52.3774 26.4231C53.0307 27.0764 53.3865 27.8931 53.4449 28.8731H51.9399C51.8465 28.1614 51.5257 27.5898 50.9774 27.1581C50.429 26.7264 49.7465 26.5106 48.9299 26.5106C48.1132 26.5106 47.4657 26.6914 46.9874 27.0531C46.509 27.4031 46.2699 27.8989 46.2699 28.5406C46.2699 29.0073 46.4099 29.3748 46.6899 29.6431C46.9699 29.8998 47.3315 30.0981 47.7749 30.2381C48.2182 30.3664 48.8249 30.4948 49.5949 30.6231C50.8199 30.8331 51.7999 31.1831 52.5349 31.6731C53.2699 32.1514 53.6374 32.9273 53.6374 34.0006Z" fill="white"/>
<path d="M48.75 52.5C60.486 52.5 70 42.986 70 31.25C70 19.5139 60.486 10 48.75 10C37.0139 10 27.5 19.5139 27.5 31.25C27.5 42.986 37.0139 52.5 48.75 52.5Z" stroke="url(#paint1_angular_828_7102)" stroke-width="2" stroke-miterlimit="10" stroke-dasharray="2 2"/>
<defs>
<radialGradient id="paint0_angular_828_7102" cx="0" cy="0" r="1" gradientUnits="userSpaceOnUse" gradientTransform="translate(23.75 56.25) scale(14.375)">
<stop stop-color="white" stop-opacity="0"/>
<stop offset="0.75" stop-color="white"/>
</radialGradient>
<radialGradient id="paint1_angular_828_7102" cx="0" cy="0" r="1" gradientUnits="userSpaceOnUse" gradientTransform="translate(48.75 31.25) rotate(119.592) scale(29.6917)">
<stop stop-color="#F3B8D8"/>
<stop offset="0.139053" stop-color="#B793E9"/>
<stop offset="0.238718" stop-color="#9FD4F3"/>
<stop offset="0.374927" stop-color="#FFD2C4"/>
<stop offset="0.477914" stop-color="#FBF3F3"/>
<stop offset="0.557645" stop-color="#D9ABDF"/>
<stop offset="0.624089" stop-color="#AF9CE3"/>
<stop offset="0.720431" stop-color="#AAE4E1"/>
<stop offset="0.830062" stop-color="#C6EAD0"/>
<stop offset="0.913116" stop-color="white"/>
<stop offset="1" stop-color="#FDB5E4"/>
</radialGradient>
</defs>
</svg>
