<svg width="80" height="80" viewBox="0 0 80 80" fill="none" xmlns="http://www.w3.org/2000/svg">
<g clip-path="url(#clip0_828_7165)">
<mask id="mask0_828_7165" style="mask-type:alpha" maskUnits="userSpaceOnUse" x="0" y="0" width="80" height="80">
<rect width="80" height="80" fill="url(#paint0_radial_828_7165)"/>
</mask>
<g mask="url(#mask0_828_7165)">
<path d="M30.0382 5.07116C30.9181 7.19546 29.9093 9.63086 27.785 10.5108C25.6607 11.3907 23.2253 10.3819 22.3454 8.25761C21.4655 6.13331 22.4742 3.69792 24.5985 2.818C26.7228 1.93809 29.1582 2.94686 30.0382 5.07116Z" stroke="#4D4D4C" stroke-linecap="square"/>
<path d="M8.25821 22.3452C10.3825 23.2251 11.3913 25.6605 10.5114 27.7848C9.63146 29.9091 7.19606 30.9178 5.07176 30.0379C2.94746 29.158 1.93869 26.7226 2.8186 24.5983C3.69852 22.474 6.13391 21.4652 8.25821 22.3452Z" stroke="#4D4D4C" stroke-linecap="square"/>
<path d="M57.6543 8.25821C56.7744 10.3825 54.339 11.3913 52.2147 10.5114C50.0904 9.63146 49.0816 7.19606 49.9615 5.07176C50.8414 2.94746 53.2768 1.93869 55.4011 2.8186C57.5254 3.69852 58.5342 6.13391 57.6543 8.25821Z" stroke="#4D4D4C" stroke-linecap="square"/>
<path d="M74.9283 30.0382C72.804 30.9181 70.3686 29.9093 69.4887 27.785C68.6088 25.6607 69.6175 23.2253 71.7418 22.3454C73.8661 21.4655 76.3015 22.4742 77.1814 24.5985C78.0614 26.7228 77.0526 29.1582 74.9283 30.0382Z" stroke="#4D4D4C" stroke-linecap="square"/>
<path d="M57.6541 71.7418C58.534 73.8661 57.5252 76.3015 55.4009 77.1814C53.2766 78.0614 50.8412 77.0526 49.9613 74.9283C49.0814 72.804 50.0901 70.3686 52.2144 69.4887C54.3387 68.6088 56.7741 69.6175 57.6541 71.7418Z" stroke="#4D4D4C" stroke-linecap="square"/>
<path d="M74.9288 49.961C77.0531 50.8409 78.0619 53.2763 77.182 55.4006C76.3021 57.5249 73.8667 58.5337 71.7424 57.6538C69.6181 56.7739 68.6093 54.3385 69.4892 52.2142C70.3691 50.0899 72.8045 49.0811 74.9288 49.961Z" stroke="#4D4D4C" stroke-linecap="square"/>
<path d="M30.0384 74.9288C29.1585 77.0531 26.7231 78.0619 24.5988 77.182C22.4745 76.3021 21.4657 73.8667 22.3456 71.7424C23.2256 69.6181 25.6609 68.6093 27.7852 69.4892C29.9095 70.3691 30.9183 72.8045 30.0384 74.9288Z" stroke="#4D4D4C" stroke-linecap="square"/>
<path d="M8.25761 57.6541C6.13331 58.534 3.69792 57.5252 2.818 55.4009C1.93809 53.2766 2.94686 50.8412 5.07116 49.9613C7.19546 49.0814 9.63086 50.0901 10.5108 52.2144C11.3907 54.3387 10.3819 56.7741 8.25761 57.6541Z" stroke="#4D4D4C" stroke-linecap="square"/>
<g opacity="0.6">
<path d="M44.2391 11.7391C44.2391 14.0803 42.3412 15.9783 40 15.9783C37.6588 15.9783 35.7609 14.0803 35.7609 11.7391C35.7609 9.39792 37.6588 7.5 40 7.5C42.3412 7.5 44.2391 9.39792 44.2391 11.7391Z" stroke="#4D4D4C" stroke-linecap="square"/>
<path d="M23.0141 17.0184C24.6696 18.6739 24.6696 21.358 23.0141 23.0134C21.3586 24.6689 18.6745 24.6689 17.019 23.0134C15.3636 21.358 15.3636 18.6739 17.019 17.0184C18.6745 15.3629 21.3586 15.3629 23.0141 17.0184Z" stroke="#4D4D4C" stroke-linecap="square"/>
<path d="M62.9816 23.0141C61.3261 24.6696 58.642 24.6696 56.9866 23.0141C55.3311 21.3586 55.3311 18.6745 56.9866 17.019C58.642 15.3636 61.3261 15.3636 62.9816 17.019C64.6371 18.6745 64.6371 21.3586 62.9816 23.0141Z" stroke="#4D4D4C" stroke-linecap="square"/>
<path d="M68.2609 44.2391C65.9197 44.2391 64.0217 42.3412 64.0217 40C64.0217 37.6588 65.9197 35.7609 68.2609 35.7609C70.6021 35.7609 72.5 37.6588 72.5 40C72.5 42.3412 70.6021 44.2391 68.2609 44.2391Z" stroke="#4D4D4C" stroke-linecap="square"/>
<path d="M44.2391 68.2609C44.2391 70.6021 42.3412 72.5 40 72.5C37.6588 72.5 35.7609 70.6021 35.7609 68.2609C35.7609 65.9197 37.6588 64.0217 40 64.0217C42.3412 64.0217 44.2391 65.9197 44.2391 68.2609Z" stroke="#4D4D4C" stroke-linecap="square"/>
<path d="M62.9822 56.9866C64.6377 58.642 64.6377 61.3261 62.9822 62.9816C61.3268 64.6371 58.6427 64.6371 56.9872 62.9816C55.3317 61.3261 55.3317 58.642 56.9872 56.9866C58.6427 55.3311 61.3268 55.3311 62.9822 56.9866Z" stroke="#4D4D4C" stroke-linecap="square"/>
<path d="M23.0134 62.9809C21.358 64.6363 18.6739 64.6363 17.0184 62.9809C15.3629 61.3254 15.3629 58.6413 17.0184 56.9858C18.6739 55.3303 21.358 55.3303 23.0134 56.9858C24.6689 58.6413 24.6689 61.3254 23.0134 62.9809Z" stroke="#4D4D4C" stroke-linecap="square"/>
<path d="M11.7391 44.2391C9.39792 44.2391 7.5 42.3412 7.5 40C7.5 37.6588 9.39792 35.7609 11.7391 35.7609C14.0803 35.7609 15.9783 37.6588 15.9783 40C15.9783 42.3412 14.0803 44.2391 11.7391 44.2391Z" stroke="#4D4D4C" stroke-linecap="square"/>
</g>
</g>
<path d="M40 61.25C51.736 61.25 61.25 51.736 61.25 40C61.25 28.2639 51.736 18.75 40 18.75C28.2639 18.75 18.75 28.2639 18.75 40C18.75 51.736 28.2639 61.25 40 61.25Z" stroke="url(#paint1_angular_828_7165)" stroke-width="2" stroke-miterlimit="10" stroke-dasharray="2 2"/>
<path d="M40 53.75C47.5939 53.75 53.75 47.5939 53.75 40C53.75 32.4061 47.5939 26.25 40 26.25C32.4061 26.25 26.25 32.4061 26.25 40C26.25 47.5939 32.4061 53.75 40 53.75Z" stroke="white" stroke-width="2" stroke-miterlimit="10"/>
<path d="M44.8874 42.7506C44.8874 43.3923 44.724 43.9756 44.3974 44.5006C44.0824 45.0256 43.6332 45.4514 43.0499 45.7781C42.4782 46.0931 41.819 46.2798 41.0724 46.3381V48.1231H39.7424V46.3206C38.529 46.1806 37.5665 45.7431 36.8549 45.0081C36.1549 44.2731 35.7815 43.3514 35.7349 42.2431H37.2399C37.2982 43.0714 37.6307 43.7364 38.2374 44.2381C38.844 44.7281 39.614 44.9731 40.5474 44.9731C41.3874 44.9731 42.064 44.7923 42.5774 44.4306C43.1024 44.0573 43.3649 43.5439 43.3649 42.8906C43.3649 42.4123 43.219 42.0331 42.9274 41.7531C42.6474 41.4731 42.2799 41.2689 41.8249 41.1406C41.3815 41.0006 40.7749 40.8664 40.0049 40.7381C38.7799 40.5281 37.8057 40.1839 37.0824 39.7056C36.359 39.2273 35.9974 38.4514 35.9974 37.3781C35.9974 36.3981 36.3415 35.5931 37.0299 34.9631C37.7182 34.3331 38.6224 33.9773 39.7424 33.8956V32.1106H41.0724V33.9481C42.1224 34.0998 42.974 34.5081 43.6274 35.1731C44.2807 35.8264 44.6365 36.6431 44.6949 37.6231H43.1899C43.0965 36.9114 42.7757 36.3398 42.2274 35.9081C41.679 35.4764 40.9965 35.2606 40.1799 35.2606C39.3632 35.2606 38.7157 35.4414 38.2374 35.8031C37.759 36.1531 37.5199 36.6489 37.5199 37.2906C37.5199 37.7573 37.6599 38.1248 37.9399 38.3931C38.2199 38.6498 38.5815 38.8481 39.0249 38.9881C39.4682 39.1164 40.0749 39.2448 40.8449 39.3731C42.0699 39.5831 43.0499 39.9331 43.7849 40.4231C44.5199 40.9014 44.8874 41.6773 44.8874 42.7506Z" fill="white"/>
</g>
<defs>
<radialGradient id="paint0_radial_828_7165" cx="0" cy="0" r="1" gradientUnits="userSpaceOnUse" gradientTransform="translate(40 40) rotate(90) scale(40)">
<stop offset="0.484375" stop-opacity="0"/>
<stop offset="0.666667"/>
</radialGradient>
<radialGradient id="paint1_angular_828_7165" cx="0" cy="0" r="1" gradientUnits="userSpaceOnUse" gradientTransform="translate(40 40) rotate(119.592) scale(29.6917)">
<stop stop-color="#F3B8D8"/>
<stop offset="0.139053" stop-color="#B793E9"/>
<stop offset="0.238718" stop-color="#9FD4F3"/>
<stop offset="0.374927" stop-color="#FFD2C4"/>
<stop offset="0.477914" stop-color="#FBF3F3"/>
<stop offset="0.557645" stop-color="#D9ABDF"/>
<stop offset="0.624089" stop-color="#AF9CE3"/>
<stop offset="0.720431" stop-color="#AAE4E1"/>
<stop offset="0.830062" stop-color="#C6EAD0"/>
<stop offset="0.913116" stop-color="white"/>
<stop offset="1" stop-color="#FDB5E4"/>
</radialGradient>
<clipPath id="clip0_828_7165">
<rect width="80" height="80" fill="white"/>
</clipPath>
</defs>
</svg>
