<svg width="192" height="193" viewBox="0 0 192 193" fill="none" xmlns="http://www.w3.org/2000/svg">
<g clip-path="url(#clip0_823_29005)">
<path d="M153 96.5C153 127.98 127.48 153.5 96 153.5C64.5198 153.5 39 127.98 39 96.5C39 65.0198 64.5198 39.5 96 39.5C102.508 39.5 108.761 40.5907 114.587 42.5992" stroke="url(#paint0_angular_823_29005)" stroke-width="2" stroke-dasharray="2 2"/>
<path opacity="0.2" d="M142.661 118.189C143.424 118.51 144.682 119.034 145.459 119.355C146.236 119.677 147.5 120.192 148.27 120.504C149.04 120.817 150.287 121.316 151.043 121.618C151.798 121.92 153.026 122.402 153.768 122.691C154.509 122.981 155.705 123.443 156.425 123.72C157.145 123.997 158.307 124.437 159.004 124.698C159.701 124.959 160.818 125.374 161.486 125.619C162.155 125.865 163.222 126.251 163.858 126.479C164.495 126.706 165.507 127.063 166.106 127.273C166.705 127.483 167.654 127.803 168.214 127.995C168.774 128.187 169.652 128.473 170.174 128.639C170.697 128.805 171.491 129.059 171.957 129.202C172.422 129.345 173.142 129.555 173.561 129.679C173.979 129.802 174.603 129.97 174.96 130.062C175.316 130.153 175.851 130.282 176.143 130.348C176.435 130.413 176.811 130.487 176.972 130.514C177.132 130.54 177.414 130.575 177.597 130.591C177.775 130.607 177.954 130.607 178.132 130.591C178.228 130.582 178.319 130.543 178.392 130.48C178.408 130.446 178.416 130.408 178.414 130.37C178.412 130.332 178.401 130.295 178.381 130.263C178.305 130.145 178.213 130.039 178.109 129.945C177.941 129.798 177.766 129.66 177.585 129.53C177.407 129.403 177.061 129.177 176.818 129.024C176.576 128.87 176.127 128.607 175.822 128.434C175.517 128.261 174.969 127.958 174.605 127.762C174.241 127.566 173.596 127.232 173.179 127.015C172.762 126.798 172.026 126.433 171.55 126.2C171.074 125.967 170.256 125.57 169.731 125.317C169.205 125.065 168.305 124.643 167.731 124.377C167.157 124.11 166.179 123.671 165.56 123.383C164.942 123.095 163.892 122.633 163.229 122.338C162.566 122.043 161.447 121.556 160.749 121.251C160.05 120.946 159.071 120.526 158.583 120.317C158.095 120.109 157.07 119.675 156.307 119.355C155.545 119.036 154.286 118.51 153.511 118.189C152.736 117.868 151.469 117.352 150.701 117.04C149.932 116.727 148.683 116.228 147.926 115.926C147.168 115.624 145.944 115.142 145.203 114.853C144.461 114.564 143.265 114.099 142.544 113.824C141.822 113.549 140.663 113.107 139.967 112.846C139.27 112.585 138.152 112.17 137.484 111.925C136.816 111.68 135.746 111.293 135.11 111.065C134.474 110.838 133.463 110.479 132.863 110.271C132.262 110.063 131.316 109.742 130.756 109.549C130.197 109.357 129.318 109.071 128.796 108.905C128.274 108.739 127.479 108.485 127.014 108.342C126.549 108.199 125.829 107.989 125.41 107.865C124.991 107.742 124.369 107.574 124.012 107.482C123.656 107.391 123.121 107.262 122.829 107.197C122.537 107.131 122.161 107.057 122 107.031C121.84 107.004 121.558 106.969 121.373 106.953C121.195 106.937 121.016 106.937 120.838 106.953C120.742 106.962 120.651 107.001 120.578 107.064C120.562 107.098 120.555 107.136 120.556 107.174C120.558 107.212 120.569 107.249 120.589 107.281C120.665 107.399 120.757 107.506 120.862 107.599C121.029 107.746 121.204 107.884 121.386 108.014C121.564 108.141 121.908 108.367 122.152 108.52C122.396 108.674 122.843 108.937 123.148 109.11C123.453 109.283 124 109.586 124.365 109.782C124.731 109.978 125.372 110.312 125.791 110.529C126.21 110.746 126.946 111.111 127.422 111.344C127.898 111.577 128.716 111.974 129.241 112.227C129.767 112.479 130.667 112.901 131.241 113.166C131.815 113.43 132.791 113.88 133.412 114.161C134.032 114.442 135.08 114.911 135.743 115.206C136.406 115.501 137.525 115.988 138.224 116.293C138.922 116.599 139.899 117.019 140.389 117.227C140.879 117.435 141.898 117.869 142.661 118.189Z" stroke="#4D4D4C" stroke-miterlimit="10"/>
<path opacity="0.3" d="M130.444 136.578C131.025 137.169 131.989 138.138 132.583 138.731C133.176 139.324 134.153 140.279 134.746 140.849C135.34 141.419 136.306 142.351 136.885 142.907C137.464 143.463 138.426 144.356 139.004 144.891C139.581 145.426 140.517 146.282 141.084 146.792C141.65 147.302 142.561 148.114 143.11 148.597C143.659 149.081 144.545 149.847 145.07 150.301C145.596 150.754 146.452 151.469 146.96 151.889C147.467 152.309 148.277 152.971 148.76 153.356C149.243 153.74 150.007 154.342 150.46 154.69C150.912 155.038 151.629 155.572 152.049 155.881C152.47 156.19 153.129 156.658 153.514 156.923C153.899 157.187 154.498 157.583 154.844 157.805C155.19 158.028 155.723 158.335 156.027 158.511C156.332 158.688 156.792 158.919 157.05 159.041C157.309 159.162 157.638 159.298 157.785 159.348C157.975 159.41 158.17 159.457 158.367 159.491C158.544 159.521 158.725 159.521 158.902 159.491C159.028 159.457 159.141 159.386 159.225 159.286C159.294 159.164 159.332 159.026 159.335 158.885C159.328 158.686 159.296 158.488 159.242 158.296C159.16 158.035 159.063 157.779 158.952 157.53C158.845 157.297 158.627 156.875 158.471 156.596C158.314 156.317 158.014 155.827 157.806 155.505C157.597 155.184 157.221 154.623 156.966 154.27C156.712 153.917 156.254 153.289 155.96 152.89C155.665 152.491 155.133 151.813 154.79 151.381C154.448 150.948 153.851 150.218 153.466 149.753C153.081 149.289 152.42 148.507 151.996 148.015C151.572 147.522 150.848 146.696 150.392 146.178C149.936 145.659 149.145 144.79 148.649 144.248C148.154 143.707 147.311 142.801 146.781 142.238C146.252 141.675 145.512 140.899 145.142 140.512C144.771 140.126 143.99 139.326 143.409 138.735C142.828 138.143 141.863 137.173 141.271 136.581C140.679 135.99 139.703 135.034 139.109 134.464C138.516 133.893 137.55 132.962 136.97 132.404C136.391 131.846 135.431 130.955 134.851 130.42C134.272 129.885 133.338 129.031 132.773 128.521C132.208 128.011 131.294 127.197 130.745 126.714C130.196 126.23 129.32 125.466 128.785 125.012C128.25 124.559 127.405 123.844 126.898 123.424C126.39 123.004 125.579 122.343 125.096 121.957C124.613 121.57 123.848 120.972 123.396 120.624C122.943 120.277 122.226 119.742 121.806 119.431C121.385 119.121 120.726 118.656 120.341 118.392C119.956 118.127 119.357 117.732 119.011 117.509C118.666 117.287 118.133 116.98 117.828 116.803C117.523 116.627 117.065 116.394 116.807 116.274C116.548 116.154 116.217 116.016 116.071 115.965C115.88 115.904 115.685 115.856 115.488 115.822C115.311 115.793 115.13 115.793 114.953 115.822C114.827 115.856 114.714 115.927 114.629 116.027C114.559 116.15 114.521 116.288 114.519 116.429C114.526 116.628 114.557 116.825 114.611 117.017C114.693 117.278 114.791 117.534 114.904 117.783C115.009 118.018 115.226 118.438 115.383 118.716C115.54 118.995 115.839 119.488 116.048 119.809C116.256 120.13 116.632 120.691 116.887 121.044C117.142 121.397 117.6 122.026 117.894 122.423C118.188 122.82 118.721 123.5 119.063 123.932C119.405 124.364 120.002 125.097 120.387 125.561C120.772 126.025 121.433 126.805 121.858 127.298C122.282 127.79 123.007 128.618 123.462 129.137C123.916 129.656 124.709 130.522 125.203 131.066C125.696 131.61 126.541 132.511 127.07 133.076C127.6 133.641 128.339 134.416 128.71 134.801C129.081 135.185 129.861 135.985 130.444 136.578Z" stroke="#4D4D4C" stroke-miterlimit="10"/>
<path opacity="0.4" d="M112.157 148.864C112.469 149.637 112.991 150.904 113.317 151.677C113.644 152.45 114.18 153.7 114.512 154.452C114.843 155.204 115.385 156.414 115.718 157.142C116.051 157.869 116.598 159.035 116.932 159.734C117.265 160.433 117.812 161.549 118.144 162.216C118.475 162.883 119.019 163.944 119.348 164.576C119.678 165.207 120.211 166.208 120.535 166.8C120.86 167.391 121.382 168.326 121.697 168.877C122.013 169.428 122.522 170.289 122.829 170.794C123.135 171.298 123.627 172.082 123.921 172.536C124.215 172.989 124.686 173.692 124.966 174.094C125.246 174.497 125.693 175.107 125.957 175.453C126.22 175.799 126.639 176.316 126.887 176.602C127.135 176.888 127.52 177.308 127.746 177.527C127.995 177.769 128.256 177.999 128.528 178.215C128.717 178.362 128.916 178.496 129.122 178.618C129.287 178.699 129.46 178.762 129.639 178.805C129.815 178.842 129.997 178.842 130.173 178.805C130.332 178.75 130.476 178.658 130.59 178.537C130.715 178.376 130.815 178.197 130.884 178.007C130.966 177.756 131.026 177.499 131.063 177.237C131.1 176.905 131.12 176.571 131.121 176.237C131.121 175.931 131.096 175.383 131.066 175.017C131.036 174.652 130.961 174.011 130.902 173.591C130.843 173.171 130.724 172.442 130.628 171.969C130.532 171.496 130.368 170.688 130.25 170.167C130.132 169.646 129.915 168.755 129.769 168.197C129.623 167.64 129.361 166.674 129.188 166.069C129.015 165.463 128.71 164.442 128.511 163.799C128.311 163.157 127.963 162.075 127.739 161.397C127.514 160.719 127.126 159.584 126.876 158.877C126.627 158.169 126.199 156.986 125.925 156.25C125.65 155.514 125.269 154.499 125.073 153.996C124.877 153.493 124.463 152.447 124.151 151.672C123.839 150.897 123.319 149.632 122.993 148.859C122.667 148.086 122.13 146.836 121.799 146.084C121.467 145.332 120.926 144.121 120.592 143.394C120.259 142.667 119.703 141.506 119.375 140.8C119.047 140.094 118.495 138.985 118.161 138.318C117.828 137.651 117.288 136.59 116.958 135.958C116.629 135.327 116.096 134.326 115.772 133.735C115.447 133.143 114.925 132.208 114.608 131.657C114.291 131.107 113.784 130.245 113.478 129.742C113.171 129.239 112.679 128.454 112.385 127.998C112.091 127.543 111.621 126.842 111.339 126.44C111.058 126.038 110.614 125.427 110.348 125.081C110.083 124.735 109.666 124.22 109.42 123.934C109.174 123.648 108.787 123.228 108.561 123.009C108.312 122.766 108.051 122.535 107.778 122.319C107.589 122.173 107.391 122.038 107.185 121.916C107.02 121.836 106.846 121.773 106.666 121.729C106.49 121.692 106.308 121.692 106.132 121.729C105.973 121.784 105.83 121.876 105.715 121.998C105.589 122.158 105.49 122.336 105.421 122.527C105.339 122.778 105.279 123.035 105.242 123.297C105.205 123.629 105.185 123.963 105.184 124.297C105.184 124.603 105.207 125.152 105.237 125.517C105.267 125.882 105.342 126.525 105.403 126.945C105.463 127.365 105.581 128.094 105.677 128.565C105.773 129.036 105.937 129.846 106.055 130.367C106.173 130.888 106.39 131.779 106.536 132.339C106.682 132.898 106.944 133.86 107.117 134.456C107.29 135.053 107.595 136.084 107.794 136.728C107.994 137.372 108.342 138.452 108.566 139.128C108.791 139.804 109.179 140.941 109.429 141.649C109.678 142.356 110.106 143.539 110.379 144.275C110.651 145.011 111.036 146.026 111.231 146.531C111.425 147.035 111.847 148.091 112.157 148.864Z" stroke="#4D4D4C" stroke-miterlimit="10"/>
<path opacity="0.5" d="M90.5894 153.179C90.5894 154.016 90.5894 155.387 90.5894 156.224C90.5894 157.06 90.6196 158.412 90.6393 159.224C90.6589 160.036 90.7052 161.342 90.7391 162.135C90.7729 162.927 90.8389 164.184 90.8852 164.941C90.9315 165.698 91.0171 166.905 91.0759 167.627C91.1347 168.349 91.2381 169.498 91.3076 170.181C91.3771 170.864 91.4983 171.946 91.5785 172.589C91.6587 173.231 91.7959 174.241 91.885 174.837C91.9741 175.434 92.1292 176.366 92.2272 176.911C92.3252 177.456 92.4945 178.305 92.6014 178.798C92.7084 179.29 92.8901 180.049 93.006 180.483C93.1218 180.917 93.3143 181.581 93.4355 181.955C93.5567 182.329 93.7634 182.889 93.8917 183.191C94.02 183.492 94.2357 183.951 94.3711 184.191C94.518 184.452 94.6842 184.702 94.8684 184.938C94.9979 185.095 95.141 185.241 95.2961 185.374C95.4322 185.463 95.5813 185.531 95.7381 185.575C95.9139 185.616 96.0969 185.616 96.2727 185.575C96.467 185.511 96.648 185.413 96.8074 185.286C96.9974 185.115 97.1682 184.924 97.3171 184.717C97.4995 184.451 97.6638 184.174 97.809 183.886C97.9426 183.621 98.1547 183.134 98.2812 182.802C98.4078 182.471 98.6092 181.876 98.7286 181.482C98.848 181.089 99.0387 180.391 99.1509 179.938C99.2632 179.484 99.4397 178.702 99.5448 178.183C99.65 177.665 99.8121 176.794 99.9012 176.242C99.9903 175.69 100.145 174.719 100.233 174.108C100.32 173.497 100.452 172.461 100.529 171.814C100.605 171.166 100.719 170.049 100.785 169.357C100.851 168.665 100.949 167.49 101.004 166.757C101.06 166.025 101.136 164.794 101.183 164.028C101.229 163.262 101.284 161.983 101.313 161.185C101.341 160.387 101.377 159.291 101.389 158.746C101.402 158.201 101.418 157.069 101.425 156.231C101.432 155.392 101.425 154.023 101.425 153.186C101.425 152.35 101.395 150.996 101.375 150.186C101.355 149.376 101.309 148.068 101.275 147.275C101.241 146.483 101.176 145.224 101.129 144.469C101.083 143.714 100.997 142.503 100.938 141.783C100.88 141.063 100.776 139.912 100.707 139.227C100.637 138.542 100.516 137.462 100.436 136.82C100.356 136.177 100.218 135.168 100.129 134.573C100.04 133.978 99.8852 133.044 99.7872 132.499C99.6892 131.954 99.5199 131.105 99.4129 130.612C99.306 130.12 99.1242 129.361 99.0102 128.927C98.8961 128.493 98.7 127.829 98.5789 127.455C98.4577 127.081 98.2509 126.521 98.1226 126.219C97.9943 125.918 97.7822 125.445 97.6397 125.199C97.4912 124.94 97.3245 124.691 97.1406 124.454C97.0121 124.296 96.8689 124.15 96.7129 124.018C96.5769 123.929 96.4278 123.86 96.2709 123.815C96.0951 123.775 95.9121 123.775 95.7363 123.815C95.542 123.88 95.361 123.978 95.2016 124.105C95.0125 124.277 94.8417 124.467 94.6919 124.673C94.5099 124.94 94.3456 125.218 94.2001 125.506C94.0664 125.771 93.8543 126.258 93.7278 126.59C93.6012 126.922 93.3998 127.515 93.2804 127.91C93.161 128.306 92.9703 128.999 92.8581 129.455C92.7458 129.91 92.5693 130.69 92.4642 131.209C92.3591 131.728 92.1969 132.596 92.1078 133.159C92.0187 133.722 91.8636 134.682 91.7763 135.293C91.689 135.904 91.5571 136.94 91.4822 137.587C91.4074 138.235 91.2898 139.352 91.2238 140.046C91.1579 140.74 91.0598 141.912 91.0064 142.646C90.9529 143.38 90.8727 144.607 90.8282 145.375C90.7836 146.142 90.7266 147.42 90.6981 148.216C90.6696 149.012 90.6339 150.112 90.6214 150.657C90.609 151.202 90.5965 152.341 90.5894 153.179Z" stroke="#4D4D4C" stroke-miterlimit="10"/>
<path opacity="0.6" d="M69.0195 148.864C68.6934 149.637 68.173 150.904 67.8611 151.677C67.5492 152.45 67.0573 153.7 66.7686 154.452C66.4799 155.204 66.0272 156.414 65.7617 157.142C65.4962 157.869 65.0809 159.035 64.8385 159.734C64.5962 160.433 64.2237 161.549 64.0062 162.216C63.7888 162.883 63.4573 163.944 63.2666 164.576C63.076 165.207 62.7855 166.208 62.6215 166.799C62.4575 167.391 62.2098 168.326 62.0726 168.877C61.9354 169.427 61.734 170.289 61.6253 170.794C61.5165 171.298 61.3615 172.082 61.2813 172.536C61.2011 172.989 61.0942 173.692 61.0443 174.094C60.9944 174.496 60.9356 175.107 60.916 175.453C60.8964 175.799 60.8874 176.316 60.8981 176.602C60.912 176.912 60.9441 177.221 60.9944 177.527C61.042 177.763 61.1143 177.994 61.21 178.215C61.2778 178.361 61.366 178.496 61.472 178.618C61.5773 178.702 61.6984 178.766 61.8284 178.805C62.0047 178.842 62.1868 178.842 62.3631 178.805C62.5859 178.743 62.7997 178.653 62.9993 178.536C63.2541 178.377 63.4971 178.2 63.7264 178.007C63.9385 177.831 64.3021 177.477 64.5356 177.237C64.769 176.997 65.1647 176.544 65.4266 176.237C65.6886 175.93 66.1074 175.382 66.3783 175.017C66.6492 174.652 67.1019 174.011 67.387 173.591C67.6722 173.171 68.1498 172.442 68.4564 171.969C68.7629 171.496 69.253 170.688 69.5613 170.167C69.8696 169.646 70.3865 168.755 70.7055 168.197C71.0245 167.64 71.5502 166.674 71.8764 166.069C72.2025 165.463 72.7389 164.441 73.0704 163.799C73.4019 163.157 73.9437 162.075 74.2769 161.397C74.6102 160.719 75.1573 159.584 75.4906 158.877C75.8239 158.169 76.371 156.986 76.7043 156.25C77.0375 155.514 77.4884 154.499 77.7076 153.996C77.9268 153.493 78.376 152.447 78.7003 151.672C79.0247 150.897 79.5486 149.632 79.8605 148.859C80.1724 148.086 80.6625 146.836 80.9512 146.084C81.2399 145.332 81.6944 144.121 81.9599 143.394C82.2255 142.667 82.6336 141.506 82.8724 140.8C83.1112 140.094 83.489 138.992 83.7029 138.329C83.9167 137.665 84.2518 136.601 84.4425 135.969C84.6332 135.337 84.9237 134.336 85.0876 133.745C85.2516 133.154 85.4993 132.218 85.6348 131.668C85.7702 131.117 85.9734 130.256 86.0821 129.753C86.1908 129.25 86.3459 128.464 86.4261 128.009C86.5063 127.554 86.6132 126.853 86.6649 126.451C86.7166 126.048 86.7736 125.437 86.7932 125.092C86.8128 124.746 86.8217 124.23 86.811 123.944C86.7976 123.634 86.7649 123.325 86.713 123.019C86.6661 122.783 86.5945 122.551 86.4991 122.329C86.43 122.184 86.3419 122.049 86.2371 121.927C86.1317 121.842 86.0106 121.779 85.8807 121.74C85.7045 121.703 85.5223 121.703 85.3461 121.74C85.1231 121.803 84.9088 121.893 84.708 122.008C84.4541 122.168 84.2118 122.345 83.9827 122.538C83.7706 122.714 83.4071 123.067 83.1736 123.307C82.9401 123.547 82.5427 124.001 82.2825 124.308C82.0223 124.615 81.6035 125.162 81.3326 125.528C81.0617 125.893 80.609 126.535 80.3239 126.955C80.0387 127.375 79.5593 128.104 79.2546 128.576C78.9498 129.047 78.4579 129.857 78.1478 130.378C77.8377 130.898 77.3245 131.79 77.0055 132.349C76.6864 132.909 76.1589 133.871 75.8328 134.467C75.5067 135.064 74.9702 136.094 74.6405 136.739C74.3108 137.383 73.7672 138.463 73.4322 139.139C73.0971 139.815 72.5536 140.952 72.2185 141.659C71.8835 142.367 71.3399 143.55 71.0066 144.286C70.6734 145.022 70.2225 146.036 70.0015 146.541C69.7805 147.046 69.3457 148.091 69.0195 148.864Z" stroke="#4D4D4C" stroke-miterlimit="10"/>
<path opacity="0.7" d="M50.7327 136.578C50.1374 137.169 49.1733 138.138 48.5941 138.731C48.0149 139.324 47.0846 140.279 46.5321 140.849C45.9796 141.419 45.1064 142.351 44.586 142.907C44.0656 143.463 43.244 144.356 42.7574 144.891C42.2709 145.426 41.5099 146.282 41.059 146.792C40.6081 147.302 39.906 148.114 39.4943 148.597C39.0826 149.081 38.4428 149.847 38.0685 150.301C37.6943 150.754 37.1258 151.469 36.7961 151.889C36.4664 152.309 35.9638 152.971 35.6804 153.356C35.3971 153.74 34.9675 154.342 34.727 154.69C34.4864 155.038 34.137 155.573 33.9446 155.881C33.7521 156.19 33.483 156.658 33.3422 156.923C33.2014 157.187 33.0125 157.583 32.9234 157.805C32.8307 158.035 32.755 158.271 32.697 158.511C32.6621 158.685 32.6537 158.864 32.6721 159.041C32.6891 159.151 32.7304 159.256 32.7933 159.348C32.88 159.419 32.9827 159.468 33.0927 159.491C33.2696 159.521 33.4504 159.521 33.6273 159.491C33.8761 159.442 34.1205 159.374 34.358 159.286C34.5844 159.203 34.9943 159.021 35.267 158.885C35.5396 158.749 36.0262 158.483 36.3363 158.296C36.6464 158.109 37.2095 157.766 37.5695 157.53C37.9295 157.293 38.5479 156.875 38.9454 156.596C39.3428 156.317 40.0147 155.827 40.4531 155.505C40.8915 155.184 41.6186 154.623 42.082 154.27C42.5454 153.917 43.3295 153.289 43.8161 152.89C44.3026 152.491 45.1313 151.813 45.6481 151.381C46.165 150.948 47.0258 150.218 47.5622 149.753C48.0986 149.289 48.9879 148.507 49.5475 148.015C50.1071 147.523 51.025 146.696 51.5953 146.178C52.1656 145.659 53.1066 144.79 53.6875 144.248C54.2685 143.707 55.2273 142.801 55.8262 142.238C56.425 141.675 57.2234 140.899 57.619 140.512C58.0147 140.126 58.8273 139.326 59.4226 138.735C60.0178 138.143 60.982 137.173 61.5612 136.581C62.1404 135.99 63.0689 135.034 63.6214 134.464C64.1739 133.893 65.0471 132.962 65.5693 132.404C66.0915 131.846 66.9095 130.955 67.3961 130.42C67.8826 129.885 68.6436 129.031 69.0945 128.521C69.5454 128.011 70.2475 127.197 70.6592 126.714C71.0709 126.23 71.7107 125.466 72.085 125.012C72.4592 124.559 73.0295 123.844 73.3574 123.424C73.6854 123.004 74.1897 122.344 74.4749 121.957C74.76 121.57 75.1877 120.972 75.4266 120.624C75.6654 120.277 76.0182 119.742 76.2089 119.431C76.3996 119.121 76.6705 118.656 76.8113 118.392C76.9521 118.127 77.141 117.732 77.2301 117.509C77.3226 117.28 77.3982 117.044 77.4565 116.803C77.4914 116.629 77.4998 116.451 77.4814 116.274C77.4652 116.163 77.4238 116.057 77.3602 115.965C77.2735 115.895 77.1716 115.846 77.0626 115.822C76.8855 115.794 76.705 115.794 76.5279 115.822C76.2794 115.871 76.0351 115.94 75.7973 116.027C75.5709 116.111 75.161 116.291 74.8883 116.429C74.6157 116.567 74.1291 116.83 73.819 117.017C73.5089 117.204 72.9458 117.546 72.5858 117.783C72.2258 118.019 71.6074 118.438 71.2099 118.717C70.8125 118.995 70.1406 119.488 69.7022 119.809C69.2638 120.13 68.5384 120.692 68.0751 121.045C67.6117 121.397 66.8275 122.026 66.3392 122.423C65.8509 122.82 65.024 123.5 64.5089 123.932C63.9939 124.364 63.1313 125.097 62.5931 125.561C62.0549 126.025 61.1673 126.805 60.6077 127.298C60.0481 127.79 59.1303 128.618 58.5618 129.137C57.9933 129.656 57.0487 130.522 56.4677 131.066C55.8868 131.61 54.9279 132.511 54.338 133.076C53.7481 133.641 52.9426 134.416 52.5452 134.801C52.1477 135.185 51.3315 135.985 50.7327 136.578Z" stroke="#4D4D4C" stroke-miterlimit="10"/>
<path opacity="0.8" d="M38.5175 118.189C37.7405 118.51 36.4805 119.034 35.7195 119.355C34.9585 119.677 33.7377 120.192 33.0106 120.504C32.2834 120.817 31.125 121.316 30.4353 121.618C29.7456 121.92 28.6531 122.402 28.0044 122.691C27.3557 122.981 26.331 123.443 25.725 123.72C25.1191 123.997 24.1692 124.437 23.6113 124.698C23.0535 124.959 22.1856 125.374 21.6688 125.619C21.1519 125.865 20.3696 126.251 19.9115 126.479C19.4535 126.706 18.7513 127.063 18.3486 127.273C17.9458 127.483 17.3345 127.803 16.9888 127.995C16.643 128.187 16.1298 128.473 15.8446 128.639C15.5595 128.805 15.146 129.059 14.9232 129.202C14.7005 129.345 14.3886 129.555 14.2371 129.679C14.0818 129.797 13.9342 129.925 13.7951 130.062C13.717 130.144 13.6564 130.241 13.6169 130.348C13.6083 130.375 13.6062 130.405 13.6108 130.434C13.6154 130.462 13.6267 130.49 13.6436 130.514C13.7223 130.556 13.8091 130.583 13.8985 130.591C14.0763 130.607 14.2553 130.607 14.4331 130.591C14.6113 130.575 14.9678 130.526 15.2262 130.48C15.4846 130.434 15.9391 130.337 16.2581 130.263C16.5771 130.189 17.1385 130.046 17.5145 129.945C17.8906 129.845 18.55 129.658 18.9812 129.53C19.4125 129.403 20.1593 129.177 20.6422 129.024C21.1252 128.87 21.9521 128.607 22.4832 128.434C23.0143 128.261 23.909 127.958 24.4882 127.762C25.0674 127.566 26.0315 127.232 26.6446 127.015C27.2577 126.798 28.2878 126.433 28.9347 126.2C29.5816 125.967 30.667 125.57 31.346 125.317C32.025 125.065 33.1567 124.643 33.8624 124.377C34.5682 124.11 35.7408 123.671 36.468 123.383C37.1951 123.095 38.4034 122.633 39.1502 122.338C39.8969 122.043 41.1319 121.556 41.8929 121.251L44.2098 120.317C44.723 120.109 45.7781 119.675 46.5551 119.355C47.3321 119.036 48.5904 118.51 49.3531 118.189C50.1159 117.868 51.3349 117.352 52.062 117.04C52.7892 116.727 53.9476 116.228 54.6355 115.926C55.3234 115.624 56.4177 115.142 57.0682 114.853C57.7187 114.564 58.7416 114.099 59.3458 113.824C59.95 113.549 60.9034 113.107 61.4613 112.846C62.0191 112.585 62.887 112.17 63.402 111.925C63.9171 111.68 64.703 111.293 65.1593 111.065C65.6155 110.838 66.3212 110.479 66.724 110.271C67.1268 110.063 67.7381 109.742 68.082 109.549C68.426 109.357 68.9428 109.071 69.228 108.905C69.5131 108.739 69.9266 108.485 70.1476 108.342C70.3686 108.199 70.6822 107.989 70.8355 107.865C70.9903 107.747 71.1373 107.619 71.2757 107.482C71.3536 107.4 71.4142 107.303 71.4539 107.197C71.4626 107.169 71.4646 107.139 71.46 107.111C71.4554 107.082 71.4441 107.054 71.4272 107.031C71.3478 106.988 71.2605 106.961 71.1706 106.953C70.9927 106.937 70.8137 106.937 70.6359 106.953C70.4577 106.969 70.1012 107.018 69.8428 107.064C69.5844 107.11 69.13 107.207 68.811 107.281C68.4919 107.355 67.9199 107.498 67.5545 107.599C67.1892 107.7 66.5191 107.887 66.0878 108.014C65.6565 108.141 64.9098 108.367 64.4268 108.52C63.9438 108.674 63.1151 108.937 62.5858 109.11C62.0565 109.283 61.1601 109.586 60.5791 109.782C59.9981 109.978 59.0357 110.312 58.4244 110.529C57.8131 110.746 56.7812 111.111 56.1325 111.344C55.4838 111.577 54.4003 111.974 53.7213 112.227C53.0422 112.479 51.9106 112.901 51.2066 113.166C50.5026 113.43 49.3282 113.88 48.5993 114.161C47.8704 114.442 46.6692 114.911 45.9207 115.208C45.1721 115.504 43.9407 115.99 43.1797 116.295C42.4187 116.6 41.3743 117.02 40.8628 117.229C40.3513 117.437 39.2927 117.869 38.5175 118.189Z" stroke="#4D4D4C" stroke-miterlimit="10"/>
<path d="M38.5175 74.8095C37.7405 74.4882 36.4805 73.964 35.7195 73.6428C34.9585 73.3216 33.7377 72.8062 33.0106 72.4938C32.2834 72.1814 31.125 71.6819 30.4353 71.3801C29.7456 71.0783 28.6531 70.5965 28.0044 70.307C27.3557 70.0176 26.331 69.5552 25.725 69.2781C25.1191 69.001 24.1692 68.5615 23.6113 68.3003C23.0535 68.0391 22.1856 67.6243 21.6688 67.379C21.1519 67.1336 20.3696 66.7471 19.9115 66.5194C19.4535 66.2917 18.7513 65.9352 18.3486 65.7252C17.9458 65.5152 17.3345 65.1957 16.9888 65.0033C16.643 64.8109 16.1298 64.525 15.8446 64.3591C15.5595 64.1932 15.146 63.939 14.9232 63.7961C14.7005 63.6531 14.3886 63.4431 14.2371 63.3195C14.0818 63.2012 13.9342 63.0733 13.7951 62.9365C13.717 62.854 13.6564 62.7567 13.6169 62.6506C13.6083 62.6228 13.6062 62.5934 13.6108 62.5646C13.6154 62.5358 13.6267 62.5085 13.6436 62.4847C13.7223 62.4419 13.8091 62.4154 13.8985 62.4071C14.0763 62.391 14.2553 62.391 14.4331 62.4071C14.6113 62.4229 14.9678 62.4724 15.2262 62.5182C15.4846 62.5641 15.9391 62.6612 16.2581 62.7353C16.5771 62.8095 17.1385 62.9524 17.5145 63.053C17.8906 63.1536 18.55 63.3407 18.9812 63.4678C19.4125 63.5949 20.1593 63.8208 20.6422 63.9743C21.1252 64.1279 21.9521 64.3909 22.4832 64.5638C23.0143 64.7368 23.909 65.0404 24.4882 65.2363C25.0674 65.4322 26.0315 65.7658 26.6446 65.9829C27.2577 66.2 28.2878 66.5653 28.9347 66.7983C29.5816 67.0313 30.667 67.4284 31.346 67.6808C32.025 67.9332 33.1567 68.355 33.8624 68.6215C34.5682 68.888 35.7408 69.3275 36.468 69.6152C37.1951 69.9029 38.4034 70.3653 39.1502 70.66C39.8969 70.9548 41.1319 71.4419 41.8929 71.7473L44.2098 72.6809C44.723 72.8892 45.7781 73.3234 46.5551 73.6428C47.3321 73.9623 48.5904 74.4882 49.3531 74.8095C50.1159 75.1307 51.3349 75.6461 52.062 75.9585C52.7892 76.2709 53.9476 76.7703 54.6355 77.0721C55.3234 77.374 56.4177 77.8558 57.0682 78.1452C57.7187 78.4347 58.7416 78.8989 59.3458 79.1742C59.95 79.4496 60.9034 79.8908 61.4613 80.152C62.0191 80.4132 62.887 80.828 63.402 81.0733C63.9171 81.3187 64.703 81.7052 65.1593 81.9329C65.6155 82.1605 66.3212 82.5188 66.724 82.7271C67.1268 82.9354 67.7381 83.2566 68.082 83.449C68.426 83.6413 68.9428 83.9273 69.228 84.0932C69.5131 84.2591 69.9266 84.5132 70.1476 84.6562C70.3686 84.7992 70.6822 85.0092 70.8355 85.1327C70.9903 85.251 71.1373 85.379 71.2757 85.5157C71.3536 85.5985 71.4142 85.6956 71.4539 85.8017C71.4626 85.8295 71.4646 85.8589 71.46 85.8877C71.4554 85.9165 71.4441 85.9438 71.4272 85.9676C71.3478 86.0104 71.2605 86.0368 71.1706 86.0452C70.9927 86.0614 70.8137 86.0614 70.6359 86.0452C70.4577 86.0294 70.1012 85.9799 69.8428 85.934C69.5844 85.8882 69.13 85.7911 68.811 85.7169C68.4919 85.6428 67.9199 85.4999 67.5545 85.3993C67.1892 85.2986 66.5191 85.1116 66.0878 84.9845C65.6565 84.8574 64.9098 84.6315 64.4268 84.4779C63.9438 84.3244 63.1151 84.0614 62.5858 83.8884C62.0565 83.7155 61.1601 83.4119 60.5791 83.216C59.9981 83.0201 59.0357 82.6865 58.4244 82.4694C57.8131 82.2523 56.7812 81.887 56.1325 81.654C55.4838 81.421 54.4003 81.0239 53.7213 80.7715C53.0422 80.5191 51.9106 80.0973 51.2066 79.8326C50.5026 79.5678 49.3282 79.1177 48.5993 78.8371C47.8704 78.5565 46.6692 78.087 45.9207 77.7905C45.1721 77.494 43.9407 77.0086 43.1797 76.7033C42.4187 76.3979 41.3743 75.9779 40.8628 75.7696C40.3513 75.5613 39.2927 75.1289 38.5175 74.8095Z" stroke="#4D4D4C" stroke-miterlimit="10"/>
<path d="M50.7327 56.4203C50.1374 55.829 49.1733 54.86 48.5941 54.267C48.0149 53.674 47.0846 52.7191 46.5321 52.1491C45.9796 51.579 45.1064 50.6471 44.586 50.0911C44.0656 49.5351 43.244 48.6421 42.7574 48.1073C42.2709 47.5725 41.5099 46.7165 41.059 46.2064C40.6081 45.6963 39.906 44.8845 39.4943 44.4009C39.0826 43.9173 38.4428 43.1513 38.0685 42.6977C37.6943 42.2441 37.1258 41.5293 36.7961 41.1092C36.4664 40.6891 35.9638 40.0273 35.6804 39.6425C35.3971 39.2577 34.9675 38.6559 34.727 38.3082C34.4864 37.9605 34.137 37.4257 33.9446 37.1168C33.7521 36.808 33.483 36.3403 33.3422 36.0755C33.2014 35.8108 33.0125 35.4154 32.9234 35.193C32.8307 34.9635 32.755 34.7275 32.697 34.487C32.6621 34.3128 32.6537 34.1343 32.6721 33.9576C32.6891 33.8476 32.7304 33.7427 32.7933 33.6505C32.88 33.5796 32.9827 33.5306 33.0927 33.5075C33.2696 33.4771 33.4504 33.4771 33.6273 33.5075C33.8761 33.5559 34.1205 33.6243 34.358 33.7122C34.5844 33.7952 34.9943 33.977 35.267 34.1129C35.5396 34.2488 36.0262 34.5153 36.3363 34.7024C36.6464 34.8895 37.2095 35.2319 37.5695 35.4684C37.9295 35.7049 38.5479 36.1232 38.9454 36.402C39.3428 36.6809 40.0147 37.1716 40.4531 37.4928C40.8915 37.814 41.6186 38.3753 42.082 38.7283C42.5454 39.0812 43.3295 39.7096 43.8161 40.1085C44.3026 40.5073 45.1313 41.1851 45.6481 41.6175C46.165 42.0499 47.0258 42.7806 47.5622 43.2448C48.0986 43.709 48.9879 44.4909 49.5475 44.9833C50.1071 45.4757 51.025 46.3017 51.5953 46.8206C52.1656 47.3395 53.1066 48.2079 53.6875 48.7497C54.2685 49.2916 55.2273 50.197 55.8262 50.76C56.425 51.3231 57.2234 52.0996 57.619 52.4862C58.0147 52.8727 58.8273 53.6722 59.4226 54.2635C60.0178 54.8547 60.982 55.8255 61.5612 56.4167C62.1404 57.008 63.0689 57.9646 63.6214 58.5347C64.1739 59.1048 65.0471 60.0367 65.5693 60.5944C66.0915 61.1521 66.9095 62.0435 67.3961 62.5782C67.8826 63.113 68.6436 63.9673 69.0945 64.4773C69.5454 64.9874 70.2475 65.8011 70.6592 66.2847C71.0709 66.7683 71.7107 67.5325 72.085 67.9861C72.4592 68.4397 73.0295 69.1545 73.3574 69.5746C73.6854 69.9946 74.1897 70.6547 74.4749 71.0412C74.76 71.4278 75.1877 72.0261 75.4266 72.3738C75.6654 72.7215 76.0182 73.2563 76.2089 73.5669C76.3996 73.8775 76.6705 74.3417 76.8113 74.6065C76.9521 74.8712 77.141 75.2666 77.2301 75.489C77.3226 75.7186 77.3982 75.9545 77.4565 76.195C77.4914 76.3692 77.4998 76.5477 77.4814 76.7244C77.4652 76.8352 77.4238 76.9408 77.3602 77.0333C77.2735 77.1031 77.1716 77.152 77.0626 77.1763C76.8855 77.2047 76.705 77.2047 76.5279 77.1763C76.2794 77.1268 76.0351 77.0584 75.7973 76.9715C75.5709 76.8868 75.161 76.7068 74.8883 76.5691C74.6157 76.4315 74.1291 76.1685 73.819 75.9814C73.5089 75.7943 72.9458 75.4519 72.5858 75.2154C72.2258 74.9789 71.6074 74.5606 71.2099 74.2817C70.8125 74.0029 70.1406 73.5104 69.7022 73.1892C69.2638 72.868 68.5384 72.3067 68.0751 71.9537C67.6117 71.6007 66.8275 70.9724 66.3392 70.5753C65.8509 70.1782 65.024 69.4987 64.5089 69.0663C63.9939 68.6338 63.1313 67.9014 62.5931 67.4372C62.0549 66.973 61.1673 66.1929 60.6077 65.7005C60.0481 65.208 59.1303 64.3803 58.5618 63.8614C57.9933 63.3425 57.0487 62.4759 56.4677 61.9323C55.8868 61.3887 54.9279 60.4868 54.338 59.922C53.7481 59.3572 52.9426 58.5824 52.5452 58.1976C52.1477 57.8128 51.3315 57.0133 50.7327 56.4203Z" stroke="#4D4D4C" stroke-miterlimit="10"/>
<path d="M69.0195 44.1344C68.6934 43.3613 68.173 42.0941 67.8611 41.321C67.5492 40.548 67.0573 39.2984 66.7686 38.5465C66.4799 37.7946 66.0272 36.5838 65.7617 35.8567C65.4962 35.1295 65.0809 33.9629 64.8385 33.2639C64.5962 32.565 64.2237 31.4496 64.0062 30.7824C63.7888 30.1152 63.4573 29.0545 63.2666 28.4226C63.076 27.7908 62.7855 26.7901 62.6215 26.1988C62.4575 25.6075 62.2098 24.6721 62.0726 24.1214C61.9354 23.5708 61.734 22.7094 61.6253 22.2047C61.5165 21.6999 61.3615 20.9162 61.2813 20.4626C61.2011 20.0091 61.0942 19.3066 61.0443 18.9042C60.9944 18.5018 60.9356 17.8911 60.916 17.5452C60.8964 17.1992 60.8874 16.6821 60.8981 16.3962C60.912 16.0863 60.9441 15.7775 60.9944 15.4713C61.042 15.2351 61.1143 15.0044 61.21 14.783C61.2778 14.6373 61.366 14.5019 61.472 14.3806C61.5773 14.2958 61.6984 14.2322 61.8284 14.1935C62.0047 14.1564 62.1868 14.1564 62.3631 14.1935C62.5859 14.2555 62.7997 14.3457 62.9993 14.4618C63.2541 14.6209 63.4971 14.7978 63.7264 14.9913C63.9385 15.1678 64.3021 15.5207 64.5356 15.7608C64.769 16.0008 65.1647 16.4544 65.4266 16.7615C65.6886 17.0686 66.1074 17.6158 66.3783 17.9811C66.6492 18.3465 67.1019 18.9871 67.387 19.4072C67.6722 19.8273 68.1498 20.5562 68.4564 21.0292C68.7629 21.5022 69.253 22.3106 69.5613 22.8312C69.8696 23.3519 70.3865 24.2432 70.7055 24.8009C71.0245 25.3587 71.5502 26.3241 71.8764 26.9295C72.2025 27.5349 72.7389 28.5568 73.0704 29.1992C73.4019 29.8417 73.9437 30.9236 74.2769 31.6013C74.6102 32.2791 75.1573 33.414 75.4906 34.1217C75.8239 34.8295 76.371 36.012 76.7043 36.748C77.0375 37.484 77.4884 38.4988 77.7076 39.0018C77.9268 39.5049 78.376 40.5515 78.7003 41.3263C79.0247 42.1011 79.5486 43.3666 79.8605 44.1397C80.1724 44.9127 80.6625 46.1623 80.9512 46.9142C81.2399 47.6661 81.6944 48.8768 81.9599 49.604C82.2255 50.3312 82.6336 51.4925 82.8724 52.1985C83.1112 52.9045 83.489 54.0058 83.7029 54.6694C83.9167 55.3331 84.2518 56.3973 84.4425 57.0292C84.6332 57.6611 84.9237 58.6618 85.0876 59.2531C85.2516 59.8443 85.4993 60.7798 85.6348 61.3304C85.7702 61.8811 85.9734 62.7424 86.0821 63.2454C86.1908 63.7484 86.3459 64.5338 86.4261 64.9892C86.5063 65.4446 86.6132 66.1452 86.6649 66.5477C86.7166 66.9501 86.7736 67.5608 86.7932 67.9067C86.8128 68.2526 86.8217 68.768 86.811 69.0539C86.7976 69.3639 86.7649 69.6728 86.713 69.9788C86.6661 70.2155 86.5945 70.4468 86.4991 70.6689C86.43 70.8138 86.3419 70.9491 86.2371 71.0713C86.1317 71.1559 86.0106 71.2194 85.8807 71.2584C85.7045 71.2957 85.5223 71.2957 85.3461 71.2584C85.1231 71.1952 84.9088 71.1051 84.708 70.9901C84.4541 70.8305 84.2118 70.6535 83.9827 70.4606C83.7706 70.2841 83.4071 69.9311 83.1736 69.6911C82.9401 69.451 82.5427 68.9974 82.2825 68.6903C82.0223 68.3832 81.6035 67.8361 81.3326 67.4707C81.0617 67.1054 80.609 66.4629 80.3239 66.0429C80.0387 65.6228 79.5593 64.8939 79.2546 64.4226C78.9498 63.9514 78.4579 63.1413 78.1478 62.6206C77.8377 62.0999 77.3245 61.2086 77.0055 60.6491C76.6864 60.0897 76.1589 59.1277 75.8328 58.5312C75.5067 57.9346 74.9702 56.9039 74.6405 56.2597C74.3108 55.6155 73.7672 54.5353 73.4322 53.8593C73.0971 53.1833 72.5536 52.0467 72.2185 51.339C71.8835 50.6312 71.3399 49.4487 71.0066 48.7127C70.6734 47.9767 70.2225 46.9618 70.0015 46.4571C69.7805 45.9523 69.3457 44.9074 69.0195 44.1344Z" stroke="#4D4D4C" stroke-miterlimit="10"/>
<path d="M90.5894 39.819C90.5894 38.9824 90.5894 37.611 90.5894 36.7744C90.5894 35.9379 90.6196 34.5859 90.6393 33.774C90.6589 32.9621 90.7052 31.656 90.7391 30.8636C90.7729 30.0711 90.8389 28.8145 90.8852 28.0573C90.9315 27.3001 91.0171 26.0929 91.0759 25.371C91.1347 24.6491 91.2381 23.5001 91.3076 22.8171C91.3771 22.1341 91.4983 21.0521 91.5785 20.4097C91.6587 19.7672 91.7959 18.7577 91.885 18.1611C91.9741 17.5646 92.1292 16.6327 92.2272 16.0873C92.3252 15.5419 92.4945 14.693 92.6014 14.2005C92.7084 13.7081 92.8901 12.9492 93.006 12.515C93.1218 12.0808 93.3143 11.4172 93.4355 11.043C93.5567 10.6688 93.7634 10.1093 93.8917 9.80754C94.02 9.50573 94.2357 9.04684 94.3711 8.8068C94.518 8.54607 94.6842 8.29653 94.8684 8.06022C94.9979 7.90289 95.141 7.75702 95.2961 7.62428C95.4322 7.53534 95.5813 7.46749 95.7381 7.42307C95.9139 7.38217 96.0969 7.38217 96.2727 7.42307C96.467 7.48716 96.648 7.5852 96.8074 7.71252C96.9974 7.88332 97.1682 8.07385 97.3171 8.28084C97.4995 8.54681 97.6638 8.82453 97.809 9.11214C97.9426 9.37689 98.1547 9.86402 98.2812 10.1958C98.4078 10.5276 98.6092 11.1224 98.7286 11.516C98.848 11.9096 99.0387 12.6068 99.1509 13.0604C99.2632 13.514 99.4397 14.3047 99.5448 14.8147C99.65 15.3248 99.8121 16.2038 99.9012 16.765C99.9903 17.3263 100.145 18.2882 100.233 18.8989C100.32 19.5096 100.452 20.5456 100.529 21.2022C100.605 21.8587 100.719 22.9671 100.785 23.659C100.851 24.3509 100.949 25.5263 101.004 26.2588C101.06 26.9912 101.136 28.2214 101.183 28.9874C101.229 29.7534 101.284 31.033 101.313 31.8308C101.341 32.6285 101.377 33.7246 101.389 34.27C101.402 34.8153 101.418 35.9467 101.425 36.785C101.432 37.6234 101.425 38.993 101.425 39.8296C101.425 40.6662 101.395 42.0199 101.375 42.83C101.355 43.6402 101.309 44.948 101.275 45.7405C101.241 46.5329 101.176 47.7914 101.129 48.5468C101.083 49.3022 100.997 50.5129 100.938 51.233C100.88 51.9531 100.776 53.1039 100.707 53.7887C100.637 54.4735 100.516 55.5537 100.436 56.1961C100.356 56.8386 100.218 57.8481 100.129 58.4429C100.04 59.0377 99.8852 59.9714 99.7872 60.5168C99.6892 61.0621 99.5199 61.9111 99.4129 62.4035C99.306 62.8959 99.1242 63.6549 99.0102 64.0891C98.8961 64.5232 98.7 65.1869 98.5789 65.561C98.4577 65.9352 98.2509 66.4947 98.1226 66.7965C97.9943 67.0983 97.7822 67.5537 97.6397 67.799C97.4912 68.0586 97.3245 68.3075 97.1406 68.5438C97.0121 68.702 96.8689 68.848 96.7129 68.9798C96.5769 69.0693 96.4278 69.1378 96.2709 69.1827C96.0951 69.2236 95.9121 69.2236 95.7363 69.1827C95.542 69.1186 95.361 69.0206 95.2016 68.8933C95.0125 68.7217 94.8417 68.5312 94.6919 68.325C94.5099 68.0581 94.3456 67.7799 94.2001 67.4919C94.0664 67.2272 93.8543 66.74 93.7278 66.4082C93.6012 66.0764 93.3998 65.4834 93.2804 65.088C93.161 64.6927 92.9703 63.999 92.8581 63.5437C92.7458 63.0883 92.5693 62.3082 92.4642 61.7893C92.3591 61.2704 92.1969 60.402 92.1078 59.839C92.0187 59.276 91.8636 58.3159 91.7763 57.7052C91.689 57.0945 91.5571 56.0585 91.4822 55.4107C91.4074 54.763 91.2898 53.6457 91.2238 52.9521C91.1579 52.2585 91.0598 51.0866 91.0064 50.3523C90.9529 49.6181 90.8727 48.3914 90.8282 47.6237C90.7836 46.8559 90.7266 45.5781 90.6981 44.7821C90.6696 43.9861 90.6339 42.8865 90.6214 42.3411C90.609 41.7958 90.5965 40.6574 90.5894 39.819Z" stroke="#4D4D4C" stroke-miterlimit="10"/>
<path d="M112.157 44.1344C112.469 43.3613 112.991 42.0941 113.317 41.321C113.644 40.548 114.18 39.2984 114.512 38.5465C114.843 37.7946 115.385 36.5838 115.718 35.8567C116.051 35.1295 116.598 33.9629 116.932 33.2639C117.265 32.565 117.812 31.4496 118.144 30.7824C118.475 30.1152 119.019 29.0545 119.348 28.4226C119.678 27.7908 120.211 26.7901 120.535 26.1988C120.86 25.6075 121.382 24.6721 121.697 24.1214C122.013 23.5708 122.522 22.7094 122.829 22.2047C123.135 21.6999 123.627 20.9162 123.921 20.4626C124.215 20.0091 124.686 19.3066 124.966 18.9042C125.246 18.5018 125.693 17.8911 125.957 17.5452C126.22 17.1992 126.639 16.6821 126.887 16.3962C127.135 16.1102 127.52 15.6902 127.746 15.4713C127.995 15.229 128.256 14.9993 128.528 14.783C128.717 14.6367 128.916 14.5023 129.122 14.3806C129.287 14.2994 129.46 14.2366 129.639 14.1935C129.815 14.1564 129.997 14.1564 130.173 14.1935C130.332 14.2478 130.476 14.34 130.59 14.4618C130.715 14.6222 130.815 14.8008 130.884 14.9913C130.966 15.2421 131.026 15.4996 131.063 15.7608C131.1 16.0931 131.12 16.4271 131.121 16.7615C131.121 17.0669 131.096 17.6158 131.066 17.9811C131.036 18.3465 130.961 18.9871 130.902 19.4072C130.843 19.8273 130.724 20.5562 130.628 21.0292C130.532 21.5022 130.368 22.3106 130.25 22.8312C130.132 23.3519 129.915 24.2432 129.769 24.8009C129.623 25.3587 129.361 26.3241 129.188 26.9295C129.015 27.5349 128.71 28.5568 128.511 29.1992C128.311 29.8417 127.963 30.9236 127.739 31.6013C127.514 32.2791 127.126 33.414 126.876 34.1217C126.627 34.8295 126.199 36.012 125.925 36.748C125.65 37.484 125.269 38.4988 125.073 39.0018C124.877 39.5049 124.463 40.5515 124.151 41.3263C123.839 42.1011 123.319 43.3666 122.993 44.1397C122.667 44.9127 122.13 46.1623 121.799 46.9142C121.467 47.6661 120.926 48.8768 120.592 49.604C120.259 50.3312 119.703 51.4925 119.375 52.1985C119.047 52.9045 118.495 54.0129 118.161 54.68C117.828 55.3472 117.288 56.4079 116.958 57.0398C116.629 57.6716 116.096 58.6724 115.772 59.2637C115.447 59.8549 114.925 60.7903 114.608 61.341C114.291 61.8917 113.784 62.753 113.478 63.256C113.171 63.759 112.679 64.5444 112.385 64.9998C112.091 65.4552 111.621 66.1558 111.339 66.5582C111.058 66.9607 110.614 67.5713 110.348 67.9173C110.083 68.2632 109.666 68.7786 109.42 69.0645C109.174 69.3504 108.787 69.7705 108.561 69.9893C108.312 70.2327 108.051 70.463 107.778 70.6794C107.589 70.8258 107.391 70.9602 107.185 71.0819C107.02 71.1628 106.846 71.2255 106.666 71.2689C106.49 71.3063 106.308 71.3063 106.132 71.2689C105.973 71.214 105.83 71.1219 105.715 71.0007C105.589 70.8407 105.49 70.662 105.421 70.4712C105.339 70.2203 105.279 69.9628 105.242 69.7017C105.205 69.3693 105.185 69.0353 105.184 68.7009C105.184 68.3956 105.207 67.8467 105.237 67.4813C105.267 67.116 105.342 66.4735 105.403 66.0535C105.463 65.6334 105.581 64.9045 105.677 64.4332C105.773 63.962 105.937 63.1519 106.055 62.6312C106.173 62.1105 106.39 61.2192 106.536 60.6597C106.682 60.1002 106.944 59.1383 107.117 58.5418C107.29 57.9452 107.595 56.9145 107.794 56.2703C107.994 55.6261 108.342 54.5459 108.566 53.8699C108.791 53.1939 109.179 52.0573 109.429 51.3495C109.678 50.6418 110.106 49.4593 110.379 48.7233C110.651 47.9873 111.036 46.9724 111.231 46.4677C111.425 45.9629 111.847 44.9074 112.157 44.1344Z" fill="black" stroke="white" stroke-width="2" stroke-miterlimit="10" stroke-linecap="square"/>
<path opacity="0.9" d="M66 98H9" stroke="#4D4D4C" stroke-linecap="round"/>
<path opacity="0.1" d="M183 98H126" stroke="#4D4D4C" stroke-linecap="round"/>
</g>
<defs>
<radialGradient id="paint0_angular_823_29005" cx="0" cy="0" r="1" gradientUnits="userSpaceOnUse" gradientTransform="translate(96 96.5) rotate(119.592) scale(79.6436)">
<stop stop-color="#F3B8D8"/>
<stop offset="0.139053" stop-color="#B793E9"/>
<stop offset="0.238718" stop-color="#9FD4F3"/>
<stop offset="0.374927" stop-color="#FFD2C4"/>
<stop offset="0.477914" stop-color="#FBF3F3"/>
<stop offset="0.557645" stop-color="#D9ABDF"/>
<stop offset="0.624089" stop-color="#AF9CE3"/>
<stop offset="0.720431" stop-color="#AAE4E1"/>
<stop offset="0.830062" stop-color="#C6EAD0"/>
<stop offset="0.913116" stop-color="white"/>
<stop offset="1" stop-color="#FDB5E4"/>
</radialGradient>
<clipPath id="clip0_823_29005">
<rect width="180" height="180" fill="white" transform="translate(6 6.5)"/>
</clipPath>
</defs>
</svg>
