<svg width="192" height="193" viewBox="0 0 192 193" fill="none" xmlns="http://www.w3.org/2000/svg">
<path d="M45 42.5C45 42.5 101.4 94.1 45 150.5" stroke="#4D4D4C" stroke-linecap="square"/>
<path d="M150 45.5C150 45.5 98.4 101.9 42 45.5" stroke="#4D4D4C" stroke-linecap="square"/>
<path d="M42 63.5C53.598 63.5 63 54.098 63 42.5C63 30.902 53.598 21.5 42 21.5C30.402 21.5 21 30.902 21 42.5C21 54.098 30.402 63.5 42 63.5Z" fill="black" stroke="#4D4D4C" stroke-linecap="square"/>
<path d="M42 171.5C53.598 171.5 63 162.098 63 150.5C63 138.902 53.598 129.5 42 129.5C30.402 129.5 21 138.902 21 150.5C21 162.098 30.402 171.5 42 171.5Z" fill="black" stroke="#4D4D4C" stroke-linecap="square"/>
<path d="M150 63.5C161.598 63.5 171 54.098 171 42.5C171 30.902 161.598 21.5 150 21.5C138.402 21.5 129 30.902 129 42.5C129 54.098 138.402 63.5 150 63.5Z" fill="black" stroke="#4D4D4C" stroke-linecap="square"/>
<path d="M114 165.5C142.167 165.5 165 142.667 165 114.5C165 86.3335 142.167 63.5 114 63.5C85.8335 63.5 63 86.3335 63 114.5C63 142.667 85.8335 165.5 114 165.5Z" fill="black" stroke="url(#paint0_angular_823_29099)" stroke-width="2" stroke-dasharray="2 2"/>
<path d="M114 147.5C132.225 147.5 147 132.725 147 114.5C147 96.2746 132.225 81.5 114 81.5C95.7746 81.5 81 96.2746 81 114.5C81 132.725 95.7746 147.5 114 147.5Z" stroke="white" stroke-width="2" stroke-miterlimit="10"/>
<path d="M125.73 121.101C125.73 122.641 125.338 124.041 124.554 125.301C123.798 126.561 122.72 127.583 121.32 128.367C119.948 129.123 118.366 129.571 116.574 129.711V133.995H113.382V129.669C110.47 129.333 108.16 128.283 106.452 126.519C104.772 124.755 103.876 122.543 103.764 119.883H107.376C107.516 121.871 108.314 123.467 109.77 124.671C111.226 125.847 113.074 126.435 115.314 126.435C117.33 126.435 118.954 126.001 120.186 125.133C121.446 124.237 122.076 123.005 122.076 121.437C122.076 120.289 121.726 119.379 121.026 118.707C120.354 118.035 119.472 117.545 118.38 117.237C117.316 116.901 115.86 116.579 114.012 116.271C111.072 115.767 108.734 114.941 106.998 113.793C105.262 112.645 104.394 110.783 104.394 108.207C104.394 105.855 105.22 103.923 106.872 102.411C108.524 100.899 110.694 100.045 113.382 99.8494V95.5654H116.574V99.9754C119.094 100.339 121.138 101.319 122.706 102.915C124.274 104.483 125.128 106.443 125.268 108.795H121.656C121.432 107.087 120.662 105.715 119.346 104.679C118.03 103.643 116.392 103.125 114.432 103.125C112.472 103.125 110.918 103.559 109.77 104.427C108.622 105.267 108.048 106.457 108.048 107.997C108.048 109.117 108.384 109.999 109.056 110.643C109.728 111.259 110.596 111.735 111.66 112.071C112.724 112.379 114.18 112.687 116.028 112.995C118.968 113.499 121.32 114.339 123.084 115.515C124.848 116.663 125.73 118.525 125.73 121.101Z" fill="white"/>
<defs>
<radialGradient id="paint0_angular_823_29099" cx="0" cy="0" r="1" gradientUnits="userSpaceOnUse" gradientTransform="translate(114 114.5) rotate(119.592) scale(71.2601)">
<stop stop-color="#F3B8D8"/>
<stop offset="0.139053" stop-color="#B793E9"/>
<stop offset="0.238718" stop-color="#9FD4F3"/>
<stop offset="0.374927" stop-color="#FFD2C4"/>
<stop offset="0.477914" stop-color="#FBF3F3"/>
<stop offset="0.557645" stop-color="#D9ABDF"/>
<stop offset="0.624089" stop-color="#AF9CE3"/>
<stop offset="0.720431" stop-color="#AAE4E1"/>
<stop offset="0.830062" stop-color="#C6EAD0"/>
<stop offset="0.913116" stop-color="white"/>
<stop offset="1" stop-color="#FDB5E4"/>
</radialGradient>
</defs>
</svg>
