<svg width="192" height="193" viewBox="0 0 192 193" fill="none" xmlns="http://www.w3.org/2000/svg">
<path opacity="0.3" d="M96 186.5C145.706 186.5 186 146.206 186 96.5C186 46.7944 145.706 6.5 96 6.5C46.2944 6.5 6 46.7944 6 96.5C6 146.206 46.2944 186.5 96 186.5Z" fill="black" stroke="#4D4D4C" stroke-linecap="square"/>
<path opacity="0.6" d="M96 174.5C139.078 174.5 174 139.578 174 96.5C174 53.4218 139.078 18.5 96 18.5C52.9218 18.5 18 53.4218 18 96.5C18 139.578 52.9218 174.5 96 174.5Z" fill="black" stroke="#4D4D4C" stroke-linecap="square"/>
<path d="M96 162.5C132.451 162.5 162 132.951 162 96.5C162 60.0492 132.451 30.5 96 30.5C59.5492 30.5 30 60.0492 30 96.5C30 132.951 59.5492 162.5 96 162.5Z" fill="black" stroke="#4D4D4C" stroke-linecap="square"/>
<path d="M96 147.5C124.167 147.5 147 124.667 147 96.5C147 68.3335 124.167 45.5 96 45.5C67.8335 45.5 45 68.3335 45 96.5C45 124.667 67.8335 147.5 96 147.5Z" stroke="url(#paint0_angular_823_28993)" stroke-width="2" stroke-dasharray="2 2"/>
<path d="M96 129.5C114.225 129.5 129 114.725 129 96.5C129 78.2746 114.225 63.5 96 63.5C77.7746 63.5 63 78.2746 63 96.5C63 114.725 77.7746 129.5 96 129.5Z" stroke="white" stroke-width="2" stroke-miterlimit="10"/>
<path d="M107.73 103.101C107.73 104.641 107.338 106.041 106.554 107.301C105.798 108.561 104.72 109.583 103.32 110.367C101.948 111.123 100.366 111.571 98.5737 111.711V115.995H95.3817V111.669C92.4697 111.333 90.1597 110.283 88.4517 108.519C86.7717 106.755 85.8757 104.543 85.7637 101.883H89.3757C89.5157 103.871 90.3137 105.467 91.7697 106.671C93.2257 107.847 95.0737 108.435 97.3137 108.435C99.3297 108.435 100.954 108.001 102.186 107.133C103.446 106.237 104.076 105.005 104.076 103.437C104.076 102.289 103.726 101.379 103.026 100.707C102.354 100.035 101.472 99.5454 100.38 99.2374C99.3157 98.9014 97.8597 98.5794 96.0117 98.2714C93.0717 97.7674 90.7337 96.9414 88.9977 95.7934C87.2617 94.6454 86.3937 92.7834 86.3937 90.2074C86.3937 87.8554 87.2197 85.9234 88.8717 84.4114C90.5237 82.8994 92.6937 82.0454 95.3817 81.8494V77.5654H98.5737V81.9754C101.094 82.3394 103.138 83.3194 104.706 84.9154C106.274 86.4834 107.128 88.4434 107.268 90.7954H103.656C103.432 89.0874 102.662 87.7154 101.346 86.6794C100.03 85.6434 98.3917 85.1254 96.4317 85.1254C94.4717 85.1254 92.9177 85.5594 91.7697 86.4274C90.6217 87.2674 90.0477 88.4574 90.0477 89.9974C90.0477 91.1174 90.3837 91.9994 91.0557 92.6434C91.7277 93.2594 92.5957 93.7354 93.6597 94.0714C94.7237 94.3794 96.1797 94.6874 98.0277 94.9954C100.968 95.4994 103.32 96.3394 105.084 97.5154C106.848 98.6634 107.73 100.525 107.73 103.101Z" fill="white"/>
<defs>
<radialGradient id="paint0_angular_823_28993" cx="0" cy="0" r="1" gradientUnits="userSpaceOnUse" gradientTransform="translate(96 96.5) rotate(119.592) scale(71.2601)">
<stop stop-color="#F3B8D8"/>
<stop offset="0.139053" stop-color="#B793E9"/>
<stop offset="0.238718" stop-color="#9FD4F3"/>
<stop offset="0.374927" stop-color="#FFD2C4"/>
<stop offset="0.477914" stop-color="#FBF3F3"/>
<stop offset="0.557645" stop-color="#D9ABDF"/>
<stop offset="0.624089" stop-color="#AF9CE3"/>
<stop offset="0.720431" stop-color="#AAE4E1"/>
<stop offset="0.830062" stop-color="#C6EAD0"/>
<stop offset="0.913116" stop-color="white"/>
<stop offset="1" stop-color="#FDB5E4"/>
</radialGradient>
</defs>
</svg>
