<svg width="192" height="193" viewBox="0 0 192 193" fill="none" xmlns="http://www.w3.org/2000/svg">
<g clip-path="url(#clip0_823_28957)">
<mask id="mask0_823_28957" style="mask-type:alpha" maskUnits="userSpaceOnUse" x="9" y="12" width="171" height="172">
<path d="M94.5 183.5C141.72 183.5 180 145.22 180 98C180 50.7797 141.72 12.5 94.5 12.5C47.2797 12.5 9 50.7797 9 98C9 145.22 47.2797 183.5 94.5 183.5Z" fill="url(#paint0_linear_823_28957)"/>
</mask>
<g mask="url(#mask0_823_28957)">
<path d="M94.5 180.253C94.5 180.253 94.5 164.575 94.5 139.126V56.8727C94.5 31.4236 94.5 15.7461 94.5 15.7461" stroke="#4D4D4C"/>
<path d="M83.6074 179.53C77.0716 178.657 73.107 162.311 73.209 136.648C73.3109 110.985 77.4598 79.905 84.0976 55.1205C90.7355 30.336 98.8506 15.5978 105.388 16.4714" stroke="#4D4D4C"/>
<path d="M71.7475 177.043C59.5065 173.52 52.5298 155.199 53.4478 128.979C54.3657 102.76 63.0385 72.6311 76.1974 49.9357C89.3562 27.2404 105.004 15.4305 117.247 18.9526" stroke="#4D4D4C"/>
<path d="M57.8031 171.612C41.6815 163.576 33.7852 142.119 37.0753 115.324C40.3654 88.5296 54.36 60.4681 73.7718 41.7094C93.1835 22.9508 115.078 16.3475 131.201 24.3852" stroke="#4D4D4C"/>
<path d="M40.7466 160.258C24.0476 145.841 18.8673 120.65 27.1436 94.1791C35.4199 67.7083 55.9158 43.9733 80.8977 31.9199C105.88 19.8665 131.556 21.3241 148.255 35.7431" stroke="#4D4D4C"/>
<path d="M22.048 136.943C10.3977 115.272 13.441 87.816 30.0315 64.9331C46.622 42.0503 74.2393 27.197 102.482 25.9862C130.724 24.7755 155.288 37.38 166.949 59.052" stroke="#4D4D4C"/>
<path d="M12.2461 97.9999C12.2461 72.5244 27.9236 48.9769 53.3727 36.2458C78.8219 23.5146 110.177 23.5064 135.626 36.2458C161.075 48.9852 176.753 72.5244 176.753 97.9999" stroke="#4D4D4C"/>
<path d="M22.0488 59.0558C40.0606 25.5491 87.0963 15.8218 127.111 37.3294C167.125 58.837 184.96 103.436 166.949 136.943" stroke="#4D4D4C"/>
<path d="M40.7461 35.7429C66.5621 13.4523 111.556 23.2586 141.243 57.6421C170.93 92.0256 174.07 137.969 148.254 160.258" stroke="#4D4D4C"/>
<path d="M57.8027 24.3862C82.7271 11.961 119.359 34.8488 139.627 75.505C159.894 116.161 156.118 159.189 131.196 171.613" stroke="#4D4D4C"/>
<path d="M71.748 18.9539C90.6663 13.5087 116.198 44.482 128.763 88.1371C141.328 131.792 136.165 171.598 117.247 177.045" stroke="#4D4D4C"/>
<path d="M83.6074 16.4689C93.7131 15.12 106.78 50.5218 112.794 95.5538C118.809 140.586 115.492 178.177 105.391 179.528" stroke="#4D4D4C"/>
<path d="M135.991 169.021C125.627 175.077 110.463 178.563 94.4974 178.563C78.532 178.563 63.3678 175.075 53.0039 169.021" stroke="#4D4D4C"/>
<path d="M156.632 151.9C145.916 164.255 121.498 172.253 94.4996 172.253C67.5008 172.253 43.0831 164.255 32.3672 151.9" stroke="#4D4D4C"/>
<path d="M169.557 131.647C161.703 149.162 130.511 161.627 94.4991 161.627C58.487 161.627 27.2949 149.162 19.4414 131.647" stroke="#4D4D4C"/>
<path d="M175.95 109.438C172.956 130.764 137.38 147.302 94.4967 147.302C51.6132 147.302 16.037 130.764 13.043 109.438" stroke="#4D4D4C"/>
<path d="M175.952 86.5625C178.09 101.748 163.043 116.258 136.964 124.174C110.884 132.09 78.1196 132.09 52.0388 124.174C25.9579 116.258 10.9121 101.748 13.0507 86.5625" stroke="#4D4D4C"/>
<path d="M169.554 64.3525C176.432 79.701 163.814 95.5857 137.723 104.425C111.633 113.264 77.3595 113.265 51.2687 104.425C25.178 95.5841 12.5604 79.701 19.4384 64.3525" stroke="#4D4D4C"/>
<path d="M156.631 44.0996C168.895 58.2373 160.4 74.7225 135.984 84.1619C111.568 93.6013 77.4296 93.6013 53.0135 84.1619C28.5975 74.7225 20.1024 58.2373 32.3663 44.0996" stroke="#4D4D4C"/>
<path d="M135.991 26.9785C154.819 37.9791 153.081 54.4034 132.043 64.356C111.004 74.3087 78.0089 74.3087 56.9652 64.356C35.9216 54.4034 34.1827 37.9791 53.0171 26.9785" stroke="#4D4D4C"/>
<path d="M94.4982 53.9208C115.609 53.9208 132.723 45.3882 132.723 34.8628C132.723 24.3373 115.609 15.8047 94.4982 15.8047C73.3872 15.8047 56.2734 24.3373 56.2734 34.8628C56.2734 45.3882 73.3872 53.9208 94.4982 53.9208Z" stroke="#4D4D4C"/>
<path d="M94.4973 38.5834C105.369 38.5834 114.182 34.1886 114.182 28.7673C114.182 23.346 105.369 18.9512 94.4973 18.9512C83.6257 18.9512 74.8125 23.346 74.8125 28.7673C74.8125 34.1886 83.6257 38.5834 94.4973 38.5834Z" stroke="#4D4D4C"/>
<path d="M94.5 180.5C140.063 180.5 177 143.563 177 98C177 52.4365 140.063 15.5 94.5 15.5C48.9365 15.5 12 52.4365 12 98C12 143.563 48.9365 180.5 94.5 180.5Z" stroke="#4D4D4C"/>
</g>
<path d="M176.952 63.5007C184.859 48.6394 187.205 37.2095 182.235 32.2243C171.237 21.1946 128.588 45.8884 86.974 87.3796C45.3603 128.871 20.5408 171.448 31.5381 182.477C36.4633 187.417 47.7372 185.191 62.4235 177.501" stroke="url(#paint1_angular_823_28957)" stroke-width="2" stroke-dasharray="2 2"/>
<path d="M64.6793 64.7404L127.876 51.2428L105.893 108.346L64.6793 64.7404Z" fill="black" stroke="white" stroke-width="2" stroke-miterlimit="10" stroke-linecap="square"/>
<path d="M127.876 51.2428L77.4317 79.1063L73.8771 99.8032L86.7048 88.9175" stroke="white" stroke-width="2" stroke-miterlimit="10"/>
</g>
<defs>
<linearGradient id="paint0_linear_823_28957" x1="93" y1="99.5" x2="193.5" y2="192.5" gradientUnits="userSpaceOnUse">
<stop/>
<stop offset="1" stop-opacity="0"/>
</linearGradient>
<radialGradient id="paint1_angular_823_28957" cx="0" cy="0" r="1" gradientUnits="userSpaceOnUse" gradientTransform="translate(103.433 103.887) rotate(142.176) scale(130.275 37.1695)">
<stop stop-color="#F3B8D8"/>
<stop offset="0.139053" stop-color="#B793E9"/>
<stop offset="0.238718" stop-color="#9FD4F3"/>
<stop offset="0.374927" stop-color="#FFD2C4"/>
<stop offset="0.477914" stop-color="#FBF3F3"/>
<stop offset="0.557645" stop-color="#D9ABDF"/>
<stop offset="0.624089" stop-color="#AF9CE3"/>
<stop offset="0.720431" stop-color="#AAE4E1"/>
<stop offset="0.830062" stop-color="#C6EAD0"/>
<stop offset="0.913116" stop-color="white"/>
<stop offset="1" stop-color="#FDB5E4"/>
</radialGradient>
<clipPath id="clip0_823_28957">
<rect width="192" height="192" fill="white" transform="translate(0 0.5)"/>
</clipPath>
</defs>
</svg>
