<svg width="192" height="193" viewBox="0 0 192 193" fill="none" xmlns="http://www.w3.org/2000/svg">
<g clip-path="url(#clip0_823_29041)">
<path d="M59.468 138.798L59.4464 138.437C59.4386 137.897 59.4641 137.356 59.5227 136.819C59.3769 125.414 38.6874 115.425 13.3199 114.509C13.1901 115.719 13.1348 116.935 13.1542 118.151C13.1652 119.082 13.2205 120.014 13.3199 120.948C38.0246 119.914 58.2947 127.846 59.468 138.798Z" stroke="#4D4D4C"/>
<path d="M178.68 120.491C178.809 119.281 178.865 118.065 178.845 116.849C178.833 115.918 178.778 114.987 178.68 114.054C153.31 115.109 132.863 125.211 133.012 136.614C133.056 137.03 133.081 137.444 133.087 137.857C133.087 138.003 133.072 138.199 133.063 138.346C134.237 127.519 154.165 119.607 178.68 120.491Z" stroke="#4D4D4C"/>
<path d="M84.4001 117.213C82.8407 117.545 81.2979 117.929 79.7833 118.391C79.6342 106.986 70.2829 86.6835 58.9033 73.0423C62.3121 72.0055 65.7838 71.1249 69.2936 70.3922C77.4915 84.8475 84.2576 105.808 84.4067 117.213" stroke="#4D4D4C"/>
<path d="M93.8871 116.048C92.2962 116.113 90.702 116.242 89.1178 116.435C88.9687 105.039 84.844 83.6346 79.9058 68.6508C83.4736 68.2155 87.058 67.9264 90.6374 67.7769C92.283 83.0348 93.7379 104.65 93.8871 116.055" stroke="#4D4D4C"/>
<path d="M103.33 116.392C101.783 116.213 100.221 116.095 98.6433 116.036C98.4942 104.633 99.7006 83.0114 101.339 67.7468C104.887 67.8764 108.409 68.1439 111.882 68.5444C107.009 83.5647 103.179 104.987 103.33 116.397" stroke="#4D4D4C"/>
<path d="M112.25 118.151C110.833 117.746 109.375 117.394 107.885 117.1C107.736 105.696 114.114 84.6713 122.136 70.1411C125.49 70.8057 128.765 71.5944 131.96 72.5071C120.923 86.3112 112.101 106.748 112.25 118.151Z" stroke="#4D4D4C"/>
<path d="M120.181 121.235C118.968 120.617 117.695 120.049 116.37 119.534C116.221 108.131 127.348 88.4629 141.227 75.6176C144.148 76.7462 147.01 78.0217 149.803 79.4391C133.286 91.1214 120.029 109.832 120.181 121.235Z" stroke="#4D4D4C"/>
<path d="M126.657 125.55C125.702 124.715 124.692 123.946 123.634 123.246C123.485 111.842 138.676 94.255 157.561 83.9668C159.938 85.5427 162.208 87.2756 164.355 89.1541C143.379 97.8506 126.5 114.147 126.657 125.55Z" stroke="#4D4D4C"/>
<path d="M131.131 130.914C130.567 129.931 129.917 129 129.187 128.134C129.038 116.731 147.34 101.882 170.063 94.9745C171.697 96.9217 173.156 99.0107 174.422 101.217C150.354 106.215 130.975 119.509 131.131 130.914Z" stroke="#4D4D4C"/>
<path d="M133.019 136.618C132.914 135.643 132.705 134.682 132.396 133.752C132.247 122.347 152.343 110.641 177.283 107.604C177.978 109.699 178.449 111.862 178.686 114.057C153.317 115.112 132.87 125.215 133.019 136.618" stroke="#4D4D4C"/>
<path d="M132.396 133.752C132.069 132.766 131.646 131.815 131.131 130.914C130.976 119.509 150.354 106.215 174.422 101.217C175.584 103.245 176.542 105.384 177.283 107.602C152.343 110.641 132.247 122.347 132.396 133.752Z" stroke="#4D4D4C"/>
<path d="M129.188 128.134C128.411 127.209 127.565 126.345 126.657 125.55C126.508 114.147 143.394 97.8507 164.359 89.1542C166.41 90.9458 168.32 92.894 170.071 94.9812V94.9812C147.34 101.89 129.039 116.737 129.188 128.134Z" stroke="#4D4D4C"/>
<path d="M123.626 123.246C122.517 122.51 121.367 121.839 120.181 121.235C120.029 109.832 133.286 91.1214 149.799 79.4507C152.468 80.8081 155.057 82.3176 157.553 83.9718C138.661 94.26 123.477 111.847 123.626 123.251" stroke="#4D4D4C"/>
<path d="M116.37 119.534C115.044 119.021 113.671 118.56 112.25 118.151C112.101 106.748 120.923 86.3113 131.955 72.5072C135.145 73.421 138.242 74.4595 141.223 75.6176C127.348 88.4679 116.22 108.131 116.366 119.534" stroke="#4D4D4C"/>
<path d="M107.885 117.1C106.394 116.806 104.875 116.57 103.33 116.392C103.179 104.987 107.008 83.5647 111.882 68.5394C115.362 68.9415 118.779 69.4732 122.131 70.1362C114.114 84.6663 107.736 105.693 107.88 117.095" stroke="#4D4D4C"/>
<path d="M98.6512 116.036C97.8624 116.007 97.0714 115.994 96.2781 115.995C95.4849 115.996 94.6906 116.013 93.8952 116.048C93.8206 110.345 93.4196 102.091 92.8313 93.3545C92.243 84.6181 91.4675 75.3999 90.6455 67.7668C92.4352 67.6937 94.2227 67.6549 96.008 67.6505C97.7933 67.6461 99.5731 67.6771 101.347 67.7435C100.519 75.375 99.8161 84.5965 99.3289 93.3312C98.8417 102.066 98.5683 110.334 98.6512 116.036Z" stroke="#4D4D4C"/>
<path d="M89.1177 116.435C87.5318 116.629 85.9542 116.887 84.3949 117.213C84.2457 105.808 77.4796 84.8458 69.2817 70.392C72.7916 69.661 76.3329 69.0783 79.9057 68.6441C84.844 83.6345 88.9686 105.032 89.1177 116.435" stroke="#4D4D4C"/>
<path d="M60.1346 133.997C59.8339 134.915 59.629 135.862 59.5231 136.822C59.3773 125.414 38.6879 115.425 13.3203 114.509C13.5579 112.352 14.0183 110.226 14.6941 108.164C39.6407 111.02 59.9855 122.594 60.1346 133.997Z" stroke="#4D4D4C"/>
<path d="M63.0991 128.622C62.4371 129.448 61.8461 130.328 61.3326 131.254C61.1834 119.849 41.5099 106.747 17.3901 101.986C18.5471 99.904 19.8776 97.9236 21.3673 96.0662C44.2673 102.643 62.9516 117.219 63.1008 128.622" stroke="#4D4D4C"/>
<path d="M68.2609 123.839C67.2633 124.543 66.3128 125.311 65.4156 126.14C65.2665 114.737 47.8781 98.7694 26.5771 90.4784C28.5958 88.6146 30.7343 86.8857 32.9787 85.3027C52.3159 95.1822 68.1101 112.436 68.2609 123.84" stroke="#4D4D4C"/>
<path d="M75.4614 119.929C74.1482 120.469 72.8648 121.079 71.6168 121.757C71.4743 110.355 57.5543 91.9339 40.5288 80.6138C43.3383 79.0908 46.2263 77.7181 49.1808 76.5015C63.5449 89.0877 75.3122 108.528 75.4614 119.929Z" stroke="#4D4D4C"/>
<path d="M79.7781 118.391C78.2635 118.85 76.8246 119.363 75.4613 119.929C75.3121 108.528 63.5448 89.0877 49.1807 76.5048C52.2431 75.2376 55.48 74.0834 58.8915 73.0422C70.2777 86.6834 79.629 106.986 79.7715 118.391" stroke="#4D4D4C"/>
<path d="M71.6165 121.757C70.4579 122.384 69.3374 123.079 68.2607 123.839C68.1116 112.434 52.3157 95.1805 32.9785 85.301C35.4014 83.5916 37.9224 82.0265 40.5285 80.6138C57.5539 91.9339 71.4739 110.355 71.6165 121.757Z" stroke="#4D4D4C"/>
<path d="M65.4158 126.14C64.5818 126.912 63.8063 127.745 63.0958 128.632C62.9467 117.229 44.2624 102.652 21.3623 96.0761C22.9591 94.0861 24.7011 92.2178 26.574 90.4867C47.8749 98.7778 65.2633 114.745 65.4125 126.148" stroke="#4D4D4C"/>
<path d="M61.3325 131.254C60.8469 132.128 60.4457 133.047 60.1344 133.997C59.9852 122.594 39.6405 111.025 14.6938 108.16C15.396 106.022 16.2987 103.954 17.39 101.986C41.5097 106.747 61.1833 119.849 61.3325 131.254Z" stroke="#4D4D4C"/>
<path d="M132.858 139.299L132.968 138.917C133.001 138.751 133.049 138.52 133.071 138.349C134.231 127.519 154.159 119.607 178.68 120.494C178.442 122.652 177.982 124.779 177.306 126.841C154.633 124.236 135.961 129.716 132.858 139.303" stroke="#4D4D4C"/>
<path d="M131.416 141.82C131.716 141.415 132.092 140.863 132.351 140.441C141.124 127.212 169.091 131.932 174.608 133.014C173.451 135.096 172.121 137.077 170.631 138.934C152.253 133.657 136.744 135.136 131.415 141.82" stroke="#4D4D4C"/>
<path d="M127.671 145.231C128.215 144.817 128.942 144.269 129.458 143.835L129.894 143.443C135.558 138.166 149.3 138.246 165.423 144.522C163.404 146.387 161.265 148.116 159.02 149.699C140.804 140.823 131.919 142.37 127.671 145.231Z" stroke="#4D4D4C"/>
<path d="M120.792 148.921L122.334 148.257C123.033 147.913 123.978 147.464 124.654 147.094C129.832 144.251 139.874 146.675 151.468 154.384C148.658 155.907 145.77 157.281 142.816 158.498C130.535 148.13 124.06 147.574 120.792 148.921Z" stroke="#4D4D4C"/>
<path d="M110.699 151.967C112.328 151.583 114.489 151.048 116.084 150.596C119.71 149.493 125.959 153.396 133.107 161.958C129.698 162.995 126.228 163.875 122.72 164.608C117.705 155.769 113.317 151.41 110.699 151.967" stroke="#4D4D4C"/>
<path d="M99.0791 153.389C100.146 153.321 101.565 153.253 102.637 153.158L104.979 152.911C106.538 152.705 109.121 157.35 112.093 166.361C108.526 166.796 104.942 167.085 101.364 167.235C100.383 158.138 99.5547 153.354 99.0791 153.389" stroke="#4D4D4C"/>
<path d="M87.3627 152.961L88.4979 153.082C89.8932 153.188 91.7541 153.336 93.1528 153.399C92.5463 153.363 91.6365 158.151 90.6671 167.253C87.1191 167.124 83.5977 166.856 80.126 166.456C83.0558 157.42 85.6973 152.76 87.3693 152.961" stroke="#4D4D4C"/>
<path d="M76.7854 150.887C78.2934 151.277 80.3167 151.774 81.8513 152.105C79.1534 151.572 74.7719 155.971 69.8685 164.859C66.5161 164.194 63.2399 163.408 60.0449 162.493C66.9751 153.821 73.1363 149.829 76.7821 150.887" stroke="#4D4D4C"/>
<path d="M68.4233 147.664C69.0862 147.976 69.9512 148.406 70.6257 148.7L72.2828 149.377C65.5432 147.438 56.8714 153.748 50.7864 159.382C47.8649 158.254 45.0022 156.979 42.209 155.561C53.8504 147.654 62.673 144.999 68.4316 147.67" stroke="#4D4D4C"/>
<path d="M62.9084 144.038L63.3094 144.38C63.8944 144.829 64.6782 145.425 65.298 145.849C59.6338 142.049 47.9212 143.689 34.4486 151.033C32.0721 149.456 29.8024 147.723 27.6543 145.846C43.4784 139.283 57.1117 138.922 62.915 144.038" stroke="#4D4D4C"/>
<path d="M60.2055 140.881C60.4872 141.323 60.8982 141.9 61.2246 142.325C55.7163 135.725 40.1789 134.476 21.9503 140.019C20.3109 138.075 18.8474 135.988 17.5771 133.783C38.1953 129.503 55.5556 132.705 60.1989 140.885" stroke="#4D4D4C"/>
<path d="M59.4683 138.798C59.4932 138.964 59.5247 139.173 59.5611 139.331L59.6755 139.731C56.4904 130.056 37.5294 124.611 14.7188 127.396C14.0204 125.302 13.5477 123.139 13.3086 120.944C38.0199 119.914 58.2901 127.846 59.4633 138.798" stroke="#4D4D4C"/>
<path d="M59.6754 139.731C59.7798 139.999 59.9273 140.354 60.0549 140.615L60.199 140.881C55.559 132.701 38.1955 129.5 17.5773 133.78C16.4152 131.752 15.4576 129.614 14.7188 127.396C37.5293 124.618 56.4903 130.054 59.6754 139.731" stroke="#4D4D4C"/>
<path d="M61.2184 142.325C61.7006 142.853 62.3784 143.54 62.9087 144.038C57.1087 138.922 43.4721 139.283 27.648 145.846C25.5978 144.054 23.6886 142.106 21.9375 140.019C40.1661 134.476 55.7101 135.725 61.2118 142.325" stroke="#4D4D4C"/>
<path d="M65.2962 145.849L66.4297 146.564C67.0263 146.896 67.8101 147.349 68.4183 147.664C62.272 145.121 53.4493 147.776 42.1957 155.554C39.5271 154.197 36.9383 152.687 34.4419 151.033C47.9145 143.694 59.6305 142.049 65.2913 145.849" stroke="#4D4D4C"/>
<path d="M72.2744 149.377C73.3317 149.754 74.7419 150.259 75.8223 150.601L76.7851 150.887C73.1295 149.829 66.9748 153.821 60.048 162.493C56.8585 161.579 53.7696 160.542 50.7812 159.382C60.227 150.943 67.4687 147.577 72.2777 149.377" stroke="#4D4D4C"/>
<path d="M81.8515 152.105C83.497 152.387 85.6993 152.743 87.3631 152.961C85.6911 152.759 83.0545 157.42 80.1197 166.456C76.6397 166.055 73.2227 165.522 69.8687 164.859C74.7721 155.971 79.1487 151.566 81.8515 152.105" stroke="#4D4D4C"/>
<path d="M93.1533 153.399L94.3348 153.424L95.5164 153.449C96.05 153.439 96.6764 153.434 97.2978 153.426C97.9192 153.417 98.5456 153.407 99.0792 153.384C99.3178 153.368 99.6426 154.547 100.032 156.883C100.422 159.22 100.874 162.681 101.358 167.23C99.5659 167.303 97.7778 167.342 95.9936 167.346C94.2094 167.351 92.4296 167.32 90.6543 167.253C91.1415 162.702 91.6138 159.23 92.0397 156.898C92.4656 154.567 92.8517 153.389 93.1533 153.399Z" stroke="#4D4D4C"/>
<path d="M104.979 152.906C106.364 152.701 108.213 152.437 109.585 152.188L110.699 151.967C113.317 151.41 117.705 155.769 122.72 164.608C119.21 165.339 115.66 165.921 112.093 166.356C109.125 157.345 106.538 152.7 104.979 152.906" stroke="#4D4D4C"/>
<path d="M116.084 150.596C117.511 150.119 119.399 149.461 120.792 148.921C127.539 146.816 136.494 152.965 142.819 158.497C139.755 159.763 136.518 160.917 133.108 161.958C125.961 153.396 119.712 149.496 116.086 150.596" stroke="#4D4D4C"/>
<path d="M124.657 147.092C125.207 146.77 125.956 146.356 126.49 146.019L127.671 145.231C136.149 140.152 149.398 144.857 159.019 149.699C156.597 151.409 154.077 152.974 151.471 154.386C139.871 146.677 129.835 144.251 124.657 147.095" stroke="#4D4D4C"/>
<path d="M129.894 143.443C130.358 142.981 130.957 142.353 131.385 141.868L131.423 141.82C136.752 135.136 152.262 133.657 170.639 138.934C169.044 140.924 167.302 142.792 165.429 144.522C149.307 138.246 135.564 138.166 129.9 143.443" stroke="#4D4D4C"/>
<path d="M132.351 140.441L132.467 140.223C132.593 139.947 132.755 139.579 132.858 139.299C135.96 129.716 154.633 124.236 177.306 126.838C176.604 128.976 175.701 131.043 174.61 133.01C141.623 127.129 133.62 138.161 132.353 140.438" stroke="#4D4D4C"/>
<g filter="url(#filter0_f_823_29041)">
<path d="M96 159.5C127.48 159.5 153 146.74 153 131C153 115.26 127.48 102.5 96 102.5C64.5198 102.5 39 115.26 39 131C39 146.74 64.5198 159.5 96 159.5Z" fill="black"/>
</g>
<path d="M96 123.5C124.167 123.5 147 100.667 147 72.5C147 44.3335 124.167 21.5 96 21.5C67.8335 21.5 45 44.3335 45 72.5C45 100.667 67.8335 123.5 96 123.5Z" fill="black" stroke="url(#paint0_angular_823_29041)" stroke-width="2" stroke-miterlimit="10" stroke-dasharray="2 2"/>
<path d="M96 105.5C114.225 105.5 129 90.7254 129 72.5C129 54.2746 114.225 39.5 96 39.5C77.7746 39.5 63 54.2746 63 72.5C63 90.7254 77.7746 105.5 96 105.5Z" stroke="white" stroke-width="2" stroke-miterlimit="10"/>
<path d="M107.73 79.1014C107.73 80.6414 107.338 82.0414 106.554 83.3014C105.798 84.5614 104.72 85.5834 103.32 86.3674C101.948 87.1234 100.366 87.5714 98.5737 87.7114V91.9954H95.3817V87.6694C92.4697 87.3334 90.1597 86.2834 88.4517 84.5194C86.7717 82.7554 85.8757 80.5434 85.7637 77.8834H89.3757C89.5157 79.8714 90.3137 81.4674 91.7697 82.6714C93.2257 83.8474 95.0737 84.4354 97.3137 84.4354C99.3297 84.4354 100.954 84.0014 102.186 83.1334C103.446 82.2374 104.076 81.0054 104.076 79.4374C104.076 78.2894 103.726 77.3794 103.026 76.7074C102.354 76.0354 101.472 75.5454 100.38 75.2374C99.3157 74.9014 97.8597 74.5794 96.0117 74.2714C93.0717 73.7674 90.7337 72.9414 88.9977 71.7934C87.2617 70.6454 86.3937 68.7834 86.3937 66.2074C86.3937 63.8554 87.2197 61.9234 88.8717 60.4114C90.5237 58.8994 92.6937 58.0454 95.3817 57.8494V53.5654H98.5737V57.9754C101.094 58.3394 103.138 59.3194 104.706 60.9154C106.274 62.4834 107.128 64.4434 107.268 66.7954H103.656C103.432 65.0874 102.662 63.7154 101.346 62.6794C100.03 61.6434 98.3917 61.1254 96.4317 61.1254C94.4717 61.1254 92.9177 61.5594 91.7697 62.4274C90.6217 63.2674 90.0477 64.4574 90.0477 65.9974C90.0477 67.1174 90.3837 67.9994 91.0557 68.6434C91.7277 69.2594 92.5957 69.7354 93.6597 70.0714C94.7237 70.3794 96.1797 70.6874 98.0277 70.9954C100.968 71.4994 103.32 72.3394 105.084 73.5154C106.848 74.6634 107.73 76.5254 107.73 79.1014Z" fill="white"/>
</g>
<defs>
<filter id="filter0_f_823_29041" x="1" y="64.5" width="190" height="133" filterUnits="userSpaceOnUse" color-interpolation-filters="sRGB">
<feFlood flood-opacity="0" result="BackgroundImageFix"/>
<feBlend mode="normal" in="SourceGraphic" in2="BackgroundImageFix" result="shape"/>
<feGaussianBlur stdDeviation="19" result="effect1_foregroundBlur_823_29041"/>
</filter>
<radialGradient id="paint0_angular_823_29041" cx="0" cy="0" r="1" gradientUnits="userSpaceOnUse" gradientTransform="translate(96 72.5) rotate(119.592) scale(71.2601)">
<stop stop-color="#F3B8D8"/>
<stop offset="0.139053" stop-color="#B793E9"/>
<stop offset="0.238718" stop-color="#9FD4F3"/>
<stop offset="0.374927" stop-color="#FFD2C4"/>
<stop offset="0.477914" stop-color="#FBF3F3"/>
<stop offset="0.557645" stop-color="#D9ABDF"/>
<stop offset="0.624089" stop-color="#AF9CE3"/>
<stop offset="0.720431" stop-color="#AAE4E1"/>
<stop offset="0.830062" stop-color="#C6EAD0"/>
<stop offset="0.913116" stop-color="white"/>
<stop offset="1" stop-color="#FDB5E4"/>
</radialGradient>
<clipPath id="clip0_823_29041">
<rect width="192" height="192" fill="white" transform="translate(0 0.5)"/>
</clipPath>
</defs>
</svg>
