<?xml version="1.0" encoding="UTF-8" standalone="no"?>
<svg
   viewBox="800 0 222.38208 222.40428"
   width="222.38208"
   height="222.40428"
   xmlns="http://www.w3.org/2000/svg"
   xmlns:svg="http://www.w3.org/2000/svg">
  <defs
     id="defs4">
    <style
       id="style2">.cls-1 {
    fill: #ffffff;
    stroke: #000000;
    stroke-miterlimit: 10;
    stroke-width: 5px;
  }
  </style>
  </defs>
  <path
     class="cls-1"
     d="m 988.96168,33.415155 a 110,110 0 1 0 32.22002,77.769985 109.26,109.26 0 0 0 -32.22002,-77.769985 z m 26.67002,77.769985 a 105.34,105.34 0 0 1 -1.89,19.84 H 978.33168 L 913.96172,66.665155 V 6.7851549 A 104.44,104.44 0 0 1 1015.6317,111.18514 Z M 908.42172,6.7851549 V 66.665155 l -64.37,64.359985 h -35.41 a 104.49,104.49 0 0 1 99.78,-124.2399851 z m 2.77,208.8399851 a 104.47,104.47 0 0 1 -101.32,-79.05 h 36.48 l 64.84,-64.839985 64.83996,64.839985 h 36.49002 a 104.49,104.49 0 0 1 -101.32998,79.05 z"
     id="path6"
     style="fill:#000000" />
</svg>
