<svg id="#top" data-name="Layer 1" xmlns="http://www.w3.org/2000/svg" viewBox="0 0 1000 1000" class="image">
  <defs>
  <style>.cls-1 {
    fill: none;
    stroke: #fff;
    stroke-miterlimit: 10;
    stroke-width: 2.4px;
  }
  </style>
  </defs>
  <path class="cls-1" d="M567,316.23A110,110,0,1,0,599.22,394,109.26,109.26,0,0,0,567,316.23ZM593.67,394a105.34,105.34,0,0,1-1.89,19.84H556.37L492,349.48V289.6A104.44,104.44,0,0,1,593.67,394ZM486.46,289.6v59.88l-64.37,64.36H386.68A104.49,104.49,0,0,1,486.46,289.6Zm2.77,208.84a104.47,104.47,0,0,1-101.32-79.05h36.48l64.84-64.84,64.84,64.84h36.49A104.49,104.49,0,0,1,489.23,498.44Z"></path>
</svg>

