<svg width="2915" height="2590" viewBox="0 0 2915 2590" fill="none" xmlns="http://www.w3.org/2000/svg">
<g opacity="0.15">
<path d="M1468.15 956.257C1451.06 1003.05 1416.21 1005.56 1403.83 1041.63C1376.89 1120.38 1507.12 1095.17 1495.56 1179.96C1488.7 1230.55 1371.39 1273.59 1322.73 1365.21C1301.92 1404.65 1302.28 1417.1 1307.31 1423.55C1322.26 1442.72 1385.05 1418.2 1417.4 1401.54C1443.08 1388.42 1500.95 1358.61 1534.63 1293.94C1575.33 1215.72 1536.71 1171.42 1579.02 1122.17C1621.54 1072.63 1663.57 1071.91 1652.89 1034.45C1633.02 964.843 1608.67 926.378 1549.06 909.905C1509.3 898.976 1479.54 942.828 1468.15 956.257Z" stroke="#6503FF" stroke-width="1.3" stroke-miterlimit="10"/>
<path d="M1690.28 1009.74C1656.68 939.449 1601.59 907.82 1533.16 899.536C1490.72 894.479 1461.61 938.287 1450.18 954.642C1433.23 1003.41 1399.04 1009.47 1383.54 1048.39C1378.76 1060.41 1377.46 1070.28 1378.41 1078.6C1383.19 1124.29 1462.22 1115.42 1452.39 1181.62C1451.99 1183.83 1451.59 1186.04 1450.98 1188.53C1441.77 1227.78 1364.07 1267.22 1311.43 1331.22C1296.39 1349.53 1284.09 1369.81 1274.43 1391.7C1256.68 1432.18 1257.85 1445.59 1265 1452.92C1278.32 1466.73 1308.48 1461.26 1337.83 1452.21C1359.76 1445.42 1381.27 1436.42 1397.97 1429.66C1442.42 1411.93 1506.06 1386.26 1548.03 1319.02C1599.08 1237.61 1544.72 1172.21 1607.3 1121.73C1674.78 1067.58 1713.34 1058.08 1690.28 1009.74Z" stroke="#610DFF" stroke-width="1.3" stroke-miterlimit="10"/>
<path d="M1727.64 985.191C1683.48 913.807 1595.23 888.904 1517.4 889.354C1472.53 889.565 1443.82 933.932 1432.38 953.056C1415.58 1003.65 1382.38 1013.3 1363.53 1055.38C1358.06 1067.59 1356.02 1077.98 1355.72 1086.89C1354.33 1135.22 1425.36 1122.78 1408.78 1190.2C1408.23 1192.39 1407.48 1194.7 1406.71 1197.16C1393.92 1236.42 1310.19 1280.31 1259.56 1352.17C1245.12 1372.55 1234.69 1395.12 1226.44 1418.24C1211.8 1459.61 1213.86 1474.33 1222.98 1482.49C1240.91 1498.77 1275.74 1491.86 1308.12 1482.22C1333.97 1474.5 1358.86 1464.81 1378.68 1457.96C1442.12 1436.16 1511.3 1414.1 1561.59 1344.13C1623.03 1259.38 1553.49 1173.3 1635.86 1121.51C1728.78 1062.82 1764.21 1044.45 1727.64 985.191Z" stroke="#5D17FF" stroke-width="1.3" stroke-miterlimit="10"/>
<path d="M1764.84 960.613C1711.56 887.418 1589.14 869.384 1501.32 879.115C1454.25 884.307 1425.71 929.52 1414.25 951.413C1397.75 1004.02 1365.39 1017.08 1343.08 1062.12C1336.9 1074.69 1333.98 1085.41 1332.61 1094.78C1325.07 1145.58 1388.08 1129.74 1364.73 1198.55C1364.02 1200.7 1363.12 1202.98 1362 1205.55C1345.65 1244.65 1255.72 1293.13 1207.12 1372.7C1193.44 1395.17 1184.77 1419.68 1178 1444.54C1166.33 1486.61 1169.31 1502.63 1180.36 1511.8C1202.9 1530.54 1242.2 1522.31 1277.63 1512.08C1307.39 1503.44 1335.64 1493.22 1358.76 1486.15C1441.28 1460.63 1515.91 1441.83 1574.49 1369.28C1646.31 1281.19 1562.04 1174.69 1663.64 1121.15C1782.88 1058.41 1816.09 1030.67 1764.84 960.613Z" stroke="#5921FF" stroke-width="1.3" stroke-miterlimit="10"/>
<path d="M1802.23 935.905C1740.35 860.668 1583.32 849.261 1485.45 868.587C1436.26 878.287 1407.84 924.662 1396.5 949.511C1380.13 1004.09 1348.75 1020.76 1323 1068.59C1316.13 1081.37 1312.47 1092.61 1310.04 1102.44C1296.32 1155.87 1351.67 1136.37 1321.21 1206.66C1320.34 1208.79 1319.09 1211.17 1317.79 1213.87C1298.04 1252.84 1201.87 1306.06 1155.3 1393.33C1142.23 1417.87 1139.67 1445.6 1130.04 1470.92C1114.38 1511.62 1125.22 1531.02 1138.38 1541.21C1165.67 1562.45 1209.32 1552.72 1247.95 1541.93C1281.59 1532.52 1313.39 1521.64 1339.68 1514.16C1441.43 1485.1 1521.24 1469.2 1588.42 1394.13C1670.5 1302.51 1571.57 1176.08 1692.61 1120.51C1837.27 1054.22 1868.37 1016.47 1802.23 935.905Z" stroke="#552BFF" stroke-width="1.3" stroke-miterlimit="10"/>
<path d="M1839.59 911.356C1769.54 833.503 1577.37 828.952 1469.68 858.405C1418.41 872.454 1390.04 920.307 1378.67 948.083C1362.42 1004.65 1332.22 1024.78 1302.97 1075.73C1295.56 1088.74 1291 1100.47 1287.35 1110.73C1267.48 1166.64 1315.15 1143.63 1277.58 1215.41C1276.39 1217.48 1274.96 1219.99 1273.34 1222.63C1250.31 1261.67 1147.65 1319.25 1103.28 1414.25C1090.81 1440.85 1090.99 1470.55 1081.87 1497.59C1067.88 1538.92 1081.08 1559.72 1096.2 1570.76C1128.14 1594.3 1176.23 1583.42 1218.05 1572.07C1255.78 1561.77 1290.74 1550.48 1320.2 1542.59C1441.14 1510.15 1526.32 1497.01 1601.77 1419.52C1694.07 1324.53 1580.51 1178.02 1720.96 1120.58C1891.44 1050.31 1921.21 1001.89 1839.59 911.356Z" stroke="#5135FF" stroke-width="1.3" stroke-miterlimit="10"/>
<path d="M1876.8 886.777C1798.77 806.18 1571.19 808.112 1453.6 848.165C1400.11 866.378 1371.93 915.895 1360.55 946.44C1344.62 1004.85 1315.39 1028.59 1282.51 1082.47C1274.42 1095.68 1269.11 1107.93 1264.25 1118.62C1238.22 1177 1278.53 1150.54 1233.53 1223.75C1232.15 1225.95 1230.59 1228.28 1228.63 1231.02C1202.36 1269.96 1093.18 1332.07 1050.8 1434.93C1038.94 1463.6 1041.58 1495.04 1033.27 1523.86C1021.1 1566 1036.36 1587.99 1053.42 1600.04C1089.97 1626.04 1142.72 1613.72 1187.43 1601.75C1229.04 1590.68 1267.55 1578.72 1300.15 1570.59C1440.41 1534.96 1530.64 1524.53 1614.56 1444.33C1717.25 1346 1588.87 1179.53 1748.63 1119.87C1945.79 1046.27 1974.26 987.023 1876.8 886.777Z" stroke="#4D3FFF" stroke-width="1.3" stroke-miterlimit="10"/>
<path d="M1914.18 862.071C1828.17 778.728 1565.07 786.957 1437.87 837.825C1381.99 860.173 1354.01 911.354 1342.77 944.696C1326.97 1005.09 1298.88 1032.45 1262.38 1089.27C1253.73 1102.87 1247.39 1115.41 1241.46 1126.57C1209.25 1187.58 1242.23 1157.52 1189.79 1232.15C1188.26 1234.32 1186.35 1236.75 1184.2 1239.62C1154.85 1278.49 1038.99 1345.1 998.803 1455.7C987.547 1486.43 986.108 1518.77 985.126 1550.38C983.686 1594.45 992.249 1616.54 1011.25 1629.59C1052.43 1657.89 1109.63 1644.42 1157.56 1631.72C1203.09 1619.73 1245.08 1607.43 1280.88 1598.74C1440.28 1560.04 1535.91 1552.21 1628.12 1469.43C1741.19 1367.76 1598.16 1181.37 1777.23 1119.5C2000.12 1042.39 2027.37 971.838 1914.18 862.071Z" stroke="#494AFF" stroke-width="1.3" stroke-miterlimit="10"/>
<path d="M1951.54 837.522C1857.61 751.117 1558.63 765.745 1421.94 827.615C1363.72 853.939 1336.08 906.813 1324.77 943.24C1309.11 1005.61 1282.34 1036.48 1242.21 1096.22C1232.87 1110.02 1225.82 1122.93 1218.8 1134.7C1180.6 1198.22 1206.02 1164.83 1146.21 1240.59C1144.52 1242.72 1142.3 1245.09 1139.81 1248.07C1107.34 1287.03 984.827 1357.98 946.803 1476.46C936.311 1509.29 936.322 1543.52 936.978 1576.89C937.906 1621.4 947.977 1645.06 969.07 1659.14C1015.02 1689.93 1076.54 1675.12 1127.67 1661.86C1177.08 1649.11 1222.59 1636.3 1261.4 1627.17C1439.97 1585.25 1540.99 1580.02 1641.21 1494.45C1764.79 1389.63 1606.81 1183.1 1805.16 1119.16C2054.58 1038.69 2080.85 956.395 1951.54 837.522Z" stroke="#4554FF" stroke-width="1.3" stroke-miterlimit="10"/>
<path d="M1988.78 812.786C1886.92 723.321 1552.09 744.189 1405.89 817.217C1345.32 847.519 1318 902.243 1306.68 941.439C1291.3 1005.82 1265.68 1040.31 1221.79 1102.8C1211.89 1116.99 1203.96 1130.23 1195.72 1142.43C1151.34 1208.58 1169.56 1171.78 1102.19 1248.77C1100.34 1250.88 1097.93 1253.38 1095.1 1256.46C1059.52 1295.51 930.352 1370.8 894.359 1496.98C884.472 1531.87 886.093 1568.03 888.387 1603.16C891.367 1648.04 903.42 1673.36 926.321 1688.25C976.906 1721.35 1043.06 1705.26 1097.07 1691.38C1150.4 1677.7 1199.24 1664.52 1241.38 1655.01C1439.68 1610.3 1545.92 1607.81 1654.61 1519.53C1788.55 1411.52 1615.91 1185.07 1833.6 1118.75C2108.88 1034.97 2134.37 940.794 1988.78 812.786Z" stroke="#415EFF" stroke-width="1.3" stroke-miterlimit="10"/>
<path d="M2026.14 788.236C1916.38 695.552 1545.36 722.761 1390.12 807.034C1327.08 841.126 1300.2 897.888 1288.87 939.853C1273.66 1006.06 1249.3 1044.36 1201.78 1109.79C1191.36 1124.2 1182.36 1137.9 1173.07 1150.57C1122.53 1219.19 1133.67 1179.15 1058.58 1257.36C1056.58 1259.44 1053.83 1262.04 1050.83 1265.09C1012.14 1304.23 876.32 1383.86 842.518 1517.78C833.236 1554.73 836.336 1592.62 840.397 1629.7C845.587 1674.98 859.306 1701.9 884.304 1717.83C939.526 1753.23 1010.12 1735.99 1067.34 1721.54C1124.71 1707.13 1176.9 1693.41 1222.24 1683.34C1439.52 1635.54 1551.03 1635.46 1668.01 1544.61C1812.33 1433.26 1624.85 1187.01 1861.87 1118.32C2163.18 1031.25 2187.94 924.876 2026.14 788.236Z" stroke="#3D68FF" stroke-width="1.3" stroke-miterlimit="10"/>
<path d="M2063.5 763.687C1945.85 667.784 1538.67 701.177 1374.2 796.824C1308.65 834.864 1282.25 893.504 1271.07 938.267C1255.98 1006.45 1233.07 1048.44 1181.65 1116.58C1170.5 1131.36 1160.79 1145.42 1150.25 1158.67C1093.69 1229.96 1097.44 1186.62 1014.82 1265.92C1012.63 1268.13 1009.75 1270.55 1006.41 1273.69C964.76 1312.95 822.131 1396.89 790.49 1538.7C781.813 1577.72 786.178 1617.63 792.25 1656.22C799.305 1701.99 815.193 1730.45 842.128 1747.38C902.116 1785.27 977.059 1766.53 1037.47 1751.52C1098.76 1736.19 1154.47 1721.96 1202.79 1711.61C1439.37 1660.78 1556.14 1663.12 1681.39 1569.84C1836.09 1455.15 1633.92 1189.13 1890.25 1118.23C2217.48 1027.53 2241.66 908.988 2063.5 763.687Z" stroke="#3972FF" stroke-width="1.3" stroke-miterlimit="10"/>
<path d="M2100.73 738.951C1975.21 639.672 1531.68 679.377 1358.18 786.269C1290.12 828.258 1264.22 888.619 1252.97 936.467C1238.18 1006.66 1216.41 1052.28 1161.2 1123.32C1149.52 1138.33 1138.91 1152.87 1127.3 1166.59C1064.59 1240.35 1061.24 1193.94 970.927 1274.29C968.577 1276.48 965.351 1278.99 961.668 1282.24C917.065 1321.62 767.626 1409.87 738.017 1559.38C729.973 1600.31 735.762 1642.27 743.629 1682.64C752.708 1728.95 770.476 1758.73 799.322 1776.81C863.947 1817.01 943.494 1797.14 1006.82 1781.36C1071.99 1765.26 1131.06 1750.5 1182.71 1739.77C1438.55 1686.06 1560.59 1690.82 1694.16 1594.81C1859.24 1476.78 1642.26 1190.8 1918.06 1117.71C2271.78 1023.8 2295.45 892.784 2100.73 738.951Z" stroke="#357CFF" stroke-width="1.3" stroke-miterlimit="10"/>
<path d="M2138.09 714.402C2004.71 611.746 1524.86 657.606 1342.41 776.086C1271.85 822.024 1246.42 884.264 1235.16 934.881C1220.5 1007.05 1200.18 1056.36 1141.22 1130.14C1128.98 1145.54 1117.49 1160.42 1104.67 1174.56C1035.94 1250.99 1025.35 1201.32 927.349 1282.72C924.683 1284.85 921.429 1287.52 917.43 1290.71C869.685 1330.34 713.465 1422.75 686.175 1580.17C678.736 1623.16 685.818 1666.99 695.797 1709.21C706.77 1755.86 726.678 1787.33 757.49 1806.26C826.752 1848.76 910.746 1827.74 977.269 1811.39C1046.36 1794.37 1108.91 1779.26 1163.76 1767.97C1438.74 1711.19 1566.05 1718.38 1707.74 1619.76C1883.21 1498.39 1651.54 1192.64 1946.49 1117.3C2326.08 1020.08 2349.23 876.58 2138.09 714.402Z" stroke="#3086FF" stroke-width="1.3" stroke-miterlimit="10"/>
<path d="M2175.48 689.694C2034.07 583.633 1517.9 635.648 1326.52 765.717C1253.32 815.417 1228.5 879.722 1217.23 933.108C1202.72 1007.1 1183.68 1060.22 1120.95 1136.75C1108.19 1152.38 1095.64 1167.72 1081.75 1182.32C1006.84 1261.38 989.143 1208.63 883.513 1290.78C880.69 1292.88 877.12 1295.49 872.935 1298.81C822.206 1338.72 659.204 1435.28 634.105 1600.43C627.271 1645.49 635.618 1691.34 647.578 1735.22C660.388 1782.53 682.335 1815.34 715.243 1835.3C789.271 1880.3 877.768 1857.81 947.333 1840.87C1020.31 1823.08 1086.38 1807.46 1144.24 1795.75C1438.77 1736.3 1571.19 1745.87 1721.36 1644.55C1907.21 1519.84 1660.7 1194.3 1975.15 1116.61C2380.51 1016.54 2403.01 860.375 2175.48 689.694Z" stroke="#2C90FF" stroke-width="1.3" stroke-miterlimit="10"/>
<path d="M2212.68 665.116C2063.41 555.678 1510.73 613.977 1310.59 755.506C1234.73 809.126 1210.42 875.153 1199.26 931.494C1185.05 1007.49 1167.27 1064.43 1100.79 1143.71C1087.47 1159.72 1074.04 1175.39 1059.09 1190.46C978.184 1272.02 953.384 1216.19 839.908 1299.37C836.897 1301.6 833.17 1304.18 828.64 1307.6C774.957 1347.62 605.116 1448.66 582.048 1621.51C575.82 1668.64 585.432 1716.5 599.402 1761.9C614.078 1809.7 638.194 1844.05 673.04 1865.01C751.705 1912.31 844.648 1888.67 917.254 1871.14C994.306 1852.45 1063.54 1836.43 1124.73 1824.33C1438.52 1762.01 1576.24 1773.84 1734.68 1670.1C1930.91 1542.05 1669.71 1196.74 2003.34 1116.65C2434.81 1012.82 2456.82 844.013 2212.68 665.116Z" stroke="#289AFF" stroke-width="1.3" stroke-miterlimit="10"/>
<path d="M2250.04 640.568C2092.74 527.725 1503.59 592.15 1294.67 745.296C1216.3 802.864 1192.46 870.77 1181.27 930.038C1167.19 1008.02 1150.86 1068.64 1080.47 1150.63C1066.45 1166.85 1052.28 1183.03 1036.12 1198.53C949.028 1282.73 917.121 1223.83 795.827 1307.87C792.659 1310.07 788.587 1312.76 783.742 1316.12C727.074 1356.42 550.295 1461.58 529.575 1642.19C523.951 1691.38 534.641 1741.4 550.78 1788.33C567.294 1836.79 593.448 1872.48 630.232 1894.45C713.534 1944.05 810.923 1919.25 886.757 1901C967.696 1881.55 1040.45 1865.02 1104.84 1852.36C1437.89 1787.17 1580.88 1801.42 1747.63 1694.93C1954.22 1563.7 1678.34 1198.62 2031.3 1116.16C2489.09 1009.26 2510.66 827.495 2250.04 640.568Z" stroke="#24A4FF" stroke-width="1.3" stroke-miterlimit="10"/>
<path d="M2287.43 615.86C2122.3 499.482 1496.32 570.135 1278.77 734.927C1197.77 796.257 1174.54 866.228 1163.49 928.294C1149.54 1008.25 1134.64 1072.72 1060.33 1157.43C1045.76 1174.03 1030.71 1190.55 1013.33 1206.48C920.087 1293.15 881.018 1231.49 752.092 1316.27C748.766 1318.44 744.35 1321.23 739.319 1324.72C679.509 1365.27 496.106 1474.61 477.547 1663.11C472.529 1714.37 484.326 1766.38 502.605 1815C520.956 1864.11 549.307 1901.18 588.057 1923.99C676.125 1976.08 777.99 1949.98 856.892 1930.98C941.877 1910.79 1017.98 1893.73 1085.39 1880.64C1437.71 1812.56 1585.96 1829.23 1761 1720.17C1977.85 1585.41 1687.28 1200.56 2059.58 1115.72C2543.39 1005.54 2564.51 810.974 2287.43 615.86Z" stroke="#20AEFF" stroke-width="1.3" stroke-miterlimit="10"/>
<path d="M2324.63 591.282C2151.48 471.498 1489.02 548.277 1262.85 724.715C1179.18 789.966 1156.59 861.844 1145.53 926.679C1131.89 1008.49 1118.23 1076.93 1040.2 1164.22C1025.09 1181.06 1008.99 1198.03 990.542 1214.43C891.119 1303.73 844.945 1238.99 708.358 1324.67C704.874 1326.82 700.301 1329.58 694.925 1333.17C632.131 1373.99 441.789 1487.46 425.42 1683.69C421.006 1737.01 434.04 1791.2 454.329 1841.32C474.517 1891.1 504.907 1929.51 545.754 1953.35C638.459 2007.75 744.77 1980.49 826.713 1960.9C915.585 1939.95 995.049 1922.35 1065.78 1908.88C1437.37 1837.93 1590.89 1857.01 1774.25 1745.22C2001.64 1607.14 1696.06 1202.48 2087.83 1115.44C2597.66 1001.97 2618.35 794.453 2324.63 591.282Z" stroke="#1CB8FF" stroke-width="1.3" stroke-miterlimit="10"/>
<path d="M2362.02 566.575C2180.84 443.386 1481.88 526.449 1246.96 714.347C1160.63 783.517 1138.69 857.145 1127.59 924.906C1114.09 1008.7 1102.04 1080.85 1019.93 1170.83C1004.27 1188.05 987.318 1205.2 967.782 1222.21C862.365 1314.02 809.028 1246.52 664.652 1332.92C660.982 1335.19 656.092 1337.89 650.558 1341.46C584.753 1382.71 387.155 1500.25 373.45 1704.3C369.483 1759.66 383.754 1816.02 406.211 1867.68C428.236 1918.11 460.852 1957.74 503.45 1982.71C600.978 2039.29 711.736 2010.88 796.72 1990.69C889.508 1968.82 972.486 1950.71 1046.23 1936.81C1437.24 1863 1595.9 1884.32 1787.52 1770.11C2025.26 1628.85 1705 1204.42 2116.11 1115.01C2651.93 998.405 2672.22 777.776 2362.02 566.575Z" stroke="#18C3FF" stroke-width="1.3" stroke-miterlimit="10"/>
<path d="M2399.38 542.026C2210.23 415.117 1474.42 504.565 1231.06 703.979C1141.91 777.041 1120.76 852.604 1109.63 923.293C1096.25 1009.06 1085.63 1085.06 999.608 1177.76C983.416 1195.21 965.56 1212.85 944.777 1230.45C833.179 1324.89 772.737 1254.31 620.728 1341.45C616.9 1343.69 611.825 1346.53 605.789 1350.16C536.999 1391.69 332.62 1513.38 321.104 1725.17C317.743 1782.59 333.092 1841.11 357.746 1894.13C381.451 1945.2 416.421 1986.23 460.957 2012.21C563.122 2071.08 678.326 2041.52 766.509 2020.77C863.184 1998.13 949.677 1979.52 1026.59 1965.21C1436.84 1888.69 1600.8 1912.27 1800.73 1795.32C2048.89 1650.56 1713.91 1206.52 2144.38 1114.57C2706.39 994.712 2726.24 761.128 2399.38 542.026Z" stroke="#14CDFF" stroke-width="1.3" stroke-miterlimit="10"/>
<path d="M2436.74 517.476C2239.6 387.004 1467.15 482.55 1215.3 693.796C1123.48 770.778 1102.97 848.249 1091.82 921.707C1078.74 1009.49 1069.38 1089.3 979.631 1184.58C962.879 1202.42 943.991 1220.36 922.146 1238.42C804.397 1335.34 736.792 1262 577.151 1349.88C573.165 1352.09 567.745 1355.03 561.552 1358.64C489.62 1400.41 278.618 1526.29 269.134 1745.77C266.378 1805.26 282.806 1865.93 309.628 1920.49C335.141 1972.37 372.178 2014.59 418.839 2041.44C525.613 2102.78 645.291 2071.9 736.544 2050.4C837.135 2026.84 926.956 2007.86 1007.2 1993.17C1436.71 1913.77 1605.94 1939.77 1814.16 1820.24C2072.52 1672.27 1723.06 1209.14 2172.63 1114.3C2760.81 992.151 2780.11 744.449 2436.74 517.476Z" stroke="#10D7FF" stroke-width="1.3" stroke-miterlimit="10"/>
<path d="M2473.97 492.74C2268.81 358.862 1459.69 460.663 1199.25 683.398C1104.76 764.299 1084.73 843.65 1073.73 919.905C1060.8 1009.51 1053 1093.35 959.181 1191.32C941.87 1209.55 922.107 1227.82 899.202 1246.34C775.271 1345.89 700.532 1269.63 533.259 1358.25C529.116 1360.44 523.538 1363.34 517 1367.05C442.056 1409.26 224.301 1539.14 216.979 1766.51C214.827 1828.06 232.176 1890.85 261.324 1946.97C288.675 1999.51 327.909 2043.11 376.35 2070.93C487.918 2134.6 612.071 2102.42 706.365 2080.33C811.001 2056.03 904.15 2036.66 987.461 2021.23C1436.38 1939.95 1610.76 1967.21 1827.28 1845.1C2096.01 1693.79 1731.58 1210.68 2200.63 1113.64C2815.14 988.27 2833.98 727.771 2473.97 492.74Z" stroke="#0CE1FF" stroke-width="1.3" stroke-miterlimit="10"/>
<path d="M2511.33 468.191C2298.17 330.75 1452.39 438.807 1183.48 673.216C1086.36 757.88 1066.96 839.138 1056.08 918.348C1043.28 1009.93 1036.9 1097.61 939.359 1198.17C921.36 1216.6 900.852 1235.39 876.727 1254.35C746.645 1356.37 664.743 1277.35 489.838 1366.71C485.508 1369.03 479.615 1371.87 472.89 1375.71C394.962 1418.2 170.426 1552.23 165.294 1787.33C163.747 1850.95 182.146 1916.05 213.649 1973.57C242.808 2026.93 284.11 2071.71 334.646 2100.56C450.824 2166.7 579.452 2133.2 676.944 2110.55C785.496 2085.33 882.131 2065.61 968.613 2049.77C1436.38 1965.22 1615.97 1995.21 1840.81 1870.36C2119.9 1715.87 1740.68 1212.65 2229.19 1113.42C2869.31 984.362 2887.85 711.094 2511.33 468.191Z" stroke="#08EBFF" stroke-width="1.3" stroke-miterlimit="10"/>
<path d="M2548.72 443.484C2327.56 302.481 1444.93 416.923 1167.58 662.848C1067.64 751.403 1049.03 834.597 1038.11 916.734C1025.61 1010.32 1020.78 1102.04 919.065 1204.94C900.665 1223.79 879.124 1242.88 853.78 1262.26C717.675 1366.95 628.74 1285.36 445.945 1375.09C441.299 1377.34 435.377 1380.35 428.179 1384.1C347.109 1426.84 115.921 1565.2 112.821 1808.01C111.879 1873.69 131.328 1941.1 165.056 1999.84C196.024 2054.01 239.551 2100.02 292.026 2129.87C412.84 2198.31 545.943 2163.5 646.476 2140.25C758.915 2114.27 859.093 2093.89 948.717 2077.8C1436.1 1990.27 1620.93 2022.83 1854.18 1895.6C2143.5 1737.74 1749.62 1214.59 2257.44 1113.15C2923.61 980.64 2941.91 694.287 2548.72 443.484Z" stroke="#04F5FF" stroke-width="1.3" stroke-miterlimit="10"/>
<path d="M1151.66 652.636C912.758 868.014 1133.04 1042.76 830.964 1270.37C688.706 1377.52 592.508 1292.83 402.182 1383.64C343.677 1411.55 61.8207 1556.08 60.7935 1828.93C60.3581 1958.6 135.47 2095.07 249.665 2159.54C375.245 2230.47 512.823 2194.36 616.397 2170.52C1367.91 1996.86 1581.65 2074.26 1867.45 1920.49C2167.15 1759.29 1758.46 1216.19 2285.72 1112.71C2977.78 976.73 2995.8 677.45 2585.92 418.905C2356.77 274.338 1437.5 394.878 1151.66 652.636Z" stroke="#00FFFF" stroke-width="1.3" stroke-miterlimit="10"/>
</g>
</svg>
