<svg width="2901" height="2572" viewBox="0 0 2901 2572" fill="none" xmlns="http://www.w3.org/2000/svg">
<g opacity="0.25">
<path d="M1344.76 964.907C1344.69 1014.72 1312.81 1028.99 1313.5 1067.12C1315.12 1150.34 1428.87 1082.12 1447 1165.75C1457.86 1215.65 1362.33 1296.2 1347.93 1398.94C1341.85 1443.11 1346.45 1454.69 1353.38 1459.04C1373.99 1471.93 1424.61 1427.42 1449.31 1400.71C1468.95 1379.59 1513.15 1331.79 1522.69 1259.51C1534.19 1172.08 1482.75 1143.66 1505.67 1082.91C1528.7 1021.82 1567.94 1006.77 1545.1 975.219C1502.63 916.603 1466.6 888.781 1404.94 893.686C1363.84 897.008 1350.87 948.393 1344.76 964.907Z" stroke="#6503FF" stroke-width="1.3" stroke-miterlimit="10"/>
<path d="M1571.79 939.218C1516.18 884.65 1453.6 873.763 1386.46 889.376C1344.84 899.136 1332.47 950.255 1327.32 969.532C1328.06 1021.16 1298.01 1038.54 1296.74 1080.42C1296.36 1093.35 1298.52 1103.07 1302.25 1110.56C1322.37 1151.86 1393.61 1116.5 1407 1182.07C1407.38 1184.29 1407.76 1186.5 1408.03 1189.06C1412.8 1229.09 1353.27 1292.71 1325.69 1370.86C1317.81 1393.21 1313.18 1416.47 1311.59 1440.34C1308.76 1484.45 1314.44 1496.66 1323.66 1501.09C1340.9 1509.52 1367.38 1494.06 1391.86 1475.53C1410.14 1461.65 1427.28 1445.84 1440.67 1433.77C1476.37 1401.92 1527.4 1356.03 1543.86 1278.5C1564 1184.54 1490.55 1141.67 1532.1 1072.83C1577 998.869 1609.98 976.759 1571.79 939.218Z" stroke="#610DFF" stroke-width="1.3" stroke-miterlimit="10"/>
<path d="M1598.5 903.373C1532.6 851.39 1441.15 858.162 1368.16 885.198C1326.07 900.735 1314.26 952.246 1310.05 974.13C1311.56 1027.42 1283.66 1047.84 1280.33 1093.82C1279.37 1107.17 1281.01 1117.63 1283.77 1126.11C1298.98 1172 1361.48 1136.02 1368.96 1205.05C1369.18 1207.29 1369.27 1209.72 1369.39 1212.3C1370.79 1253.57 1307.12 1323.43 1284.11 1408.28C1277.51 1432.37 1275.42 1457.14 1275.57 1481.69C1275.95 1525.57 1282.93 1538.7 1294.29 1543.25C1316.7 1552.42 1347.07 1534.02 1374.21 1513.89C1395.85 1497.79 1415.94 1480.18 1432.22 1466.96C1484.38 1424.79 1541.85 1380.41 1565.19 1297.45C1593.94 1196.8 1499.16 1139.7 1558.87 1062.86C1626.12 975.938 1653.13 946.553 1598.5 903.373Z" stroke="#5D17FF" stroke-width="1.3" stroke-miterlimit="10"/>
<path d="M1625.06 867.557C1549.96 816.992 1428.75 841.902 1349.55 881.074C1307.09 902.046 1295.73 954.293 1292.45 978.782C1294.92 1033.86 1268.99 1057.2 1263.42 1107.15C1261.91 1121.08 1262.83 1132.15 1264.75 1141.42C1275.03 1191.74 1328.83 1155.31 1330.41 1227.96C1330.48 1230.22 1330.41 1232.68 1330.24 1235.47C1328.24 1277.81 1260.31 1354.11 1241.84 1445.5C1236.67 1471.29 1236.91 1497.29 1239.05 1522.97C1242.46 1566.49 1250.73 1580.53 1264.26 1585.36C1291.84 1595.27 1325.96 1574.1 1355.76 1552.38C1380.77 1534.08 1403.83 1514.82 1423.13 1500.27C1491.96 1448.07 1555.66 1404.89 1585.91 1316.68C1623.28 1209.34 1507.67 1138.07 1584.84 1053.02C1675.45 953.295 1697.17 915.869 1625.06 867.557Z" stroke="#5921FF" stroke-width="1.3" stroke-miterlimit="10"/>
<path d="M1651.75 831.554C1567.87 782.011 1416.4 824.981 1331.04 876.606C1288.13 902.538 1277.28 955.837 1275.12 983.064C1278.39 1039.96 1254.61 1066.34 1246.76 1120.1C1244.67 1134.46 1245.08 1146.27 1246.16 1156.34C1251.53 1211.24 1296.88 1173.99 1292.29 1250.46C1292.2 1252.76 1291.84 1255.42 1291.54 1258.4C1286.3 1301.78 1214.13 1384.67 1200.2 1482.61C1196.31 1510.13 1203.38 1537.07 1203 1564.16C1202.19 1607.75 1219.01 1622.28 1234.86 1627.36C1267.77 1637.98 1305.47 1613.92 1338.07 1590.57C1366.48 1570.23 1392.63 1549.13 1414.78 1533.11C1500.46 1471.02 1570.02 1428.78 1607.49 1335.26C1653.3 1221.1 1517.1 1136.12 1611.85 1042.52C1725.12 930.756 1741.44 884.655 1651.75 831.554Z" stroke="#552BFF" stroke-width="1.3" stroke-miterlimit="10"/>
<path d="M1678.46 795.711C1586.01 746.501 1403.87 807.931 1312.74 872.428C1269.36 903.162 1259.07 957.829 1257.87 987.82C1261.95 1046.53 1240.44 1075.78 1230.38 1133.66C1227.87 1148.42 1227.59 1161 1227.67 1171.89C1228.11 1231.22 1265.05 1193.3 1254.28 1273.6C1253.87 1275.95 1253.38 1278.8 1252.76 1281.83C1244.47 1326.39 1167.69 1415.6 1158.47 1520.06C1155.85 1549.31 1166.17 1577.16 1166.84 1605.69C1167.83 1649.31 1187.34 1664.34 1205.33 1669.55C1243.39 1680.75 1284.87 1654.09 1320.29 1629.12C1352.21 1606.54 1381.21 1583.97 1406.2 1566.49C1508.76 1494.66 1584.31 1453.18 1628.72 1354.56C1682.98 1233.74 1526.17 1134.89 1638.51 1032.89C1774.69 908.561 1786.11 852.886 1678.46 795.711Z" stroke="#5135FF" stroke-width="1.3" stroke-miterlimit="10"/>
<path d="M1705.02 759.894C1604.13 710.833 1390.93 790.46 1294.13 868.303C1250.08 903.709 1240.54 959.876 1240.28 992.472C1245.28 1052.81 1225.94 1085.11 1213.46 1146.99C1210.38 1162.17 1209.57 1175.49 1208.66 1187.2C1204.16 1250.96 1233 1212.31 1215.73 1296.5C1215.19 1299.04 1214.52 1301.76 1213.61 1305C1202.24 1350.58 1120.88 1446.28 1116.23 1557.43C1114.88 1588.42 1128.11 1617.07 1130.16 1646.99C1133.13 1690.76 1154.99 1706.2 1175.14 1711.69C1218.37 1723.63 1263.74 1694.02 1301.65 1667.48C1336.97 1642.85 1369.07 1618.45 1396.93 1599.66C1516.55 1518.22 1597.78 1477.56 1649.22 1373.5C1712.1 1245.99 1534.54 1133.45 1664.28 1022.76C1824.39 886.181 1830.88 820.773 1705.02 759.894Z" stroke="#4D3FFF" stroke-width="1.3" stroke-miterlimit="10"/>
<path d="M1731.71 723.892C1622.38 674.98 1377.95 772.673 1275.8 863.967C1230.94 904.071 1222.14 961.737 1222.98 996.913C1228.78 1059.07 1211.74 1094.39 1196.86 1160.26C1193.38 1175.99 1191.72 1189.95 1189.96 1202.46C1180.55 1270.81 1201.26 1231.28 1177.51 1319.35C1176.81 1321.91 1175.85 1324.84 1174.81 1328.28C1160.52 1374.84 1074.41 1477.05 1074.46 1594.72C1074.39 1627.45 1084.1 1658.33 1093.98 1688.37C1107.7 1730.28 1123.3 1748.11 1145.61 1753.88C1193.99 1766.39 1243.13 1734.18 1283.84 1705.86C1322.52 1679.03 1357.78 1653.11 1388.45 1632.7C1525.01 1541.83 1612.2 1501.77 1670.55 1392.46C1742.04 1258.26 1543.9 1132 1691.02 1012.63C1874.12 863.959 1875.6 788.345 1731.71 723.892Z" stroke="#494AFF" stroke-width="1.3" stroke-miterlimit="10"/>
<path d="M1758.42 688.049C1640.61 638.969 1364.64 754.941 1257.35 859.817C1211.64 904.46 1203.74 963.599 1205.57 1001.7C1212.17 1065.67 1197.58 1103.82 1180.29 1173.69C1176.23 1189.85 1174.01 1204.39 1171.45 1217.85C1157.26 1290.61 1169.74 1250.54 1139.44 1342.17C1138.58 1344.76 1137.3 1347.75 1135.98 1351.39C1118.79 1399.11 1027.92 1507.67 1032.69 1632.01C1034.06 1666.45 1045.77 1698.61 1057.8 1729.75C1073.89 1771.26 1091.44 1790.05 1116.08 1796.07C1169.78 1809.29 1222.53 1774.34 1266.05 1744.4C1308.12 1715.52 1346.51 1687.92 1379.86 1666.07C1533.33 1565.63 1626.48 1526.17 1691.4 1411.5C1771.69 1270.74 1552.62 1130.67 1717.15 1002.77C1924.03 841.868 1920.58 755.546 1758.42 688.049Z" stroke="#4554FF" stroke-width="1.3" stroke-miterlimit="10"/>
<path d="M1784.95 652.074C1658.64 602.827 1351.13 736.92 1238.71 855.534C1192.15 904.718 1185.19 965.487 1187.95 1006.19C1195.51 1071.95 1183.23 1113.12 1163.35 1186.85C1158.9 1203.57 1155.97 1218.72 1152.41 1233.01C1133.31 1310.35 1137.85 1269.53 1100.87 1364.92C1099.85 1367.53 1098.44 1370.71 1096.83 1374.56C1076.75 1423.43 981.107 1538.34 990.428 1669.23C993.066 1705.4 1006.95 1738.82 1021.12 1771.05C1039.26 1812.2 1059.25 1831.88 1085.86 1838.04C1144.71 1851.85 1201.38 1814.11 1247.39 1782.6C1292.83 1751.51 1334.21 1722.43 1370.57 1699.08C1541.63 1589.27 1640.61 1550.6 1712.57 1430.48C1801.5 1283.19 1561.84 1129.41 1743.74 992.66C1973.79 819.803 1965.53 722.588 1784.95 652.074Z" stroke="#415EFF" stroke-width="1.3" stroke-miterlimit="10"/>
<path d="M1811.67 616.23C1676.84 566.657 1337.48 719.083 1220.41 851.355C1172.82 904.949 1166.97 967.479 1170.68 1010.79C1179.01 1078.2 1169.22 1122.53 1146.94 1200.26C1142.07 1217.37 1138.3 1233.32 1133.89 1248.4C1109.87 1330.17 1106.65 1288.73 1062.83 1387.9C1061.65 1390.54 1059.96 1393.93 1058.18 1397.81C1035.21 1447.82 934.798 1569.09 948.82 1706.49C952.733 1744.4 968.601 1778.94 985.096 1812.4C1005.45 1853.17 1027.55 1873.79 1056.49 1880.2C1120.49 1894.59 1180.93 1854.25 1229.76 1821.11C1278.75 1787.95 1323.11 1757.21 1362.27 1732.25C1550.11 1613.04 1654.87 1574.84 1733.74 1449.46C1831.29 1295.48 1570.91 1128.17 1770.16 982.583C2023.54 797.739 2010.43 689.314 1811.67 616.23Z" stroke="#3D68FF" stroke-width="1.3" stroke-miterlimit="10"/>
<path d="M1838.38 580.386C1695.03 530.488 1323.81 701.089 1201.96 847.204C1153.36 905.365 1148.6 969.498 1153.4 1015.39C1162.54 1084.62 1155.37 1131.91 1130.34 1213.53C1124.92 1231.22 1120.6 1247.75 1115.22 1263.82C1086.44 1350.15 1075.15 1308.14 1024.63 1410.91C1023.32 1413.73 1021.44 1416.99 1019.38 1421.09C993.663 1472.22 888.331 1599.87 907.081 1743.95C912.269 1783.58 930.016 1819.59 948.915 1853.78C971.196 1894.38 995.858 1915.7 1026.96 1922.39C1096.29 1937.49 1160.3 1894.26 1211.95 1859.5C1264.3 1824.13 1311.78 1791.71 1353.66 1765.47C1558.59 1636.81 1669.13 1599.08 1754.93 1468.61C1861.1 1307.93 1580.16 1127.07 1796.8 972.794C2073.3 775.675 2055.49 656.014 1838.38 580.386Z" stroke="#3972FF" stroke-width="1.3" stroke-miterlimit="10"/>
<path d="M1864.91 544.412C1713.02 494.03 1309.79 682.992 1183.29 842.765C1133.69 905.493 1129.99 971.071 1135.78 1019.88C1145.87 1090.9 1141.02 1141.22 1113.42 1226.85C1107.58 1244.95 1102.58 1262.25 1096.36 1279.1C1062.65 1369.86 1043.63 1327.4 986.24 1433.78C984.778 1436.64 982.607 1440.1 980.255 1444.41C951.805 1496.67 841.548 1630.7 864.841 1781.32C871.276 1822.53 891.062 1859.98 912.261 1895.24C936.624 1935.65 963.503 1957.55 996.794 1964.69C1071.27 1980.37 1139.23 1934.5 1193.34 1898.02C1249.08 1860.6 1299.54 1826.53 1344.42 1798.8C1566.47 1660.84 1682.78 1623.59 1775.47 1487.7C1890.25 1320.34 1588.57 1125.79 1822.75 962.799C2123.05 753.611 2100.49 622.397 1864.91 544.412Z" stroke="#357CFF" stroke-width="1.3" stroke-miterlimit="10"/>
<path d="M1891.63 508.568C1731.18 457.703 1295.93 664.866 1164.99 838.586C1114.39 905.882 1111.78 973.063 1118.5 1024.48C1129.4 1097.31 1127.17 1150.6 1096.98 1240.1C1090.75 1258.75 1085.04 1276.66 1077.82 1294.34C1039.36 1389.65 1012.43 1346.6 948.171 1456.6C946.393 1459.51 944.249 1463.14 941.582 1467.5C910.263 1521.06 795.054 1661.32 823.234 1818.58C830.943 1861.53 852.582 1900.29 876.397 1936.56C902.657 1976.64 932.125 1999.41 967.553 2006.66C1047.17 2022.92 1118.92 1974.45 1175.84 1936.34C1234.95 1896.72 1288.56 1861.14 1336.25 1831.78C1575.24 1684.4 1697.33 1647.62 1796.77 1506.5C1920.16 1332.45 1597.92 1124.34 1849.33 952.694C2172.81 731.547 2145.49 588.78 1891.63 508.568Z" stroke="#3086FF" stroke-width="1.3" stroke-miterlimit="10"/>
<path d="M1918.31 472.566C1749.17 421.244 1281.89 646.609 1146.51 834.277C1094.72 906.009 1093.38 974.924 1101.04 1028.95C1112.71 1103.44 1112.97 1159.87 1080.2 1253.24C1073.55 1272.28 1067 1290.99 1058.94 1309.46C1015.57 1409.37 980.908 1365.85 909.732 1479.16C907.796 1482.1 905.336 1485.78 902.537 1490.33C868.509 1545.17 748.347 1691.65 781.228 1855.43C790.213 1900.11 813.731 1940.34 839.977 1977.49C868.188 2017.56 900.033 2040.9 937.782 2048.4C1022.73 2065.37 1098.21 2013.98 1157.79 1974.28C1220.29 1932.61 1277.03 1895.35 1327.4 1864.55C1583.85 1707.99 1711.56 1671.7 1818.04 1525.14C1950.05 1344.4 1607.09 1122.77 1876.02 942.246C2222.75 709.613 2190.49 555.163 1918.31 472.566Z" stroke="#2C90FF" stroke-width="1.3" stroke-miterlimit="10"/>
<path d="M1944.87 436.749C1767.18 384.944 1267.74 628.697 1128.06 830.125C1075.1 906.452 1074.83 976.812 1083.61 1033.57C1096.24 1109.85 1098.99 1169.44 1063.63 1266.66C1056.58 1286.27 1049.32 1305.58 1040.43 1324.85C992.282 1429.16 949.889 1385.18 871.691 1502.14C869.624 1505.27 867.006 1508.97 863.918 1513.73C827.153 1569.7 702.094 1722.71 739.518 1893.04C749.777 1939.45 775.175 1981.15 803.824 2019.03C833.96 2058.93 868.366 2082.96 908.279 2090.75C998.375 2108.3 1077.63 2054.31 1139.87 2013.01C1205.89 1969.1 1265.47 1930.37 1318.84 1898.08C1592.41 1732.23 1725.88 1696.26 1839.29 1544.6C1979.92 1357.17 1616.39 1121.98 1902.53 932.642C2272.5 687.549 2235.47 521.388 1944.87 436.749Z" stroke="#289AFF" stroke-width="1.3" stroke-miterlimit="10"/>
<path d="M1971.59 400.906C1785.19 348.645 1253.57 610.627 1109.6 825.975C1055.64 906.869 1056.46 978.833 1066.2 1038.36C1079.63 1116.45 1085.01 1179 1046.9 1280.12C1039.27 1300.15 1031.49 1320.21 1021.6 1340.3C968.545 1449.19 918.422 1404.75 833.175 1525.21C830.949 1528.36 828.042 1532.27 824.638 1537.09C785.164 1594.33 654.994 1753.6 697.277 1930.41C708.811 1978.56 735.958 2021.91 767.169 2060.49C799.256 2100.38 836.039 2124.98 878.116 2133.05C973.357 2151.18 1056.4 2094.58 1121.42 2051.5C1190.83 2005.55 1253.55 1965.14 1309.73 1931.23C1600.42 1756.08 1739.66 1720.58 1859.96 1563.51C2009.23 1369.54 1625.14 1120.8 1928.64 922.62C2322.28 665.644 2280.42 487.456 1971.59 400.906Z" stroke="#24A4FF" stroke-width="1.3" stroke-miterlimit="10"/>
<path d="M1998.27 364.904C1803.3 312 1239.21 592.425 1091.12 821.666C1035.97 906.996 1038.06 980.693 1048.9 1042.79C1063.13 1122.71 1071.16 1188.38 1030.3 1293.39C1022.28 1313.98 1013.79 1334.64 1002.9 1355.56C944.912 1468.88 887.115 1424.3 794.948 1548.05C792.565 1551.23 789.369 1555.36 785.834 1560.36C743.492 1618.91 608.528 1784.37 655.539 1967.86C668.348 2017.74 697.217 2062.59 731.016 2102.02C765.055 2141.91 804.372 2167.05 848.586 2175.23C949.157 2194.07 1035.96 2134.72 1103.61 2089.88C1176.57 2041.85 1242.25 1999.8 1301.12 1964.45C1608.93 1780.01 1753.95 1744.98 1881.15 1582.65C2038.85 1381.87 1634.21 1119.57 1955.06 912.542C2372.04 643.579 2325.36 453.522 1998.27 364.904Z" stroke="#20AEFF" stroke-width="1.3" stroke-miterlimit="10"/>
<path d="M2024.83 329.086C1821.15 275.726 1224.87 574.38 1072.66 817.514C1016.35 907.439 1019.69 982.712 1031.46 1047.42C1046.62 1128.96 1057.18 1197.95 1013.7 1306.66C1005.26 1327.64 995.933 1349.11 984.204 1370.82C921.306 1488.73 855.78 1443.68 756.722 1570.9C754.18 1574.11 750.826 1578.26 747.002 1583.48C701.95 1643.31 561.876 1815.02 613.588 2005.02C627.671 2056.64 658.448 2103.11 694.651 2143.27C730.641 2183.14 772.334 2208.85 818.87 2217.29C924.587 2236.71 1015.17 2174.75 1085.48 2128.32C1161.83 2078.24 1230.49 2034.53 1292.35 1997.69C1617.28 1803.96 1768.08 1769.41 1902.16 1601.66C2068.64 1394.16 1643.12 1118.36 1981.52 902.622C2421.82 621.672 2370.31 419.589 2024.83 329.086Z" stroke="#1CB8FF" stroke-width="1.3" stroke-miterlimit="10"/>
<path d="M2051.52 293.084C1839.14 239.268 1210.7 556.309 1054.18 813.204C996.704 907.724 1001.26 984.415 1014 1051.89C1029.96 1135.24 1043.31 1207.17 996.918 1319.8C988.088 1341.34 978.021 1363.25 965.479 1385.92C897.804 1508.23 824.603 1463.04 718.468 1593.59C715.796 1596.98 712.125 1601.19 708.144 1606.44C660.409 1667.7 514.908 1845.72 571.796 2042.16C586.996 2095.53 619.679 2143.63 658.444 2184.49C696.385 2224.35 740.586 2250.44 789.155 2259.34C900.148 2279.16 994.517 2214.59 1067.48 2166.57C1147.19 2114.29 1218.98 2068.9 1283.53 2030.62C1625.74 1827.58 1782.13 1793.36 1923.14 1620.51C2098.26 1406.48 1652.18 1117.13 2007.94 892.544C2471.6 599.766 2415.23 385.497 2051.52 293.084Z" stroke="#18C3FF" stroke-width="1.3" stroke-miterlimit="10"/>
<path d="M2078.23 257.242C1857.09 202.653 1196.21 538.294 1035.7 808.896C976.899 908.038 982.864 986.277 996.568 1056.51C1013.33 1141.69 1029.33 1216.74 980.186 1333.26C970.937 1355.19 960.188 1377.88 946.675 1401.52C874.093 1528.42 793.162 1482.77 680.109 1616.63C677.278 1620.05 673.477 1624.44 669.048 1629.92C618.604 1692.47 468.15 1876.71 529.74 2079.66C546.214 2134.77 580.647 2184.52 621.946 2225.92C661.681 2265.8 708.574 2292.41 759.306 2301.59C875.445 2321.98 973.598 2254.81 1049.37 2205.16C1132.48 2150.84 1207.4 2103.77 1274.78 2064.03C1634.14 1851.85 1796.28 1817.95 1944.18 1639.68C2127.89 1418.8 1661.27 1116.05 2034.37 882.468C2521.52 577.676 2460.31 351.38 2078.23 257.242Z" stroke="#14CDFF" stroke-width="1.3" stroke-miterlimit="10"/>
<path d="M2104.95 221.398C1875.08 166.194 1181.85 520.092 1017.4 804.717C957.44 908.453 964.653 988.269 979.293 1061.11C997.012 1148.07 1015.5 1226.27 963.747 1346.5C954.105 1368.99 942.489 1392.31 928.136 1416.75C850.618 1548.08 762.013 1502.28 642.041 1639.45C639.052 1642.89 634.962 1647.5 630.375 1653.01C577.063 1716.87 421.816 1907.3 487.948 2116.8C505.697 2173.64 541.879 2225.04 585.739 2267.14C627.453 2307.17 676.695 2334.18 729.722 2343.46C851.034 2364.59 952.943 2294.66 1031.35 2243.26C1117.82 2186.72 1195.73 2138.17 1266.12 2096.93C1642.59 1875.46 1810.51 1842.03 1965.32 1658.51C2157.51 1431.13 1670.76 1115.4 2060.82 872.549C2571.78 556.663 2505.23 317.289 2104.95 221.398Z" stroke="#10D7FF" stroke-width="1.3" stroke-miterlimit="10"/>
<path d="M2131.48 185.421C1892.9 129.762 1167.36 502.074 998.764 800.434C937.637 908.764 945.94 990.183 961.674 1065.6C980.167 1154.22 1001.5 1235.68 946.833 1359.83C936.798 1382.87 924.473 1406.8 909.281 1432.04C826.855 1567.96 730.548 1521.85 603.657 1662.32C600.51 1665.8 596.262 1670.43 591.386 1676.15C535.392 1741.45 375.165 1937.94 446.025 2154.11C465.049 2212.69 502.821 2265.77 549.401 2308.54C593.067 2348.56 644.843 2376.12 699.877 2385.7C826.491 2407.39 932.158 2334.69 1013.22 2281.69C1103.24 2223.08 1184.15 2173.04 1257.16 2130.05C1651.24 1900.18 1824.43 1866.17 1986.15 1677.39C2186.95 1443.32 1679.3 1113.93 2086.9 862.366C2621.51 534.439 2550.15 283.196 2131.48 185.421Z" stroke="#0CE1FF" stroke-width="1.3" stroke-miterlimit="10"/>
<path d="M2158.19 149.579C1910.88 93.3046 1153.02 484.032 980.466 796.257C918.148 909.024 927.698 992.018 944.555 1070.18C963.847 1160.61 987.831 1245.19 930.548 1373.04C919.936 1396.52 907.087 1421.19 890.897 1447.25C803.536 1587.59 699.554 1541.34 565.745 1685.12C562.467 1688.78 557.902 1693.47 552.896 1699.37C494.191 1765.95 329.012 1968.67 404.574 2191.35C424.872 2251.67 464.421 2306.55 513.694 2349.84C559.337 2390.01 613.463 2417.97 670.818 2427.81C802.606 2450.23 912.029 2374.78 995.9 2320.15C1089.29 2259.34 1173.36 2207.77 1249.21 2163.32C1659.88 1923.92 1838.9 1890.7 2007.5 1696.51C2216.95 1455.9 1688.52 1112.67 2113.67 852.393C2671.08 512.246 2595.07 249.106 2158.19 149.579Z" stroke="#08EBFF" stroke-width="1.3" stroke-miterlimit="10"/>
<path d="M2184.88 113.578C1928.84 56.689 1138.53 466.016 961.984 791.948C898.345 909.337 909.301 993.88 927.121 1074.8C947.372 1167.02 974.194 1254.86 913.792 1386.34C902.945 1410.34 889.229 1435.65 872.041 1462.53C779.93 1607.44 668.459 1561.18 527.36 1708C523.766 1711.71 519.229 1716.56 513.748 1722.55C452.176 1790.42 282.229 1999.5 362.334 2228.73C383.908 2290.78 425.232 2347.47 477.012 2391.14C524.634 2431.46 581.267 2459.81 640.786 2469.92C777.719 2492.92 890.9 2414.71 977.426 2358.49C1074.2 2295.62 1161.38 2242.22 1240.1 2196.46C1668.17 1947.56 1853 1914.97 2028.69 1715.65C2246.6 1468.38 1697.59 1111.44 2140.12 842.475C2720.83 490.182 2640.12 214.831 2184.88 113.578Z" stroke="#04F5FF" stroke-width="1.3" stroke-miterlimit="10"/>
<path d="M943.53 787.796C792.665 1071.88 1059.42 1160.78 853.37 1477.95C756.325 1627.29 636.966 1580.59 489.161 1731C443.722 1777.23 228.272 2009.42 320.596 2266.18C364.523 2388.18 481.769 2490.75 611.125 2512.29C753.389 2536.01 870.326 2455.03 959.508 2397.21C1606.35 1977.07 1833.67 1976.72 2049.68 1734.5C2276.2 1480.54 1706.44 1109.91 2166.55 832.396C2770.4 467.986 2685.01 180.58 2211.44 77.76C1946.66 20.2565 1124.01 447.84 943.53 787.796Z" stroke="#00FFFF" stroke-width="1.3" stroke-miterlimit="10"/>
</g>
</svg>
