<svg version="1.1" id="Слой_1" xmlns="http://www.w3.org/2000/svg" xmlns:xlink="http://www.w3.org/1999/xlink" x="0px" y="0px" viewBox="0 0 585.2 225.4" style="enable-background:new 0 0 585.2 225.4;" xml:space="preserve" fill="white">
<style type="text/css">
	.st0{clip-path:url(#SVGID_2_);}
	.st1{clip-path:url(#SVGID_4_);fill:url(#SVGID_5_);}
	.st2{clip-path:url(#SVGID_7_);fill:#00C1DE;}
</style>
<g>
	<defs>
		<rect id="SVGID_1_" width="585.2" height="225.4"/>
	</defs>
	<clipPath id="SVGID_2_">
		<use xlink:href="#SVGID_1_" style="overflow:visible;"/>
	</clipPath>
	<path class="st0" d="M44.3,28.5c10.9,0,20.1,3.9,27.6,11.5c7.5,7.7,11.3,17.5,11.3,29.3c0,11.8-3.8,21.6-11.3,29.3   c-7.5,7.7-16.7,11.5-27.6,11.5c-9.9,0-17.8-3.6-23.9-10.8v8.5H0V0h20.4v39.3C26.4,32.1,34.4,28.5,44.3,28.5 M26,85.4   c4.4,3.9,9.5,5.9,15.4,5.9c5.9,0,10.9-1.9,15.1-5.8c4.2-3.9,6.3-9.2,6.3-16.2c0-6.9-2.1-12.3-6.4-16.2c-4.2-3.9-9.3-5.8-15.2-5.8   c-5.9,0-11,1.9-15.3,5.8c-4.3,3.8-6.4,9.2-6.4,16C19.4,76.1,21.6,81.5,26,85.4"/>
	<rect x="99.2" y="30.8" class="st0" width="20.6" height="77"/>
	<path class="st0" d="M189.5,85.5L202.2,99c-7.1,7.4-15.3,11.2-24.8,11.2c-10.4,0-18.5-2.9-24.3-8.7c-5.8-5.8-8.7-13.6-8.7-23.5   V51.5l5.3-11.4l-5.3-9.2V10.2h20.6V78c0,8.5,4.4,12.7,13.1,12.7C182.3,90.7,186.1,89,189.5,85.5"/>
	<path class="st0" d="M241.3,110.3c-13.3,0-24.1-4.9-32.1-14.6l13.7-10.8c7.1,5.9,13.7,8.9,20,8.9c3.7,0,6.6-0.7,8.6-2.2   c2-1.5,3-3.3,3-5.5c0-1.7-0.8-3.1-2.4-4.3c-1.6-1.2-3.2-2.1-4.8-2.5c-1.6-0.5-4.2-1.3-7.7-2.3c-3.9-1.2-7.1-2.1-9.4-2.8   c-2.4-0.7-5.1-1.9-8.2-3.7c-3.1-1.7-5.4-4-6.8-6.8c-1.5-2.8-2.2-6.3-2.2-10.4c0-7.7,2.7-13.8,8.2-18.3c5.5-4.5,12.3-6.7,20.7-6.7   c13,0,23,4.7,30.2,14.2l-13.5,11c-4.7-5.6-10.2-8.5-16.4-8.5c-3.2,0-5.7,0.7-7.5,2.2c-1.8,1.5-2.7,3.3-2.7,5.3   c0,1.7,0.8,3.1,2.3,4.4c1.5,1.2,3.1,2.1,4.7,2.5c1.6,0.4,4.2,1.1,7.7,2.1c3.1,0.9,5.5,1.5,7.2,2c1.7,0.5,3.9,1.3,6.8,2.5   c2.8,1.2,5,2.6,6.4,4c1.4,1.5,2.7,3.4,3.9,5.9c1.2,2.5,1.7,5.3,1.7,8.5c0,7.7-2.8,14-8.5,18.8C258.4,107.9,250.8,110.3,241.3,110.3   "/>
	<path class="st0" d="M345.4,56.2c-5.6-5.8-12.1-8.7-19.2-8.7c-5.9,0-10.9,2-15,6.1c-4.1,4-6.2,9.5-6.2,16.3   c0,6.3,2.1,11.4,6.4,15.2c4.2,3.9,9.4,5.8,15.4,5.8c7.4,0,14-2.8,19.6-8.3l12.9,12.1c-8.9,10.3-19.9,15.4-33.1,15.4   c-12.1,0-22-3.8-29.8-11.5c-7.8-7.6-11.7-17.4-11.7-29.2c0-11.8,3.9-21.6,11.8-29.4c7.9-7.8,17.9-11.6,29.9-11.6   c13,0,23.7,5,32.1,15L345.4,56.2z"/>
	<path class="st0" d="M428.4,30.8h20.4v77h-20.4v-8.5c-6,7.2-14,10.8-23.9,10.8c-10.9,0-20.1-3.8-27.6-11.5   c-7.5-7.7-11.3-17.4-11.3-29.3c0-11.8,3.8-21.6,11.3-29.3c7.5-7.7,16.7-11.5,27.6-11.5c9.9,0,17.8,3.6,23.9,10.8V30.8z M392.3,85.5   c4.2,3.9,9.2,5.8,15.1,5.8c5.9,0,11-2,15.4-5.9c4.4-3.9,6.5-9.3,6.5-16.1c0-6.9-2.2-12.3-6.4-16.2c-4.3-3.8-9.4-5.8-15.3-5.8   c-5.9,0-11,1.9-15.2,5.8c-4.2,3.9-6.4,9.2-6.4,16.2C386,76.3,388.1,81.6,392.3,85.5"/>
	<rect x="470.1" class="st0" width="20.6" height="107.8"/>
	<path class="st0" d="M585.2,66.4c0,3.3-0.3,6.5-0.8,9.6l-57.6,0.2c1.4,5.3,4.1,9.5,8,12.8c3.9,3.3,8.8,4.9,14.7,4.9   c6.8,0,14-2.8,21.6-8.3l11,11.9c-8.6,8.3-19.7,12.5-33.3,12.5c-12.5,0-22.6-3.8-30.4-11.5c-7.8-7.7-11.7-17.6-11.7-29.6   c0-11.9,3.8-21.7,11.5-29.2c7.6-7.5,17.4-11.3,29.4-11.3c11.4,0,20.6,3.4,27.4,10.3C581.7,45.7,585.2,54.9,585.2,66.4 M547.5,44.7   c-4.9,0-9.2,1.4-12.9,4.1c-3.7,2.8-6.2,6.5-7.5,11.3h39.1c-1-4.9-3.2-8.7-6.5-11.4C556.2,46,552.2,44.7,547.5,44.7"/>
</g>
<g>
	<defs>
		<rect id="SVGID_3_" x="144.5" y="30.8" width="46.3" height="20.6"/>
	</defs>
	<clipPath id="SVGID_4_">
		<use xlink:href="#SVGID_3_" style="overflow:visible;"/>
	</clipPath>
	
		<linearGradient id="SVGID_5_" gradientUnits="userSpaceOnUse" x1="0" y1="225.405" x2="1" y2="225.405" gradientTransform="matrix(40.4728 0 0 -40.4728 144.684 9163.9199)">
		<stop offset="0" style="stop-color:#FFFFFE"/>
		<stop offset="1" style="stop-color:#00C1DE"/>
	</linearGradient>
	<rect x="144.5" y="30.8" class="st1" width="46.3" height="20.6"/>
</g>
<g>
	<defs>
		<rect id="SVGID_6_" width="585.2" height="225.4"/>
	</defs>
	<clipPath id="SVGID_7_">
		<use xlink:href="#SVGID_6_" style="overflow:visible;"/>
	</clipPath>
	<path cass="st2" d="M284.6,180.2c0-14.2,10.7-24.6,24.4-24.6c10.7,0,19.7,6.5,22.7,16.7h-4.8c-2.5-7.4-9.4-12.4-17.8-12.4   c-11.2,0-19.8,8.6-19.8,20.3c0,11.7,8.6,20.3,19.7,20.3c8.5,0,15.4-5.1,17.9-12.4h4.8c-2.9,10.3-12.1,16.7-22.7,16.7   C295.3,204.8,284.6,194.4,284.6,180.2"/>
	<path class="st2" d="M387.3,156.5v47.4h-4.6v-11.3c-3.7,7.3-10.9,12.2-19.8,12.2c-13.3,0-22.5-10.4-22.5-24.6   c0-14.2,9.3-24.6,22.4-24.6c9,0,16.2,4.9,19.9,12.3v-11.4H387.3z M382.8,180.2c0-11.7-8.4-20.3-19.3-20.3   c-10.9,0-18.5,8.5-18.5,20.3c0,11.7,7.6,20.2,18.5,20.2C374.5,200.4,382.8,192,382.8,180.2"/>
	<path class="st2" d="M448.8,180.2c0,14.2-9.2,24.6-22.4,24.6c-9,0-16.2-4.9-19.9-12.3v32.9h-4.6v-68.9h4.6v11.4   c3.7-7.4,10.9-12.3,19.9-12.3C439.5,155.5,448.8,166,448.8,180.2 M444.2,180.2c0-11.7-7.5-20.3-18.5-20.3   c-10.9,0-19.3,8.5-19.3,20.3c0,11.8,8.4,20.2,19.3,20.2C436.6,200.4,444.2,191.9,444.2,180.2"/>
	<rect x="460.7" y="156.5" class="st2" width="4.6" height="47.4"/>
	<path class="st2" d="M512.9,202.1c-2.4,1.2-7.2,2.8-12.1,2.8c-10.5,0-16.6-7-16.6-19v-25.1h-9.5v-4.3h9.5v-11.9h4.6v11.9h23.2v4.3   h-23.2v24.9c0,9.3,4.1,14.8,12.8,14.8c3.6,0,7.2-0.9,10.5-2.3L512.9,202.1z"/>
	<path class="st2" d="M566,156.5v47.4h-4.6v-11.3c-3.7,7.3-10.9,12.2-19.8,12.2c-13.3,0-22.5-10.4-22.5-24.6   c0-14.2,9.3-24.6,22.4-24.6c9,0,16.2,4.9,19.9,12.3v-11.4H566z M561.6,180.2c0-11.7-8.4-20.3-19.3-20.3c-10.9,0-18.5,8.5-18.5,20.3   c0,11.7,7.6,20.2,18.5,20.2C553.2,200.4,561.6,192,561.6,180.2"/>
	<rect x="580.5" y="137.5" class="st2" width="4.7" height="66.3"/>
	<rect x="170.1" y="30.8" class="st2" width="20.6" height="20.6"/>
</g>
</svg>
