<svg id="Layer_1" data-name="Layer 1" xmlns="http://www.w3.org/2000/svg" xmlns:xlink="http://www.w3.org/1999/xlink" viewBox="0 0 1080 1080"><defs><style>.cls-1{fill:none;}.cls-2{clip-path:url(#clip-path);}.cls-3{fill:#4948ff;}.cls-4{fill:#5331ff;}.cls-5{fill:#5c1aff;}.cls-6{fill:#6503ff;}.cls-7{clip-path:url(#clip-path-2);}.cls-8{fill:aqua;}.cls-9{fill:#09e8ff;}.cls-10{fill:#12d1ff;}.cls-11{fill:#1cbaff;}.cls-12{fill:#25a3ff;}.cls-13{fill:#2e8cff;}.cls-14{fill:#3776ff;}.cls-15{fill:#405fff;}.cls-16{clip-path:url(#clip-path-3);}.cls-17{fill:#b0f6f6;}.cls-18{fill:#c6f4f4;}.cls-19{fill:#dcf3f3;}.cls-20{fill:#f2f2f2;}.cls-21{clip-path:url(#clip-path-4);}.cls-22{fill:#6453f8;}.cls-23{fill:#5866f7;}.cls-24{fill:#4c79f7;}.cls-25{fill:#408cf6;}.cls-26{fill:#349ff6;}.cls-27{fill:#28b1f6;}.cls-28{fill:#1cc4f5;}.cls-29{fill:#10d7f5;}</style><clipPath id="clip-path"><circle class="cls-1" cx="540" cy="-563.8" r="524.37"/></clipPath><clipPath id="clip-path-2"><circle class="cls-1" cx="540" cy="540" r="515.9"/></clipPath><clipPath id="clip-path-3"><circle class="cls-1" cx="1640" cy="-563.8" r="524.37"/></clipPath><clipPath id="clip-path-4"><circle class="cls-1" cx="1640" cy="540" r="524.37"/></clipPath></defs><title>FLUIDITY-LOGO_SVG_TRANSPARENT_NOMARGINArtboard 12 copy</title><g class="cls-2"><path class="cls-3" d="M1207.79,32.69c-8.11-5.81-16.38-11.85-24.84-18-63.11-46-134.63-98.21-219-117.54-15.1-3.47-30.48-4.94-46.77-6.49-4.45-.43-8.91-.86-13.38-1.33C821.19-119.4,760-98.46,706-80c-16.36,5.6-31.81,10.89-46.91,15C560.29-38,488.72-41.46,446.36-75.16,392.82-117.76,394-184.84,395.3-255.87,396.42-318,397.57-382.29,364-438.61,290.81-561.31,77.06-608.47-271.28-578.79l-1.35-15.84c196.29-16.72,352.05-9.2,462.92,22.35,89.89,25.58,152.92,67.81,187.34,125.54,35.91,60.2,34.66,129.77,33.56,191.16-1.26,69.9-2.34,130.27,45.06,168,38.18,30.38,105,32.83,198.69,7.29,14.62-4,29.84-9.19,45.95-14.71,52.79-18.06,118.5-40.53,204.6-31.48,4.41.47,8.83.89,13.22,1.31,16.08,1.54,32.7,3.13,48.81,6.82C1055.05-98.31,1128-45.11,1192.31,1.83,1200.73,8,1209,14,1217,19.77Z"/><path class="cls-4" d="M1152.87,143.52C1095.48,84.23,1016.87,3,917.17-27.59,895.93-34.11,876.51-38,857.8-39.33,766.72-46,697-22.23,635.45-1.25c-7.38,2.52-14.63,5-21.79,7.37C519.89,37.26,447.17,50.39,397,13.33c-52.75-39-52.61-105.09-52.46-175.07.14-63.94.28-130.06-36-188.22C232.37-472,20-516.46-322.81-482l-1.58-15.81c193-19.38,346.91-13.93,457.35,16.17C222.6-457.24,286.21-415.76,322-358.38c38.72,62,38.57,133.57,38.43,196.67C360.3-93,360.17-33.66,406.46.55c47.28,35,125.12,16.08,202.19-9.5,7.12-2.37,14.34-4.83,21.68-7.33C693.27-37.76,764.63-62.1,859-55.17c19.91,1.46,40.48,5.51,62.88,12.39C1025.45-11,1105.7,71.94,1164.29,132.47Z"/><path class="cls-5" d="M1098.25,254.32c-53.31-75.92-127.38-168-227.83-206.65A264.09,264.09,0,0,0,811,32C716.74,19.05,638.86,49.53,570.15,76.43l-2,.77C484.27,110,405,141.07,347.69,101.82,295.65,66.18,294.8,1.07,293.9-67.86c-.81-62.57-1.73-133.49-40.8-193.47C174-382.73-37.09-424.44-374.32-385.29l-1.84-15.78c189.78-22,341.78-18.67,451.79,10,89.43,23.29,153.62,64,190.79,121.09C308-206.16,309-132.8,309.79-68.06c.88,67.5,1.64,125.79,46.88,156.77C407.06,123.21,479,95,562.38,62.41l2-.78C634.87,34,714.81,2.73,813.19,16.23a279.67,279.67,0,0,1,62.93,16.61C980.58,73,1056.65,167.43,1111.25,245.19Z"/><path class="cls-6" d="M1043.87,365.19c-79.11-151.9-173.19-240-279.64-262C664.81,82.76,575.63,123.8,497,160c-76.51,35.22-142.6,65.63-198.58,30.27-51.46-32.51-53.14-93.69-55.08-164.54-1.76-64.09-3.75-136.72-45.64-198.45C115.7-293.48-94.09-332.47-425.84-288.54l-2.08-15.75C-241.41-329-91.27-327.71,18.32-300.5c89.22,22.14,154,62.14,192.49,118.89C255.3-116,257.35-40.94,259.17,25.32s3.39,123.57,47.69,151.55c48.69,30.76,111.13,2,183.44-31.28,80.9-37.24,172.6-79.45,277.14-57.92C878.79,110.61,976.54,201.51,1058,357.85Z"/></g><g class="cls-7"><path class="cls-8" d="M1060.92,476.71a163.57,163.57,0,0,1-46.78-6.54C908.82,440.36,851.19,350.22,836,323.31c-47-83.44-37.52-158.34-29.18-224.43,5.95-47.12,11.57-91.63-3.62-133.68C757.7-160.86,537.06-228.67,147.44-236.34l.31-15.63c219.32,4.32,387.57,27.93,500.07,70.16,91.3,34.28,148.54,82,170.11,141.7,16.46,45.59,10.62,91.91,4.43,141-8.43,66.79-17.15,135.86,27.3,214.8C864.07,341.23,918.84,427,1018.4,455.12c39.27,11.12,98.19,15.78,301.34-70.25a2707.65,2707.65,0,0,0,301.6-150.8l7.84,13.52a2720.89,2720.89,0,0,1-303.35,151.67C1180.66,460.74,1106.62,476.71,1060.92,476.71Z"/><path class="cls-9" d="M1006.54,543.86a189.53,189.53,0,0,1-36.91-3.47c-71.07-13.88-133.84-58.47-181.55-128.94l-.47-.7c-51.85-76.51-42.35-152.49-34-219.52,6.15-49.17,12-95.61-5-138.75C699.48-72.94,480.14-138.08,96.73-141.13l.13-15.64c216,1.73,382.33,23.32,494.39,64.17,90.83,33.12,148.7,80,172,139.37,18.38,46.85,12.33,95.2,5.92,146.4C760.72,260.61,752,330.34,800.55,402l.48.7c45.34,67,104.67,109.29,171.6,122.37,33.49,6.54,82.6,8.94,242.28-45.81,18.62-6.38,38.53-13.15,59.88-20.35l5.61-1.9c79.85-26.93,179.23-60.45,288.5-113.24l6.8,14.08c-110.15,53.21-210,86.9-290.3,114l-5.61,1.89c-21.33,7.2-41.21,13.95-59.81,20.33C1109.7,531.84,1048.72,543.86,1006.54,543.86Z"/><path class="cls-10" d="M949.79,612a211.46,211.46,0,0,1-24.7-1.42c-49.62-5.75-122.16-29.93-186-112.51-54.19-70.14-45.78-143.16-37.65-213.78,5.92-51.37,11.51-99.89-7.36-144.51C641.38,15,423.38-47.34,46-45.93L46-61.56c212.8-.85,377.12,18.7,488.75,58.17,90.4,32,148.88,78.07,173.81,137C729,182.07,722.9,234.93,717,286.05c-7.77,67.51-15.81,137.33,34.5,202.43C812,566.75,880.25,589.62,926.88,595c40.17,4.65,92.78-1.33,242.82-45.69,18.63-5.51,38.32-10.87,60.19-16.41,18.94-4.78,38.48-9.43,59.18-14.34,68.56-16.3,146.28-34.76,227.53-65.16l5.47,14.64c-82.16,30.74-160.38,49.33-229.39,65.73-20.64,4.9-40.13,9.53-59,14.29-21.67,5.48-41.16,10.79-59.59,16.24C1049.27,601.25,990.23,612,949.79,612Z"/><path class="cls-11" d="M862.22,681.66c-90,0-146.52-66.78-168.7-93l-2.9-3.42C635.5,520.89,642.87,448,650,377.5c5.42-53.59,10.54-104.22-10.42-150.5C583.39,102.92,366.66,43.13-4.69,49.27l-.26-15.63C204.44,30.19,367,47.72,478.2,85.81c90,30.82,149.09,76.15,175.61,134.75,22.69,50.11,17.12,105.22,11.74,158.51-7.11,70.32-13.83,136.73,36.94,196l3,3.49c22.27,26.33,81.4,96.29,174.57,86.53l.55-.06c46.12-4.81,103.51-10.81,243.94-45.59,18.51-4.58,38.3-8.64,60.48-12.41,30.59-5.19,62.1-9.07,95.45-13.17,59.34-7.29,120.69-14.83,184-30.74l3.81,15.16c-64.27,16.15-126.11,23.75-185.92,31.1-33.18,4.08-64.51,7.93-94.74,13.07-21.8,3.69-41.22,7.67-59.35,12.17-141.47,35-199.47,41.09-246.07,46l-.54.06A188.13,188.13,0,0,1,862.22,681.66Z"/><path class="cls-12" d="M802.56,754c-84.26,0-140.45-60.13-160.48-81.56C586.85,613.29,593,540.84,599,470.78c4.53-53.33,9.22-108.49-14-156.53C525.5,190.85,310,133.72-55.39,144.47l-.46-15.63c206.14-6.06,366.78,9.47,477.56,46.15C511.34,204.67,571,249.24,599.1,307.46c25,51.9,20.16,109.21,15.45,164.64-5.93,69.73-11.53,135.59,39,189.61,21.2,22.69,85.72,91.72,180.74,73.55,15.75-3,33.21-6.12,53.42-9.71,42.38-7.54,100.43-17.86,191.69-36a562.31,562.31,0,0,1,60.79-8.39c40.73-3.58,81.63-3.4,124.91-3.21,48.22.21,98.09.43,147.49-5.06l1.73,15.53C1364,694,1313.66,693.8,1265,693.59c-42.92-.18-83.46-.37-123.47,3.15a549.67,549.67,0,0,0-59.12,8.15c-91.41,18.16-149.55,28.5-192,36.05-20.16,3.58-37.57,6.68-53.22,9.67A183.82,183.82,0,0,1,802.56,754Z"/><path class="cls-13" d="M764,822c-78.46,0-138.63-31-170.45-62.53-54.86-54.28-50-126.07-45.24-195.49,3.78-55.38,7.68-112.66-17.82-162.52C467.72,278.77,253.57,224.3-106.1,239.66l-.66-15.61c202.85-8.65,361.65,4.85,472,40.13,89.3,28.54,149.57,72.35,179.15,130.2,27.47,53.72,23.42,113.18,19.5,170.69-4.7,68.95-9.14,134.07,40.64,183.32,11.37,11.25,73.78,66.85,185.34,56.83,24.06-2.16,50.92-8,84.93-15.5,40.2-8.8,90.24-19.76,159.39-30,17.73-2.64,39.78-5.9,61.71-4.3,40.89,3,82.34,8.16,122.43,13.16,47.09,5.87,95.78,11.94,142.5,14.26l-.77,15.62c-47.3-2.35-96.29-8.46-143.67-14.37-39.89-5-81.14-10.12-121.63-13.08-20.2-1.47-41.31,1.65-58.27,4.17C967.86,785.34,918.12,796.24,878.14,805c-34.54,7.56-61.83,13.54-86.87,15.79Q777.29,822.05,764,822Z"/><path class="cls-14" d="M1305.68,908.19c-27.53-6.51-55.12-15-84.34-24-55.34-17-112.55-34.68-172.06-39-21.84-1.57-41-1.51-58.71.2C911.48,853,856,866.34,811.42,877c-24.1,5.77-44.91,10.76-64.82,13.79C649.5,905.57,578.78,877.65,545,846.59c-54.24-49.83-50.77-117.65-47.1-189.44,2.94-57.38,6-116.71-21.95-168.42-65.92-122-278.76-173.8-632.72-153.87l-.88-15.61c199.61-11.24,356.54.22,466.47,34.09,89,27.42,149.83,70.47,180.88,128,30,55.56,26.86,117.12,23.82,176.64-3.48,68-6.77,132.28,42.06,177.14,31.13,28.61,97,54.22,188.69,40.27,19.26-2.93,39.77-7.84,63.53-13.53,45.05-10.8,101.11-24.23,181.28-32,18.54-1.79,38.61-1.87,61.35-.23,61.28,4.41,119.36,22.31,175.53,39.63,29,8.92,56.32,17.35,83.34,23.73Z"/><path class="cls-15" d="M1251.28,1017.65c-17.51-8-35.2-16.78-53.93-26.1-58-28.85-123.72-61.56-194.16-72.19-13.13-2-26.26-2.44-40.16-2.92-6.39-.22-12.79-.45-19.2-.83-81.56-4.81-140.61,14.3-188.05,29.66-18.91,6.11-36.76,11.89-53.87,15.53-88.43,18.82-163.32,8.93-205.49-27.13C443,888,445.25,821,447.68,750.13c2-59.3,4.14-120.62-26.3-174.18-69-121.38-280.59-170.49-628.87-145.89l-1.1-15.6c196.36-13.85,351.45-4.41,461,28C341.05,468.79,402.49,511.09,435,568.23c32.63,57.4,30.44,121,28.34,182.44-2.3,67-4.48,130.29,43.27,171.12C545,954.66,615,963.3,698.66,945.51,715,942,732.46,936.38,751,930.39,799.66,914.63,860.3,895,944.75,900c6.28.37,12.56.59,18.82.8,13.74.48,27.94,1,41.95,3.09,72.88,11,139.77,44.29,198.8,73.66,18.6,9.26,36.17,18,53.44,25.86Z"/><path class="cls-3" d="M1197,1126.85c-8-5.71-16.11-11.65-24.43-17.72-62.09-45.3-132.46-96.63-215.45-115.66-14.85-3.41-30-4.85-46-6.38-4.38-.42-8.77-.84-13.17-1.31-81.3-8.56-141.49,12-194.59,30.23-16.09,5.5-31.3,10.71-46.15,14.76-97.23,26.5-167.66,23.13-209.33-10C395.2,978.84,396.39,912.83,397.64,843c1.1-61.14,2.23-124.37-30.81-179.78-72-120.72-282.28-167.13-625-137.92l-1.33-15.58c193.13-16.45,346.37-9.06,455.45,22,88.44,25.17,150.45,66.72,184.32,123.51,35.32,59.24,34.1,127.69,33,188.08C412,912,411,971.4,457.61,1008.51c37.56,29.89,103.33,32.3,195.48,7.18,14.37-3.92,29.35-9.05,45.2-14.47,51.93-17.78,116.56-39.9,201.29-31q6.52.68,13,1.28c15.81,1.51,32.17,3.08,48,6.71,86.12,19.75,157.87,72.09,221.17,118.27,8.28,6,16.39,12,24.32,17.64Z"/><path class="cls-4" d="M1143,1235.89c-56.46-58.33-133.8-138.22-231.89-168.35-20.9-6.42-40-10.19-58.41-11.54-89.69-6.57-158.24,16.82-218.76,37.47-7.26,2.47-14.4,4.91-21.44,7.25-92.26,30.63-163.8,43.55-213.14,7.09-51.9-38.36-51.76-103.4-51.61-172.25.13-62.9.27-127.95-35.44-185.17C237.34,630.31,28.36,586.58-308.87,620.44l-1.56-15.55c189.92-19.07,341.3-13.72,450,15.9,88.2,24,150.78,64.86,186,121.32,38.09,61,37.94,131.4,37.81,193.49-.15,67.59-.27,126,45.27,159.63,46.52,34.39,123.1,15.83,198.92-9.35,7-2.33,14.11-4.75,21.32-7.21,61.94-21.12,132.12-45.06,224.95-38.26,19.59,1.44,39.82,5.42,61.86,12.19,101.94,31.31,180.89,112.87,238.54,172.42Z"/><path class="cls-5" d="M1089.23,1344.91c-52.44-74.7-125.32-165.31-224.15-203.32a260.1,260.1,0,0,0-58.43-15.45c-92.77-12.72-169.39,17.28-237,43.75l-1.95.76c-82.54,32.31-160.51,62.83-216.91,24.21-51.21-35-52-99.11-52.92-166.93-.8-61.56-1.71-131.34-40.14-190.34-77.81-119.45-285.51-160.48-617.29-122l-1.81-15.53c186.71-21.68,336.26-18.37,444.49,9.82,88,22.92,151.14,63,187.71,119.14,40.91,62.8,41.84,135,42.67,198.67.86,66.41,1.61,123.76,46.12,154.24,49.58,33.94,120.39,6.22,202.39-25.88l1.94-.76c69.37-27.16,148-57.93,244.82-44.67A275.13,275.13,0,0,1,870.69,1127c102.77,39.53,177.61,132.42,231.33,208.92Z"/><path class="cls-6" d="M1035.73,1454c-77.83-149.44-170.39-236.15-275.12-257.73-97.82-20.13-185.56,20.24-263,55.88-75.27,34.65-140.29,64.58-195.37,29.79-50.62-32-52.28-92.18-54.19-161.88-1.72-63-3.69-134.52-44.9-195.25-80.63-118.84-287-157.19-613.41-114l-2-15.49c183.49-24.3,331.21-23,439,3.72,87.77,21.79,151.49,61.14,189.37,117,43.77,64.52,45.8,138.4,47.59,203.6s3.33,121.56,46.91,149.09c47.91,30.27,109.34,2,180.48-30.77,79.59-36.64,169.81-78.16,272.66-57,109.56,22.57,205.73,112,285.83,265.82Z"/></g><g class="cls-16"><path class="cls-17" d="M2307.79,32.69q-12.16-8.73-24.85-18c-63.1-46-134.62-98.21-219-117.55-15.11-3.46-30.5-4.93-46.8-6.49-4.43-.42-8.89-.85-13.35-1.32C1921.19-119.39,1860-98.46,1806-80c-16.36,5.6-31.82,10.89-46.91,15C1660.3-38,1588.71-41.46,1546.36-75.16c-53.54-42.6-52.33-109.69-51.06-180.71,1.12-62.15,2.27-126.42-31.31-182.74-73.18-122.7-286.94-169.87-635.27-140.19l-1.35-15.83c196.3-16.72,352.05-9.2,462.92,22.35,89.89,25.57,152.92,67.81,187.34,125.53,35.91,60.21,34.66,129.78,33.56,191.17-1.26,69.9-2.34,130.27,45.06,168,38.18,30.38,105,32.83,198.7,7.29,14.61-4,29.83-9.19,45.94-14.7,52.79-18.07,118.47-40.57,204.6-31.49,4.4.46,8.81.89,13.2,1.3,16.08,1.54,32.72,3.13,48.83,6.83C2155.05-98.31,2228-45.11,2292.31,1.83,2300.73,8,2309,14,2317,19.77Z"/><path class="cls-18" d="M2252.87,143.52c-57.39-59.29-136-140.49-235.7-171.11-21.23-6.53-40.66-10.36-59.37-11.74C1866.72-46,1797-22.23,1735.46-1.25c-7.38,2.52-14.64,5-21.8,7.37-93.77,31.14-166.5,44.28-216.64,7.21-52.75-39-52.61-105.09-52.46-175.07.14-63.94.28-130.06-36-188.22C1332.38-472,1120-516.44,777.19-482l-1.58-15.81c193-19.38,346.91-13.94,457.35,16.17,89.64,24.43,153.26,65.92,189.06,123.31,38.72,62,38.57,133.56,38.43,196.66-.15,68.71-.27,128.05,46,162.26,47.27,35,125.11,16.08,202.18-9.51,7.12-2.36,14.34-4.82,21.68-7.33,62.94-21.47,134.29-45.83,228.63-38.88,19.92,1.46,40.49,5.51,62.88,12.39C2125.45-11,2205.7,71.94,2264.29,132.47Z"/><path class="cls-19" d="M2198.25,254.32c-53.31-75.92-127.39-168-227.83-206.65A264.23,264.23,0,0,0,1911,32C1816.74,19,1738.86,49.53,1670.16,76.43l-2,.77c-83.91,32.85-163.15,63.87-220.48,24.61-52-35.63-52.89-100.74-53.79-169.67-.81-62.57-1.73-133.49-40.8-193.46-79.08-121.41-290.18-163.11-627.42-124l-1.83-15.78c189.77-22,341.77-18.67,451.78,10,89.43,23.29,153.62,64,190.79,121.09C1408-206.17,1409-132.8,1409.79-68.07c.88,67.51,1.64,125.8,46.88,156.78C1507,123.2,1579,95,1662.38,62.41l2-.78c70.52-27.6,150.44-58.88,248.83-45.4a279.54,279.54,0,0,1,62.93,16.61C2080.57,73,2156.64,167.43,2211.25,245.19Z"/><path class="cls-20" d="M2143.87,365.19c-79.11-151.9-173.19-240-279.64-262-99.42-20.49-188.61,20.57-267.29,56.8-76.51,35.22-142.58,65.63-198.57,30.27-51.46-32.51-53.14-93.7-55.08-164.55-1.76-64.08-3.75-136.71-45.63-198.44-82-120.79-291.72-159.76-623.49-115.85l-2.09-15.75c186.52-24.69,336.65-23.42,446.24,3.78,89.22,22.15,154,62.15,192.49,118.9,44.48,65.57,46.55,140.67,48.36,206.93s3.39,123.57,47.69,151.55c48.69,30.75,111.14,2,183.44-31.28,80.9-37.24,172.6-79.46,277.14-57.92,111.35,22.94,209.1,113.84,290.52,270.18Z"/></g><g class="cls-21"><path class="cls-22" d="M1906.83,758.69c-86.14,0-143.52-61.4-164-83.29-56.51-60.47-50.22-134.38-44.15-205.86,4.6-54.05,9.35-109.93-14.06-158.46-60.25-124.95-278.83-182.77-649.78-171.88l-.54-18.34c209.65-6.16,373.09,9.64,485.83,47,91.43,30.27,152.33,75.79,181,135.27,25.59,53.05,20.62,111.48,15.81,168-6,70.6-11.67,137.27,39.28,191.78,21.42,22.94,86.66,92.72,182.57,74.39,16-3.06,33.73-6.21,54.26-9.86,43.08-7.66,102.08-18.16,194.86-36.59a574.13,574.13,0,0,1,61.92-8.54c41.46-3.66,83.06-3.47,127.08-3.28,49,.23,99.63.44,149.77-5.13l2,18.23c-51.19,5.69-102.36,5.48-151.88,5.25-43.6-.19-84.77-.38-125.39,3.2a558.42,558.42,0,0,0-59.95,8.26c-93,18.47-152.07,29-195.23,36.66-20.46,3.63-38.13,6.78-54,9.82A188.61,188.61,0,0,1,1906.83,758.69Z"/><path class="cls-23" d="M1867.67,827.89c-80.12,0-141.6-31.74-174.13-63.91-56.16-55.57-51.16-128.82-46.34-199.66,3.83-56.13,7.79-114.17-18-164.54C1565.67,275.5,1348.35,220.41,983.35,236l-.78-18.33c206.31-8.78,367.88,5,480.18,40.85,91.08,29.12,152.59,73.84,182.81,133,28.08,54.9,23.94,115.52,20,174.14-4.76,69.79-9.26,135.71,40.94,185.37,11.49,11.36,74.51,67.55,187.41,57.42,24.38-2.2,51.65-8.17,86.18-15.74,40.88-9,91.76-20.1,162.09-30.54,18.07-2.68,40.57-6,63-4.38,41.59,3,83.73,8.29,124.49,13.38,47.84,6,97.32,12.14,144.76,14.49l-.91,18.33c-48.13-2.39-97.94-8.61-146.12-14.62-40.53-5-82.44-10.28-123.56-13.29-20.43-1.5-41.79,1.69-59,4.24-69.71,10.35-120.25,21.42-160.86,30.32-35.15,7.7-62.92,13.78-88.46,16.08Q1881.25,827.91,1867.67,827.89Z"/><path class="cls-24" d="M2418,915.42c-28-6.62-56.09-15.27-85.8-24.42-56.18-17.31-114.27-35.21-174.62-39.56-22.13-1.6-41.58-1.54-59.46.2-80.31,7.76-136.66,21.26-181.93,32.11-24.52,5.87-45.7,11-66,14-99.13,15.08-171.39-13.48-206-45.25-55.54-51-52-120.25-48.25-193.52,3-58.16,6-118.29-22.17-170.54-66.76-123.6-282.74-176-642-155.75l-1-18.32c203-11.43,362.69.24,474.56,34.71,90.76,28,152.86,71.92,184.58,130.64,30.66,56.78,27.45,119.52,24.35,180.19-3.52,68.85-6.85,133.87,42.35,179.08,31.43,28.89,98,54.73,190.78,40.63,19.52-3,40.35-8,64.46-13.74,45.83-11,102.87-24.65,184.44-32.54,18.92-1.82,39.38-1.9,62.55-.23,62.43,4.5,121.54,22.71,178.7,40.33,29.41,9.06,57.2,17.62,84.62,24.1Z"/><path class="cls-25" d="M2362.45,1026.61c-17.82-8.12-35.81-17.07-54.86-26.55-58.86-29.29-125.57-62.48-197-73.26-13.26-2-26.57-2.46-40.66-2.95-6.51-.23-13-.46-19.56-.84-82.68-4.85-142.56,14.51-190.69,30.08-19.25,6.22-37.43,12.1-54.87,15.82-90.27,19.2-166.77,9.06-209.92-27.84-54.8-46.86-52.46-115.19-50-187.53,2.06-60.1,4.2-122.25-26.58-176.39-69.87-122.92-284.55-172.6-638-147.68L879,411.18c199.74-14.1,357.5-4.49,469,28.55,90.46,26.81,153.15,70,186.32,128.35,33.34,58.65,31.11,123.44,29,186.09-2.43,70.75-4.53,131.84,43.56,173C1645.61,960.28,1716.37,969,1801,951c16.52-3.52,34.26-9.26,53-15.34,49.59-16,111.28-36,197.41-30.93,6.37.37,12.75.59,19.12.81,14,.49,28.45,1,42.76,3.15,74.25,11.21,142.34,45.09,202.41,75,18.91,9.4,36.76,18.29,54.29,26.28Z"/><path class="cls-26" d="M2307.07,1137.49c-8.1-5.81-16.38-11.85-24.84-18-63-46-134.43-98.08-218.54-117.36-15-3.44-30.34-4.9-46.58-6.46-4.46-.43-8.94-.86-13.42-1.33-82.36-8.67-143.4,12.23-197.26,30.66-16.38,5.61-31.85,10.9-47,15-99.23,27-171.17,23.55-213.86-10.41-54-43-52.8-110.36-51.51-181.69,1.11-62,2.26-126.07-31.15-182.09C1390,543.56,1176.66,496.58,828.82,526.23L827.26,508c196.46-16.74,352.36-9.21,463.37,22.39,90.2,25.66,153.47,68.08,188.06,126.09,36.08,60.5,34.83,130.26,33.73,191.81-1.25,69.57-2.33,129.66,44.6,167,37.85,30.12,104.34,32.51,197.6,7.07,14.58-4,29.78-9.18,45.87-14.68,52.9-18.11,118.7-40.67,205.13-31.55,4.42.47,8.83.89,13.24,1.31,16.1,1.54,32.76,3.13,48.93,6.84,87.78,20.13,160.81,73.4,225.25,120.41,8.42,6.14,16.65,12.15,24.72,17.93Z"/><path class="cls-27" d="M2252,1248.17c-57.3-59.19-135.77-140.26-235.18-170.79-21.14-6.49-40.48-10.32-59.1-11.68-90.86-6.69-160.46,17.07-221.86,38-7.38,2.52-14.64,5-21.81,7.38-94.11,31.26-167.17,44.42-217.75,7-53.25-39.36-53.11-105.76-53-176.07.14-63.76.28-129.7-35.83-187.56C1331.61,632.87,1119.6,588.6,777.32,623l-1.83-18.25c193.16-19.39,347.2-13.94,457.79,16.21,90,24.51,153.8,66.18,189.79,123.83,38.9,62.35,38.75,134.06,38.61,197.32-.15,68.38-.28,127.43,45.51,161.28,46.84,34.61,124.32,15.79,201.07-9.69,7.12-2.37,14.33-4.83,21.67-7.33,63.06-21.51,134.55-45.88,229.12-38.95,20,1.47,40.67,5.54,63.15,12.44,103.91,31.92,184.29,115,243,175.57Z"/><path class="cls-28" d="M2197.24,1358.83c-53.2-75.78-127.12-167.7-227.26-206.21a262.37,262.37,0,0,0-59.12-15.63c-94-12.88-171.7,17.53-240.26,44.38l-2,.78c-84.22,33-163.76,64.09-221.63,24.48-52.56-36-53.42-101.41-54.32-170.67-.81-62.41-1.73-133.14-40.6-192.82-78.81-121-289.51-162.51-626.25-123.41l-2.12-18.22c189.92-22,342.08-18.68,452.24,10,89.73,23.37,154.16,64.29,191.5,121.61,41.78,64.13,42.74,137.69,43.58,202.59.87,67.16,1.63,125.16,46.34,155.77,49.86,34.14,121.55,6.07,204.57-26.43l2-.77c70.65-27.66,150.73-59,249.44-45.48a280.84,280.84,0,0,1,63.21,16.69c104.77,40.29,181,134.88,235.69,212.78Z"/><path class="cls-29" d="M2142.78,1469.56c-78.93-151.56-172.73-239.48-278.8-261.33-99-20.41-188,20.57-266.52,56.71-76.83,35.37-143.19,65.93-199.75,30.2-52-32.86-53.78-97.31-55.65-165.55-1.75-63.92-3.74-136.37-45.42-197.79-81.68-120.37-291-159.18-622.32-115.32l-2.4-18.19c186.66-24.71,337-23.43,446.69,3.81,89.53,22.22,154.54,62.39,193.21,119.39,44.7,65.87,46.76,141.17,48.58,207.6,1.81,66,3.37,122.91,47.11,150.54,48.14,30.42,110.3,1.78,182.28-31.35,81.07-37.32,173-79.63,277.89-58,111.74,23,209.77,114.14,291.37,270.82Z"/></g></svg>