<svg xmlns="http://www.w3.org/2000/svg" width="48" height="41" viewBox="0 0 48 41">
  <path id="phoenix_logo" d="M39.5,13.552a18.936,18.936,0,0,0,5.676-1.533,13.024,13.024,0,0,0,2.791-1.883L48,10.108s-.678.34-1.524.68a9.286,9.286,0,0,1-2.351.454c-1.647.193-3.4.344-4.848-.624A7.638,7.638,0,0,0,40.6,9.856c1.711-.979,3.407-2.037,4.264-3.91a13.938,13.938,0,0,1-2.033,1.1,29.28,29.28,0,0,1-3.049.934,20.823,20.823,0,0,0,1.949-2.633,24.414,24.414,0,0,0,1.1-2.718c-.169.339-.593.51-1.27,1.189a6.634,6.634,0,0,1-2.541,1.359,19.7,19.7,0,0,0,1.523-3.124c.19-.649.319-1.483.51-2.057-.085.255-.762.849-1.44,1.784a11.623,11.623,0,0,1-1.863,1.869v-1.1a1.744,1.744,0,0,0-.847-1.359c-.762-.34-1.694.849-1.694.849s1.1.085,1.186.51-.932,1.359-.932,1.359l.339.764s0,5.011-3.811,6.455-3.726,2.123-4.065,2.633c-.541.815.184,1.97-.231,2.794a.869.869,0,0,1-.241.313.975.975,0,0,1-1.138-.047,2.137,2.137,0,0,1-.443-.715c-.542-1.218-1.562-3.437-1.562-3.437a11.948,11.948,0,0,1,1.983-.733c.626-.1.626.942.626.942l.314-.733a1.637,1.637,0,0,0-.1-1.465c-.1-.314-.835-.733-3.235-1.779a4.244,4.244,0,0,0-2.511-.378,1.848,1.848,0,0,0-1.008.474,11.126,11.126,0,0,1,1.488-.064,4.133,4.133,0,0,1,1.506.493H21.495c-1.357,0-2.3,1.779-2.3,1.779l.836-.733c.7-.618,1.628-.418,2.4-.419-.443,0-.958.727-1.153,1.064a3.468,3.468,0,0,0-.217,2.641c.02.014.013-.02.013-.043,0-.418.522-.837.522-.837l-.209,1.151a5.847,5.847,0,0,0,0,2.2c0-.314.73-.942.73-.942v.733a1.575,1.575,0,0,1-.056.351c-.008.031-.018.066-.029.1a1.1,1.1,0,0,1-1.492.4.874.874,0,0,1-.241-.313c-.416-.824.31-1.979-.231-2.794-.339-.51-.254-1.189-4.065-2.633s-3.812-6.455-3.812-6.455l.339-.764s-1.016-.934-.932-1.359,1.186-.51,1.186-.51S11.856.85,11.094,1.19a1.745,1.745,0,0,0-.847,1.359v1.1A11.6,11.6,0,0,1,8.384,1.784C7.707.849,7.029.255,6.945,0c.191.574.32,1.408.51,2.057A19.674,19.674,0,0,0,8.978,5.181,6.638,6.638,0,0,1,6.437,3.822c-.677-.679-1.1-.849-1.27-1.189a24.691,24.691,0,0,0,1.1,2.718A20.7,20.7,0,0,0,8.216,7.984a29.281,29.281,0,0,1-3.05-.935,13.939,13.939,0,0,1-2.033-1.1C3.99,7.819,5.687,8.877,7.4,9.856a7.673,7.673,0,0,0,1.326.761c-1.448.968-3.2.817-4.848.624a9.291,9.291,0,0,1-2.351-.454C.678,10.446,0,10.107,0,10.107l.032.029a13,13,0,0,0,2.791,1.883A18.915,18.915,0,0,0,8.5,13.552a7.2,7.2,0,0,0,1.241.207c-.686,1.148-6.19,2.873-7.759,2.935,1.284.166,2.564.343,3.857.438a14.074,14.074,0,0,0,4.58-.146c2.541-.68,1.609-.425,1.609-.425-.128.035-.459.78-.542.9A7.039,7.039,0,0,1,9.957,19.09a19.945,19.945,0,0,1-4.451,2.653.191.191,0,0,0-.117.086c.242.161.736.072,1.011.059a13.771,13.771,0,0,0,6.411-2.207,4.335,4.335,0,0,0,.909-.572l.254-.255a11.571,11.571,0,0,0-.916,2.4,15.583,15.583,0,0,0-.293,4.725c.014.384.015.77.02,1.154,0,.106.02.211.02.317a10.59,10.59,0,0,0,.739-1.492c.246-.5.495-.994.753-1.485a10.4,10.4,0,0,1,1.286-2.139c.762-.85,1.27-1.444,1.27-1.444a39.368,39.368,0,0,0,.593,6.625l.508,1.614a16.272,16.272,0,0,1,.5-4.5,10.11,10.11,0,0,1,1.194-2.29c.24.611.46,1.233.652,1.861a5.548,5.548,0,0,1-.042,3.153,9.26,9.26,0,0,1-.61,1.951c-.339.68,1.186-.934,1.44-1.359s1.355-2.548,1.27-3.482.593-.085.762.595a4.58,4.58,0,0,1-.423,3.652,37.364,37.364,0,0,1-4.065,5.182l2.287-1.529-1.44,4.162L22.1,33.465l-1.27,4.841s2.013-3.317,2.117-3.737c.073-.293.84,4.982,1.049,6.431.208-1.449.976-6.724,1.049-6.431.1.42,2.117,3.737,2.117,3.737L25.9,33.465l2.625,3.058-1.44-4.162,2.287,1.529A37.372,37.372,0,0,1,25.3,28.708a4.576,4.576,0,0,1-.423-3.652c.169-.68.847-1.529.762-.595s1.016,3.057,1.27,3.482,1.778,2.039,1.44,1.359a9.31,9.31,0,0,1-.61-1.951A5.547,5.547,0,0,1,27.7,24.2c.191-.629.412-1.25.652-1.861a10.075,10.075,0,0,1,1.194,2.29,16.274,16.274,0,0,1,.5,4.505l.508-1.614a39.375,39.375,0,0,0,.593-6.625s.508.594,1.27,1.444A10.411,10.411,0,0,1,33.7,24.476c.258.491.508.989.753,1.486a10.621,10.621,0,0,0,.739,1.492c0-.106.018-.211.02-.317,0-.384.006-.77.02-1.154a15.583,15.583,0,0,0-.292-4.725,11.587,11.587,0,0,0-.916-2.4l.254.255a4.268,4.268,0,0,0,.909.572A13.771,13.771,0,0,0,41.6,21.889c.275.012.769.1,1.011-.06a.187.187,0,0,0-.117-.086,19.929,19.929,0,0,1-4.451-2.653,7.06,7.06,0,0,1-1.528-1.629c-.083-.119-.414-.864-.542-.9,0,0-.932-.255,1.609.425a14.077,14.077,0,0,0,4.581.146c1.293-.1,2.572-.272,3.857-.438-1.57-.062-7.074-1.787-7.76-2.935A7.254,7.254,0,0,0,39.5,13.552Z" fill="#fff"/>
</svg>

