<svg xmlns="http://www.w3.org/2000/svg" viewBox="0 0 1920 1080"><defs><style>.a{fill:#12ecab;}.b{fill:#d12afa;}</style></defs><title>LINES_ONLY_BGArtboard 1 copy 4</title><path class="a" d="M1453.707,1049.04c19.18457-26.21875,40.92774-55.93652,87.56738-80.47461,46.95313-24.70313,94.22266-30.85742,131.873-30.85742,25.24414,0,46.165,2.76758,59.7627,4.5664,49.17578,6.50489,122.90625,26.01368,124.46875,53.09864.49414,8.57324-5.67286,20.791-55.17188,46.40039-58.2793,30.15332-125.00683,34.18164-183.87988,37.73535-8.0044.4834-15.83936.957-23.44971,1.49121h47.47022c52.9165-3.60156,110.17138-10.14111,161.23828-36.5625,50.88672-26.32715,57.36621-39.22363,56.78711-49.2373-1.79688-31.15918-83.90528-50.19043-127.07325-55.9004-34.15527-4.51757-114.14453-15.0996-193.42187,26.61133-47.25391,24.86035-69.21582,54.876-88.5918,81.35742-9.01513,12.32081-17.47217,23.86622-27.68457,33.73145h4.29541C1437.26758,1071.49414,1445.24609,1060.60352,1453.707,1049.04Z"/><path class="a" d="M1447.50781,1021.459c22.0293-30.74316,46.998-65.58789,97.69824-87.30664l.002-.001c39.42773-16.97754,77.667-22.6875,112.81445-22.6875,44.13965,0,83.39942,9.01074,113.95313,16.02343,3.3623.77149,6.88769,1.56739,10.54394,2.39258,19.0791,4.30469,42.82324,9.66211,65.29688,16.74024C1891.89014,960.50488,1915.54,975.89551,1920,993.61865v-4.48388c-8.36816-19.834-39.2627-33.65332-71.75049-43.88721-26.74365-8.42481-54.61523-14.26611-75.95166-19.16358-31.4917-7.22851-70.63574-16.13867-114.4043-16.13867-35.26855,0-73.53515,5.78028-113.25488,22.88428C1452.22412,972.417,1445.63574,1053.95215,1384.27441,1081h3.54395C1413.75586,1068.52686,1429.79346,1046.18018,1447.50781,1021.459Z"/><path class="a" d="M1869.07959,1053.854c32.00732-20.32861,46.03809-34.0625,50.92041-45.02832v-4.08838c-2.85449,10.36182-14.84961,24.50147-51.69238,47.90137a308.29423,308.29423,0,0,1-35.085,19.57129c-7.01612,3.27979-14.19678,6.19141-21.48487,8.79h4.22119q9.06445-3.39185,17.87256-7.48535A313.73026,313.73026,0,0,0,1869.07959,1053.854Z"/><path class="a" d="M1848.68164,943.874c-22.58789-7.11523-46.39746-12.4873-65.52832-16.80371-3.65332-.82422-7.17383-1.61914-10.5332-2.38965-55.25-12.68164-138.74512-31.8457-228.55078,6.82618l.002-.001c-51.43848,22.03516-76.65527,57.22656-98.9043,88.27539-18.773,26.19824-35.62158,49.69238-64.61084,61.21875h3.46192c27.49267-12.01465,43.95654-34.96,62.22216-60.4502,22.14795-30.9082,47.25147-65.94091,98.35108-87.83056a278.76232,278.76232,0,0,1,58.32178-17.86377,296.5823,296.5823,0,0,1,54.98046-5.03027c44.10791,0,83.1001,8.95019,114.43116,16.1416,3.36084.77148,6.84765,1.55859,10.53955,2.39111,19.10693,4.311,42.88574,9.67627,65.42138,16.77539,20.88965,6.58008,36.80127,13.291,48.64454,20.51563,11.76171,7.1748,19.48339,14.96093,23.06982,23.21435V985.7002C1911.57275,969.88477,1888.49463,956.416,1848.68164,943.874Z"/><path class="a" d="M1913.92041,1018.519c-8.12891,9.87159-22.77539,21.46289-44.77637,35.436a309.68129,309.68129,0,0,1-35.26172,19.66846c-5.772,2.69824-11.65625,5.14257-17.61523,7.37646h3.6792c4.89111-1.90869,9.73242-3.9541,14.49512-6.18066a311.00245,311.00245,0,0,0,35.41015-19.749c30.45557-19.34277,44.36914-32.75683,50.14844-43.04687v-2.87305A43.264,43.264,0,0,1,1913.92041,1018.519Z"/><path class="a" d="M1869.07959,1053.854a313.73026,313.73026,0,0,1-35.24805,19.66065Q1825.03883,1077.625,1815.959,1081h.30811c5.959-2.23389,11.84326-4.67822,17.61523-7.37646a309.68129,309.68129,0,0,0,35.26172-19.66846c22.001-13.97315,36.64746-25.56445,44.77637-35.436A43.264,43.264,0,0,0,1920,1009.15039v-.32471C1915.11768,1019.7915,1901.08691,1033.52539,1869.07959,1053.854Z"/><path class="a" d="M1544.63867,932.82959c39.71973-17.104,77.98633-22.88428,113.25488-22.88428,43.76856,0,82.9126,8.91016,114.4043,16.13867,21.33643,4.89747,49.208,10.73877,75.95166,19.16358,32.48779,10.23389,63.38233,24.05322,71.75049,43.88721v-.27149c-3.58643-8.25342-11.30811-16.03955-23.06982-23.21435-11.84327-7.22461-27.75489-13.93555-48.64454-20.51563-22.53564-7.09912-46.31445-12.46435-65.42138-16.77539-3.6919-.83252-7.17871-1.61963-10.53955-2.39111-31.33106-7.19141-70.32325-16.1416-114.43116-16.1416a296.5823,296.5823,0,0,0-54.98046,5.03027,278.76232,278.76232,0,0,0-58.32178,17.86377c-51.09961,21.88965-76.20313,56.92236-98.35108,87.83056-18.26562,25.49024-34.72949,48.43555-62.22216,60.4502h.25634C1445.63574,1053.95215,1452.22412,972.417,1544.63867,932.82959Z"/><path class="a" d="M1232.99414,1068.65137c19.38477,0,42.21,1.03711,68.97461,2.25195q8.41845.38232,17.35449.78027c29.46,1.29493,52.877-5.65625,73.68457-21.88086,18.49219-14.42089,32.60352-34.35644,47.543-55.46289,24.93457-35.22754,53.19629-75.15527,108.6084-94.61718l.00391-.001c95.7666-33.96484,176.61914-11.12012,254.81054,10.97168l7.1416,2.01562c7.76563,2.18848,16.20118,4.42481,25.13184,6.793,19.26758,5.10938,41.10645,10.90039,62.542,17.92578,6.93555,2.27344,14.106,4.75782,21.21094,7.49561v-1.46289c-6.80615-2.61524-13.791-5.05274-20.78125-7.34375-31.29687-10.2583-63.021-17.77393-87.729-24.73535-50.84961-14.32764-104.24268-30.21582-162.37061-30.21582a296.5107,296.5107,0,0,0-100.41748,17.25537c-118.37109,41.57324-111.06934,172.03223-222.71045,172.03223-2.16016,0-4.35644-.04883-6.60742-.148-34.35156-1.51319-62.87354-3.03223-86.41211-3.03272-33.60791-.001-57.07324,3.09961-72.94189,13.72754h2.7124C1178.32617,1071.48242,1200.9707,1068.65137,1232.99414,1068.65137Z"/><path class="a" d="M1920,1074.06836c-3.29785,2.332-6.69873,4.65625-10.186,6.93164h2.53174q3.87159-2.56641,7.6543-5.24268Z"/><path class="a" d="M1912.771,1081h2.05273q2.62866-1.76806,5.17627-3.55518v-1.395Q1916.45655,1078.54,1912.771,1081Z"/><path class="a" d="M1836.9541,916.834c-8.91992-2.36523-17.34472-4.59863-25.09082-6.78125l-7.13867-2.01562c-38.52637-10.88477-78.36426-22.14063-120.7793-26.44141-48.10058-4.88183-92.49414.19922-135.7041,15.52442l.00391-.001c-56.24219,19.75293-84.77442,60.06152-109.94727,95.626-29.9873,42.36621-55.87012,78.96484-118.85351,76.18066q-8.93556-.39258-17.34961-.7793c-60.94727-2.76855-101.20606-4.59668-127.84375,4.46A61.751,61.751,0,0,0,1157.64844,1081h1.94922c14.56836-9.91162,35.918-13.96826,73.374-13.96729,19.46582.00049,42.46143,1.04444,69.08838,2.25391q8.40894.3816,17.33447.77881c2.22168.09814,4.44092.14746,6.59668.14746,58.86475,0,84.06055-35.59424,113.23438-76.80859,12.86425-18.17334,26.1665-36.96534,43.32617-53.793a175.81434,175.81434,0,0,1,66.06982-41.41651,295.74991,295.74991,0,0,1,100.49756-17.26953c55.45117,0,106.21484,14.34229,155.30713,28.21289q3.57276,1.00929,7.12842,2.01221c7.75244,2.18408,16.17969,4.41895,25.102,6.78467,19.29053,5.11474,41.15527,10.9126,62.63672,17.95361,6.771,2.21924,13.76465,4.63721,20.70654,7.29834v-1.21728c-6.82715-2.6084-13.6958-4.9834-20.35156-7.165C1878.1377,927.75488,1856.25781,921.95313,1836.9541,916.834Z"/><path class="a" d="M1232.97168,1067.27246c23.53857.00049,52.06055,1.51953,86.41211,3.03272,2.251.09912,4.44726.148,6.60742.148,111.64111,0,104.33936-130.459,222.71045-172.03223a296.5107,296.5107,0,0,1,100.41748-17.25537c58.12793,0,111.521,15.88818,162.37061,30.21582,24.708,6.96142,56.43213,14.477,87.729,24.73535,6.99023,2.291,13.9751,4.72851,20.78125,7.34375V943.187c-6.94189-2.66113-13.93555-5.0791-20.70654-7.29834-21.48145-7.041-43.34619-12.83887-62.63672-17.95361-8.92236-2.36572-17.34961-4.60059-25.102-6.78467q-3.55591-1.002-7.12842-2.01221c-49.09229-13.8706-99.856-28.21289-155.30713-28.21289a295.74991,295.74991,0,0,0-100.49756,17.26953,175.81434,175.81434,0,0,0-66.06982,41.41651c-17.15967,16.82763-30.46192,35.61963-43.32617,53.793-29.17383,41.21435-54.36963,76.80859-113.23438,76.80859-2.15576,0-4.375-.04932-6.59668-.14746q-8.92749-.39332-17.33447-.77881c-26.627-1.20947-49.62256-2.25342-69.08838-2.25391-37.45605-.001-58.80566,4.05567-73.374,13.96729h.43213C1175.89844,1070.37207,1199.36377,1067.27148,1232.97168,1067.27246Z"/><path class="a" d="M1912.3457,1081h.4253q3.6914-2.45361,7.229-4.9502v-.29248Q1916.21045,1078.4248,1912.3457,1081Z"/><path class="a" d="M1851.0791,895.41992q-10.13379-3.19922-20.10742-6.39551c-46.41406-14.81738-90.25391-28.8125-135.5166-35.4414-50.82813-7.44629-96.293-4.53321-143.05664,9.16015-61.27735,17.69532-91.74707,61.1084-121.21289,103.09278-33.5791,47.84375-65.28418,93.03906-140.2793,83.8916-50.02832-6.09863-89.67871-9.98535-120.60742-9.085-31.60547.91406-52.92676,7.02441-67.09863,19.23047A61.38817,61.38817,0,0,0,1087.60205,1081h1.00928c13.70215-28.939,41.3291-39.52539,90.77441-39.52393,31.56885.00147,72.19971,4.42481,111.4043,9.20459a159.56524,159.56524,0,0,0,19.21435,1.21631c61.94288,0,91.0962-41.53418,121.96094-85.50732,14.4253-20.55078,29.34082-41.80127,48.2876-60.146,21.4585-20.77636,45.14453-34.70361,72.41113-42.57763a317.11791,317.11791,0,0,1,90.36963-13.09473c64.32861,0,124.23291,19.12353,187.6543,39.36963q9.97632,3.18456,20.10156,6.394c10.96094,3.46143,23.05176,6.98975,35.852,10.72559,10.5166,3.06884,21.79,6.36035,33.3584,9.89209v-1.00342c-11.47217-3.5-22.64893-6.76318-33.08105-9.80762C1874.12012,902.40625,1862.03223,898.87891,1851.0791,895.41992Z"/><path class="a" d="M1643.03369,850.93115a317.70894,317.70894,0,0,0-90.26855,13.08057c-126.89258,36.64209-123.42481,188.24512-242.76075,188.24512a158.94966,158.94966,0,0,1-19.25781-1.21875c-45.70556-5.57276-82.30469-9.20069-111.36084-9.20166-49.08056-.00147-76.65918,10.35107-90.375,39.16357h1.51319a58.32609,58.32609,0,0,1,14.39892-19.126c15.41016-13.27343,38.917-18.64062,74.44727-18.64062,28.60254,0,64.998,3.47949,111.21582,9.11523,76.56738,9.333,108.71484-36.48633,142.76074-84.99609,29.20312-41.60938,59.40039-84.63574,119.78418-102.07227l.00488-.00195c101.58887-29.74609,182.89356-3.793,277.03321,26.26074q9.98291,3.1875,20.11523,6.39844c10.98047,3.46777,23.082,6.999,35.89453,10.73828,10.65772,3.11035,22.09229,6.44873,33.82129,10.03369v-1.37939c-25.17139-7.686-49.15771-14.28516-69.31885-20.65186C1779.17773,874.09814,1714.01025,850.93115,1643.03369,850.93115Z"/><path class="a" d="M1179.38574,1041.83643c29.05615.001,65.65528,3.6289,111.36084,9.20166a158.94966,158.94966,0,0,0,19.25781,1.21875c119.33594,0,115.86817-151.603,242.76075-188.24512a317.70894,317.70894,0,0,1,90.26855-13.08057c70.97656,0,136.144,23.167,207.64746,45.74707,20.16114,6.3667,44.14746,12.96582,69.31885,20.65186v-.37744c-11.56836-3.53174-22.8418-6.82325-33.3584-9.89209-12.80029-3.73584-24.89111-7.26416-35.852-10.72559q-10.13013-3.19922-20.10156-6.394c-63.42139-20.2461-123.32569-39.36963-187.6543-39.36963a317.11791,317.11791,0,0,0-90.36963,13.09473c-27.2666,7.874-50.95263,21.80127-72.41113,42.57763-18.94678,18.34473-33.8623,39.59522-48.2876,60.146-30.86474,43.97314-60.01806,85.50732-121.96094,85.50732a159.56524,159.56524,0,0,1-19.21435-1.21631c-39.20459-4.77978-79.83545-9.20312-111.4043-9.20459-49.44531-.00146-77.07226,10.585-90.77441,39.52393h.39941C1102.72656,1052.1875,1130.30518,1041.835,1179.38574,1041.83643Z"/><path class="a" d="M1638.07178,819.36377c72.64355,0,139.27734,23.12939,216.4331,49.91113,11.50244,3.99219,23.39649,8.12061,35.523,12.24561,9.356,3.18262,19.41846,6.40918,29.97217,9.73242v-.81738c-10.46387-3.29541-20.44092-6.4961-29.7207-9.65235-12.126-4.125-24.01953-8.2539-35.52149-12.24609C1748.5,831.6543,1664.57227,802.52246,1556.53516,828.37793l.18115.7583A345.26967,345.26967,0,0,1,1638.07178,819.36377Z"/><path class="a" d="M1047.48926,1040.1167c16.30029-16.66113,42.16845-24.4209,81.42969-24.41992,31.57324.00195,72.67626,4.814,133.27441,15.60156a172.60921,172.60921,0,0,0,30.07129,2.81689c66.37939,0,98.46875-45.98,132.44189-94.66015,15.9751-22.89063,32.49463-46.561,53.22559-66.42188,23.44531-22.46142,49.21582-36.82031,78.78418-43.897h0l-.18115-.7583c-66.34375,15.87793-99.95606,64.04687-132.46192,110.62891-38.40722,55.03711-74.68554,107.01855-161.74316,91.52441-107.60254-19.15723-176.66895-24.44824-211.27832,5.19922-12.12793,10.38769-20.18946,24.84277-24.71582,45.26953h.8872C1031.21729,1063.20361,1037.88037,1049.93848,1047.48926,1040.1167Z"/><path class="a" d="M1292.26465,1034.59521a171.916,171.916,0,0,1-30.15527-2.82421c-55.582-9.895-99.26954-15.59229-133.19043-15.59424-61.3877-.0044-90.83985,18.65039-101.24512,64.82324h1.24756c4.42529-19.56543,12.18017-33.42969,23.769-43.35547,15.75488-13.49414,39.2041-19.91211,73.79687-20.19824.81836-.00586,1.63965-.00977,2.47168-.00977,31.39844,0,72.59082,4.834,132.92969,15.5752,88.64258,15.78613,125.3711-36.8457,164.251-92.5625,32.23633-46.19629,65.57031-93.96484,130.98144-109.62012,107.31641-25.69043,190.94043,3.33887,296.81055,40.08887,11.50586,3.99316,23.40332,8.12305,35.53516,12.251,9.52636,3.24023,19.77881,6.52441,30.5332,9.9082v-1.32129c-10.61182-3.34033-20.72168-6.58154-30.127-9.78076-93.21094-31.70655-168.38526-62.13135-251.80127-62.13135a346.08579,346.08579,0,0,0-81.24365,9.75928h0v0C1420.67383,862.19043,1421.34863,1034.59521,1292.26465,1034.59521Z"/><path class="a" d="M1128.919,1016.17676c33.92089.002,77.60839,5.69922,133.19043,15.59424a171.916,171.916,0,0,0,30.15527,2.82421c129.084,0,128.40918-172.40478,264.56348-204.99218l-.11182-.4668h0c-29.56836,7.07666-55.33887,21.43555-78.78418,43.897-20.731,19.86084-37.25049,43.53125-53.22559,66.42188-33.97314,48.68017-66.0625,94.66015-132.44189,94.66015a172.60921,172.60921,0,0,1-30.07129-2.81689c-60.59815-10.7876-101.70117-15.59961-133.27441-15.60156-39.26124-.001-65.1294,7.75879-81.42969,24.41992-9.60889,9.82178-16.272,23.08691-20.26612,40.8833h.45069C1038.0791,1034.82715,1067.53125,1016.17236,1128.919,1016.17676Z"/><path class="a" d="M1854.50488,869.2749c-77.15576-26.78174-143.78955-49.91113-216.4331-49.91113a345.26967,345.26967,0,0,0-81.35547,9.77246l.11182.4668h0a346.08579,346.08579,0,0,1,81.24365-9.75928c83.416,0,158.59033,30.4248,251.80127,62.13135,9.40527,3.19922,19.51513,6.44043,30.127,9.78076v-.50293c-10.55371-3.32324-20.61621-6.5498-29.97217-9.73242C1877.90137,877.39551,1866.00732,873.26709,1854.50488,869.2749Z"/><path class="a" d="M992.8291,1017.32715c17.63623-18.771,45.09912-27.51319,86.42676-27.5127,36.87891.00049,85.92334,7.02442,154.3457,22.104a187.25578,187.25578,0,0,0,40.03467,4.68506c71.43115,0,106.52051-50.54981,143.67041-104.06739,35.47559-51.10547,72.15869-103.95117,143.46924-117.93066a374.92514,374.92514,0,0,1,72.92285-7.23486c80.51563,0,151.79,26.36377,242.02637,59.74169,14.29883,5.28858,29.01123,10.729,44.2749,16.25391v-.63769c-15.19189-5.5-29.83887-10.916-44.0752-16.18164-58.06738-21.4795-108.21582-40.0293-158.416-50.59668-54.8418-11.5459-104.68164-12.15918-156.84863-1.9336-71.55078,14.02637-108.30078,66.97266-143.83985,118.17481-43.18554,62.21875-83.97461,120.99121-183.08886,99.14062-66.874-14.73828-115.07618-21.76172-151.69532-22.10449-39.06347-.33008-65.831,6.75781-84.12109,22.418-17.03223,14.583-26.75879,36.41992-30.11963,69.35449h.67773C971.49707,1052.01465,979.45117,1031.56543,992.8291,1017.32715Z"/><path class="a" d="M999.47559,1013.46777c17.38476-14.88476,42.76367-21.85351,79.71875-21.85351.93164,0,1.873.0039,2.81933.01269,36.44922.34082,84.49414,7.34766,151.20117,22.04883,100.67774,22.1875,141.919-37.21777,185.57618-100.11523,35.26757-50.80957,71.73535-103.34961,142.33007-117.18848l-.23046-1.17773c-145.92872,28.60742-147.39307,222.00879-287.2544,222.00879a186.56311,186.56311,0,0,1-40.16357-4.69874c-65.02735-14.33154-115.54786-22.08935-154.2168-22.08984-72.87695-.001-103.666,27.56055-110.22559,90.58545h1.167C973.50977,1048.86816,982.97168,1027.59912,999.47559,1013.46777Z"/><path class="a" d="M1875.09277,848.79785c14.49561,5.36182,29.415,10.87891,44.90723,16.4834v-1.27783c-111.061-40.19385-193.00293-76.03272-286.30127-76.03272a376.04045,376.04045,0,0,0-72.80762,7.22364h-.00048l.23046,1.17773C1673.7041,774.30664,1758.1748,805.5498,1875.09277,848.79785Z"/><path class="a" d="M1633.69873,787.37061a374.92514,374.92514,0,0,0-72.92285,7.23486c-71.31055,13.97949-107.99365,66.82519-143.46924,117.93066-37.1499,53.51758-72.23926,104.06739-143.67041,104.06739a187.25578,187.25578,0,0,1-40.03467-4.68506c-68.42236-15.07959-117.46679-22.10352-154.3457-22.104-41.32764-.00049-68.79053,8.7417-86.42676,27.5127-13.37793,14.23828-21.332,34.6875-24.356,63.67285h.55713c6.55957-63.0249,37.34864-90.58643,110.22559-90.58545,38.66894.00049,89.18945,7.7583,154.2168,22.08984a186.56311,186.56311,0,0,0,40.16357,4.69874c139.86133,0,141.32568-193.40137,287.2544-222.00879h.00048a376.04045,376.04045,0,0,1,72.80762-7.22364c93.29834,0,175.24023,35.83887,286.30127,76.03272v-.63721c-15.26367-5.5249-29.97607-10.96533-44.2749-16.25391C1785.48877,813.73438,1714.21436,787.37061,1633.69873,787.37061Z"/><path class="a" d="M916.24707,1045.77832c4.76563-25.10644,14.33691-43.541,29.25879-56.35742,18.51855-15.90625,46.21191-23.67285,84.52051-23.67285q3.46875,0,7.05761.085c41.40235.97949,94.61817,10.03808,167.47071,28.50976,51.35937,13.01758,91.959,7.57422,127.77734-17.13476,31.60254-21.80371,54.666-55.18164,79.083-90.51856,38.291-55.41406,77.88476-112.71484,153.71777-124.77832l-.17871-1.12549h0c-155.95849,24.81006-159.22558,239.18311-310.42236,239.18311-15.01416,0-31.46973-2.11035-49.69629-6.73145-74.23242-18.82031-131.51709-28.62988-174.917-28.63085-84.13086-.002-116.09815,36.86523-118.32569,116.39355h1.14991A223.16317,223.16317,0,0,1,916.24707,1045.77832Z"/><path class="a" d="M1894.957,825.68652q12.34424,4.80177,25.043,9.72266V834.187c-112.9209-43.6875-195.09473-78.62256-290.49756-78.62256a408.96055,408.96055,0,0,0-64.54834,5.22119l.17871,1.12549C1682.86426,743.18164,1771.82617,777.79,1894.957,825.68652Z"/><path class="a" d="M937.48926,994.62646c9.53711-10.50732,21.61279-18.08935,36.91748-23.17919,15.30029-5.08838,33.458-7.56153,55.51172-7.561,42.35644.001,97.99414,9.10547,175.09375,28.65332,17.55957,4.45166,34.22021,6.709,49.51953,6.709,76.83545,0,114.97168-55.18653,155.34717-113.61377,38.5166-55.73682,78.34423-113.37159,154.96191-125.56006a407.34032,407.34032,0,0,1,64.66162-5.23c40.71045,0,81.55908,6.32031,128.55274,19.89111,42.88867,12.38477,86.7705,29.45459,137.58154,49.21973Q1907.64991,828.62841,1920,833.415v-.4502q-12.28638-4.75488-24.21582-9.40234c-123.46582-48.02832-212.67383-82.72461-331.00879-63.90332-76.79687,12.21777-116.67285,69.92578-155.23633,125.73437-40.127,58.07227-78.377,113.44922-154.96972,113.44239-14.92481-.002-31.32032-2.10645-49.45411-6.7041-73.02343-18.51368-126.39941-27.59473-167.97656-28.57911-42.58105-1.00293-73.03418,6.88868-93.11816,24.13868-15.33008,13.166-25.14746,32.02832-30.01367,57.66211A225.57133,225.57133,0,0,0,910.46387,1081h.4375C912.04248,1040.68408,920.686,1013.13965,937.48926,994.62646Z"/><path class="a" d="M1758.05518,774.73584c-46.99366-13.5708-87.84229-19.89111-128.55274-19.89111a407.34032,407.34032,0,0,0-64.66162,5.23c-76.61768,12.18847-116.44531,69.82324-154.96191,125.56006-40.37549,58.42724-78.51172,113.61377-155.34717,113.61377-15.29932,0-31.96-2.25733-49.51953-6.709-77.09961-19.54785-132.73731-28.65234-175.09375-28.65332-22.05371-.00049-40.21143,2.47266-55.51172,7.561-15.30469,5.08984-27.38037,12.67187-36.91748,23.17919C920.686,1013.13965,912.04248,1040.68408,910.90137,1081h.6914c2.22754-79.52832,34.19483-116.39551,118.32569-116.39355,43.3999.001,100.68457,9.81054,174.917,28.63085,18.22656,4.6211,34.68213,6.73145,49.69629,6.73145,151.19678,0,154.46387-214.37305,310.42236-239.18311h0v0a408.96055,408.96055,0,0,1,64.54834-5.22119c95.40283,0,177.57666,34.93506,290.49756,78.62256v-.772q-12.36255-4.78417-24.36328-9.45947C1844.82568,804.19043,1800.94385,787.12061,1758.05518,774.73584Z"/><path class="a" d="M881.59326,972.061c20.21387-22.959,52.63574-34.11866,99.146-34.11768,47.10791.00439,111.11719,11.52441,195.68554,35.21826,20.92041,5.86182,40.67432,8.8335,58.71241,8.8335,82.44873,0,123.66113-59.86621,167.29345-123.24707,41.5542-60.3628,84.523-122.78076,166.48047-133.20459h0l-.03027-.2378c-82.06641,10.4375-125.05957,72.89747-166.6377,133.30176-52.69336,76.55567-102.4707,148.86914-225.7539,114.32324-78.38281-21.96093-138.77344-33.418-184.62207-35.02734-46.71192-1.63574-80.19531,6.86035-102.3418,25.98633C863.85205,986.05957,852.311,1023.106,853.80078,1081h.19043C852.58984,1029.3916,861.5415,994.83545,881.59326,972.061Z"/><path class="a" d="M890.9375,965.52441c21.71582-18.75293,54.71387-27.085,100.85352-25.46191,45.6748,1.60254,105.89941,13.03418,184.11621,34.94824,29.9873,8.40039,56.43945,10.84082,80.86718,7.44629a139.565,139.565,0,0,0,60.39258-23.43848c34.85938-23.64648,60.11621-60.33984,86.85547-99.18652,41.30859-60.01269,84.02246-122.06836,165.13086-132.38379,122.81543-15.624,211.125,20.17871,344.80078,74.36621q3.01466,1.22241,6.0459,2.45069v-1.16455c-113.87842-46.15137-196.63477-80.36719-294.73926-80.36719a444.3089,444.3089,0,0,0-56.24316,3.64355h-.00049C1402.87109,747.5083,1398,982.83545,1235.13721,982.83545c-17.6626,0-37.15186-2.76074-58.939-8.86475-83.27539-23.33154-147.31054-35.1831-195.459-35.1875C885.38477,938.77441,852.25732,985.23975,854.834,1081h1.12207C854.46582,1023.7915,865.76807,987.25928,890.9375,965.52441Z"/><path class="a" d="M1738.6748,736.63574c-58.78808-14.98633-112.74218-18.58691-169.79394-11.33008l.03027.2378a442.32855,442.32855,0,0,1,56.34961-3.65039c96.64551,0,177.50586,32.77832,289.4209,78.1455q2.65356,1.07593,5.31836,2.15577v-.26026q-2.62281-1.06273-5.23437-2.12158C1849.543,773.374,1793.21387,750.54,1738.6748,736.63574Z"/><path class="a" d="M1625.26074,722.7334c98.10449,0,180.86084,34.21582,294.73926,80.36719v-.90625q-2.66456-1.08033-5.31836-2.15577c-111.915-45.36718-192.77539-78.1455-289.4209-78.1455a442.32855,442.32855,0,0,0-56.34961,3.65039l.10645.83349A444.3089,444.3089,0,0,1,1625.26074,722.7334Z"/><path class="a" d="M1402.43066,858.74805c-43.63232,63.38086-84.84472,123.24707-167.29345,123.24707-18.03809,0-37.792-2.97168-58.71241-8.8335-84.56835-23.69385-148.57763-35.21387-195.68554-35.21826-46.51026-.001-78.93213,11.15869-99.146,34.11768-20.05176,22.77441-29.00342,57.33056-27.602,108.939h.84277c-2.57666-95.76025,30.55079-142.22559,125.90528-142.2168,48.14844.0044,112.18359,11.856,195.459,35.1875,21.78711,6.104,41.27637,8.86475,58.939,8.86475,162.86279,0,167.73388-235.32715,333.87988-256.4585h.00049l-.10645-.83349h0C1486.95361,735.96729,1443.98486,798.38525,1402.43066,858.74805Z"/><path class="b" d="M1194.40137,963.58984c.26123.0293.52539.062.78613.09034C1194.92627,963.65234,1194.6626,963.61865,1194.40137,963.58984Z"/><path class="b" d="M1291.80273,944.93262c-21.60644,12.45263-46.4375,19.8667-76.31005,19.8667q-3.84962,0-7.79346-.17139C1241.03076,966.11865,1268.312,958.523,1291.80273,944.93262Z"/><path class="b" d="M1199.75977,964.11865c.94238.08057,1.873.14356,2.80615.21C1201.63281,964.26318,1200.7002,964.19775,1199.75977,964.11865Z"/><path class="b" d="M1292.98438,944.25146c.43847-.25878.873-.52343,1.30908-.78662C1293.85742,943.72705,1293.42334,943.99365,1292.98438,944.25146Z"/><path class="b" d="M1296.69238,941.99561q.32594-.20435.65088-.41016C1297.12646,941.72217,1296.90967,941.85986,1296.69238,941.99561Z"/><path class="b" d="M1189.31787,962.96484c.10449.01465.209.02832.31348.04248Z"/><path class="b" d="M1204.06641,964.43213q1.77539.11352,3.52685.19141C1206.42432,964.57227,1205.24707,964.50586,1204.06641,964.43213Z"/><path class="a" d="M1189.63135,963.00732q2.39868.31862,4.77.58252C1192.82324,963.41309,1191.23535,963.22266,1189.63135,963.00732Z"/><path class="a" d="M1202.56592,964.32861c.50049.03516,1.00244.07276,1.50049.10352C1203.56836,964.40039,1203.06689,964.36426,1202.56592,964.32861Z"/><path class="a" d="M1195.1875,963.68018q2.29906.24536,4.57227.43847C1198.24707,963.98926,1196.72461,963.84619,1195.1875,963.68018Z"/><path class="a" d="M1573.08008,691.96826c-176.51319,17.19824-182.73926,273.791-357.5874,273.791-20.21582,0-42.68311-3.4292-67.93116-11.05567-92.228-27.85791-162.979-41.73779-215.91308-41.73925C825.05273,912.96143,790.69238,969.25244,798.51563,1081h1.01757c-4.8999-69.6709,6.81934-113.54541,36.34278-139.21582,47.31836-41.14746,143.35351-36.8623,311.39062,13.89551,32.86133,9.92676,61.84961,13.16015,88.61914,9.88281a148.78533,148.78533,0,0,0,66.07617-24.77441c38.10352-25.501,66.81348-67.37305,94.57715-107.86719,44.332-64.65527,90.17285-131.51367,176.63965-139.9375l.00391-.001C1697.20117,680.419,1787.44531,716.49365,1920,772.13086v-1.10645c-114.12109-47.8955-197.65918-81.54931-298.59229-81.54931A478.455,478.455,0,0,0,1573.08008,691.96826Z"/><path class="a" d="M1572.98145,690.95215c-87.41407,8.51758-133.52832,75.77344-178.124,140.81543-29.52539,43.062-58.21094,84.89355-97.51416,109.81787,39.313-24.84424,67.92041-66.55176,97.562-109.78272,44.58887-65.03076,90.6958-132.27587,178.07813-140.78955a482.58348,482.58348,0,0,1,48.42383-2.498c100.9917,0,185.16162,33.86718,298.59277,81.46875v-.06543C1787.585,714.34863,1697.23047,678.36279,1572.98145,690.95215Z"/><path class="a" d="M797.82715,1023.59375c3.22363-31.96,12.19678-56.13916,27.43115-73.92041,21.71826-25.34863,56.519-37.67041,106.39014-37.669,52.40332.001,123.11963,13.66749,216.19092,41.78028a266.59816,266.59816,0,0,0,41.47851,9.18017,268.41534,268.41534,0,0,1-41.46142-9.23828c-168.7793-50.98047-265.41114-55.13867-313.31934-13.48242-30.0127,26.09717-41.95654,70.45654-37.04346,140.75586h.05274C796.03516,1059.38477,796.13477,1040.37354,797.82715,1023.59375Z"/><path class="a" d="M1294.29346,943.46484q1.20556-.72436,2.39892-1.46923C1295.898,942.49414,1295.09668,942.98047,1294.29346,943.46484Z"/><path class="a" d="M1207.59326,964.62354l.106.00439Z"/><path class="a" d="M1291.80273,944.93262c.39356-.22705.79-.45069,1.18165-.68116C1292.59277,944.48242,1292.19629,944.70508,1291.80273,944.93262Z"/><path class="a" d="M931.64844,912.00439c-49.8711-.00146-84.67188,12.32032-106.39014,37.669-15.23437,17.78125-24.20752,41.96045-27.43115,73.92041-1.69238,16.77979-1.792,35.791-.28076,57.40625h.96924c-7.82325-111.74756,26.5371-168.03857,133.13281-168.03564,52.93408.00146,123.68506,13.88134,215.91308,41.73925,25.248,7.62647,47.71534,11.05567,67.93116,11.05567,174.84814,0,181.07421-256.59278,357.5874-273.791a478.455,478.455,0,0,1,48.32763-2.49316c100.93311,0,184.4712,33.65381,298.59229,81.54931v-1.04052c-113.43115-47.60157-197.60107-81.46875-298.59277-81.46875a482.58348,482.58348,0,0,0-48.42383,2.498c-87.38233,8.51368-133.48926,75.75879-178.07813,140.78955-29.6416,43.231-58.249,84.93848-97.562,109.78272q-.3252.20582-.65088.41016-1.19238.7456-2.39892,1.46923c-.436.26319-.87061.52784-1.30908.78662-.39161.23047-.78809.45411-1.18165.68116-23.49072,13.59033-50.772,21.186-84.10351,19.69531l-.106-.00439q-1.75269-.07985-3.52685-.19141c-.498-.03076-1-.06836-1.50049-.10352-.93311-.0664-1.86377-.12939-2.80615-.21q-2.272-.1919-4.57227-.43847c-.26074-.02832-.5249-.061-.78613-.09034q-2.37086-.2622-4.77-.58252c-.10449-.01416-.209-.02783-.31348-.04248a266.59816,266.59816,0,0,1-41.47851-9.18017C1054.76807,925.67188,984.05176,912.00537,931.64844,912.00439Z"/><path class="b" d="M1616.80713,654.93213c-12.96484,0-26.33789.52148-39.74658,1.55029a170.58421,170.58421,0,0,0-62.04688,16.19385c-17.30908,8.24414-33.53174,19.45605-49.59521,34.27686-29.76075,27.458-54.27,63.30517-77.97168,97.97216-50.187,73.40381-97.59082,142.73682-191.66846,142.73682-23.32422,0-49.0708-4.459-76.52441-13.25391-101.51319-32.52-178.91944-48.32812-236.64307-48.32861-53.502-.00049-90.81982,13.53076-114.08594,41.36768-16.60986,19.873-26.0664,46.86865-28.91015,82.53027-1.64307,20.60254-1.05811,44.09521,1.791,71.02246h.125c-3.30371-31.24121-3.56787-57.90723-.83349-80.69141,4.5-37.499,17.07421-64.83007,38.44043-83.55468,26.335-23.07813,66.02929-32.91309,121.32031-30.082,55.58789,2.8496,127.14453,18.50195,218.75879,47.85058,147.48242,47.24414,206.18359-38.62207,268.335-129.53223,47.59863-69.62109,96.8164-141.6123,189.52148-148.38769h-.00293C1700.626,647.12012,1791.86768,682.064,1920,737.18066v-.12793c-51.75391-22.25927-98.05469-41.46386-142.458-55.54C1720.33594,663.37793,1669.26123,654.93213,1616.80713,654.93213Z"/><path class="a" d="M1577.14307,657.55908c-186.88184,13.65869-194.46827,291.18311-381.36475,291.18311-22.751,0-48.14111-4.10742-76.854-13.30567-101.08155-32.38134-178.56006-48.27685-236.31348-48.27734C764.66943,887.1582,728.99609,953.46,742.50293,1081h.95752c-3.30908-31.18066-3.58008-57.769-.85693-80.46289,4.4414-37.00781,16.80566-63.94141,37.7998-82.33984,25.93848-22.73145,65.17676-32.416,119.957-29.6084,55.419,2.84179,126.81641,18.46484,218.27051,47.76172,35.75488,11.4541,67.293,15.4873,96.4082,12.33007a158.22515,158.22515,0,0,0,71.77832-26.09277c41.35742-27.34473,72.34864-72.67578,102.31934-116.51367,47.3418-69.24609,96.29492-140.84863,188.07715-147.55762h.00293c123.34472-9.457,214.51367,25.5625,342.7832,80.7544v-1.04541c-114.26709-49.16065-198.92236-82.21338-303.19287-82.21338C1603.90918,656.01221,1590.73486,656.5166,1577.14307,657.55908Z"/><path class="a" d="M882.61084,887.15918c57.75342.00049,135.23193,15.896,236.31348,48.27734,28.71289,9.19825,54.103,13.30567,76.854,13.30567,186.89648,0,194.48291-277.52442,381.36475-291.18311,13.59179-1.04248,26.76611-1.54687,39.66406-1.54687,104.27051,0,188.92578,33.05273,303.19287,82.21338v-1.04493c-128.13232-55.1167-219.374-90.06054-342.92969-80.57812h.00293c-92.70508,6.77539-141.92285,78.7666-189.52148,148.38769-62.15137,90.91016-120.85254,176.77637-268.335,129.53223-91.61426-29.34863-163.1709-45.001-218.75879-47.85058-55.291-2.83106-94.98535,7.0039-121.32031,30.082-21.36622,18.72461-33.94043,46.05566-38.44043,83.55468-2.73438,22.78418-2.47022,49.4502.83349,80.69141h.97217C728.99609,953.46,764.66943,887.1582,882.61084,887.15918Z"/><path class="b" d="M1611.877,621.09717c-10.05371,0-20.395.2876-30.73681.855a174.82874,174.82874,0,0,0-65.68262,15.98437c-18.33545,8.48975-35.5293,20.21875-52.56494,35.85791-31.56543,28.97754-57.6626,67.24707-82.90088,104.25684-51.13135,74.979-104.00293,152.51074-204.01953,152.51074-25.92188,0-54.62207-5.22461-85.30274-15.52978-109.88476-36.90772-193.96972-54.85108-257.05957-54.856-57.36377-.00049-97.31591,14.78564-122.1665,45.20215-28.90527,35.37939-37.394,91.84961-25.937,175.62158h.32568c-12.75-93.7168-.50976-153.9502,37.55469-187.58887,56.73535-50.14062,173.41211-43.17773,367.1875,21.90528,159.626,53.61816,222.791-39.02344,289.66894-137.09864,25.22754-36.99511,51.31446-75.249,82.85352-104.20312,35.47266-32.56543,74.0918-49.49707,118.0625-51.7627h.001c122.73291-6.74414,214.665,27.23877,338.83984,81.6045v-.32471c-48.94385-21.42481-93.39551-39.91065-136.084-53.71192C1722.47217,629.95557,1669.41309,621.09717,1611.877,621.09717Z"/><path class="a" d="M1581.20605,623.15039c-197.31689,10.167-206.15527,308.61182-405.23388,308.61182-25.24756,0-53.54492-4.79737-85.68506-15.59229C980.44824,879.27783,896.21484,861.38135,833.60986,861.376c-129.42578-.01075-166.49414,76.459-146.8872,219.624h.92236c-12.7251-93.19482-.686-152.99414,36.93408-186.24023,56.20215-49.6709,172.31934-42.59571,365.42188,22.26367,38.64746,12.97949,72.73047,17.81347,104.20117,14.77539a167.78676,167.78676,0,0,0,77.47949-27.41309c44.6084-29.18847,77.876-77.97363,110.04883-125.15332,50.34766-73.833,102.41016-150.17969,199.52148-155.18359h.00293C1703.85889,617.3252,1795.7002,651.377,1920,705.8208v-.98144c-114.2876-50.05762-200.29785-82.54248-308.123-82.54248C1601.8457,622.29688,1591.65527,622.57666,1581.20605,623.15039Z"/><path class="a" d="M833.60986,861.376c62.605.00537,146.83838,17.90185,256.67725,54.79394,32.14014,10.79492,60.4375,15.59229,85.68506,15.59229,199.07861,0,207.917-298.44483,405.23388-308.61182,10.44922-.57373,20.63965-.85351,30.6709-.85351,107.8252,0,193.83545,32.48486,308.123,82.54248v-.98291c-124.1748-54.36573-216.10693-88.34864-338.83984-81.6045h-.001c-43.9707,2.26563-82.58984,19.19727-118.0625,51.7627-31.53906,28.9541-57.626,67.208-82.85352,104.20312-66.87793,98.0752-130.043,190.7168-289.66894,137.09864-193.77539-65.083-310.45215-72.0459-367.1875-21.90528C685.32227,927.0498,673.082,987.2832,685.832,1081h.89063C667.11572,937.835,704.18408,861.36523,833.60986,861.376Z"/><path class="b" d="M1585.22266,587.42236a179.43094,179.43094,0,0,0-69.32422,15.77979c-19.36328,8.73633-37.52979,20.9834-55.53809,37.44092-33.3706,30.49756-61.05615,71.18847-87.82959,110.53955-54.2915,79.79541-110.43066,162.30713-216.43262,162.30713-28.49755,0-60.12793-6-94.01318-17.833-118.21777-41.2832-208.97217-61.35449-277.44873-61.35938-30.63428-.00244-57.14014,4.17285-78.78271,12.41065-21.32911,8.11816-38.74805,20.48877-51.77344,36.769-19.30908,24.13428-29.63379,56.75635-31.564,99.73047-1.2666,28.19824,1.11866,60.48437,7.25586,97.79248h.48926c-7.04785-42.83057-9.16455-79.10059-6.45752-109.95215,3.97266-45.28613,18.21094-78.27051,43.52734-100.83887,30.59278-27.27148,76.668-38.61718,140.84571-34.68359,65.5,4.01367,148.502,23.83106,253.751,60.585,171.77247,59.9834,242.55372-44.0498,311.00391-144.66015,26.75684-39.32715,54.42481-79.99415,87.75293-110.45411,37.45508-34.22949,78.19824-51.59765,124.55762-53.09472h-.002c121.88721-4.30371,214.2754,28.77832,334.75977,82.16455v-.53223c-114.22168-50.6333-201.7583-82.49267-313.4209-82.49267C1599.561,587.041,1592.37549,587.16943,1585.22266,587.42236Z"/><path class="a" d="M1585.26953,588.7417c-207.793,6.71045-217.8374,326.06787-429.17139,326.06787-27.72265,0-58.897-5.4917-94.44824-17.90674-118.54345-41.397-209.521-61.28027-277.01367-61.28564C643.61963,835.60645,605.03174,922.375,631.12061,1081h.84326c-7.06055-42.80566-9.18653-79.02686-6.48633-109.80469,3.93359-44.83984,17.99023-77.46289,42.97168-99.73144,30.24121-26.96,75.91113-38.1709,139.625-34.26172,65.34375,4.0039,148.19824,23.792,253.29883,60.49414,41.54394,14.50781,78.17968,20.13965,111.999,17.2207a177.45625,177.45625,0,0,0,83.17871-28.7334c47.85938-31.03222,83.39942-83.26953,117.76953-133.78808,53.35254-78.418,108.52149-159.50586,210.97657-162.81446h.00195c121.771-4.32031,214.09814,28.84913,334.70117,82.32129v-.92382c-114.2876-50.68164-201.85352-82.61768-313.4209-82.61768C1599.56982,588.36084,1592.48047,588.48633,1585.26953,588.7417Z"/><path class="a" d="M784.63623,835.61719c67.49268.00537,158.47022,19.88867,277.01367,61.28564,35.55127,12.415,66.72559,17.90674,94.44824,17.90674,211.334,0,221.37842-319.35742,429.17139-326.06787,7.21094-.25537,14.30029-.38086,21.30957-.38086,111.56738,0,199.1333,31.936,313.4209,82.61768v-.9126c-120.48437-53.38623-212.87256-86.46826-334.75977-82.16455h.002c-46.35938,1.49707-87.10254,18.86523-124.55762,53.09472-33.32812,30.46-60.99609,71.127-87.75293,110.45411-68.45019,100.61035-139.23144,204.64355-311.00391,144.66015-105.249-36.7539-188.251-56.57129-253.751-60.585C743.999,831.5918,697.92383,842.9375,667.33105,870.209c-25.3164,22.56836-39.55468,55.55274-43.52734,100.83887-2.707,30.85156-.59033,67.12158,6.45752,109.95215h.85938C605.03174,922.375,643.61963,835.60645,784.63623,835.61719Z"/><path class="b" d="M1600.89014,552.78955c-3.81739,0-7.71436.03467-11.5835.104-26.20068.39356-50.0708,5.48975-72.97021,15.57813-20.39209,8.98389-39.53174,21.75-58.51319,39.02637-35.17578,32.01758-64.44824,75.1289-92.75683,116.82129C1307.61035,808.93848,1248.19873,896.439,1136.17334,896.439c-31.05518,0-65.59912-6.78173-102.67139-20.15771C970.54,853.56445,913.55518,836.3623,864.12988,825.15186c-48.85742-11.08155-92.07177-16.70215-128.44287-16.70606-32.731-.00049-61.02832,4.53662-84.14355,13.48584-22.751,8.80762-41.28809,22.19824-55.09668,39.79883-10.32813,13.16406-18.3169,29.06885-23.74463,47.27148-5.29395,17.75489-8.32764,38.29395-9.0166,61.04493-.96778,31.98486,2.48877,68.5874,10.51513,110.95312h.67188c-9.19141-48.48633-12.41211-89.48145-9.8208-124.37109,3.64844-49.14356,18.68262-84.958,45.96-109.48828,32.74707-29.4502,82.05566-41.60743,150.77051-37.15918,70.52539,4.5625,159.332,26.45214,271.49511,66.92089,82.50879,29.76856,150.31836,26.42188,207.30469-10.23535,50.84082-32.70312,88.55957-88.25586,125.03613-141.98047,28.28516-41.65918,57.53321-84.7373,92.65039-116.70117,39.43458-35.89453,82.30176-53.69922,131.05176-54.43262h-.002c69.64648-1.23242,131.89551,8.35254,201.80762,31.11622,41.32617,13.45556,82.81982,30.62158,128.874,51.20947v-.72608c-44.07812-19.70019-83.90723-36.227-123.56494-49.43017C1728.02441,562.94629,1667.71582,552.78955,1600.89014,552.78955Z"/><path class="a" d="M1589.33252,554.333c-218.30322,3.28271-229.50928,343.5459-453.15967,343.5459-30.1792,0-64.21191-6.19092-103.15967-20.24317-127.17968-45.88623-224.91552-67.74219-297.32666-67.75C582.9502,809.87012,542.76758,907.07666,575.69141,1081h.76953c-9.208-48.47461-12.43946-89.43018-9.85352-124.25586,3.61719-48.72266,18.4834-84.19531,45.44824-108.44434,32.418-29.15332,81.35938-41.17968,149.626-36.76171,70.37695,4.55273,159.044,26.41406,271.06641,66.83105,44.43945,16.03516,83.625,22.47168,119.79883,19.665,32.24707-2.49707,61.31933-12.32813,88.8789-30.05469,51.10938-32.876,88.918-88.5625,125.48242-142.416,56.35547-83.002,114.62891-168.8291,222.43555-170.4502h.002C1710.18506,552.94336,1802.83252,585.26709,1920,637.606v-.86524c-114.32812-51.09668-203.6582-82.51123-319.10986-82.51123Q1595.15308,554.22949,1589.33252,554.333Z"/><path class="a" d="M735.68652,809.88574c72.41114.00781,170.147,21.86377,297.32666,67.75,38.94776,14.05225,72.98047,20.24317,103.15967,20.24317,223.65039,0,234.85645-340.26319,453.15967-343.5459q5.82495-.104,11.55762-.10352c115.45166,0,204.78174,31.41455,319.10986,82.51123v-.8623c-46.0542-20.58789-87.54785-37.75391-128.874-51.20947-69.91211-22.76368-132.16114-32.34864-201.80762-31.11622h.002c-48.75.7334-91.61718,18.53809-131.05176,54.43262-35.11718,31.96387-64.36523,75.042-92.65039,116.70117C1329.1416,778.41113,1291.42285,833.96387,1240.582,866.667c-56.98633,36.65723-124.7959,40.00391-207.30469,10.23535C921.11426,836.43359,832.30762,814.544,761.78223,809.98145c-68.71485-4.44825-118.02344,7.709-150.77051,37.15918-27.27734,24.53027-42.31152,60.34472-45.96,109.48828-2.59131,34.88964.62939,75.88476,9.8208,124.37109h.81885C542.76758,907.07666,582.9502,809.87012,735.68652,809.88574Z"/><path class="b" d="M554.46191,824.19727c70.27832-63.75489,217.5293-52.79981,450.16407,33.49707,87.94726,32.624,160.20507,29.63574,220.90332-9.13282,54.1084-34.55859,94.09961-93.56836,132.77343-150.63574,29.8125-43.99023,60.63965-89.47851,97.5459-122.94824,41.38086-37.52734,86.34082-55.77344,137.43164-55.77344.52637.00586,1.03223-.001,1.54981-.002,71.43457,0,135.30371,10.74023,206.87207,34.76953,38.19189,12.82324,76.541,28.689,118.29785,47.42773v-.91992c-41.42187-18.58008-79.49414-34.32959-117.418-47.09521C1730.627,529.16406,1666.543,518.36279,1594.794,518.36279l-1.40137.00147h-.13721c-27.48779,0-52.53027,5.03906-76.562,15.40576-21.41113,9.23682-41.51514,22.52246-61.46191,40.6167-36.96729,33.53564-67.81592,79.05469-97.64893,123.07568-60.62109,89.44922-123.30615,181.94385-241.37549,181.94385-33.59814,0-71.041-7.56982-111.28857-22.49951-67.11084-24.89551-127.97754-43.75-180.90918-56.03955-52.13965-12.106-98.31836-18.24463-137.25244-18.24512-34.82911,0-64.98194,4.91016-89.6211,14.59473-24.22314,9.521-43.91406,23.96582-58.52539,42.93213C501.35449,888.51074,494.7832,967.57324,518.7832,1081h.86182C492.77441,953.98145,504.27783,869.72412,554.46191,824.19727Z"/><path class="a" d="M555.42969,825.26367c29.68164-26.92773,73.25781-40.416,131.37207-40.416,78.6289,0,183.873,24.69238,317.32422,74.19629,47.33691,17.55957,89.07519,24.78515,127.60156,22.10937,34.32617-2.39062,65.26269-12.6543,94.57715-31.37793,54.3584-34.71875,94.43359-93.85351,133.19043-151.042,59.33789-87.55762,120.68554-178.08985,233.78711-178.08985h.11425c.457-.001.90528-.001,1.36133-.001,119.11231,0,211.69092,31.47265,325.24219,82.36914v-.81055c-114.46436-51.35693-205.75439-82.27832-325.206-82.27832-.4751,0-.92237.00049-1.39844.00147h-.11719c-228.74219-.02295-241.10742,361.042-477.07129,361.042-32.627,0-69.49023-6.89063-111.831-22.59717-135.7876-50.37109-240.25733-74.186-317.61963-74.187C522.209,784.18018,480.28809,891.92041,520.37744,1081h.73779C494.27246,954.36572,505.60938,870.46,555.42969,825.26367Z"/><path class="a" d="M1594.83008,519.20215c-.51758.001-1.02344.00781-1.54981.002-51.09082,0-96.05078,18.2461-137.43164,55.77344-36.90625,33.46973-67.7334,78.958-97.5459,122.94824-38.67382,57.06738-78.665,116.07715-132.77343,150.63574-60.69825,38.76856-132.95606,41.75684-220.90332,9.13282-232.63477-86.29688-379.88575-97.252-450.16407-33.49707C504.27783,869.72412,492.77441,953.98145,519.645,1081h.73242C480.28809,891.92041,522.209,784.18018,686.75635,784.18213c77.3623.001,181.832,23.81592,317.61963,74.187,42.34082,15.70654,79.2041,22.59717,111.83105,22.59717,235.96387,0,248.3291-361.06494,477.07129-361.042h.11719c.47607-.001.92334-.00147,1.39844-.00147,119.45166,0,210.74169,30.92139,325.20605,82.27832v-.80176c-41.75684-18.73877-80.106-34.60449-118.29785-47.42773C1730.13379,529.94238,1666.26465,519.20215,1594.83008,519.20215Z"/><path class="b" d="M447.05371,928.17285c2.86426-56.0039,19.90625-98.666,50.65234-126.80176,18.14063-16.59961,41.50879-28.59277,69.45606-35.64453,28.47949-7.18652,62.60449-9.46679,101.42383-6.77343,79.58789,5.51855,183.00781,32.27636,307.38769,79.53222,93.38379,35.48145,170.09278,32.85547,234.50684-8.0293,57.374-36.41406,99.63574-98.87988,140.50586-159.28808,31.33789-46.32031,63.74414-94.21777,102.4375-129.19238,42.51562-38.42871,88.61621-57.14356,140.81543-57.14356,1.07617,0,2.14648.00781,3.22851.02344,74.37012.91992,140.624,12.74609,214.82422,38.3457,34.98584,12.07031,70.10547,26.59326,107.708,43.47559v-1.11914c-37.46973-16.81348-72.48437-31.28369-107.37549-43.32129-74.30713-25.63623-140.66015-37.47949-215.14551-38.40137-1.08789-.01562-2.20752-.02392-3.29052-.02392-28.31494,0-54.14356,5.25146-78.96241,16.05468-22.11132,9.62451-42.90576,23.47071-63.57226,42.32959-38.3042,34.9541-70.44727,82.46485-101.53174,128.41114-63.78857,94.28515-129.749,191.78076-253.9126,191.78076-36.13183,0-76.46338-8.36231-119.874-24.85547-71.207-27.0542-135.93848-47.54981-192.396-60.91895-55.42773-13.125-104.58056-19.78222-146.09326-19.78662-37.05908-.00049-69.10937,5.29-95.30127,15.7251-25.72558,10.249-46.5874,25.769-62.00635,46.12842-11.60839,15.32812-20.43164,33.7959-26.22509,54.89111-5.66114,20.61182-8.59912,44.353-8.73194,70.564-.19775,38.91748,5.81494,84.8081,17.895,136.86523h1.05176C450.7666,1021.73535,444.88916,970.47363,447.05371,928.17285Z"/><path class="a" d="M1594.189,485.49121c-236.28906,0-250.68408,378.57617-497.97949,378.57617-35.05322,0-74.76318-7.59961-120.4707-24.96533-144.30518-54.82617-255.561-80.5874-337.89258-80.5957C461.31543,758.48779,417.624,876.88135,465.19385,1081h.68994c-13.78369-59.26855-19.67334-110.5083-17.51172-152.75977,2.8457-55.64453,19.74414-98.00195,50.22559-125.89453,31.35156-28.69043,78.25586-43.16015,139.70312-43.16015q14.55175,0,30.19434,1.084c79.458,5.50977,182.751,32.24024,307.00976,79.4502,50.23633,19.08593,94.52735,27.11621,135.40723,24.55175,36.40527-2.28418,69.20605-12.98046,100.27539-32.70019,57.60645-36.5625,99.94629-99.14356,140.8916-159.66406,65.22559-96.40821,126.83985-187.50879,245.36914-185.73145h.002c118.6455,1.46777,211.54443,32.229,322.5498,81.9961v-.75977c-111.85986-50.22022-203.46436-80.42383-322.5415-81.897C1596.37451,485.499,1595.26318,485.49121,1594.189,485.49121Z"/><path class="a" d="M1597.46777,484.85547c-1.082-.01563-2.15234-.02344-3.22851-.02344-52.19922,0-98.29981,18.71485-140.81543,57.14356-38.69336,34.97461-71.09961,82.87207-102.4375,129.19238-40.87012,60.4082-83.13184,122.874-140.50586,159.28808-64.41406,40.88477-141.123,43.51075-234.50684,8.0293-124.37988-47.25586-227.7998-74.01367-307.38769-79.53222-38.81934-2.69336-72.94434-.41309-101.42383,6.77343-27.94727,7.05176-51.31543,19.04492-69.45606,35.64453C466.96,829.50684,449.918,872.169,447.05371,928.17285c-2.16455,42.30078,3.71289,93.5625,17.47461,152.82715h.66553C417.624,876.88135,461.31543,758.48779,637.84619,758.50635c82.33154.0083,193.5874,25.76953,337.89258,80.5957,45.70752,17.36572,85.41748,24.96533,120.4707,24.96533,247.29541,0,261.69043-378.57617,497.97949-378.57617,1.07422,0,2.18555.00781,3.26954.02393,119.07714,1.47314,210.68164,31.67675,322.5415,81.897v-.73535c-37.60254-16.88233-72.72217-31.40528-107.708-43.47559C1738.0918,497.60156,1671.83789,485.77539,1597.46777,484.85547Z"/><path class="b" d="M387.84473,914.11914c2.458-59.74512,20.26465-105.32226,52.92578-135.46387,38.73828-35.75,99.65332-50.95214,181.0459-45.18945,84.667,5.99707,194.18164,34.86719,325.50195,85.80957,98.82617,38.33887,179.98633,36.07422,248.11523-6.92383,60.64063-38.27148,105.1709-104.1914,148.23536-167.94043,32.86425-48.64941,66.84668-98.95508,107.3291-135.43457,21.79687-19.6416,43.74511-33.89258,67.09961-43.56933,26.18847-10.85059,53.47656-15.73438,83.44043-14.90039h-.001c76.72461,1.95605,144.99414,14.86621,221.35937,41.85937,31.71192,11.21,63.53077,24.35791,97.10352,39.39453v-1.31543c-33.41895-14.957-65.11084-28.043-96.70508-39.21093-76.48828-27.03711-144.87207-39.96827-221.72754-41.92725-2.11425-.05811-4.25049-.08789-6.34521-.08789-29.15283,0-55.77637,5.46338-81.39112,16.70215-22.82421,10.01367-44.31982,24.42285-65.7163,44.0498-39.65967,36.38037-73.10743,85.89307-105.45313,133.77539-66.96533,99.1294-136.21045,201.63379-266.4751,201.63379-38.65576,0-81.86718-9.15869-128.43359-27.22314-75.3042-29.21192-143.8916-51.34619-203.85791-65.78809-58.7085-14.13867-110.83789-21.30908-154.93994-21.31152-39.27149-.002-73.27393,5.67968-101.063,16.8872-27.27051,10.998-49.3335,27.625-65.57568,49.41748-12.2378,16.41993-21.4668,36.17286-27.43018,58.71-5.83154,22.041-8.70557,47.374-8.542,75.29589.25,42.63965,7.60986,92.82276,21.90625,149.63184h1.23389C393.21143,1016.40186,385.94043,960.41943,387.84473,914.11914Z"/><path class="a" d="M1595.22168,451.01953c-243.958,0-260.37647,396.16113-519.03516,396.16113-37.47363,0-80.01269-8.30908-129.08447-27.34521-152.80957-59.27832-270.81738-86.97266-358.14746-86.97754C400.36523,732.84766,354.75732,861.96875,410.09033,1081h.63135c-16.29736-64.6084-23.58105-120.57471-21.67773-166.831,2.44433-59.417,20.12109-104.7129,52.541-134.63184C474.76367,748.917,524.374,733.47559,589.3623,733.47559q15.59181,0,32.36915,1.1875c84.54687,5.98828,193.94433,34.832,325.15332,85.73144,53.13671,20.61231,99.98144,29.43848,143.21582,26.9961,38.48437-2.17872,73.14843-13.30762,105.97363-34.02442,60.85351-38.40625,105.45605-104.43164,148.58887-168.2832,67.17871-99.44531,130.68261-193.46582,250.43847-193.46582,2.11231,0,4.25586.03027,6.40332.08886h.001c117.43652,2.99366,210.269,33.03565,318.49414,81.4336v-.70654c-108.981-48.81885-200.56885-78.32081-318.47852-81.32666C1599.41016,451.04834,1597.2998,451.01953,1595.22168,451.01953Z"/><path class="a" d="M588.95459,732.85791c87.33008.00488,205.33789,27.69922,358.14746,86.97754,49.07178,19.03613,91.61084,27.34521,129.08447,27.34521,258.65869,0,275.07715-396.16113,519.03516-396.16113,2.07812,0,4.18848.02881,6.2998.08692C1719.43115,454.1123,1811.019,483.61426,1920,532.43311v-.67237c-33.57275-15.03662-65.3916-28.18457-97.10352-39.39453-76.36523-26.99316-144.63476-39.90332-221.35937-41.85937h.001c-29.96387-.834-57.252,4.0498-83.44043,14.90039-23.3545,9.67675-45.30274,23.92773-67.09961,43.56933-40.48242,36.47949-74.46485,86.78516-107.3291,135.43457-43.06446,63.749-87.59473,129.669-148.23536,167.94043-68.1289,42.99805-149.28906,45.2627-248.11523,6.92383-131.32031-50.94238-240.835-79.8125-325.50195-85.80957-81.39258-5.76269-142.30762,9.43945-181.0459,45.18945-32.66113,30.14161-50.46778,75.71875-52.92578,135.46387-1.9043,46.30029,5.3667,102.28272,21.63965,166.88086h.606C354.75732,861.96875,400.36523,732.84766,588.95459,732.85791Z"/><path class="b" d="M1605.65625,414.7793c-3.10791-.12207-6.23828-.18409-9.30029-.18409-30.01319,0-57.44971,5.67627-83.87744,17.35352-23.55127,10.40625-45.76026,25.38184-67.89649,45.78272-41.03369,37.8164-75.79248,89.3413-109.40625,139.16943-70.13818,103.97119-142.66455,211.48193-279.0332,211.48193-41.75391,0-86.55811-9.68261-136.97266-29.6001-79.37842-31.36083-151.811-55.12695-215.28564-70.63769-61.98731-15.147-117.09864-22.82813-163.80176-22.8291-41.56592-.00147-77.5542,6.08105-106.96582,18.07861-28.84082,11.76465-52.11914,29.52-69.18945,52.77246-12.86084,17.51856-22.48633,38.5586-28.60987,62.53516-5.99414,23.47021-8.79345,50.39014-8.3208,80.01074.74024,46.35986,9.51416,100.79834,26.11719,162.28711h1.43359c-18.88427-69.84766-27.6372-130.52783-26.02978-180.8291C330.5459,836.70313,349.10352,788.21,383.6748,756.041c40.90821-38.06543,105.26465-54.2295,191.27442-48.04395,89.78125,6.45606,205.42285,37.43262,343.71387,92.06934,104.27441,41.19629,189.88379,39.292,261.72461-5.81836,63.9082-40.12793,110.70507-109.501,155.96191-176.58985,34.38867-50.97851,69.94922-103.69336,112.21973-141.67773,22.752-20.44531,45.65625-35.20508,70.0205-45.12305,27.31446-11.11816,55.77637-15.92187,87.01661-14.69824,79.07617,2.96582,149.36621,16.94238,227.9082,45.31836,28.37744,10.25244,56.835,21.999,86.48535,35.21435v-1.51171c-29.47559-13.12549-57.78223-24.80079-86.01709-35.00147C1755.30078,431.75244,1684.88232,417.751,1605.65625,414.7793Z"/><path class="a" d="M329.59766,900.20508c2.01855-63.16992,20.46-111.40723,54.8125-143.373,35.03418-32.59961,87.41894-49.041,156.02734-49.041q16.58643,0,34.43457,1.2832c89.6709,6.44824,205.20508,37.40039,343.39453,91.99609,56.03711,22.13867,105.42969,31.77539,151.02442,29.43946,40.56445-2.07227,77.09179-13.63477,111.67089-35.34668,64.10157-40.25,110.96387-109.71973,156.28321-176.90137,71.5-105.99219,139.05078-206.1084,268.31836-201.02442h.001c116.15186,4.35694,208.80909,33.71241,314.43555,80.71729v-.65771c-106.272-47.38379-197.75879-76.22364-314.41553-80.59913-3.09814-.12158-6.19824-.18261-9.228-.18261-251.77881,0-270.16456,413.78759-540.21387,413.78759-39.89453,0-85.23389-9.01464-137.67774-29.73437-161.26806-63.71387-286.03466-93.33008-378.38232-93.33252C339.32715,707.23,291.73926,847.17871,355.09229,1081h.57421C336.75684,1011.13867,327.99072,950.46875,329.59766,900.20508Z"/><path class="a" d="M540.08252,707.23584c92.34766.00244,217.11426,29.61865,378.38232,93.33252,52.44385,20.71973,97.78321,29.73437,137.67774,29.73437,270.04931,0,288.43506-413.78759,540.21387-413.78759,3.02978,0,6.12988.061,9.228.18261C1722.24121,421.07324,1813.728,449.91309,1920,497.29688v-.605c-29.65039-13.21533-58.10791-24.96191-86.48535-35.21435-78.542-28.376-148.832-42.35254-227.9082-45.31836-31.24024-1.22363-59.70215,3.58008-87.01661,14.69824-24.36425,9.918-47.26855,24.67774-70.0205,45.12305-42.27051,37.98437-77.83106,90.69922-112.21973,141.67773-45.25684,67.08887-92.05371,136.46192-155.96191,176.58985-71.84082,45.11035-157.4502,47.01465-261.72461,5.81836-138.291-54.63672-253.93262-85.61328-343.71387-92.06934C488.93945,701.81152,424.583,717.97559,383.6748,756.041,349.10352,788.21,330.5459,836.70313,328.51758,900.1709c-1.60742,50.30127,7.14551,110.98144,26.02978,180.8291h.54493C291.73926,847.17871,339.32715,707.23,540.08252,707.23584Z"/><path class="b" d="M1609.74609,380.25146c-4.07031-.2041-8.1665-.30761-12.17089-.30761-30.88868,0-59.1504,5.89013-86.39942,18.00732-24.28613,10.79932-47.21484,26.34326-70.09521,47.519-42.41553,39.25586-78.48438,92.79639-113.36573,144.57422-73.31054,108.82227-149.1167,221.34912-291.63379,221.34912-43.68457,0-92.63574-10.76171-145.49316-31.98535C807.16162,745.90967,730.89551,720.52,663.90771,703.94336,598.6416,687.792,540.544,679.60156,491.229,679.59912c-43.90722-.00195-81.92041,6.48779-112.98291,19.28955-30.43994,12.54492-54.95214,31.44971-72.85742,56.189-48.05664,66.3999-50.48,175.92138-7.335,325.92236H299.666c-48.55518-168.43994-39.59913-285.22119,26.7705-347.47656,88.64649-83.1543,278.25977-67.22949,563.57032,47.333,109.71679,44.05468,199.78125,42.51367,275.33789-4.71192,67.1748-41.98535,116.23828-114.81152,163.68554-185.23926,35.91407-53.30761,73.04981-108.42871,117.10743-147.918,23.709-21.25,47.56835-36.51855,72.9414-46.67773,28.43945-11.38672,58.07324-16.13477,90.59278-14.5,81.42871,3.9541,153.74316,18.98242,234.47363,48.73047,24.98974,9.2085,50.03515,19.53271,75.85449,30.96094V459.7959c-25.62354-11.32959-50.49414-21.57324-75.31445-30.71924C1763.79932,399.27148,1691.34131,384.21289,1609.74609,380.25146Z"/><path class="a" d="M1597.5752,381.98389c-259.709,0-279.96631,431.4497-561.49366,431.4497-42.29541,0-90.46777-9.73242-146.2539-32.13232C720.15137,713.1709,588.61035,681.644,491.229,681.63916,278.1875,681.62793,228.54932,832.48438,300.1709,1081h.49512c-48.53711-168.20361-39.69678-284.751,26.42675-346.77637,37.06934-34.7705,91.88965-52.13672,164.09961-52.13672,99.89942,0,233.06934,33.252,398.457,99.66016,55.78028,22.39746,103.97657,32.12793,146.30664,32.125,144.00489-.01074,219.9209-112.665,293.8711-222.43066,74.63476-110.78321,145.1084-215.42774,279.79687-208.67286,114.8003,5.57374,207.18262,34.27247,310.376,79.8794V462.041c-103.72607-45.9375-195.02734-74.15235-310.35254-79.752C1605.58105,382.08545,1601.52881,381.98389,1597.5752,381.98389Z"/><path class="a" d="M491.229,681.63916c97.38135.00488,228.92237,31.53174,398.59864,99.66211,55.78613,22.3999,103.95849,32.13232,146.2539,32.13232,281.52735,0,301.78467-431.4497,561.49366-431.4497,3.95361,0,8.00585.10156,12.07226.30517,115.3252,5.59961,206.62647,33.81446,310.35254,79.752v-.54c-25.81934-11.42823-50.86475-21.75244-75.85449-30.96094-80.73047-29.748-153.04492-44.77637-234.47363-48.73047-32.51954-1.63477-62.15333,3.11328-90.59278,14.5-25.373,10.15918-49.23242,25.42773-72.9414,46.67773-44.05762,39.48926-81.19336,94.61036-117.10743,147.918-47.44726,70.42774-96.51074,143.25391-163.68554,185.23926-75.55664,47.22559-165.6211,48.7666-275.33789,4.71192C604.69629,666.294,415.083,650.36914,326.43652,733.52344,260.06689,795.77881,251.11084,912.56006,299.666,1081h.50488C228.54932,832.48438,278.1875,681.62793,491.229,681.63916Z"/><path class="b" d="M1613.83691,345.72363c-5.01806-.30127-10.05615-.4541-14.97216-.4541-31.77246,0-60.86719,6.105-88.94629,18.66358-25.02832,11.19384-48.68213,27.30761-72.313,49.26171-43.80859,40.69971-81.19678,96.26221-117.354,149.99561-76.49218,113.67529-155.58886,231.2207-304.2456,231.2207-46.19092,0-98.0044-11.56592-154-34.37695-87.46777-35.63232-167.55957-62.64258-238.05078-80.28027-68.54-17.14991-129.62549-25.8462-181.56055-25.84717-46.28564-.001-86.35449,6.90674-119.09375,20.53076-32.062,13.34229-57.82373,33.418-76.56933,59.67139-27.95459,39.14941-40.97852,92.84472-38.70948,159.59277,1.82862,53.792,13.60987,116.64551,35.06055,187.29834h1.81836c-24.37549-80.147-36.25781-150.11572-35.34229-208.4375,1.11133-70.86426,21.13477-125.18945,59.51172-161.46777,45.27051-42.79395,116.56446-60.959,211.89453-53.98535,100.10157,7.32128,228.08106,42.49121,380.38379,104.53613,257.01465,104.70312,360.38965-48.92481,460.36328-197.49317,37.43653-55.63379,76.14844-113.16308,121.99414-154.15625,24.66407-22.05468,49.47852-37.83105,75.86133-48.23242,29.56348-11.65527,60.36524-16.335,94.169-14.30273,83.78125,4.92187,158.126,20.99023,241.05566,52.10156,21.55567,8.08691,43.14405,16.96924,65.208,26.65088v-1.89795c-21.84766-9.57422-43.2373-18.36865-64.59766-26.38184C1772.30322,366.7583,1697.80127,350.65625,1613.83691,345.72363Z"/><path class="a" d="M1598.86475,347.42969c-267.6919,0-289.86133,449.1416-582.85889,449.1416-44.69824,0-95.67773-10.4458-154.81494-34.53662C683.12549,689.49512,544.82813,656.06836,442.39453,656.06689,216.99756,656.06348,165.229,817.90723,245.332,1081h.44727c-24.40039-80.16455-36.29541-150.13037-35.38086-208.4248,1.1084-70.62891,21.042-124.75293,59.249-160.87012,38.82227-36.69824,96.90332-55.207,172.98926-55.207q18.43066,0,38.26758,1.44922c100.01269,7.31445,227.90625,42.46484,380.12793,104.47558,59.15918,24.10059,110.18457,34.55176,154.9209,34.54981,150.09765-.00489,229.29394-117.68164,306.45507-232.35059,77.77051-115.57324,151.23731-224.71875,291.27735-216.32324h.001c113.39014,6.66162,205.40284,34.72656,306.31348,78.94433v-.55322c-101.33594-44.499-192.36475-72.11719-306.28955-78.80957C1608.687,347.57861,1603.72314,347.42969,1598.86475,347.42969Z"/><path class="a" d="M442.39453,656.06689c102.4336.00147,240.731,33.42823,418.79639,105.96778,59.13721,24.09082,110.1167,34.53662,154.81494,34.53662,292.99756,0,315.167-449.1416,582.85889-449.1416,4.85839,0,9.82226.14892,14.8457.45068,113.9248,6.69238,204.95361,34.31055,306.28955,78.80957v-.47656c-22.064-9.68164-43.65234-18.564-65.208-26.65088-82.92969-31.11133-157.27441-47.17969-241.05566-52.10156-33.80371-2.03223-64.60547,2.64746-94.16895,14.30273-26.38281,10.40137-51.19726,26.17774-75.86133,48.23242-45.8457,40.99317-84.55761,98.52246-121.99414,154.15625-99.97363,148.56836-203.34863,302.19629-460.36328,197.49317C709.0459,699.60059,581.06641,664.43066,480.96484,657.10938c-95.33007-6.97364-166.624,11.1914-211.89453,53.98535-38.37695,36.27832-58.40039,90.60351-59.51172,161.46777-.91552,58.32178,10.9668,128.29053,35.34229,208.4375h.43115C165.229,817.90723,216.99756,656.06348,442.39453,656.06689Z"/><path class="b" d="M1617.9292,311.19678c-5.94531-.41211-11.90625-.6211-17.71436-.6211-32.66845,0-62.60644,6.32032-91.52441,19.32227-25.77734,11.59033-50.16309,28.27588-74.55078,51.01123-45.21094,42.14844-83.92236,99.73828-121.35986,155.43213-79.67481,118.5293-162.0625,241.09375-316.86231,241.09375-49.37939,0-102.53125-12.0293-162.49414-36.7749C652.68115,666.06934,504.6958,628.24512,393.57813,628.2373c-96.68409-.00634-165.86768,28.58545-205.63038,84.98194-29.18847,41.39941-42.49121,97.957-39.53711,168.102C150.83252,938.82813,164.1875,1005.84375,188.1665,1081H190.189c-27.23583-85.2041-40.7666-159.7749-40.24072-222.11133.62891-74.54,21.36817-131.78222,61.6416-170.13965,47.46289-45.20214,122.249-64.3955,222.27539-57.05957C539.168,639.417,673.35254,676.67676,832.69141,742.43457c269.21289,111.10449,377.23339-49.6123,481.69922-205.03125,40.7539-60.63086,79.24707-117.89844,126.88085-160.39648,25.61915-22.8584,51.38868-39.14356,78.78223-49.78711,30.6875-11.92383,62.66406-16.53907,97.74414-14.10743,86.13574,5.87208,162.51465,22.96973,247.65137,55.43653,18.08105,6.895,36.18359,14.33594,54.55078,22.31445v-2.09473c-18.12988-7.86328-36.00684-15.20312-53.86572-22.01367C1780.8125,334.2168,1704.26318,317.08252,1617.9292,311.19678Z"/><path class="a" d="M1600.21484,312.856c-275.75488,0-299.81152,466.85888-604.29736,466.85888-47.09912,0-100.874-11.1582-163.36377-36.94726-186.39746-76.92432-331.48-112.24268-438.97558-112.25C155.7002,630.50146,101.75342,803.40283,190.55518,1081h.38867c-27.25928-85.22168-40.80127-159.7915-40.27588-222.10547.62695-74.33691,21.291-131.40625,61.41894-169.624,40.75-38.81055,101.7461-58.38477,181.67188-58.38477q19.292,0,40.05371,1.52246c105.22656,7.72168,239.33594,44.96387,398.60352,110.69239,62.54785,25.8125,116.37695,36.98632,163.52246,36.98144,156.17773-.01758,238.68066-122.71094,319.0498-242.27734,80.90527-120.36328,157.32031-234.04492,302.76074-223.97364,111.92969,7.62989,203.48877,35.0879,302.251,77.93506v-.502c-99.08984-43.08105-189.76123-70.12549-302.22607-77.79248Q1608.834,312.852,1600.21484,312.856Z"/><path class="a" d="M393.57813,630.51758c107.4956.00732,252.57812,35.32568,438.97558,112.25,62.48975,25.78906,116.26465,36.94726,163.36377,36.94726,304.48584,0,328.54248-466.85888,604.29736-466.85888q8.6067,0,17.55909.61572c112.46484,7.667,203.13623,34.71143,302.22607,77.79248v-.40088c-18.36719-7.97851-36.46973-15.41943-54.55078-22.31445-85.13672-32.4668-161.51563-49.56445-247.65137-55.43653-35.08008-2.43164-67.05664,2.1836-97.74414,14.10743-27.39355,10.64355-53.16308,26.92871-78.78223,49.78711-47.63378,42.498-86.127,99.76562-126.88085,160.39648-104.46583,155.419-212.48633,316.13574-481.69922,205.03125C673.35254,676.67676,539.168,639.417,433.86523,631.68945c-100.02636-7.33593-174.8125,11.85743-222.27539,57.05957-40.27343,38.35743-61.01269,95.59961-61.6416,170.13965C149.42236,921.2251,162.95313,995.7959,190.189,1081h.36622C101.75342,803.40283,155.7002,630.50146,393.57813,630.51758Z"/><path class="b" d="M1622.021,276.66943c-6.85791-.53369-13.72364-.8042-20.40528-.8042-33.57959,0-64.37256,6.53663-94.13818,19.9834-26.53565,11.9878-51.65967,29.24756-76.80762,52.7666-46.62256,43.60254-84.87549,100.57081-125.37451,160.88428-82.84766,123.38184-168.5166,250.96436-329.47607,250.96436-51.91407,0-107.84131-12.81543-170.97852-39.17823-188.60059-78.75-343.38721-118.685-460.06055-118.69628h-.04589c-101.585-.00147-174.14014,30.2246-215.66895,89.83984C98.65137,736.08936,85.082,795.50586,88.73486,869.0293c3.04151,61.21484,18.02735,132.37158,44.58936,211.9707h2.20752c-30.16455-90.209-45.37988-169.35107-45.26807-235.707.13086-78.2002,21.57813-138.36231,63.74512-178.8125C203.667,618.84473,281.959,598.59668,386.7041,606.28516c110.52832,8.11914,250.93848,47.46289,417.32813,116.93945,281.40039,117.49414,394.07519-50.29981,503.03808-212.57031,42.34668-63.06543,82.34571-122.63184,131.7666-166.63575,26.57422-23.66113,53.29883-40.45507,81.70118-51.34082,31.81054-12.19433,64.95214-16.74511,101.32226-13.91406,88.49024,6.80664,166.90723,24.92285,254.25879,58.73926,14.5752,5.64258,29.16211,11.62891,43.88086,17.95068V353.169c-14.459-6.19971-28.79541-12.07764-43.12207-17.624C1789.32568,301.65039,1710.7251,283.49268,1622.021,276.66943Z"/><path class="a" d="M90.86328,845.294c.13086-78.03125,21.5166-138.04688,63.56152-178.38086,42.69727-40.959,106.6504-61.61817,190.47364-61.61817q20.11962,0,41.76172,1.58887c110.46386,8.11426,250.81054,47.44238,417.1416,116.89355,65.92187,27.52637,122.56836,39.42383,172.11133,39.41895,162.2832-.01465,248.07421-127.73438,331.65527-252.208,80.16113-119.37793,156.06641-232.43359,293.80078-232.43359q9.99464,0,20.44434.80664c110.42431,8.49414,201.45215,35.37207,298.18652,76.875v-.44727c-96.97559-41.69287-187.21094-68.19238-298.16309-76.72656-6.86767-.53467-13.63818-.79785-20.22119-.79785-283.92187,0-309.77783,484.59912-625.79638,484.59912-49.49561,0-106.06641-11.87305-171.90284-39.36328C609.2085,642.2002,457.35156,605,344.78027,604.98975,94.353,604.9668,38.167,788.99805,135.84961,1081h.314C105.97754,990.77441,90.75244,911.63232,90.86328,845.294Z"/><path class="a" d="M344.78027,604.98975C457.35156,605,609.2085,642.2002,803.9165,723.50049c65.83643,27.49023,122.40723,39.36328,171.90284,39.36328,316.01855,0,341.87451-484.59912,625.79638-484.59912,6.583,0,13.35352.26318,20.22119.79785,110.95215,8.53418,201.1875,35.03369,298.16309,76.72656v-.33545c-14.71875-6.32177-29.30566-12.3081-43.88086-17.95068-87.35156-33.81641-165.76855-51.93262-254.25879-58.73926-36.37012-2.83105-69.51172,1.71973-101.32226,13.91406-28.40235,10.88575-55.127,27.67969-81.70118,51.34082-49.42089,44.00391-89.41992,103.57032-131.7666,166.63575-108.96289,162.2705-221.63769,330.06445-503.03808,212.57031C637.64258,653.74805,497.23242,614.4043,386.7041,606.28516,281.959,598.59668,203.667,618.84473,154.00879,666.48047c-42.167,40.45019-63.61426,100.6123-63.74512,178.8125-.11181,66.356,15.10352,145.49805,45.26807,235.707h.31787C38.167,788.99805,94.353,604.9668,344.78027,604.98975Z"/><path class="b" d="M1626.11377,242.14258c-7.76563-.666-15.53027-1.00391-23.07813-1.00391-34.49169,0-66.13818,6.74561-96.74658,20.62256-27.28955,12.37256-53.14453,30.18848-79.04248,54.46631-48.01513,45.01172-87.51172,103.87012-129.32715,166.18506-86.04834,128.23291-175.02588,260.83252-342.46191,260.83252-54.37744,0-112.99512-13.52051-179.20215-41.33448-196.32519-83.22558-357.875-125.42822-480.15381-125.43115-106.4834-.002-182.46045,31.92237-225.81982,94.8877-31.68115,46.00586-45.55078,108.354-41.22315,185.312C32.71436,921.6875,49.34326,996.999,78.53662,1081h2.41113C8.86035,874.0752,14.10986,723.35352,96.6748,643.72852,148.626,593.627,230.46,572.335,339.87988,580.43945c115.77344,8.5752,262.29492,50.15039,435.49317,123.57325C906.96094,759.291,1014.88867,759.084,1105.3252,703.376c80.251-49.4336,138.33984-135.9961,194.5166-219.708,43.916-65.44238,85.39648-127.25586,136.585-172.7168,27.51855-24.43945,55.1914-41.72363,84.59863-52.83887,32.92969-12.44531,67.248-16.92285,104.89453-13.69726,90.84668,7.72754,171.30567,26.85351,260.88086,62.01465q16.56738,6.50317,33.19922,13.57568v-2.47851q-16.23412-6.87525-32.3667-13.21973C1797.84424,269.06152,1717.189,249.88965,1626.11377,242.14258Z"/><path class="a" d="M97.00781,644.07422c44.68653-43.09668,111.54883-64.833,199.13574-64.833q21.05566,0,43.70118,1.67676c115.7207,8.57129,262.19043,50.13476,435.34179,123.53711,35.75,15.01855,70.18555,26.09277,102.34864,32.916,30.61621,6.49512,60.166,9.34668,87.84472,8.47852,50.9834-1.59961,96.84278-15.35938,140.19629-42.06445,80.34082-49.48828,138.459-136.09473,194.66406-219.84961,87.11817-129.82129,169.39844-252.43457,325.63868-239.042,108.88232,9.26124,199.30517,35.57227,294.12109,75.76514v-.39014c-94.98242-40.3413-184.70215-66.30957-294.1001-75.61474-7.78027-.66748-15.43506-.99512-22.86426-.99512-292.19531,0-319.51318,502.10645-647.57812,502.10645-51.82227,0-111.11914-12.51953-180.17773-41.53125-202.93946-86.0293-361.51416-125.23145-479.17823-125.23438C33.19727,578.99414-25.50391,774.69141,81.19824,1081h.25781C9.376,874.186,14.56543,723.58057,97.00781,644.07422Z"/><path class="a" d="M296.10156,578.99951c117.66407.00293,276.23877,39.20508,479.17823,125.23438,69.05859,29.01172,128.35546,41.53125,180.17773,41.53125,328.06494,0,355.38281-502.10645,647.57812-502.10645,7.4292,0,15.084.32764,22.86426.99512,109.398,9.30517,199.11768,35.27344,294.1001,75.61474v-.26318q-16.656-7.06787-33.19922-13.57568c-89.57519-35.16114-170.03418-54.28711-260.88086-62.01465-37.64648-3.22559-71.96484,1.25195-104.89453,13.69726-29.40723,11.11524-57.08008,28.39942-84.59863,52.83887-51.18848,45.46094-92.66895,107.27442-136.585,172.7168-56.17676,83.71191-114.26563,170.27441-194.5166,219.708-90.43653,55.708-198.36426,55.915-329.95215.63672C602.1748,630.58984,455.65332,589.01465,339.87988,580.43945,230.46,572.335,148.626,593.627,96.6748,643.72852,14.10986,723.35352,8.86035,874.0752,80.94775,1081h.25049C-25.50391,774.69141,33.19727,578.99414,296.10156,578.99951Z"/><path class="b" d="M1446.36035,267.72363a286.31431,286.31431,0,0,1,50.22754-32.96972A284.11632,284.11632,0,0,0,1446.36035,267.72363Z"/><path class="b" d="M1630.20654,207.6167c-8.65722-.80664-17.29883-1.21533-25.68261-1.21533-35.41553,0-67.92774,6.96435-99.39454,21.2915-28.05712,12.77442-54.6582,31.17041-81.32519,56.24072-49.44141,46.48145-90.21094,107.29932-133.374,171.689-89.21924,133.09521-181.47608,270.7207-355.021,270.7207-56.13232,0-119.29541-14.73828-187.73438-43.80664-204.15185-87.27344-372.499-131.5332-500.35986-131.5459h-.05127C135.728,550.99023,56.29443,584.582,11.1665,650.833A211.2407,211.2407,0,0,0-2,673.02246v5.54981a201.83125,201.83125,0,0,1,40.835-56.83594c54.13574-52.58008,139.48535-74.96875,253.68067-66.56153,121.04,8.918,273.85449,52.53028,454.19726,129.627,137.01856,58.19336,249.38965,58.377,343.542.56152,83.5166-51.28711,143.874-141.31836,202.24414-228.38476,45.51465-67.88965,88.50391-132.01465,141.48438-178.99219,28.47656-25.25,57.10547-43.04688,87.52246-54.4082,34.05762-12.72071,69.54-17.14161,108.47363-13.51172,93.80469,8.69043,176.82617,28.94531,269.19043,65.67382q10.40479,4.13747,20.83008,8.49756v-2.665q-9.97266-4.15283-19.9209-8.11816C1807.48682,236.63525,1724.25537,216.33008,1630.20654,207.6167Z"/><path class="b" d="M-2,992.08887v9.12793Q8.9204,1039.75829,23.79248,1081H26.418Q9.72315,1034.84131-2,992.08887Z"/><path class="b" d="M1497.96826,234.044c.84229-.42188,1.69483-.82325,2.54151-1.23536C1499.6626,233.22021,1498.81055,233.62305,1497.96826,234.044Z"/><path class="b" d="M1503.91211,231.169c.30371-.14209.61133-.27588.91553-.41651C1504.52344,230.89307,1504.21582,231.02734,1503.91211,231.169Z"/><path class="b" d="M1439.1001,273.76416c.20019-.1709.39844-.34619.59912-.51709C1439.49854,273.418,1439.30029,273.59277,1439.1001,273.76416Z"/><path class="b" d="M1442.80908,270.64258c.71924-.59863,1.43457-1.20459,2.15723-1.7959C1444.24365,269.43848,1443.52783,270.04346,1442.80908,270.64258Z"/><path class="a" d="M1439.69922,273.24707c1.03125-.87939,2.07129-1.73975,3.10986-2.60449C1441.77,271.50635,1440.73047,272.36914,1439.69922,273.24707Z"/><path class="a" d="M26.80078,1081Q9.832,1034.09717-2,990.71582v.67383Q9.79345,1034.5205,26.60352,1081Z"/><path class="a" d="M39.08594,621.99512C85.75,576.6709,155.6582,553.80957,247.29492,553.80957q21.7793,0,45.19434,1.72461c121.001,8.915,273.77637,52.51758,454.083,129.59863,37.21679,15.80664,73.0664,27.49317,106.5498,34.73242,31.86719,6.89063,62.63184,9.97852,91.43652,9.1709,53.0586-1.48144,100.77832-15.667,145.88379-43.36621,83.584-51.32812,143.96387-141.39258,202.35547-228.49121,46.40528-69.21924,91.48731-136.456,146.30225-183.41455C1276.14209,413.1001,1200.05469,728.9834,935.40918,728.9834c-54.22168,0-116.34814-13.25879-188.7666-44.0166C535.44287,594.68018,370.07129,553.64307,247.31494,553.63086,118.877,553.61816,37.05029,598.523-2,678.90869v.4834A201.61556,201.61556,0,0,1,39.08594,621.99512Z"/><path class="a" d="M1496.58789,234.75391c.46143-.23438.918-.47852,1.38037-.71C1497.50586,234.27588,1497.04883,234.519,1496.58789,234.75391Z"/><path class="a" d="M1629.94629,210.42383C1737.13379,220.35547,1827.00244,246.0293,1920,284.79v-.35742c-93.11035-38.88623-182.27344-64.20313-290.03711-74.1875-8.67139-.80762-17.18848-1.2041-25.439-1.2041a233.6464,233.6464,0,0,0-99.69629,21.71142C1541.28711,213.9209,1582.29492,205.98828,1629.94629,210.42383Z"/><path class="a" d="M1500.50977,232.80859c1.13232-.5498,2.26123-1.10693,3.40234-1.63964C1502.77148,231.70264,1501.6416,232.25732,1500.50977,232.80859Z"/><path class="a" d="M1444.96631,268.84668c.4624-.37891.93017-.74707,1.394-1.123C1445.896,268.09912,1445.42871,268.46826,1444.96631,268.84668Z"/><path class="a" d="M26.60352,1081Q9.80835,1034.56079-2,991.38965v.69922Q9.71362,1034.811,26.418,1081Z"/><path class="a" d="M247.31494,553.63086c122.75635.01221,288.12793,41.04932,499.32764,131.33594,72.41846,30.75781,134.54492,44.0166,188.7666,44.0166,264.64551,0,340.73291-315.8833,503.69092-455.21924.20019-.17139.39844-.34619.59912-.51709,1.03125-.87793,2.0708-1.74072,3.10986-2.60449.71875-.59912,1.43457-1.2041,2.15723-1.7959.4624-.37842.92969-.74756,1.394-1.123a284.11632,284.11632,0,0,1,50.22754-32.96972c.46094-.23487.918-.478,1.38037-.71.84229-.4209,1.69434-.82374,2.54151-1.23536,1.13183-.55127,2.26171-1.106,3.40234-1.63964.30371-.14161.61133-.27588.91553-.41651a233.6464,233.6464,0,0,1,99.69629-21.71142c8.25048,0,16.76757.39648,25.439,1.2041,107.76367,9.98437,196.92676,35.30127,290.03711,74.1875v-.19483q-10.42968-4.35278-20.83008-8.49756c-92.36426-36.72851-175.38574-56.98339-269.19043-65.67382-38.93359-3.62989-74.416.791-108.47363,13.51172-30.417,11.36132-59.0459,29.1582-87.52246,54.4082-52.98047,46.97754-95.96973,111.10254-141.48438,178.99219-58.37011,87.0664-118.72754,177.09765-202.24414,228.38476-94.15234,57.81543-206.52343,57.63184-343.542-.56152-180.34277-77.09668-333.15723-120.709-454.19726-129.627C178.32031,546.76758,92.9707,569.15625,38.835,621.73633A201.83125,201.83125,0,0,0-2,678.57227v.33642C37.05029,598.523,118.877,553.61816,247.31494,553.63086Z"/><path class="b" d="M1546.16309,181.69434c.44336-.11182.89111-.21582,1.33593-.32471C1547.05371,181.478,1546.60693,181.583,1546.16309,181.69434Z"/><path class="b" d="M1531.96533,185.73535c-49.47461,15.72754-91.00342,46.94531-128.64209,86.86377C1440.92676,232.82324,1482.5166,201.54492,1531.96533,185.73535Z"/><path class="b" d="M1539.2832,183.53223c1.06055-.30127,2.13037-.58545,3.19825-.87305C1541.4126,182.94482,1540.34473,183.23242,1539.2832,183.53223Z"/><path class="b" d="M1532.439,185.5835c1.6045-.50928,3.22266-.99219,4.84424-1.46875Q1534.84864,184.82593,1532.439,185.5835Z"/><path class="b" d="M245.10449,529.9248c126.32715,9.24708,285.4502,54.89161,472.94922,135.665,142.44629,61.11133,259.26465,61.68848,357.12891,1.76075,86.78222-53.13965,149.4082-146.63868,209.97265-237.05957,22.61133-33.75977,45.99317-68.668,69.96875-100.30274,26.83008-35.40332,51.82618-63.19531,76.41407-84.96484,29.43457-26.06055,59.0205-44.3711,90.44824-55.97852a237.29582,237.29582,0,0,1,52.85351-12.84961,266.13579,266.13579,0,0,1,59.19825-.47851A955.907,955.907,0,0,1,1777.084,200.7041c43.07422,10.99414,86.32227,25.31348,132.21192,43.77832q5.35033,2.15259,10.7041,4.36719v-2.85742q-4.85963-1.99952-9.7168-3.9585c-94.65088-38.08349-179.76709-59.34619-275.9834-68.94385-9.5332-.9541-19.03906-1.4375-28.25292-1.4375-36.3418,0-69.72413,7.18409-102.0542,21.96192-28.82715,13.17724-56.1792,32.15576-83.61817,58.019-50.874,47.95361-92.92236,110.73486-137.43945,177.20264-92.397,137.957-187.94043,280.61133-367.584,280.61133-58.63964,0-124.67089-15.57227-196.25781-46.2837C507.09863,571.8374,331.959,525.52734,198.544,525.52148c-58.65284-.00244-109.40186,9.08838-150.83838,27.02A233.26352,233.26352,0,0,0-2,581.55957v3.29883C54.54639,540.5249,137.51855,522.0542,245.10449,529.9248Z"/><path class="b" d="M1399.28223,276.92822c.49707-.53808.99658-1.07129,1.49511-1.60644C1400.2793,275.85791,1399.77881,276.38916,1399.28223,276.92822Z"/><path class="a" d="M198.458,528.39746q22.47216,0,46.6289,1.7666C371.3877,539.40918,530.48438,585.04785,717.959,665.81055c38.6836,16.5957,75.94629,28.89258,110.75,36.54883,33.1211,7.28613,65.10059,10.60937,95.02735,9.86425a298.00878,298.00878,0,0,0,151.57226-44.668c86.82715-53.168,149.4668-146.68945,210.0459-237.13086,37.04639-55.30957,73.27637-109.39892,113.92774-153.49658C1255.03955,432.98145,1168.251,712.207,915.35156,712.207c-56.625,0-121.55908-13.99365-197.34619-46.50732-219.48-94.5503-391.59619-137.41309-519.46142-137.41846C111.55371,528.27734,45.044,548.11719-2,585.00488v.17969C46.05176,547.43457,113.22559,528.39746,198.458,528.39746Z"/><path class="a" d="M1531.96533,185.73535c.15821-.05029.31543-.10205.47363-.15185Q1532.20166,185.65894,1531.96533,185.73535Z"/><path class="a" d="M1537.2832,184.11475c.666-.19434,1.33057-.39356,2-.58252C1538.61426,183.72266,1537.94873,183.91943,1537.2832,184.11475Z"/><path class="a" d="M1400.77734,275.32178q1.27-1.36671,2.5459-2.72266C1402.47119,273.5,1401.625,274.4126,1400.77734,275.32178Z"/><path class="a" d="M1542.48145,182.65918c1.2246-.32715,2.44775-.65674,3.68164-.96484C1544.93018,182.00439,1543.70508,182.33008,1542.48145,182.65918Z"/><path class="a" d="M1606.04688,174.41211a244.29771,244.29771,0,0,0-58.54786,6.95752,245.05167,245.05167,0,0,1,58.28223-6.852q13.72851,0,28.2334,1.4375c95.93359,9.56933,180.80566,30.77246,275.19238,68.75q5.395,2.17089,10.793,4.40381V248.978c-91.31885-37.67334-179.814-62.55225-285.97412-73.1416C1624.46875,174.87988,1615.10986,174.41211,1606.04688,174.41211Z"/><path class="a" d="M198.544,528.28125c127.86523.00537,299.98144,42.86816,519.46142,137.41846C793.79248,698.21338,858.72656,712.207,915.35156,712.207c252.89942,0,339.688-279.22558,483.93067-435.27881.49658-.53906.99707-1.07031,1.49511-1.60644.84766-.90918,1.69385-1.82178,2.5459-2.72266,37.63867-39.91846,79.16748-71.13623,128.64209-86.86377q.23658-.07617.47363-.15185,2.40894-.76026,4.84424-1.46875c.66553-.19532,1.33106-.39209,2-.58252,1.06153-.29981,2.1294-.58741,3.19825-.87305,1.22363-.3291,2.44873-.65479,3.68164-.96484.44384-.11133.89062-.21631,1.33593-.32471a244.29771,244.29771,0,0,1,58.54786-6.95752c9.063,0,18.42187.46777,27.979,1.42432C1740.186,186.42578,1828.68115,211.30469,1920,248.978v-.12842q-5.354-2.20752-10.7041-4.36719c-45.88965-18.46484-89.1377-32.78418-132.21192-43.77832a955.907,955.907,0,0,0-143.04589-24.9873,266.13579,266.13579,0,0,0-59.19825.47851,237.29582,237.29582,0,0,0-52.85351,12.84961c-31.42774,11.60742-61.01367,29.918-90.44824,55.97852-24.58789,21.76953-49.584,49.56152-76.41407,84.96484-23.97558,31.63477-47.35742,66.543-69.96875,100.30274-60.56445,90.42089-123.19043,183.91992-209.97265,237.05957C977.31836,727.27832,860.5,726.70117,718.05371,665.58984c-187.499-80.77343-346.62207-126.418-472.94922-135.665C137.51855,522.0542,54.54639,540.5249-2,584.8584v.14648C45.044,548.11719,111.55371,528.27734,198.544,528.28125Z"/><path class="b" d="M5.83984,526.04248c.13916-.05273.27784-.10644.417-.15918,8.895-3.3623,18.12353-6.38037,27.68652-8.9917a401.97159,401.97159,0,0,1,75.16894-12.51269,602.00692,602.00692,0,0,1,88.53907.30859c131.62988,9.56445,297.07617,57.23535,491.74121,141.69043,40.14453,17.38184,78.8125,30.28809,114.92969,38.35937a454.22485,454.22485,0,0,0,51.19628,8.49708,376.95049,376.95049,0,0,0,47.39454,2.05761,328.29066,328.29066,0,0,0,43.873-3.87207,302.4902,302.4902,0,0,0,78.31739-23.4873,326.09538,326.09538,0,0,0,35.00781-18.59375c90.04687-54.99317,154.94043-151.96,217.69726-245.73438,23.38477-34.94238,47.56446-71.07324,72.34278-103.78418,13.32617-17.59277,25.80761-32.89062,38.15625-46.76953a480.29974,480.29974,0,0,1,40.78418-40.98926,337.90621,337.90621,0,0,1,44.39355-33.4375,263.41162,263.41162,0,0,1,48.97949-24.11132,242.78438,242.78438,0,0,1,54.54493-13.00977,273.14261,273.14261,0,0,1,61.08593-.13477,987.87062,987.87062,0,0,1,146.26368,26.44043c44.02734,11.47852,88.21582,26.32813,135.09082,45.39649.18261.07422.36718.15137.5498.22558v-3.04443c-96.51416-39.21435-183.38965-61.37207-281.60645-71.82227a291.68361,291.68361,0,0,0-30.79345-1.67041c-37.27539,0-71.53272,7.40333-104.73,22.63379-29.602,13.58106-57.70752,33.14258-85.92139,59.80176-52.31348,49.42822-95.64355,114.17578-141.51807,182.7251-95.57714,142.81885-194.40869,290.5-380.1455,290.5-62.00586,0-128.98731-15.95068-204.772-48.76416-219.7749-95.34863-401.70166-143.70361-540.72363-143.72119h-.06494C91.15039,500.06689,40.15332,508.80469-2,526.03711v3.1167Q1.87158,527.5498,5.83984,526.04248Z"/><path class="a" d="M1607.6001,139.77344c-316.97315,0-349.89893,555.66064-712.31446,555.66064-59.02929,0-126.75537-14.72558-205.917-49.001C461.6748,547.64893,282.7627,502.96582,149.78906,502.94873c-55.86865-.00684-103.63769,7.87158-143.53222,22.93457-.13916.05274-.27784.10645-.417.15918Q1.86352,527.55127-2,529.1626v.04541c42.0376-17.43506,92.69189-26.20508,151.6377-26.20508q23.14892,0,48.00488,1.80371c131.61719,9.56348,297.04883,57.23145,491.70215,141.68066,40.15136,17.38477,78.82617,30.29395,114.95117,38.36719a454.4649,454.4649,0,0,0,51.21,8.499,374.86726,374.86726,0,0,0,47.40918,2.05761,328.04211,328.04211,0,0,0,43.88965-3.873,302.525,302.525,0,0,0,78.34765-23.4961,326.25282,326.25282,0,0,0,35.02149-18.60058c21.63086-13.21,42.28613-29.02442,63.14648-48.34766a608.13929,608.13929,0,0,0,55.833-59.80371c35.28516-42.77832,67.55176-90.99219,98.75586-137.61914,23.38281-34.94043,47.5625-71.06934,72.33789-103.77832,13.32422-17.58985,25.80371-32.88574,38.15039-46.76172a480.072,480.072,0,0,1,40.77442-40.97949,337.661,337.661,0,0,1,44.37695-33.42578,263.28662,263.28662,0,0,1,48.957-24.09961,242.66125,242.66125,0,0,1,54.51758-13.00391,273.13858,273.13858,0,0,1,61.05957-.13477,987.76091,987.76091,0,0,1,146.24609,26.4375c44.02246,11.47754,88.20606,26.3252,135.07617,45.39161.19727.08007.39746.16357.59473.24414V213.499c-89.61182-36.50244-177.37939-60.94873-281.91113-72.07129A288.05276,288.05276,0,0,0,1607.6001,139.77344Z"/><path class="a" d="M5.83984,526.04248Q1.87159,527.5498-2,529.15381v.00879Q1.87231,527.55932,5.83984,526.04248Z"/><path class="a" d="M1784.35938,167.80859a987.87062,987.87062,0,0,0-146.26368-26.44043,273.14261,273.14261,0,0,0-61.08593.13477,242.78438,242.78438,0,0,0-54.54493,13.00977,263.41162,263.41162,0,0,0-48.97949,24.11132,337.90621,337.90621,0,0,0-44.39355,33.4375,480.29974,480.29974,0,0,0-40.78418,40.98926c-12.34864,13.87891-24.83008,29.17676-38.15625,46.76953-24.77832,32.71094-48.958,68.8418-72.34278,103.78418-62.75683,93.77442-127.65039,190.74121-217.69726,245.73438a326.09538,326.09538,0,0,1-35.00781,18.59375,302.4902,302.4902,0,0,1-78.31739,23.4873,328.29066,328.29066,0,0,1-43.873,3.87207,376.95049,376.95049,0,0,1-47.39454-2.05761,454.22485,454.22485,0,0,1-51.19628-8.49708c-36.11719-8.07128-74.78516-20.97753-114.92969-38.35937-194.665-84.45508-360.11133-132.126-491.74121-141.69043a602.00692,602.00692,0,0,0-88.53907-.30859A401.97159,401.97159,0,0,0,33.94336,516.8916c-9.563,2.61133-18.7915,5.6294-27.68652,8.9917,39.89453-15.063,87.66357-22.94141,143.53222-22.93457,132.97364.01709,311.88574,44.7002,539.57959,143.48438,79.16162,34.27539,146.8877,49.001,205.917,49.001,362.41553,0,395.34131-555.66064,712.31446-555.66064a288.05276,288.05276,0,0,1,30.48877,1.65429C1742.62061,152.55029,1830.38818,176.99658,1920,213.499v-.06836c-.18262-.07421-.36719-.15136-.5498-.22558C1872.5752,194.13672,1828.38672,179.28711,1784.35938,167.80859Z"/><path class="b" d="M101.04932,477.6333c138.0957,0,323.75146,46.50733,559.68213,149.53272,82.53808,36.04248,153.04785,51.49951,214.481,51.49951,373.84522,0,408.72168-573.53955,733.96778-573.53907a294.37283,294.37283,0,0,1,32.97168,1.89209C1745.03564,118.6084,1832.02,142.624,1920,177.99707v-3.228c-94.52881-37.90771-180.60889-59.81543-277.51221-70.73144a298.79579,298.79579,0,0,0-33.30761-1.91065c-38.20606,0-73.33741,7.62305-107.40235,23.30567-30.37646,13.98535-59.23633,34.1289-88.22754,61.583-53.7539,50.90478-98.37109,117.61816-145.6084,188.249-98.7705,147.686-200.90478,300.40039-392.729,300.40039-64.54541,0-134.30957-16.76318-213.28076-51.24854-227.603-99.38818-416.311-149.78271-560.88281-149.78271C63.62988,474.63379,29.18066,478.07617-2,484.894v3.04053C28.80762,481.13672,63.13721,477.6333,101.04932,477.6333Z"/></svg>