<svg width="73" height="93" viewBox="0 0 73 93" fill="none" xmlns="http://www.w3.org/2000/svg">
<path d="M4.40903 72.513C3.28566 71.8258 2.35502 70.8648 1.70424 69.7199C1.05346 68.5751 0.703815 67.2838 0.688036 65.967V51.015C0.685867 50.4598 0.828197 49.9136 1.10104 49.43C1.53567 48.6955 2.24149 48.1611 3.0664 47.9421C3.89131 47.723 4.76926 47.8368 5.51104 48.259L39.274 67.966C40.2496 68.5319 41.0573 69.3469 41.6143 70.3275C42.1713 71.3082 42.4577 72.4193 42.444 73.547V89.047C42.4326 89.7495 42.243 90.4377 41.893 91.047C41.3565 91.9169 40.5 92.5415 39.5077 92.7863C38.5153 93.0311 37.4666 92.8766 36.587 92.356L4.40903 72.513ZM54.778 44.125C55.7536 44.6909 56.5613 45.5059 57.1183 46.4865C57.6753 47.4672 57.9617 48.5783 57.948 49.706V81.195C57.9535 81.6565 57.8349 82.1111 57.6046 82.5111C57.3743 82.9111 57.0409 83.2419 56.639 83.469L49.266 87.603C49.197 87.672 49.059 87.672 48.99 87.741V70.308C48.9933 69.1998 48.7094 68.1096 48.1662 67.1436C47.6229 66.1777 46.8387 65.3689 45.89 64.796L16.26 47.087V27.174C16.2579 26.6188 16.4002 26.0725 16.673 25.589C17.1077 24.8531 17.8144 24.3178 18.6405 24.0987C19.4667 23.8796 20.3458 23.9943 21.088 24.418L54.778 44.125ZM69.523 20.835C70.4986 21.4009 71.3063 22.2158 71.8633 23.1965C72.4203 24.1772 72.7067 25.2883 72.693 26.416V72.375C72.685 72.842 72.5532 73.2986 72.3111 73.6981C72.069 74.0975 71.7253 74.4257 71.315 74.649L64.287 78.439V46.467C64.2903 45.3588 64.0064 44.2686 63.4632 43.3026C62.9199 42.3367 62.1357 41.5278 61.187 40.955L30.868 22.764V4.09101C30.8659 3.53579 31.0082 2.98957 31.281 2.50601C31.7157 1.77147 32.4215 1.23709 33.2464 1.01805C34.0713 0.799013 34.9493 0.91283 35.691 1.33499L69.523 20.835Z" fill="white"/>
</svg>
