<svg id="Layer_1" data-name="Layer 1" xmlns="http://www.w3.org/2000/svg" xmlns:xlink="http://www.w3.org/1999/xlink" viewBox="0 0 1080 1080"><defs><style>.cls-1{fill:none;}.cls-2{clip-path:url(#clip-path);}.cls-3{fill:aqua;}.cls-4{fill:#09e8ff;}.cls-5{fill:#12d1ff;}.cls-6{fill:#1cbaff;}.cls-7{fill:#25a3ff;}.cls-8{fill:#2e8cff;}.cls-9{fill:#3776ff;}.cls-10{fill:#405fff;}.cls-11{fill:#4948ff;}.cls-12{fill:#5331ff;}.cls-13{fill:#5c1aff;}.cls-14{fill:#6503ff;}</style><clipPath id="clip-path"><circle class="cls-1" cx="540" cy="540" r="524.37"/></clipPath></defs><title>FLUIDITY-LOGO_SVG_TRANSPARENT_NOMARGIN LOGO ONLYArtboard 11 copy</title><g class="cls-2"><path class="cls-3" d="M1069.47,475.67a166.12,166.12,0,0,1-47.54-6.65c-107-30.3-165.63-121.91-181-149.27-47.76-84.81-38.15-160.94-29.67-228.11,6-47.9,11.76-93.14-3.68-135.87C761.28-172.37,537-241.29,141-249.08l.31-15.89c222.92,4.39,393.93,28.38,508.28,71.31,92.8,34.84,151,83.3,172.91,144C839.23-3.3,833.29,43.78,827,93.63c-8.57,67.89-17.42,138.09,27.75,218.32,14.65,26,70.32,113.14,171.51,141.78,39.92,11.3,99.8,16,306.29-71.41a2749.82,2749.82,0,0,0,306.55-153.27l8,13.74A2763.78,2763.78,0,0,1,1338.73,397C1191.18,459.44,1115.92,475.67,1069.47,475.67Z"/><path class="cls-4" d="M1014.2,543.92a193,193,0,0,1-37.51-3.52C904.45,526.29,840.64,481,792.15,409.33l-.47-.7c-52.7-77.77-43-155-34.53-223.12,6.25-50,12.15-97.18-5-141C702.1-83,479.15-149.21,89.45-152.32l.13-15.89c219.54,1.75,388.61,23.7,502.51,65.22C684.41-69.32,743.23-21.66,766.9,38.67c18.67,47.62,12.52,96.77,6,148.81C764.35,256,755.48,326.9,804.83,399.72l.48.71c46.08,68.08,106.4,111.08,174.42,124.37,34,6.66,84,9.09,246.26-46.56,18.93-6.49,39.16-13.36,60.87-20.69l5.7-1.92c81.16-27.38,182.17-61.44,293.23-115.11l6.91,14.31c-112,54.09-213.48,88.34-295.06,115.86l-5.7,1.92c-21.68,7.32-41.89,14.18-60.79,20.66C1119.05,531.71,1057.07,543.92,1014.2,543.92Z"/><path class="cls-5" d="M956.52,613.15a213.89,213.89,0,0,1-25.11-1.44c-50.44-5.84-124.17-30.43-189-114.36-55.08-71.29-46.53-145.51-38.27-217.29,6-52.21,11.7-101.53-7.48-146.89C643.7,7.91,426.71-55.58,51.7-55.58l-13.79,0-.06-15.89c216.25-.85,383.31,19,496.77,59.13C626.51,20.17,686,67,711.29,127c20.8,49.2,14.61,102.93,8.63,154.89C712,350.5,703.85,421.46,755,487.64c61.45,79.55,130.86,102.8,178.26,108.29,40.82,4.72,94.3-1.35,246.8-46.44,18.93-5.6,38.94-11,61.17-16.67,19.26-4.87,39.12-9.59,60.15-14.58,69.7-16.57,148.69-35.33,231.27-66.23l5.57,14.87c-83.51,31.26-163,50.15-233.16,66.81-21,5-40.79,9.69-59.93,14.53-22,5.57-41.84,11-60.56,16.5C1057.63,602.25,997.62,613.15,956.52,613.15Z"/><path class="cls-6" d="M867.51,684C776,684,718.58,616.11,696,589.46L693.09,586c-56-65.41-48.53-139.5-41.29-211.15,5.51-54.47,10.71-105.93-10.59-153C584.11,95.75,363.81,35-13.63,41.21l-.26-15.89c212.82-3.46,378.05,14.32,491.07,53,91.48,31.32,151.54,77.41,178.5,137,23.07,50.94,17.4,107,11.93,161.12-7.23,71.47-14.05,139,37.55,199.22l3,3.55C730.81,606,790.92,677,885.62,667.15l.55-.06c46.88-4.9,105.21-11,247.94-46.35,18.79-4.65,38.9-8.78,61.48-12.61,31.09-5.28,63.12-9.21,97-13.38,60.31-7.41,122.67-15.08,187-31.25l3.87,15.41c-65.32,16.41-128.18,24.14-189,31.61-33.72,4.14-65.57,8.06-96.3,13.28-22.19,3.77-41.92,7.81-60.32,12.37-143.8,35.61-202.75,41.77-250.11,46.72l-.55.06A191.69,191.69,0,0,1,867.51,684Z"/><path class="cls-7" d="M806.87,757.46c-85.64,0-142.76-61.12-163.11-82.9-56.14-60.07-49.88-133.7-43.82-204.92,4.61-54.21,9.37-110.26-14.18-159.1C525.27,185.11,306.22,127.06-65.17,138l-.47-15.88c209.53-6.16,372.81,9.63,485.41,46.91,91.1,30.17,151.77,75.47,180.3,134.64,25.44,52.75,20.49,111,15.7,167.35-6,70.87-11.72,137.81,39.59,192.72,21.55,23.06,87.13,93.23,183.71,74.76,16-3.07,33.76-6.22,54.3-9.87,43.08-7.66,102.07-18.16,194.83-36.59a573.86,573.86,0,0,1,61.79-8.52c41.41-3.65,83-3.47,127-3.27,49,.23,99.69.44,149.9-5.14l1.76,15.79c-51.12,5.68-102.27,5.46-151.73,5.24-43.61-.19-84.84-.37-125.52,3.21a557.9,557.9,0,0,0-60.08,8.28c-92.92,18.46-152,29-195.15,36.64-20.49,3.64-38.18,6.79-54.1,9.83A187.25,187.25,0,0,1,806.87,757.46Z"/><path class="cls-8" d="M767.66,826.66c-79.75,0-140.9-31.56-173.25-63.56-55.76-55.17-50.79-128.13-46-198.7,3.84-56.29,7.8-114.5-18.11-165.18-63.79-124.74-281.46-180.09-647-164.49l-.68-15.87c206.18-8.8,367.59,4.93,479.75,40.79,90.76,29,152,73.54,182.09,132.34,27.93,54.6,23.8,115,19.82,173.5-4.77,70.07-9.29,136.27,41.31,186.32,11.55,11.44,75,68,188.38,57.77,24.46-2.2,51.76-8.18,86.32-15.75,40.87-9,91.73-20.1,162-30.53,18-2.67,40.43-6,62.72-4.38,41.55,3,83.67,8.29,124.41,13.38,47.87,6,97.38,12.14,144.87,14.5l-.79,15.87c-48.08-2.39-97.88-8.6-146-14.61-40.53-5.06-82.45-10.28-123.6-13.29-20.54-1.5-42,1.68-59.23,4.24-69.75,10.36-120.31,21.44-160.94,30.34-35.12,7.69-62.85,13.77-88.31,16Q781.19,826.68,767.66,826.66Z"/><path class="cls-9" d="M1318.25,914.23c-28-6.61-56-15.25-85.72-24.41-56.25-17.33-114.41-35.25-174.89-39.61-22.2-1.6-41.73-1.54-59.67.2-80.39,7.77-136.78,21.28-182.09,32.14-24.5,5.87-45.65,10.94-65.89,14-98.69,15-170.57-13.38-204.93-44.94C489.93,801,493.46,732,497.19,659.07c3-58.32,6.07-118.63-22.32-171.19-67-124-283.36-176.65-643.1-156.39l-.9-15.86c202.89-11.43,362.39.22,474.13,34.65,90.44,27.87,152.29,71.62,183.86,130.05,30.5,56.48,27.3,119,24.2,179.55-3.54,69.14-6.88,134.45,42.75,180,31.64,29.07,98.64,55.12,191.79,40.93,19.58-3,40.43-8,64.58-13.76,45.79-11,102.78-24.63,184.26-32.51,18.85-1.82,39.25-1.89,62.35-.22,62.28,4.48,121.32,22.68,178.42,40.27,29.43,9.07,57.23,17.64,84.7,24.13Z"/><path class="cls-10" d="M1263,1025.49c-17.8-8.1-35.78-17-54.82-26.52-58.94-29.33-125.75-62.58-197.35-73.39-13.33-2-26.67-2.47-40.8-3-6.5-.23-13-.45-19.53-.84-82.89-4.89-142.91,14.54-191.14,30.14C740.11,958.14,722,964,704.57,967.71c-89.88,19.12-166,9.07-208.86-27.57-54.35-46.48-52-114.52-49.54-186.56,2.07-60.27,4.2-122.6-26.74-177C349.3,453.17,134.24,403.26-219.76,428.25l-1.12-15.85c199.59-14.08,357.21-4.49,468.52,28.5,90.15,26.72,152.6,69.72,185.6,127.79,33.17,58.35,30.95,123,28.81,185.44-2.34,68.1-4.55,132.43,44,173.93,39.06,33.41,110.22,42.19,195.22,24.11,16.59-3.53,34.36-9.28,53.17-15.37,49.49-16,111.13-35.94,197-30.88,6.38.38,12.77.6,19.14.82,14,.48,28.39,1,42.62,3.13,74.08,11.19,142.07,45,202.06,74.87,18.91,9.41,36.78,18.3,54.32,26.29Z"/><path class="cls-11" d="M1207.79,1136.49c-8.11-5.81-16.38-11.85-24.84-18-63.11-46-134.63-98.21-219-117.54-15.1-3.47-30.48-4.94-46.77-6.49-4.45-.43-8.91-.86-13.38-1.33C821.19,984.4,760,1005.34,706,1023.82c-16.36,5.6-31.81,10.89-46.91,15-98.84,27-170.41,23.52-212.77-10.18C392.82,986,394,919,395.3,847.93c1.12-62.15,2.27-126.42-31.31-182.74C290.81,542.49,77.06,495.33-271.28,525l-1.35-15.84c196.29-16.72,352.05-9.2,462.92,22.35,89.89,25.58,152.92,67.81,187.34,125.54,35.91,60.2,34.66,129.77,33.56,191.16-1.26,69.9-2.34,130.27,45.06,168,38.18,30.38,105,32.83,198.69,7.29,14.62-4,29.84-9.19,45.95-14.71,52.79-18.06,118.5-40.53,204.6-31.48,4.41.47,8.83.89,13.22,1.31,16.08,1.54,32.7,3.13,48.81,6.82,87.53,20.06,160.45,73.26,224.79,120.2,8.42,6.15,16.66,12.16,24.73,17.94Z"/><path class="cls-12" d="M1152.87,1247.32c-57.39-59.29-136-140.49-235.7-171.11-21.24-6.52-40.66-10.37-59.37-11.74-91.08-6.66-160.83,17.1-222.35,38.08-7.38,2.52-14.63,5-21.79,7.37-93.77,31.14-166.49,44.27-216.64,7.21-52.75-39-52.61-105.09-52.46-175.07.14-63.94.28-130.06-36-188.22C232.37,631.79,20,587.34-322.81,621.76L-324.39,606C-131.35,586.57,22.52,592,133,622.12,222.6,646.56,286.21,688,322,745.42c38.72,62,38.57,133.57,38.43,196.67-.15,68.71-.28,128.05,46,162.26,47.28,35,125.12,16.08,202.19-9.5,7.12-2.37,14.34-4.83,21.68-7.33,62.94-21.48,134.3-45.82,228.63-38.89,19.91,1.46,40.48,5.51,62.88,12.39,103.61,31.82,183.86,114.72,242.45,175.25Z"/><path class="cls-13" d="M1098.25,1358.12c-53.31-75.92-127.38-168-227.83-206.65a264.09,264.09,0,0,0-59.39-15.7c-94.29-12.92-172.17,17.56-240.88,44.46l-2,.77c-83.9,32.84-163.15,63.87-220.48,24.62-52-35.64-52.89-100.75-53.79-169.68-.81-62.57-1.73-133.49-40.8-193.47C174,721.07-37.09,679.36-374.32,718.51l-1.84-15.78c189.78-22,341.78-18.67,451.79,10,89.43,23.29,153.62,64,190.79,121.09C308,897.64,309,971,309.79,1035.74c.88,67.5,1.64,125.79,46.88,156.77,50.39,34.5,122.36,6.32,205.71-26.3l2-.78c70.51-27.61,150.45-58.9,248.83-45.4a279.67,279.67,0,0,1,62.93,16.61c104.46,40.18,180.53,134.59,235.13,212.35Z"/><path class="cls-14" d="M1043.87,1469c-79.11-151.9-173.19-240-279.64-262-99.42-20.47-188.6,20.57-267.28,56.8-76.51,35.22-142.6,65.63-198.58,30.27-51.46-32.51-53.14-93.69-55.08-164.54-1.76-64.09-3.75-136.72-45.64-198.45C115.7,810.32-94.09,771.33-425.84,815.26l-2.08-15.75c186.51-24.69,336.65-23.42,446.24,3.79,89.22,22.14,154,62.14,192.49,118.89,44.49,65.57,46.54,140.67,48.36,206.93s3.39,123.57,47.69,151.55c48.69,30.76,111.13,2,183.44-31.28,80.9-37.24,172.6-79.45,277.14-57.92,111.35,22.94,209.1,113.84,290.52,270.18Z"/></g></svg>