<?xml version="1.0" encoding="UTF-8"?>
<svg width="24px" height="24px" viewBox="0 0 24 24" xmlns="http://www.w3.org/2000/svg" xmlns:xlink="http://www.w3.org/1999/xlink" version="1.1">
 <!-- Generated by Pixelmator Pro 2.2 -->
 <path id="Path" d="M19 0 L5 0 C2.239 0 0 2.239 0 5 L0 19 C0 21.761 2.239 24 5 24 L19 24 C21.762 24 24 21.761 24 19 L24 5 C24 2.239 21.762 0 19 0 Z M8 19 L5 19 5 8 8 8 Z M6.5 6.732 C5.534 6.732 4.75 5.942 4.75 4.968 4.75 3.994 5.534 3.204 6.5 3.204 7.466 3.204 8.25 3.994 8.25 4.968 8.25 5.942 7.467 6.732 6.5 6.732 Z M20 19 L17 19 17 13.396 C17 10.028 13 10.283 13 13.396 L13 19 10 19 10 8 13 8 13 9.765 C14.396 7.179 20 6.988 20 12.241 Z" fill="#ffffff" fill-opacity="1" stroke="none"/>
</svg>
