<svg id="Layer_1" data-name="Layer 1" xmlns="http://www.w3.org/2000/svg" xmlns:xlink="http://www.w3.org/1999/xlink" viewBox="0 0 2334.14 556.5"><defs><style>.cls-1{fill:none;}.cls-2{fill:#fff;}.cls-3{clip-path:url(#clip-path);}.cls-4{fill:aqua;}.cls-5{fill:#09e8ff;}.cls-6{fill:#12d1ff;}.cls-7{fill:#1cbaff;}.cls-8{fill:#25a3ff;}.cls-9{fill:#2e8cff;}.cls-10{fill:#3776ff;}.cls-11{fill:#405fff;}.cls-12{fill:#4948ff;}.cls-13{fill:#5331ff;}.cls-14{fill:#5c1aff;}.cls-15{fill:#6503ff;}</style><clipPath id="clip-path"><circle class="cls-1" cx="274.55" cy="278.25" r="274.55"/></clipPath></defs><title>FLUIDITY-LOGO_SVG_TRANSPARENT_NOMARGINArtboard 18 copy 4</title><path class="cls-2" d="M816.44,86.33h202v48.36H867v86H988.4V269H867V417.7h-50.6Z"/><path class="cls-2" d="M1057.38,360.83V86.33h47.47V350.08c0,18.36,4.92,28.21,25.07,28.21a53.55,53.55,0,0,0,11.2-.89v42.09a91.38,91.38,0,0,1-23.74,3.58C1077.08,423.07,1057.38,399.79,1057.38,360.83Z"/><path class="cls-2" d="M1168.89,327.24V205h47.47V317c0,39.85,15.67,60.89,51.05,60.89s51-21,51-60.89V205h47.47V327.24c0,66.72-43.44,95.83-98.52,95.83S1168.89,394,1168.89,327.24Z"/><path class="cls-2" d="M1416.1,128.42C1416.1,111,1429.53,98,1447,98c17,0,30.44,13,30.44,30.45,0,17.91-13.43,30.9-30.44,30.9C1429.53,159.32,1416.1,146.33,1416.1,128.42ZM1470.28,205V417.7h-47.47V205Z"/><path class="cls-2" d="M1741.21,86.33V417.7h-47.47V395.76a100.28,100.28,0,0,1-68.07,26C1567,421.73,1516,373.37,1516,311.12S1567,201,1625.67,201a102.08,102.08,0,0,1,68.07,25.53V86.33Zm-47.47,224.79c0-35.82-28.66-65.38-64.93-65.38-35.38,0-64.48,29.56-64.48,65.38,0,36.27,29.1,65.83,64.48,65.83C1665.08,377,1693.74,347.39,1693.74,311.12Z"/><path class="cls-2" d="M1794.51,128.42C1794.51,111,1808,98,1825.41,98c17,0,30.45,13,30.45,30.45,0,17.91-13.43,30.9-30.45,30.9C1808,159.32,1794.51,146.33,1794.51,128.42ZM1848.69,205V417.7h-47.46V205Z"/><path class="cls-2" d="M1969.61,250.67v96.72c0,18.36,5.82,30.9,26.87,30.9,13.43,0,25.52-1.79,26.87-2.69v42.55c-1.35.45-16.12,4.92-39.86,4.92-40.3,0-61.35-24.63-61.35-66.27V250.67h-33.58V205h33.58v-70.3h47.47V205h59.11v45.68Z"/><path class="cls-2" d="M2266.06,205,2132.61,531h-47.46l44.78-110.16L2041.71,205h51.5l60.45,154.94L2214.56,205Z"/><path class="cls-2" d="M2273.24,389.94c0-17.47,13.43-30.46,30.45-30.46s30.45,13,30.45,30.46c0,17.91-13.44,30.89-30.45,30.89S2273.24,407.85,2273.24,389.94Z"/><g class="cls-3"><path class="cls-4" d="M551.77,244.57a87,87,0,0,1-24.9-3.49c-56-15.85-86.71-63.82-94.78-78.15-25-44.4-20-84.27-15.53-119.43,3.16-25.08,6.15-48.77-1.93-71.14C390.41-94.73,273-130.82,65.64-134.89l.17-8.32C279.92-139,396.58-102.12,422.46-30.47c8.76,24.26,5.65,48.91,2.35,75-4.49,35.55-9.12,72.3,14.53,114.31,7.68,13.62,36.83,59.24,89.8,74.23C550,239,581.4,241.47,689.5,195.69A1438.69,1438.69,0,0,0,850,115.44l4.17,7.19a1446.65,1446.65,0,0,1-161.43,80.72C615.49,236.07,576.09,244.57,551.77,244.57Z"/><path class="cls-5" d="M522.83,280.3a101,101,0,0,1-19.65-1.84c-37.82-7.39-71.23-31.12-96.61-68.63-27.84-41.08-22.79-81.51-18.33-117.19,3.28-26.16,6.37-50.88-2.64-73.84-26.18-66.74-142.91-101.41-347-103l.07-8.32c210.7,1.68,326.7,37.11,354.62,108.32,9.78,24.93,6.57,50.66,3.16,77.91-4.49,35.88-9.13,73,16.71,111.12,24.37,36,56,58.54,91.57,65.49,17.82,3.48,43.93,4.76,128.8-24.32,9.95-3.41,20.59-7,32-10.88l2.91-1c42.51-14.33,95.41-32.18,153.59-60.29l3.62,7.49C767.07,209.64,713.9,227.58,671.17,242l-2.91,1q-17.12,5.78-32,10.87C577.67,273.92,545.26,280.3,522.83,280.3Z"/><path class="cls-6" d="M492.63,316.55a113.52,113.52,0,0,1-13.15-.75c-26.4-3.06-65-15.93-99-59.88-28.84-37.33-24.36-76.19-20-113.77,3.14-27.34,6.12-53.16-3.92-76.91-28.07-66.39-144-99.61-344.9-98.81l0-8.32C218.94-42.63,334.32-8.76,364.23,62c10.89,25.77,7.65,53.9,4.52,81.1-4.14,35.93-8.42,73.08,18.36,107.73,32.18,41.66,68.51,53.83,93.33,56.7,21.36,2.48,49.34-.7,129.1-24.26,10-2.95,20.48-5.82,32.17-8.77,10-2.54,20.53-5,31.41-7.62,36.5-8.67,77.88-18.51,121.14-34.7l2.92,7.79c-43.75,16.38-85.4,26.27-122.14,35-10.83,2.57-21.28,5-31.29,7.58-11.58,2.93-22,5.77-31.86,8.68C545.52,310.85,514.14,316.55,492.63,316.55Z"/><path class="cls-7" d="M446.25,353.61c-48.17,0-78.2-35.52-90-49.46l-1.54-1.83c-29.34-34.25-25.42-73-21.63-110.55,2.89-28.52,5.61-55.46-5.54-80.09-29.9-66-145.25-97.88-342.86-94.58l-.14-8.32c204.05-3.36,318.74,29.16,350.58,99.47,12.07,26.67,9.11,56,6.24,84.36C337.58,230,334,265.37,361,296.91l1.59,1.86c11.85,14,43.34,51.22,92.89,46.05,24.91-2.61,55.44-5.8,130-24.25,9.91-2.45,20.48-4.62,32.34-6.63,16.24-2.76,33-4.82,50.69-7,31.6-3.89,64.27-7.91,98-16.39l2,8.07c-34.22,8.61-67.15,12.66-99,16.58-17.62,2.16-34.27,4.21-50.32,6.94-11.65,2-22,4.1-31.73,6.5-75.12,18.6-106,21.82-130.76,24.42A102.34,102.34,0,0,1,446.25,353.61Z"/><path class="cls-8" d="M414.26,392.11c-44.82,0-74.73-32-85.39-43.41-29.39-31.45-26.11-70-22.94-107.29,2.41-28.38,4.91-57.73-7.42-83.3C266.84,92.44,152.16,62-42.3,67.76l-.25-8.32C158.26,53.55,272.31,84.63,306,154.5c13.32,27.61,10.73,58.12,8.22,87.61C311.06,279.22,308.08,314.27,335,343c11.29,12.07,45.61,48.82,96.18,39.14,8.46-1.62,17.67-3.26,28.76-5.23,22.5-4,53.32-9.47,101.58-19.05A299.11,299.11,0,0,1,594,353.4c21.64-1.91,43.36-1.82,66.36-1.72,25.69.11,52.24.22,78.56-2.71l.92,8.27c-26.79,3-53.6,2.89-79.52,2.76-22.8-.09-44.33-.19-65.59,1.68A295.07,295.07,0,0,0,563.09,366c-48.35,9.59-79.21,15.08-101.74,19.08-11.05,2-20.23,3.6-28.66,5.21A97.32,97.32,0,0,1,414.26,392.11Z"/><path class="cls-9" d="M393.74,428.34c-41.74,0-73.77-16.52-90.7-33.28C273.84,366.18,276.44,328,279,291c2-29.48,4.09-60-9.48-86.49-33.4-65.31-147.37-94.31-338.77-86.12l-.35-8.31c197.66-8.45,311,21.21,346.53,90.64,14.62,28.59,12.46,60.24,10.37,90.84-2.5,36.69-4.86,71.35,21.63,97.56,6.05,6,39.25,35.58,98.62,30.25,12.8-1.15,27.08-4.28,45.16-8.24,21.39-4.68,48-10.51,84.79-16,9.46-1.4,21.23-3.15,33-2.29,21.66,1.59,43.62,4.32,64.85,7,25.14,3.13,51.14,6.37,76.08,7.6l-.41,8.3c-25.25-1.24-51.41-4.5-76.7-7.65-21.13-2.63-43-5.35-64.43-6.93-10.82-.8-22.09.89-31.15,2.23-36.5,5.42-63,11.21-84.23,15.87-18.37,4-32.87,7.19-46.19,8.39C403.3,428.13,398.46,428.34,393.74,428.34Z"/><path class="cls-10" d="M682,474.19c-14.66-3.46-29.36-8-44.93-12.78-29.41-9.06-59.83-18.42-91.45-20.71a185.57,185.57,0,0,0-31.38.1c-42.06,4.06-71.58,11.13-95.3,16.81-12.81,3.07-23.88,5.72-34.47,7.33-51.68,7.85-89.31-7-107.29-23.54-28.86-26.51-27-62.61-25.06-100.81,1.56-30.54,3.17-62.11-11.69-89.63-35.08-65-148.38-92.51-336.71-81.88l-.47-8.31C97.83,149.8,210.51,178,247.77,247c16,29.57,14.29,62.32,12.67,94-1.85,36.2-3.6,70.4,22.39,94.27,16.56,15.23,51.63,28.85,100.41,21.44,10.24-1.56,21.15-4.17,33.78-7.2,24-5.74,53.8-12.89,96.44-17a194.71,194.71,0,0,1,32.78-.12c32.57,2.36,63.44,11.86,93.3,21.06,15.43,4.75,30,9.23,44.4,12.63Z"/><path class="cls-11" d="M653.07,532.44c-9.33-4.25-18.76-8.93-28.74-13.9-30.83-15.33-65.77-32.7-103.21-38.37a185.58,185.58,0,0,0-21.54-1.57c-3.39-.12-6.78-.24-10.18-.44-43.36-2.52-74.79,7.61-100,15.77-10.06,3.25-19.56,6.32-28.66,8.26-47,10-86.9,4.75-109.34-14.44-28.46-24.33-27.24-60-25.94-97.68,1.08-31.55,2.2-64.19-14-92.69-36.72-64.6-149.32-90.74-334.66-77.64l-.59-8.3c191.47-13.51,303.51,13.26,342.48,81.83,17.37,30.55,16.21,64.38,15.08,97.09-1.22,35.66-2.38,69.34,23,91.07,20.45,17.49,57.7,22.1,102.2,12.62,8.68-1.84,18-4.85,27.83-8,25.91-8.38,58.16-18.8,103.09-16.16,3.33.19,6.66.31,10,.42a198.39,198.39,0,0,1,22.5,1.66c38.72,5.87,74.29,23.55,105.66,39.15,9.92,4.94,19.29,9.59,28.49,13.78Z"/><path class="cls-12" d="M624.19,590.55c-4.27-3-8.62-6.23-13.07-9.47-33-24.06-70.41-51.33-114.5-61.47-8-1.83-16.11-2.61-24.71-3.43-2.3-.22-4.61-.44-6.91-.68-43.25-4.53-75.28,6.41-103.54,16.08-8.56,2.93-16.65,5.69-24.55,7.85-51.73,14.1-89.21,12.31-111.39-5.34-28-22.31-27.4-57.43-26.73-94.62.58-32.54,1.19-66.19-16.4-95.67-38.31-64.25-150.21-89-332.61-73.4l-.7-8.29c188.44-16.06,299.81,9.27,340.46,77.43,18.8,31.52,18.14,67.94,17.57,100.08-.66,36.6-1.23,68.21,23.59,88,20,15.91,55,17.2,104,3.83,7.65-2.09,15.61-4.81,24-7.69,27.64-9.46,62-21.21,107.1-16.49,2.29.25,4.57.46,6.84.68,8.49.81,17.28,1.65,25.78,3.61C544.24,522,582.37,549.82,616,574.36c4.43,3.23,8.77,6.39,13,9.43Z"/><path class="cls-13" d="M595.44,648.58c-30-31-71.18-73.5-123.31-89.54a140.07,140.07,0,0,0-31.22-6.18c-47.72-3.5-84.21,8.95-116.43,19.94q-5.78,2-11.38,3.85C264,593,226,599.83,199.69,580.42c-27.62-20.42-27.55-55-27.47-91.67.07-33.47.15-68.09-18.85-98.54C113.48,326.31,2.27,303-177.2,321.06l-.83-8.28c182.89-18.35,296.76,6.21,338.45,73,20.28,32.49,20.19,69.93,20.12,103-.08,36-.14,67.05,24.09,85,24.76,18.31,65.5,8.44,105.85-5,3.72-1.24,7.48-2.53,11.32-3.83,33-11.24,70.35-24,119.72-20.36a147.73,147.73,0,0,1,33.06,6.52c54.17,16.67,96.17,60,126.83,91.71Z"/><path class="cls-14" d="M566.83,706.59c-27.89-39.71-66.64-87.89-119.17-108.14a139,139,0,0,0-31.22-8.27c-49.36-6.75-90.13,9.19-126.1,23.28l-1.06.41c-43.92,17.19-85.4,33.42-115.42,12.88-27.25-18.66-27.69-52.75-28.16-88.84-.43-32.76-.91-69.89-21.37-101.29-41.41-63.56-151.92-85.41-328.5-64.91l-1-8.26c180-20.88,293.16,2.2,336.44,68.63C153.08,465.5,153.58,503.91,154,537.8c.46,35.34.85,65.87,24.54,82.08,26.38,18.07,64.06,3.32,107.69-13.76l1.06-.41c36.91-14.46,78.76-30.84,130.26-23.77a146.56,146.56,0,0,1,33.08,8.75c54.63,21,94.42,70.45,123,111.13Z"/><path class="cls-15" d="M538.36,764.64C496.94,685.11,447.68,639,392,627.49,339.9,616.79,293.2,638.26,252,657.22c-40.06,18.45-74.65,34.37-104,15.86-26.94-17-27.82-49.06-28.84-86.16-.92-33.55-2-71.58-23.89-103.9-42.92-63.24-152.75-83.65-326.45-60.65l-1.09-8.25c177.09-23.45,289.59-1.83,334.42,64.23,23.29,34.33,24.37,73.65,25.32,108.34s1.78,64.7,25,79.35c25.49,16.12,58.19,1.06,96.05-16.37,42.36-19.5,90.38-41.61,145.1-30.33,58.3,12,109.48,59.6,152.11,141.46Z"/></g></svg>