<svg width="88" height="78" viewBox="0 0 88 78" fill="none" xmlns="http://www.w3.org/2000/svg">
<path d="M66.567 23.76C65.724 23.3099 64.7831 23.0745 63.8275 23.0745C62.8719 23.0745 61.931 23.3099 61.088 23.76L48.303 31.293L39.628 36.087L27.072 43.621C26.229 44.071 25.2882 44.3064 24.3325 44.3064C23.3769 44.3064 22.436 44.071 21.593 43.621L11.776 37.685C10.9417 37.1934 10.2501 36.4926 9.76952 35.6518C9.28897 34.811 9.03615 33.8594 9.03604 32.891V21.477C9.04262 20.5099 9.29817 19.5607 9.77809 18.7211C10.258 17.8814 10.9461 17.1795 11.776 16.683L21.593 10.976C22.436 10.5259 23.3769 10.2905 24.3325 10.2905C25.2882 10.2905 26.229 10.5259 27.072 10.976L36.889 16.912C37.7234 17.4036 38.415 18.1044 38.8956 18.9452C39.3761 19.7859 39.6289 20.7376 39.629 21.706V29.24L48.304 24.217V16.454C48.2975 15.4869 48.0419 14.5377 47.562 13.6981C47.0821 12.8584 46.394 12.1565 45.564 11.66L27.3 0.929974C26.457 0.479933 25.5161 0.244507 24.5605 0.244507C23.6049 0.244507 22.664 0.479933 21.821 0.929974L3.10104 11.888C2.26222 12.3157 1.56052 12.9706 1.07604 13.7779C0.591552 14.5853 0.343795 15.5126 0.361042 16.454V37.914C0.367618 38.8811 0.623175 39.8302 1.10309 40.6699C1.583 41.5095 2.27108 42.2115 3.10104 42.708L21.593 53.438C22.436 53.888 23.3769 54.1234 24.3325 54.1234C25.2882 54.1234 26.229 53.888 27.072 53.438L39.628 46.133L48.303 41.11L60.861 33.805C61.704 33.3549 62.6449 33.1195 63.6005 33.1195C64.5561 33.1195 65.497 33.3549 66.34 33.805L76.157 39.512C76.9914 40.0036 77.683 40.7044 78.1636 41.5452C78.6441 42.3859 78.8969 43.3376 78.897 44.306V55.721C78.8905 56.6881 78.6349 57.6372 78.155 58.4769C77.6751 59.3166 76.987 60.0185 76.157 60.515L66.569 66.222C65.726 66.672 64.7851 66.9074 63.8295 66.9074C62.8739 66.9074 61.933 66.672 61.09 66.222L51.271 60.515C50.4367 60.0234 49.7451 59.3226 49.2645 58.4818C48.784 57.641 48.5312 56.6894 48.531 55.721V48.415L39.861 53.438V60.972C39.8676 61.9391 40.1232 62.8882 40.6031 63.7279C41.083 64.5676 41.7711 65.2695 42.601 65.766L61.093 76.496C61.936 76.946 62.8769 77.1814 63.8325 77.1814C64.7881 77.1814 65.729 76.946 66.572 76.496L85.061 65.766C85.8954 65.2744 86.587 64.5736 87.0676 63.7328C87.5481 62.892 87.8009 61.9404 87.801 60.972V39.284C87.7945 38.3169 87.5389 37.3677 87.059 36.5281C86.5791 35.6884 85.891 34.9865 85.061 34.49L66.567 23.76Z" fill="white"/>
</svg>
