<svg width="76" height="60" viewBox="0 0 76 60" fill="none" xmlns="http://www.w3.org/2000/svg">
<path d="M12.446 45.224C12.9067 44.7643 13.5312 44.5064 14.182 44.507H74.073C74.3156 44.507 74.5527 44.579 74.7544 44.7137C74.9561 44.8485 75.1133 45.04 75.2062 45.2641C75.2991 45.4882 75.3235 45.7348 75.2763 45.9727C75.2291 46.2107 75.1124 46.4293 74.941 46.601L63.11 58.4319C62.6492 58.8915 62.0248 59.1494 61.374 59.149H1.48299C1.2404 59.1489 1.00328 59.077 0.801574 58.9422C0.59987 58.8074 0.442638 58.6159 0.349748 58.3918C0.256857 58.1677 0.232477 57.9211 0.279686 57.6832C0.326896 57.4452 0.443577 57.2266 0.614987 57.0549L12.446 45.224Z" fill="white"/>
<path d="M12.446 1.05098C12.9108 0.597471 13.5326 0.340657 14.182 0.333984L74.073 0.333984C74.3156 0.334032 74.5527 0.405984 74.7544 0.540749C74.9561 0.675514 75.1133 0.867045 75.2062 1.09114C75.2991 1.31523 75.3235 1.56183 75.2763 1.79977C75.2291 2.03772 75.1124 2.25633 74.941 2.42798L63.11 14.259C62.6492 14.7186 62.0248 14.9765 61.374 14.976H1.48299C1.2404 14.9759 1.00328 14.904 0.801574 14.7692C0.59987 14.6345 0.442638 14.4429 0.349748 14.2188C0.256857 13.9947 0.232477 13.7481 0.279686 13.5102C0.326896 13.2723 0.443577 13.0536 0.614987 12.882L12.446 1.05098Z" fill="white"/>
<path d="M63.11 22.9959C62.8817 22.7682 62.6108 22.5877 62.3128 22.4647C62.0148 22.3416 61.6954 22.2785 61.373 22.2789H1.48299C1.2404 22.279 1.00328 22.3509 0.801574 22.4857C0.59987 22.6205 0.442638 22.812 0.349748 23.0361C0.256857 23.2602 0.232477 23.5068 0.279686 23.7447C0.326896 23.9827 0.443577 24.2013 0.614987 24.3729L12.446 36.2039C12.9067 36.6636 13.5312 36.9215 14.182 36.9209H74.073C74.3156 36.9209 74.5527 36.8489 74.7544 36.7142C74.9561 36.5794 75.1133 36.3879 75.2062 36.1638C75.2991 35.9397 75.3235 35.6931 75.2763 35.4551C75.2291 35.2172 75.1124 34.9986 74.941 34.8269L63.11 22.9959Z" fill="white"/>
</svg>
