<svg width="1926" height="4429" viewBox="0 0 1926 4429" fill="none" xmlns="http://www.w3.org/2000/svg">
<g opacity="0.25">
<path d="M2127.94 494.955C2098.34 454.119 2059.57 440.408 2015.03 443.12C1987.41 444.854 1974 476.145 1968.63 487.894C1963.52 520.929 1942.46 528.772 1937.13 555.369C1935.49 563.577 1935.82 570.015 1937.39 575.203C1945.77 603.737 1995.06 588.863 1996.52 632.162C1996.52 633.616 1996.53 635.07 1996.43 636.731C1995.15 662.799 1950.27 696.976 1924.23 743.877C1916.78 757.292 1911.32 771.637 1907.72 786.703C1901.15 814.55 1903.45 822.955 1908.86 826.783C1918.96 834.026 1937.53 827.02 1955.16 817.836C1968.33 810.948 1980.97 802.712 1990.82 796.456C2017.05 779.98 2054.58 756.206 2073.46 708.494C2096.46 650.697 2054.21 615.397 2088.17 575.952C2124.82 533.593 2148.26 523.044 2127.94 494.955Z" stroke="#610DFF" stroke-width="1.3" stroke-miterlimit="10"/>
<path d="M2148.86 474.963C2112.41 434.663 2053.31 429.106 2003.8 438.477C1975.26 443.847 1962.16 475.449 1957.1 488.962C1952.31 523.139 1932.3 533.16 1925.21 562.15C1923.15 570.567 1923.07 577.421 1923.91 583.13C1928.66 614.063 1972.44 597.853 1969.76 642.72C1969.66 644.174 1969.45 645.732 1969.25 647.394C1965.68 673.883 1917.5 711.6 1893.64 763.272C1886.83 777.931 1882.82 793.518 1880.26 809.205C1875.77 837.254 1878.8 846.384 1885.56 850.52C1898.88 858.793 1920.25 850.326 1939.74 840.41C1955.3 832.478 1970.02 823.405 1981.84 816.728C2019.69 795.446 2061.17 773.323 2085.02 722.898C2114.25 661.762 2059.92 615.071 2106.33 572.478C2158.65 524.263 2179.07 508.426 2148.86 474.963Z" stroke="#5D17FF" stroke-width="1.3" stroke-miterlimit="10"/>
<path d="M2169.68 454.971C2127.21 414.583 2047.16 417.388 1992.37 433.834C1963.01 442.633 1950.11 474.754 1945.37 490.031C1941 525.453 1921.92 537.548 1912.97 568.828C1910.5 577.557 1909.9 584.724 1910.12 590.85C1911.25 624.077 1949.52 606.635 1942.68 653.175C1942.48 654.629 1942.17 656.187 1941.76 657.954C1935.91 684.76 1884.3 726.12 1862.64 782.459C1856.56 798.363 1853.9 814.985 1852.49 831.603C1849.97 859.751 1853.73 869.606 1861.84 874.154C1878.38 883.457 1902.45 873.633 1923.81 862.986C1941.75 854.008 1958.55 844.203 1972.44 837.002C2022.01 811.12 2067.34 790.441 2096.17 737.407C2131.62 672.932 2065.53 614.952 2123.98 569.005C2192.58 515.14 2210.49 493.598 2169.68 454.971Z" stroke="#5921FF" stroke-width="1.3" stroke-miterlimit="10"/>
<path d="M2190.61 434.875C2142.42 394.19 2041.1 405.254 1981.04 428.982C1950.85 440.899 1938.16 473.746 1933.85 490.892C1929.79 527.559 1911.76 541.832 1900.94 575.297C1898.06 584.235 1897.04 591.818 1896.64 598.362C1894.14 633.986 1927.11 615.105 1915.92 663.421C1915.61 664.875 1915.09 666.538 1914.58 668.409C1906.55 695.532 1851.53 740.639 1832.06 801.646C1826.6 818.794 1828.21 836.754 1825.03 854.001C1819.81 881.74 1828.97 892.827 1838.54 897.787C1858.4 908.119 1885.06 896.835 1908.4 885.455C1928.72 875.537 1947.7 864.896 1963.57 857.067C2024.96 826.689 2073.92 807.246 2107.94 751.602C2149.51 683.685 2071.76 614.728 2142.35 565.219C2226.72 506.121 2242.12 478.458 2190.61 434.875Z" stroke="#552BFF" stroke-width="1.3" stroke-miterlimit="10"/>
<path d="M2211.53 414.883C2157.84 373.486 2034.94 393.016 1969.81 424.339C1938.8 439.269 1926.32 473.05 1922.32 492.064C1918.58 529.976 1901.7 546.323 1889.02 582.182C1885.82 591.329 1884.29 599.328 1883.16 606.289C1877.03 644.207 1904.7 623.99 1889.15 674.082C1888.64 675.538 1888.02 677.304 1887.3 679.175C1877.19 706.72 1818.54 755.367 1801.37 821.04C1796.54 839.433 1800.12 858.323 1797.47 876.606C1793.39 904.551 1804.22 916.257 1815.13 921.524C1838.22 932.783 1867.57 920.245 1892.88 908.134C1915.69 897.171 1936.64 885.901 1954.48 877.444C2027.7 842.673 2080.41 824.364 2119.4 766.214C2167.09 694.958 2077.68 614.92 2160.41 561.953C2260.76 497.309 2274.07 463.007 2211.53 414.883Z" stroke="#5135FF" stroke-width="1.3" stroke-miterlimit="10"/>
<path d="M2232.35 394.89C2173.26 352.676 2028.58 380.468 1958.38 419.695C1926.44 437.535 1914.28 472.354 1910.59 493.132C1907.27 532.186 1891.43 550.711 1876.78 588.859C1873.17 598.215 1871.22 606.631 1869.37 614.009C1859.61 654.221 1882.19 632.667 1862.08 684.537C1861.46 686.096 1860.74 687.759 1859.81 689.735C1847.62 717.596 1785.35 769.887 1770.37 840.331C1766.17 859.969 1771.52 879.685 1769.59 899.005C1766.76 927.257 1779.04 939.478 1791.31 945.158C1817.62 957.447 1849.77 943.448 1876.84 930.605C1902.04 918.701 1925.17 906.595 1944.98 897.613C2030.13 858.554 2086.37 841.378 2130.45 780.515C2184.36 705.92 2083.18 614.906 2177.95 558.272C2294.9 488.393 2306.11 447.346 2232.35 394.89Z" stroke="#4D3FFF" stroke-width="1.3" stroke-miterlimit="10"/>
<path d="M2253.28 374.794C2188.78 331.764 2022.21 367.712 1947.15 414.948C1914.18 435.698 1902.33 471.555 1899.07 494.097C1896.06 534.396 1881.37 555.099 1864.75 595.537C1860.83 605.204 1858.26 613.934 1855.79 621.728C1842.4 664.339 1859.89 641.344 1835.21 694.991C1834.49 696.55 1833.56 698.318 1832.52 700.398C1818.37 728.576 1752.37 784.511 1739.69 859.622C1736.11 880.504 1738.97 901.265 1742.03 921.506C1746.26 949.74 1754.29 962.804 1767.91 968.895C1797.43 982.11 1832.28 966.858 1861.32 953.179C1888.91 940.231 1914.22 927.496 1936 917.782C2032.98 874.539 2092.96 858.391 2142.01 794.919C2202.14 716.985 2089.31 614.994 2196.11 554.695C2329.04 479.582 2338.16 431.479 2253.28 374.794Z" stroke="#494AFF" stroke-width="1.3" stroke-miterlimit="10"/>
<path d="M2274.2 354.802C2204.3 310.747 2015.63 354.956 1935.82 410.304C1901.82 433.861 1890.39 470.755 1887.44 495.27C1884.75 536.814 1871.31 559.59 1852.72 602.318C1848.39 612.194 1845.4 621.236 1842.31 629.552C1825.39 674.456 1837.69 650.228 1808.44 705.445C1807.62 707.005 1806.48 708.773 1805.24 710.957C1789.12 739.556 1719.38 799.031 1709 878.913C1706.15 901.039 1710.15 922.836 1714.47 944.008C1720.25 972.238 1729.42 986.129 1744.5 992.632C1777.35 1006.88 1814.79 990.268 1845.81 975.857C1875.78 961.968 1903.26 948.501 1926.91 938.159C2035.72 890.627 2099.44 875.508 2153.26 809.324C2219.72 728.154 2095.02 615.083 2213.86 551.222C2363.29 470.874 2370.41 415.403 2274.2 354.802Z" stroke="#4554FF" stroke-width="1.3" stroke-miterlimit="10"/>
<path d="M2295.02 334.707C2219.72 289.628 2008.95 341.994 1924.38 405.558C1889.35 431.921 1878.34 469.956 1875.71 496.235C1873.43 539.024 1861.14 563.979 1840.49 608.892C1835.84 619.081 1832.34 628.436 1828.52 637.169C1807.98 684.471 1815.28 658.906 1781.37 715.796C1780.44 717.356 1779.2 719.229 1777.75 721.517C1759.65 750.536 1686.19 813.552 1678 898.101C1675.78 921.472 1681.03 944.304 1686.59 966.407C1693.73 994.634 1704.36 1009.35 1720.68 1016.16C1756.75 1031.33 1796.99 1013.37 1829.77 998.226C1862.13 983.292 1891.69 969.196 1917.41 958.226C2038.46 906.612 2105.82 892.626 2164.73 823.729C2237.4 739.323 2101.05 615.275 2231.92 547.644C2397.43 462.166 2402.67 399.224 2295.02 334.707Z" stroke="#415EFF" stroke-width="1.3" stroke-miterlimit="10"/>
<path d="M2315.94 314.714C2235.24 268.507 2002.17 329.135 1913.16 400.914C1876.99 429.98 1866.5 469.26 1864.19 497.303C1862.22 541.234 1851.18 568.469 1828.56 615.673C1823.61 626.07 1819.48 635.842 1815.04 644.991C1790.87 694.587 1793.29 667.79 1754.61 726.354C1753.57 727.914 1752.12 729.891 1750.57 732.179C1730.5 761.619 1653.31 828.175 1647.42 917.391C1645.82 942.006 1652.22 965.77 1659.13 988.908C1667.72 1017.13 1679.6 1032.68 1697.37 1039.9C1736.67 1056 1779.61 1036.78 1814.36 1020.9C1849.21 1005.03 1880.84 990.2 1908.53 978.498C2041.31 922.7 2112.3 909.639 2176.19 838.133C2255.09 750.388 2106.97 615.467 2249.88 544.066C2431.57 453.458 2434.92 382.836 2315.94 314.714Z" stroke="#3D68FF" stroke-width="1.3" stroke-miterlimit="10"/>
<path d="M2336.87 294.722C2250.76 247.386 1995.39 316.172 1901.82 396.271C1864.52 428.144 1854.56 468.564 1852.66 498.372C1851.01 543.548 1841.33 572.96 1816.54 622.35C1811.16 633.06 1806.62 643.144 1801.45 652.815C1773.76 704.809 1771.09 676.778 1727.74 736.912C1726.6 738.576 1725.05 740.45 1723.29 742.843C1701.35 772.702 1620.33 842.799 1616.73 936.786C1615.76 962.646 1623.2 987.548 1631.57 1011.41C1641.4 1039.73 1654.84 1056 1673.97 1063.64C1716.59 1080.76 1762.12 1060.08 1798.84 1043.48C1836.07 1026.56 1869.88 1011 1899.45 998.771C2044.15 938.788 2118.78 926.652 2187.65 852.641C2272.77 761.557 2112.99 615.763 2267.93 540.697C2465.71 444.75 2467.27 366.449 2336.87 294.722Z" stroke="#3972FF" stroke-width="1.3" stroke-miterlimit="10"/>
<path d="M2357.69 274.626C2266.18 226.059 1988.39 303.106 1890.39 391.42C1851.95 426.1 1842.51 467.557 1840.93 499.337C1839.7 545.758 1831.16 577.348 1804.3 629.028C1798.62 639.946 1793.56 650.447 1787.77 660.535C1756.44 714.823 1748.89 685.663 1700.77 747.366C1699.52 749.031 1697.76 751.009 1695.8 753.506C1671.99 783.786 1587.14 857.424 1585.73 956.078C1585.39 983.078 1593.97 1009.12 1603.69 1033.91C1614.88 1062.34 1629.67 1079.22 1650.15 1087.37C1695.99 1105.43 1744.32 1083.49 1782.8 1066.05C1822.42 1048.19 1858.31 1031.9 1889.95 1019.04C2046.58 954.982 2124.85 943.77 2198.69 867.046C2290.03 772.623 2118.49 615.852 2285.58 537.12C2499.85 436.043 2499.63 349.854 2357.69 274.626Z" stroke="#357CFF" stroke-width="1.3" stroke-miterlimit="10"/>
<path d="M2378.61 254.634C2281.7 204.834 1981.51 290.04 1879.16 386.776C1839.59 424.262 1830.67 466.861 1829.41 500.405C1828.49 548.071 1821.31 581.839 1792.38 635.705C1786.38 646.935 1780.8 657.749 1774.29 668.255C1739.44 724.939 1726.9 694.546 1674 757.82C1672.55 759.485 1670.79 761.567 1668.62 764.065C1642.84 794.869 1554.15 871.944 1555.15 975.368C1555.43 1003.61 1565.05 1030.69 1576.34 1056.41C1588.77 1084.83 1605.12 1102.55 1626.95 1111.01C1676.01 1129.99 1727.04 1106.8 1767.49 1088.63C1809.5 1069.72 1847.56 1052.8 1881.17 1039.21C2049.64 970.965 2131.54 960.679 2210.25 881.346C2307.82 783.584 2124.62 615.94 2303.64 533.542C2533.99 427.335 2531.98 333.259 2378.61 254.634Z" stroke="#3086FF" stroke-width="1.3" stroke-miterlimit="10"/>
<path d="M2399.54 234.538C2297.12 183.506 1974.52 276.87 1867.83 382.029C1827.02 422.218 1818.73 466.061 1817.78 501.37C1817.18 550.178 1811.25 586.227 1780.24 642.278C1773.94 653.718 1767.74 664.949 1760.6 675.871C1722.13 734.953 1704.7 703.431 1647.03 768.067C1645.48 769.733 1643.51 771.815 1641.23 774.417C1613.59 805.745 1521.06 886.256 1524.36 994.348C1525.27 1023.84 1535.93 1052.05 1548.67 1078.6C1562.35 1107.23 1580.15 1125.56 1603.43 1134.43C1655.82 1154.44 1709.55 1129.8 1751.87 1110.89C1796.26 1091.04 1836.51 1073.39 1871.98 1059.17C2052.58 986.949 2138.02 977.589 2221.82 895.543C2325.6 794.441 2130.64 615.925 2321.8 529.757C2568.24 418.73 2564.34 316.663 2399.54 234.538Z" stroke="#2C90FF" stroke-width="1.3" stroke-miterlimit="10"/>
<path d="M2420.36 214.546C2312.54 162.282 1967.42 263.908 1856.5 377.385C1814.45 420.382 1806.68 465.262 1806.15 502.439C1805.97 552.491 1801.29 590.821 1768.21 649.059C1761.6 660.811 1754.88 672.355 1747.12 683.694C1705.12 745.07 1682.81 712.418 1620.27 778.625C1618.61 780.394 1616.54 782.476 1614.05 785.183C1584.54 816.932 1488.19 901.087 1493.67 1013.85C1495.2 1044.58 1506.91 1073.94 1521.11 1101.21C1536.03 1129.94 1555.39 1148.99 1580.03 1158.27C1635.64 1179.21 1692.06 1153.31 1736.25 1133.67C1783.13 1112.78 1825.35 1094.5 1862.9 1079.66C2055.43 1003.35 2144.51 994.809 2233.28 910.258C2343.29 805.818 2136.67 616.428 2339.76 526.491C2602.38 410.022 2596.7 299.964 2420.36 214.546Z" stroke="#289AFF" stroke-width="1.3" stroke-miterlimit="10"/>
<path d="M2441.28 194.554C2327.95 141.059 1960.33 250.843 1845.17 372.742C1801.99 418.546 1794.73 464.567 1794.52 503.612C1794.66 554.91 1791.34 595.417 1756.08 655.841C1749.05 667.801 1741.92 679.762 1733.43 691.518C1687.81 755.292 1660.62 721.511 1593.19 789.184C1591.43 790.954 1589.15 793.14 1586.46 795.847C1555.08 828.12 1454.79 915.713 1462.67 1033.14C1464.83 1065.12 1477.48 1095.72 1493.23 1123.71C1509.4 1152.64 1530.22 1172.32 1556.21 1182.01C1615.04 1203.87 1674.16 1176.72 1720.31 1156.25C1769.58 1134.42 1813.98 1115.4 1853.5 1099.83C2057.97 1019.44 2150.68 1011.82 2244.43 924.56C2360.66 816.884 2142.38 616.621 2357.5 522.914C2636.52 401.419 2629.05 283.162 2441.28 194.554Z" stroke="#24A4FF" stroke-width="1.3" stroke-miterlimit="10"/>
<path d="M2462.2 174.458C2343.47 119.627 1953.13 237.674 1833.84 367.995C1789.42 416.501 1782.79 463.767 1783 504.576C1783.45 557.12 1781.48 599.908 1744.05 662.518C1736.71 674.791 1729.06 687.064 1719.85 699.238C1670.59 765.306 1638.52 730.602 1566.32 799.638C1564.46 801.408 1561.97 803.699 1559.17 806.51C1525.82 839.307 1421.8 930.337 1431.99 1052.53C1434.77 1085.76 1448.35 1117.5 1465.67 1146.32C1483.08 1175.45 1505.46 1195.75 1532.8 1205.75C1594.96 1228.64 1656.77 1200.13 1704.8 1178.82C1756.55 1156.05 1803.02 1136.3 1844.42 1120.1C2060.81 1035.63 2157.16 1028.94 2255.89 939.068C2378.24 827.95 2148.3 616.814 2375.46 519.337C2670.67 392.711 2661.41 266.359 2462.2 174.458Z" stroke="#20AEFF" stroke-width="1.3" stroke-miterlimit="10"/>
<path d="M2483.03 154.465C2358.79 98.4023 1945.93 224.608 1822.51 363.351C1776.85 414.664 1770.85 463.071 1771.37 505.645C1772.24 559.329 1771.53 604.502 1732.03 669.195C1724.37 681.676 1716.1 694.366 1706.27 706.957C1653.38 775.423 1616.43 739.59 1539.45 810.092C1537.49 811.862 1534.9 814.153 1531.89 817.069C1496.67 850.39 1388.71 944.856 1401.19 1071.72C1404.61 1106.19 1419.23 1139.17 1438 1168.72C1456.66 1198.06 1480.5 1218.97 1509.29 1229.38C1574.67 1253.2 1639.18 1223.44 1689.07 1201.4C1743.22 1177.68 1791.76 1157.2 1835.23 1140.37C2063.55 1051.82 2163.54 1046.06 2267.24 953.472C2395.92 839.014 2154.11 617.005 2393.42 515.863C2704.81 384.106 2693.76 249.555 2483.03 154.465Z" stroke="#1CB8FF" stroke-width="1.3" stroke-miterlimit="10"/>
<path d="M2503.95 134.369C2374.2 77.0745 1938.83 211.542 1811.18 358.604C1764.28 412.724 1758.9 462.167 1759.74 506.609C1760.93 561.539 1761.67 608.889 1719.89 675.769C1711.93 688.562 1703.14 701.462 1692.68 714.573C1636.27 785.333 1594.43 748.578 1512.59 820.442C1510.51 822.317 1507.72 824.608 1504.61 827.524C1467.52 861.473 1355.42 959.377 1370.51 1090.91C1374.44 1126.62 1390.11 1160.85 1410.44 1191.11C1430.35 1220.66 1455.74 1242.09 1485.78 1253.02C1554.48 1277.66 1621.69 1246.64 1673.45 1223.87C1729.98 1199.11 1780.7 1177.9 1826.04 1160.44C2066.4 1067.81 2169.92 1062.86 2278.6 967.773C2413.5 850.079 2160.03 617.198 2411.37 512.285C2738.95 375.503 2726.12 232.649 2503.95 134.369Z" stroke="#18C3FF" stroke-width="1.3" stroke-miterlimit="10"/>
<path d="M2524.87 114.378C2389.62 55.6433 1931.53 198.477 1799.84 353.857C1751.6 410.785 1746.96 461.368 1748.12 507.679C1749.61 563.854 1751.72 613.485 1707.76 682.551C1699.49 695.553 1690.18 708.869 1679 722.501C1618.96 795.659 1572.24 757.774 1485.61 831.001C1483.44 832.876 1480.54 835.272 1477.12 838.292C1438.16 872.765 1322.23 974.106 1339.61 1110.3C1344.17 1147.26 1360.78 1182.73 1382.66 1213.62C1403.72 1243.36 1430.77 1265.41 1462.16 1276.75C1534.09 1302.32 1604 1270.05 1657.72 1246.55C1716.64 1220.85 1769.54 1198.9 1816.85 1180.81C2069.14 1084.21 2176.3 1080.09 2289.96 982.282C2431.07 861.145 2165.95 617.494 2429.33 508.709C2773.19 366.795 2758.57 215.742 2524.87 114.378Z" stroke="#14CDFF" stroke-width="1.3" stroke-miterlimit="10"/>
<path d="M2545.8 94.3853C2405.04 34.3156 1924.33 185.308 1788.62 349.214C1739.14 408.948 1735.12 460.672 1736.59 508.747C1738.51 566.167 1741.86 618.08 1695.84 689.228C1687.25 702.542 1677.32 716.171 1665.52 730.221C1601.85 805.672 1550.24 766.866 1458.85 841.455C1456.57 843.33 1453.46 845.83 1449.94 848.851C1409.01 883.849 1289.35 988.626 1308.92 1129.49C1314.11 1167.69 1331.65 1204.4 1355.1 1236.01C1377.4 1266.07 1405.91 1288.63 1438.76 1300.28C1513.9 1326.88 1586.51 1293.25 1642.1 1268.91C1703.4 1242.17 1758.38 1219.6 1807.76 1200.88C2071.99 1100.19 2182.78 1097 2301.42 996.582C2448.65 872.211 2172.08 618.102 2447.28 505.235C2807.54 358.814 2790.93 198.836 2545.8 94.3853Z" stroke="#10D7FF" stroke-width="1.3" stroke-miterlimit="10"/>
<path d="M2566.62 74.2889C2420.35 12.9874 1917.03 172.242 1777.18 344.466C1726.46 407.007 1722.97 459.872 1724.86 509.712C1727.09 568.273 1731.91 622.57 1683.6 695.905C1674.71 709.531 1664.26 723.474 1651.83 737.94C1584.54 815.789 1528.05 775.957 1431.88 851.909C1429.5 853.784 1426.28 856.285 1422.55 859.41C1379.76 895.035 1256.26 1003.15 1278.13 1148.78C1283.95 1188.22 1302.32 1226.18 1327.43 1258.52C1350.98 1288.78 1381.05 1311.96 1415.14 1324.02C1493.62 1351.54 1568.91 1316.56 1626.38 1291.49C1690.17 1263.8 1747.22 1240.6 1798.47 1221.05C2074.83 1116.9 2189.05 1113.9 2312.67 1010.88C2466.13 883.172 2177.69 618.086 2465.03 501.554C2841.69 350.001 2823.28 181.928 2566.62 74.2889Z" stroke="#0CE1FF" stroke-width="1.3" stroke-miterlimit="10"/>
<path d="M2587.54 54.2968C2435.77 -8.34034 1909.83 159.177 1765.96 339.822C1714 405.067 1711.13 459.073 1713.44 510.78C1715.99 570.587 1722.16 627.165 1671.78 702.582C1662.47 716.417 1651.61 730.776 1638.46 745.659C1567.53 825.803 1506.16 785.049 1405.22 862.363C1402.73 864.342 1399.31 866.843 1395.48 870.072C1350.82 906.222 1223.48 1017.77 1247.65 1168.07C1254.09 1208.76 1273.41 1248.07 1300.18 1281.02C1324.98 1311.59 1356.5 1335.28 1392.05 1347.76C1473.74 1376.31 1551.74 1339.97 1611.17 1314.16C1677.35 1285.44 1736.58 1261.6 1789.8 1241.42C2077.78 1132.99 2195.64 1131.13 2324.23 1025.39C2483.91 894.445 2183.71 618.279 2483.19 498.08C2875.72 341.19 2855.64 165.022 2587.54 54.2968Z" stroke="#08EBFF" stroke-width="1.3" stroke-miterlimit="10"/>
<path d="M2608.47 34.2012C2451.18 -29.7715 1902.52 146.113 1754.63 335.076C1701.32 403.127 1699.18 458.273 1701.81 511.849C1704.78 572.901 1712.41 631.864 1659.65 709.26C1650.13 723.407 1638.64 738.079 1624.77 753.38C1550.32 835.921 1484.17 794.348 1378.25 872.818C1375.55 874.798 1372.13 877.403 1367.99 880.632C1321.35 917.306 1190.29 1032.39 1216.66 1187.36C1223.72 1229.3 1243.97 1269.95 1272.31 1303.42C1298.35 1334.29 1331.43 1358.51 1368.33 1371.39C1453.25 1400.87 1533.94 1363.17 1595.24 1336.64C1663.8 1306.97 1725.21 1282.3 1780.4 1261.6C2080.53 1148.98 2202.02 1148.14 2335.69 1039.9C2501.49 905.614 2189.63 618.471 2501.15 494.607C2909.87 332.483 2888.1 148.011 2608.47 34.2012Z" stroke="#04F5FF" stroke-width="1.3" stroke-miterlimit="10"/>
<path d="M1743.29 330.432C1616.31 495.457 1776.97 581.02 1611.19 761.203C1533.11 846.038 1461.97 803.336 1351.38 883.375C1317.38 907.97 1154.78 1032.9 1185.97 1206.76C1200.83 1289.38 1264.58 1367.51 1344.82 1395.23C1433.06 1425.74 1516.45 1386.69 1579.62 1359.42C2037.88 1161.13 2183.01 1185.47 2347.05 1054.2C2519.07 916.575 2195.45 618.456 2519.1 491.029C2943.9 323.671 2920.45 131 2629.29 14.2087C2466.5 -51.0997 1895.22 132.943 1743.29 330.432Z" stroke="#00FFFF" stroke-width="1.3" stroke-miterlimit="10"/>
</g>
<g opacity="0.15">
<path d="M2517.84 3933.61C2464.56 3860.42 2342.14 3842.38 2254.31 3852.11C2207.25 3857.31 2178.71 3902.52 2167.25 3924.41C2150.74 3977.02 2118.39 3990.08 2096.08 4035.12C2089.89 4047.69 2086.98 4058.41 2085.61 4067.78C2078.07 4118.58 2141.08 4102.74 2117.73 4171.55C2117.02 4173.7 2116.11 4175.98 2115 4178.55C2098.65 4217.65 2008.72 4266.13 1960.11 4345.7C1946.44 4368.17 1937.77 4392.68 1931 4417.54C1919.33 4459.61 1922.3 4475.63 1933.36 4484.8C1955.9 4503.54 1995.2 4495.31 2030.62 4485.08C2060.38 4476.44 2088.64 4466.22 2111.76 4459.15C2194.28 4433.63 2268.91 4414.83 2327.49 4342.28C2399.31 4254.19 2315.04 4147.69 2416.64 4094.15C2535.88 4031.41 2569.09 4003.67 2517.84 3933.61Z" stroke="#5921FF" stroke-width="1.3" stroke-miterlimit="10"/>
<path d="M2555.23 3908.91C2493.35 3833.67 2336.32 3822.26 2238.45 3841.59C2189.26 3851.29 2160.84 3897.66 2149.5 3922.51C2133.13 3977.09 2101.75 3993.76 2076 4041.59C2069.13 4054.37 2065.47 4065.61 2063.04 4075.44C2049.32 4128.87 2104.67 4109.37 2074.21 4179.66C2073.34 4181.79 2072.09 4184.17 2070.79 4186.87C2051.04 4225.84 1954.87 4279.06 1908.3 4366.33C1895.23 4390.87 1892.67 4418.6 1883.04 4443.92C1867.38 4484.62 1878.22 4504.02 1891.37 4514.21C1918.67 4535.45 1962.32 4525.72 2000.95 4514.93C2034.59 4505.52 2066.39 4494.64 2092.68 4487.16C2194.43 4458.1 2274.24 4442.2 2341.42 4367.13C2423.5 4275.51 2324.57 4149.08 2445.61 4093.51C2590.26 4027.22 2621.37 3989.47 2555.23 3908.91Z" stroke="#552BFF" stroke-width="1.3" stroke-miterlimit="10"/>
<path d="M2592.59 3884.36C2522.54 3806.5 2330.37 3801.95 2222.68 3831.4C2171.41 3845.45 2143.04 3893.31 2131.67 3921.08C2115.42 3977.65 2085.22 3997.78 2055.96 4048.73C2048.56 4061.74 2044 4073.47 2040.35 4083.73C2020.48 4139.64 2068.15 4116.63 2030.58 4188.41C2029.39 4190.48 2027.96 4192.99 2026.34 4195.63C2003.31 4234.67 1900.65 4292.25 1856.27 4387.25C1843.81 4413.85 1843.99 4443.55 1834.87 4470.59C1820.88 4511.92 1834.08 4532.72 1849.2 4543.76C1881.14 4567.3 1929.23 4556.42 1971.05 4545.07C2008.77 4534.77 2043.74 4523.48 2073.2 4515.59C2194.14 4483.15 2279.32 4470.01 2354.77 4392.52C2447.07 4297.53 2333.51 4151.02 2473.96 4093.58C2644.44 4023.31 2674.21 3974.89 2592.59 3884.36Z" stroke="#5135FF" stroke-width="1.3" stroke-miterlimit="10"/>
<path d="M2629.79 3859.78C2551.76 3779.18 2324.19 3781.11 2206.6 3821.17C2153.11 3839.38 2124.93 3888.89 2113.54 3919.44C2097.62 3977.85 2068.39 4001.59 2035.51 4055.47C2027.42 4068.68 2022.11 4080.93 2017.25 4091.62C1991.22 4150 2031.53 4123.54 1986.52 4196.75C1985.15 4198.95 1983.59 4201.28 1981.63 4204.02C1955.36 4242.96 1846.18 4305.07 1803.8 4407.93C1791.94 4436.6 1794.57 4468.04 1786.27 4496.86C1774.1 4539 1789.36 4560.99 1806.42 4573.04C1842.96 4599.04 1895.72 4586.72 1940.43 4574.75C1982.04 4563.68 2020.54 4551.72 2053.15 4543.59C2193.41 4507.96 2283.64 4497.53 2367.56 4417.33C2470.25 4319 2341.87 4152.53 2501.63 4092.87C2698.79 4019.27 2727.26 3960.02 2629.79 3859.78Z" stroke="#4D3FFF" stroke-width="1.3" stroke-miterlimit="10"/>
<path d="M2667.18 3835.07C2581.17 3751.73 2318.07 3759.96 2190.86 3810.83C2134.99 3833.17 2107 3884.35 2095.77 3917.7C2079.97 3978.09 2051.88 4005.45 2015.38 4062.27C2006.73 4075.87 2000.39 4088.41 1994.46 4099.57C1962.25 4160.58 1995.23 4130.52 1942.79 4205.15C1941.26 4207.32 1939.35 4209.75 1937.2 4212.62C1907.85 4251.49 1791.99 4318.1 1751.8 4428.7C1740.55 4459.43 1739.11 4491.77 1738.13 4523.38C1736.69 4567.45 1745.25 4589.54 1764.24 4602.59C1805.43 4630.89 1862.63 4617.42 1910.56 4604.72C1956.09 4592.73 1998.08 4580.43 2033.88 4571.74C2193.28 4533.04 2288.91 4525.21 2381.12 4442.43C2494.19 4340.76 2351.16 4154.37 2530.23 4092.5C2753.12 4015.39 2780.37 3944.84 2667.18 3835.07Z" stroke="#494AFF" stroke-width="1.3" stroke-miterlimit="10"/>
<path d="M2704.54 3810.52C2610.61 3724.12 2311.63 3738.75 2174.94 3800.61C2116.72 3826.94 2089.08 3879.81 2077.77 3916.24C2062.11 3978.61 2035.34 4009.48 1995.21 4069.22C1985.87 4083.02 1978.82 4095.93 1971.8 4107.7C1933.59 4171.22 1959.02 4137.83 1899.21 4213.59C1897.52 4215.72 1895.3 4218.09 1892.81 4221.07C1860.34 4260.03 1737.83 4330.98 1699.8 4449.46C1689.31 4482.29 1689.32 4516.52 1689.98 4549.89C1690.91 4594.4 1700.98 4618.06 1722.07 4632.14C1768.02 4662.93 1829.54 4648.12 1880.67 4634.86C1930.08 4622.11 1975.59 4609.3 2014.4 4600.17C2192.96 4558.25 2293.99 4553.02 2394.21 4467.45C2517.79 4362.63 2359.81 4156.1 2558.16 4092.16C2807.58 4011.69 2833.85 3929.4 2704.54 3810.52Z" stroke="#4554FF" stroke-width="1.3" stroke-miterlimit="10"/>
<path d="M2741.78 3785.79C2639.92 3696.32 2305.09 3717.19 2158.89 3790.22C2098.32 3820.52 2071 3875.24 2059.68 3914.44C2044.3 3978.82 2018.68 4013.31 1974.79 4075.8C1964.89 4089.99 1956.96 4103.23 1948.72 4115.43C1904.34 4181.58 1922.56 4144.78 1855.19 4221.77C1853.34 4223.88 1850.93 4226.38 1848.1 4229.46C1812.52 4268.51 1683.35 4343.8 1647.36 4469.98C1637.47 4504.87 1639.09 4541.03 1641.39 4576.16C1644.37 4621.04 1656.42 4646.36 1679.32 4661.25C1729.91 4694.35 1796.06 4678.26 1850.07 4664.38C1903.4 4650.7 1952.24 4637.52 1994.38 4628.01C2192.68 4583.3 2298.92 4580.81 2407.61 4492.53C2541.55 4384.52 2368.91 4158.07 2586.6 4091.75C2861.88 4007.97 2887.37 3913.79 2741.78 3785.79Z" stroke="#415EFF" stroke-width="1.3" stroke-miterlimit="10"/>
<path d="M2779.14 3761.24C2669.38 3668.55 2298.36 3695.76 2143.12 3780.03C2080.08 3814.13 2053.2 3870.89 2041.87 3912.85C2026.66 3979.06 2002.3 4017.36 1954.78 4082.79C1944.35 4097.2 1935.36 4110.9 1926.06 4123.57C1875.53 4192.19 1886.67 4152.15 1811.58 4230.36C1809.58 4232.44 1806.83 4235.04 1803.83 4238.09C1765.14 4277.23 1629.32 4356.86 1595.52 4490.78C1586.23 4527.73 1589.34 4565.62 1593.4 4602.7C1598.59 4647.98 1612.31 4674.9 1637.3 4690.83C1692.52 4726.23 1763.12 4708.99 1820.34 4694.55C1877.71 4680.13 1929.9 4666.41 1975.24 4656.34C2192.52 4608.54 2304.03 4608.46 2421.01 4517.61C2565.33 4406.26 2377.85 4160.01 2614.87 4091.32C2916.18 4004.25 2940.93 3897.88 2779.14 3761.24Z" stroke="#3D68FF" stroke-width="1.3" stroke-miterlimit="10"/>
<path d="M2816.5 3736.69C2698.85 3640.78 2291.67 3674.18 2127.2 3769.82C2061.65 3807.86 2035.25 3866.5 2024.06 3911.27C2008.98 3979.45 1986.07 4021.44 1934.65 4089.58C1923.5 4104.36 1913.79 4118.42 1903.25 4131.67C1846.69 4202.96 1850.44 4159.62 1767.82 4238.92C1765.63 4241.13 1762.75 4243.55 1759.41 4246.69C1717.76 4285.95 1575.13 4369.89 1543.49 4511.7C1534.81 4550.72 1539.18 4590.63 1545.25 4629.22C1552.3 4674.99 1568.19 4703.45 1595.13 4720.38C1655.12 4758.27 1730.06 4739.53 1790.47 4724.52C1851.76 4709.19 1907.47 4694.96 1955.79 4684.61C2192.36 4633.78 2309.14 4636.12 2434.38 4542.84C2589.09 4428.15 2386.92 4162.13 2643.25 4091.23C2970.48 4000.53 2994.66 3881.99 2816.5 3736.69Z" stroke="#3972FF" stroke-width="1.3" stroke-miterlimit="10"/>
<path d="M2853.73 3711.95C2728.21 3612.67 2284.68 3652.38 2111.18 3759.27C2043.12 3801.26 2017.22 3861.62 2005.97 3909.47C1991.18 3979.66 1969.41 4025.28 1914.2 4096.32C1902.52 4111.33 1891.91 4125.87 1880.3 4139.59C1817.59 4213.35 1814.23 4166.94 1723.93 4247.29C1721.58 4249.48 1718.35 4251.99 1714.67 4255.24C1670.06 4294.62 1520.63 4382.87 1491.02 4532.38C1482.97 4573.31 1488.76 4615.27 1496.63 4655.64C1505.71 4701.95 1523.48 4731.73 1552.32 4749.81C1616.95 4790.01 1696.49 4770.14 1759.82 4754.36C1824.99 4738.26 1884.06 4723.5 1935.71 4712.77C2191.55 4659.06 2313.59 4663.82 2447.15 4567.81C2612.24 4449.78 2395.26 4163.8 2671.06 4090.71C3024.78 3996.8 3048.44 3865.78 2853.73 3711.95Z" stroke="#357CFF" stroke-width="1.3" stroke-miterlimit="10"/>
<path d="M2891.09 3687.4C2757.71 3584.75 2277.85 3630.61 2095.41 3749.09C2024.85 3795.02 1999.42 3857.26 1988.16 3907.88C1973.5 3980.05 1953.18 4029.36 1894.22 4103.14C1881.98 4118.54 1870.49 4133.42 1857.67 4147.56C1788.93 4223.99 1778.34 4174.32 1680.35 4255.72C1677.68 4257.85 1674.43 4260.52 1670.43 4263.71C1622.68 4303.34 1466.46 4395.75 1439.17 4553.17C1431.74 4596.16 1438.82 4639.99 1448.8 4682.21C1459.77 4728.86 1479.68 4760.33 1510.49 4779.26C1579.75 4821.76 1663.74 4800.74 1730.27 4784.39C1799.36 4767.37 1861.91 4752.26 1916.76 4740.97C2191.73 4684.19 2319.05 4691.38 2460.74 4592.76C2636.21 4471.39 2404.54 4165.64 2699.49 4090.3C3079.08 3993.08 3102.23 3849.58 2891.09 3687.4Z" stroke="#3086FF" stroke-width="1.3" stroke-miterlimit="10"/>
<path d="M2928.48 3662.69C2787.07 3556.63 2270.9 3608.65 2079.52 3738.72C2006.32 3788.42 1981.5 3852.72 1970.23 3906.11C1955.72 3980.1 1936.68 4033.22 1873.95 4109.75C1861.19 4125.38 1848.64 4140.72 1834.75 4155.32C1759.84 4234.38 1742.14 4181.63 1636.51 4263.78C1633.69 4265.88 1630.12 4268.49 1625.93 4271.81C1575.21 4311.72 1412.2 4408.28 1387.1 4573.43C1380.27 4618.49 1388.62 4664.34 1400.58 4708.22C1413.39 4755.53 1435.33 4788.34 1468.24 4808.3C1542.27 4853.3 1630.77 4830.81 1700.33 4813.87C1773.31 4796.08 1839.38 4780.46 1897.24 4768.75C2191.77 4709.3 2324.19 4718.87 2474.36 4617.55C2660.21 4492.84 2413.7 4167.3 2728.14 4089.61C3133.51 3989.54 3156.01 3833.38 2928.48 3662.69Z" stroke="#2C90FF" stroke-width="1.3" stroke-miterlimit="10"/>
<path d="M2965.68 3638.12C2816.41 3528.68 2263.73 3586.98 2063.59 3728.51C1987.73 3782.13 1963.42 3848.15 1952.26 3904.49C1938.05 3980.49 1920.27 4037.43 1853.79 4116.71C1840.46 4132.72 1827.04 4148.39 1812.09 4163.46C1731.18 4245.02 1706.38 4189.19 1592.91 4272.37C1589.9 4274.6 1586.17 4277.18 1581.64 4280.6C1527.96 4320.62 1358.12 4421.66 1335.05 4594.51C1328.82 4641.64 1338.43 4689.5 1352.4 4734.9C1367.08 4782.7 1391.19 4817.05 1426.04 4838.01C1504.7 4885.31 1597.65 4861.67 1670.25 4844.14C1747.31 4825.45 1816.54 4809.43 1877.73 4797.33C2191.52 4735.01 2329.24 4746.84 2487.67 4643.1C2683.91 4515.05 2422.71 4169.74 2756.34 4089.65C3187.81 3985.82 3209.82 3817.01 2965.68 3638.12Z" stroke="#289AFF" stroke-width="1.3" stroke-miterlimit="10"/>
<path d="M3003.04 3613.57C2845.74 3500.72 2256.59 3565.15 2047.67 3718.3C1969.3 3775.86 1945.46 3843.77 1934.27 3903.04C1920.19 3981.02 1903.86 4041.64 1833.47 4123.63C1819.45 4139.85 1805.28 4156.03 1789.12 4171.53C1702.03 4255.73 1670.12 4196.83 1548.83 4280.87C1545.66 4283.07 1541.59 4285.76 1536.74 4289.12C1480.07 4329.42 1303.29 4434.58 1282.57 4615.19C1276.95 4664.38 1287.64 4714.4 1303.78 4761.33C1320.29 4809.79 1346.45 4845.48 1383.23 4867.45C1466.53 4917.05 1563.92 4892.25 1639.76 4874C1720.7 4854.55 1793.45 4838.02 1857.84 4825.36C2190.89 4760.16 2333.88 4774.42 2500.63 4667.93C2707.22 4536.7 2431.33 4171.62 2784.3 4089.16C3242.08 3982.26 3263.66 3800.49 3003.04 3613.57Z" stroke="#24A4FF" stroke-width="1.3" stroke-miterlimit="10"/>
<path d="M3040.43 3588.86C2875.3 3472.48 2249.32 3543.13 2031.77 3707.93C1950.77 3769.26 1927.54 3839.23 1916.49 3901.29C1902.54 3981.25 1887.64 4045.72 1813.33 4130.43C1798.76 4147.03 1783.71 4163.55 1766.33 4179.48C1673.09 4266.15 1634.02 4204.49 1505.09 4289.27C1501.77 4291.44 1497.35 4294.23 1492.32 4297.72C1432.51 4338.27 1249.11 4447.61 1230.55 4636.12C1225.53 4687.37 1237.33 4739.38 1255.6 4788C1273.95 4837.11 1302.31 4874.18 1341.06 4896.99C1429.12 4949.08 1530.99 4922.98 1609.89 4903.98C1694.88 4883.79 1770.98 4866.73 1838.39 4853.64C2190.71 4785.56 2338.96 4802.23 2514 4693.17C2730.85 4558.41 2440.28 4173.56 2812.58 4088.72C3296.38 3978.54 3317.5 3783.97 3040.43 3588.86Z" stroke="#20AEFF" stroke-width="1.3" stroke-miterlimit="10"/>
<path d="M3077.63 3564.28C2904.47 3444.5 2242.02 3521.28 2015.85 3697.72C1932.18 3762.97 1909.58 3834.84 1898.53 3899.68C1884.89 3981.49 1871.23 4049.93 1793.2 4137.22C1778.09 4154.06 1761.99 4171.03 1743.54 4187.43C1644.12 4276.73 1597.94 4211.99 1461.36 4297.67C1457.87 4299.82 1453.3 4302.58 1447.92 4306.17C1385.13 4346.99 1194.79 4460.46 1178.42 4656.69C1174.01 4710.01 1187.04 4764.2 1207.33 4814.32C1227.52 4864.1 1257.91 4902.51 1298.75 4926.35C1391.46 4980.75 1497.77 4953.49 1579.71 4933.9C1668.58 4912.95 1748.05 4895.35 1818.78 4881.88C2190.37 4810.93 2343.89 4830.01 2527.25 4718.22C2754.63 4580.14 2449.06 4175.48 2840.83 4088.44C3350.66 3974.97 3371.35 3767.45 3077.63 3564.28Z" stroke="#1CB8FF" stroke-width="1.3" stroke-miterlimit="10"/>
<path d="M3115.02 3539.57C2933.84 3416.39 2234.88 3499.45 1999.96 3687.35C1913.62 3756.52 1891.69 3830.14 1880.59 3897.91C1867.09 3981.7 1855.04 4053.85 1772.93 4143.83C1757.27 4161.05 1740.32 4178.2 1720.78 4195.21C1615.36 4287.02 1562.03 4219.52 1417.65 4305.92C1413.98 4308.19 1409.09 4310.89 1403.56 4314.46C1337.75 4355.71 1140.15 4473.25 1126.45 4677.3C1122.48 4732.66 1136.75 4789.02 1159.21 4840.68C1181.24 4891.11 1213.85 4930.74 1256.45 4955.71C1353.98 5012.29 1464.73 4983.88 1549.72 4963.69C1642.51 4941.82 1725.48 4923.71 1799.23 4909.81C2190.24 4836 2348.9 4857.32 2540.52 4743.11C2778.26 4601.85 2458 4177.42 2869.11 4088.01C3404.93 3971.41 3425.22 3750.78 3115.02 3539.57Z" stroke="#18C3FF" stroke-width="1.3" stroke-miterlimit="10"/>
<path d="M3152.38 3515.03C2963.23 3388.12 2227.42 3477.56 1984.06 3676.98C1894.91 3750.04 1873.76 3825.6 1862.62 3896.29C1849.25 3982.06 1838.63 4058.06 1752.61 4150.76C1736.42 4168.21 1718.56 4185.85 1697.78 4203.45C1586.18 4297.89 1525.74 4227.31 1373.73 4314.45C1369.9 4316.69 1364.82 4319.53 1358.79 4323.16C1290 4364.69 1085.62 4486.38 1074.1 4698.17C1070.74 4755.59 1086.09 4814.11 1110.75 4867.13C1134.45 4918.2 1169.42 4959.23 1213.96 4985.21C1316.12 5044.08 1431.32 5014.52 1519.51 4993.77C1616.18 4971.13 1702.68 4952.52 1779.59 4938.21C2189.84 4861.69 2353.8 4885.27 2553.73 4768.32C2801.89 4623.56 2466.91 4179.52 2897.38 4087.57C3459.39 3967.71 3479.24 3734.13 3152.38 3515.03Z" stroke="#14CDFF" stroke-width="1.3" stroke-miterlimit="10"/>
<path d="M3189.74 3490.48C2992.6 3360 2220.14 3455.55 1968.3 3666.8C1876.48 3743.78 1855.97 3821.25 1844.82 3894.71C1831.74 3982.49 1822.38 4062.3 1732.63 4157.58C1715.88 4175.42 1696.99 4193.36 1675.15 4211.42C1557.4 4308.34 1489.79 4235 1330.15 4322.88C1326.16 4325.09 1320.74 4328.03 1314.55 4331.64C1242.62 4373.41 1031.62 4499.29 1022.13 4718.77C1019.38 4778.26 1035.8 4838.93 1062.63 4893.49C1088.14 4945.37 1125.18 4987.59 1171.84 5014.44C1278.61 5075.78 1398.29 5044.9 1489.54 5023.4C1590.13 4999.84 1679.95 4980.86 1760.2 4966.17C2189.71 4886.77 2358.94 4912.77 2567.16 4793.24C2825.51 4645.27 2476.05 4182.14 2925.63 4087.3C3513.8 3965.15 3533.11 3717.45 3189.74 3490.48Z" stroke="#10D7FF" stroke-width="1.3" stroke-miterlimit="10"/>
<path d="M3226.97 3465.74C3021.8 3331.86 2212.69 3433.66 1952.24 3656.4C1857.76 3737.3 1837.73 3816.65 1826.72 3892.9C1813.8 3982.51 1806 4066.35 1712.18 4164.32C1694.87 4182.55 1675.11 4200.82 1652.2 4219.34C1528.27 4318.89 1453.53 4242.63 1286.26 4331.25C1282.11 4333.44 1276.54 4336.34 1270 4340.05C1195.05 4382.26 977.3 4512.14 969.978 4739.51C967.826 4801.06 985.175 4863.85 1014.32 4919.97C1041.67 4972.51 1080.91 5016.11 1129.35 5043.93C1240.92 5107.6 1365.07 5075.42 1459.36 5053.33C1564 5029.03 1657.15 5009.66 1740.46 4994.23C2189.38 4912.95 2363.76 4940.21 2580.28 4818.1C2849.01 4666.79 2484.58 4183.68 2953.63 4086.64C3568.13 3961.27 3586.98 3700.77 3226.97 3465.74Z" stroke="#0CE1FF" stroke-width="1.3" stroke-miterlimit="10"/>
<path d="M3264.33 3441.19C3051.17 3303.75 2205.39 3411.81 1936.48 3646.22C1839.36 3730.88 1819.96 3812.14 1809.07 3891.35C1796.28 3982.93 1789.9 4070.61 1692.36 4171.17C1674.36 4189.6 1653.85 4208.39 1629.73 4227.35C1499.64 4329.37 1417.74 4250.35 1242.84 4339.71C1238.51 4342.03 1232.61 4344.87 1225.89 4348.71C1147.96 4391.2 923.425 4525.23 918.293 4760.33C916.746 4823.95 935.145 4889.05 966.648 4946.57C995.807 4999.93 1037.11 5044.71 1087.65 5073.56C1203.82 5139.7 1332.45 5106.2 1429.94 5083.55C1538.49 5058.33 1635.13 5038.61 1721.61 5022.77C2189.38 4938.22 2368.97 4968.21 2593.81 4843.36C2872.9 4688.87 2493.68 4185.65 2982.19 4086.42C3622.3 3957.36 3640.85 3684.09 3264.33 3441.19Z" stroke="#08EBFF" stroke-width="1.3" stroke-miterlimit="10"/>
<path d="M3301.72 3416.48C3080.56 3275.48 2197.93 3389.92 1920.58 3635.85C1820.64 3724.4 1802.03 3807.6 1791.11 3889.73C1778.61 3983.32 1773.78 4075.04 1672.06 4177.94C1653.66 4196.79 1632.12 4215.88 1606.78 4235.26C1470.67 4339.95 1381.74 4258.36 1198.94 4348.09C1194.3 4350.34 1188.38 4353.35 1181.18 4357.1C1100.11 4399.84 868.92 4538.2 865.82 4781.01C864.879 4846.69 884.327 4914.1 918.055 4972.84C949.023 5027.01 992.55 5073.02 1045.02 5102.87C1165.84 5171.31 1298.94 5136.5 1399.48 5113.25C1511.91 5087.27 1612.09 5066.89 1701.72 5050.8C2189.09 4963.27 2373.93 4995.83 2607.18 4868.6C2896.5 4710.74 2502.62 4187.59 3010.44 4086.15C3676.6 3953.64 3694.9 3667.29 3301.72 3416.48Z" stroke="#04F5FF" stroke-width="1.3" stroke-miterlimit="10"/>
<path d="M1904.66 3625.64C1665.76 3841.01 1886.04 4015.76 1583.96 4243.37C1441.71 4350.52 1345.51 4265.83 1155.18 4356.64C1096.68 4384.55 814.82 4529.08 813.793 4801.93C813.357 4931.6 888.469 5068.07 1002.66 5132.54C1128.24 5203.47 1265.82 5167.36 1369.4 5143.52C2120.91 4969.86 2334.65 5047.26 2620.45 4893.49C2920.15 4732.29 2511.46 4189.19 3038.72 4085.71C3730.78 3949.73 3748.8 3650.45 3338.92 3391.91C3109.77 3247.34 2190.5 3367.88 1904.66 3625.64Z" stroke="#00FFFF" stroke-width="1.3" stroke-miterlimit="10"/>
</g>
<g opacity="0.25">
<path d="M-174.246 2947.91C-174.307 2997.72 -206.196 3011.99 -205.499 3050.12C-203.886 3133.34 -90.1267 3065.12 -72.0027 3148.75C-61.1456 3198.65 -156.672 3279.2 -171.071 3381.94C-177.147 3426.11 -172.552 3437.69 -165.621 3442.04C-145.011 3454.93 -94.3954 3410.42 -69.6905 3383.71C-50.0466 3362.59 -5.85589 3314.79 3.68917 3242.51C15.1872 3155.08 -36.251 3126.66 -13.3292 3065.91C9.69624 3004.82 48.9389 2989.77 26.0977 2958.22C-16.3706 2899.6 -52.4047 2871.78 -114.062 2876.69C-155.158 2880.01 -168.133 2931.39 -174.246 2947.91Z" stroke="#6503FF" stroke-width="1.3" stroke-miterlimit="10"/>
<path d="M52.785 2922.22C-2.82187 2867.65 -65.4043 2856.76 -132.545 2872.38C-174.162 2882.14 -186.531 2933.25 -191.68 2952.53C-190.941 3004.16 -220.994 3021.54 -222.256 3063.42C-222.639 3076.35 -220.479 3086.07 -216.749 3093.56C-196.626 3134.86 -125.394 3099.5 -112.004 3165.07C-111.624 3167.29 -111.243 3169.5 -110.966 3172.06C-106.199 3212.09 -165.736 3275.71 -193.315 3353.86C-201.191 3376.21 -205.818 3399.47 -207.41 3423.34C-210.243 3467.45 -204.563 3479.66 -195.337 3484.09C-178.1 3492.52 -151.623 3477.06 -127.14 3458.53C-108.857 3444.65 -91.7171 3428.84 -78.3296 3416.77C-42.6279 3384.92 8.40291 3339.03 24.8567 3261.5C44.9974 3167.54 -28.4557 3124.67 13.0955 3055.83C57.9959 2981.87 90.9786 2959.76 52.785 2922.22Z" stroke="#610DFF" stroke-width="1.3" stroke-miterlimit="10"/>
<path d="M79.5015 2886.37C13.5967 2834.39 -77.8509 2841.16 -150.84 2868.2C-192.928 2883.74 -204.742 2935.25 -208.955 2957.13C-207.442 3010.42 -235.344 3030.84 -238.668 3076.82C-239.628 3090.17 -237.992 3100.63 -235.233 3109.11C-220.019 3155 -157.518 3119.02 -150.044 3188.05C-149.822 3190.29 -149.73 3192.72 -149.611 3195.3C-148.213 3236.57 -211.885 3306.43 -234.894 3391.28C-241.495 3415.37 -243.583 3440.14 -243.431 3464.69C-243.048 3508.57 -236.071 3521.7 -224.708 3526.25C-202.298 3535.42 -171.934 3517.02 -144.795 3496.89C-123.148 3480.79 -103.064 3463.18 -86.7813 3449.96C-34.6239 3407.79 22.849 3363.41 46.1843 3280.45C74.9406 3179.8 -19.8408 3122.7 39.8656 3045.86C107.115 2958.94 134.127 2929.55 79.5015 2886.37Z" stroke="#5D17FF" stroke-width="1.3" stroke-miterlimit="10"/>
<path d="M106.058 2850.56C30.9572 2799.99 -90.2498 2824.9 -169.453 2864.07C-211.909 2885.05 -223.271 2937.29 -226.547 2961.78C-224.076 3016.86 -250.011 3040.2 -255.583 3090.15C-257.094 3104.08 -256.167 3115.15 -254.247 3124.42C-243.968 3174.74 -190.173 3138.31 -188.587 3210.96C-188.523 3213.22 -188.589 3215.68 -188.76 3218.47C-190.758 3260.81 -258.695 3337.11 -277.161 3428.5C-282.329 3454.29 -282.091 3480.29 -279.955 3505.97C-276.541 3549.49 -268.267 3563.53 -254.74 3568.36C-227.158 3578.27 -193.036 3557.1 -163.242 3535.38C-138.231 3517.08 -115.175 3497.82 -95.8671 3483.27C-27.0417 3431.07 36.6611 3387.89 66.9052 3299.68C104.277 3192.34 -11.3314 3121.07 65.8435 3036.02C156.445 2936.3 178.168 2898.87 106.058 2850.56Z" stroke="#5921FF" stroke-width="1.3" stroke-miterlimit="10"/>
<path d="M132.745 2814.55C48.8677 2765.01 -102.6 2807.98 -187.963 2859.61C-230.868 2885.54 -241.724 2938.84 -243.879 2966.06C-240.607 3022.96 -264.391 3049.34 -272.237 3103.1C-274.326 3117.46 -273.923 3129.27 -272.843 3139.34C-267.471 3194.24 -222.119 3156.99 -226.711 3233.46C-226.805 3235.76 -227.161 3238.42 -227.462 3241.4C-232.698 3284.78 -304.874 3367.67 -318.797 3465.61C-322.69 3493.13 -315.617 3520.07 -316.005 3547.16C-316.81 3590.75 -299.99 3605.28 -284.141 3610.36C-251.228 3620.98 -213.535 3596.92 -180.927 3573.57C-152.524 3553.23 -126.366 3532.13 -104.218 3516.11C-18.5388 3454.02 51.0233 3411.78 88.4922 3318.26C134.294 3204.1 -1.90138 3119.12 92.8458 3025.52C206.118 2913.76 222.443 2867.65 132.745 2814.55Z" stroke="#552BFF" stroke-width="1.3" stroke-miterlimit="10"/>
<path d="M159.461 2778.71C67.014 2729.5 -115.135 2790.93 -206.26 2855.43C-249.641 2886.16 -259.936 2940.83 -261.127 2970.82C-257.055 3029.53 -278.556 3058.78 -288.623 3116.66C-291.132 3131.42 -291.41 3144 -291.328 3154.89C-290.892 3214.22 -253.956 3176.3 -264.725 3256.6C-265.135 3258.95 -265.622 3261.8 -266.239 3264.83C-274.529 3309.39 -351.313 3398.6 -360.535 3503.06C-363.154 3532.31 -352.832 3560.16 -352.158 3588.69C-351.17 3632.31 -331.657 3647.34 -313.671 3652.55C-275.613 3663.75 -234.135 3637.09 -198.715 3612.12C-166.789 3589.54 -137.791 3566.97 -112.801 3549.49C-10.2422 3477.66 65.3101 3436.18 109.715 3337.56C163.974 3216.74 7.16434 3117.89 119.511 3015.89C255.688 2891.56 267.112 2835.89 159.461 2778.71Z" stroke="#5135FF" stroke-width="1.3" stroke-miterlimit="10"/>
<path d="M186.017 2742.89C85.1323 2693.83 -128.068 2773.46 -224.873 2851.3C-268.917 2886.71 -278.465 2942.88 -278.72 2975.47C-273.717 3035.81 -293.066 3068.11 -305.539 3129.99C-308.625 3145.17 -309.427 3158.49 -310.343 3170.2C-314.842 3233.96 -286.005 3195.31 -303.269 3279.5C-303.81 3282.04 -304.481 3284.76 -305.388 3288C-316.757 3333.58 -398.124 3429.28 -402.775 3540.43C-404.12 3571.42 -390.892 3600.07 -388.84 3629.99C-385.873 3673.76 -364.011 3689.2 -343.862 3694.69C-300.631 3706.63 -255.266 3677.02 -217.348 3650.48C-182.031 3625.85 -149.93 3601.45 -122.073 3582.66C-2.44791 3501.22 78.7784 3460.56 130.223 3356.5C193.098 3228.99 15.5425 3116.45 145.276 3005.76C305.388 2869.18 311.883 2803.77 186.017 2742.89Z" stroke="#4D3FFF" stroke-width="1.3" stroke-miterlimit="10"/>
<path d="M212.705 2706.89C103.382 2657.98 -141.054 2755.67 -243.197 2846.97C-288.06 2887.07 -296.863 2944.74 -296.023 2979.91C-290.219 3042.07 -307.259 3077.39 -322.137 3143.26C-325.617 3158.99 -327.286 3172.95 -329.041 3185.46C-338.448 3253.81 -317.738 3214.28 -341.496 3302.35C-342.195 3304.91 -343.155 3307.84 -344.193 3311.28C-358.484 3357.84 -444.59 3460.05 -444.541 3577.72C-444.61 3610.45 -434.906 3641.33 -425.021 3671.37C-411.304 3713.28 -395.706 3731.11 -373.392 3736.88C-325.016 3749.39 -275.867 3717.18 -235.163 3688.86C-196.481 3662.03 -161.224 3636.11 -130.553 3615.7C6.00657 3524.83 93.196 3484.77 151.549 3375.46C223.04 3241.26 24.8971 3115 172.018 2995.63C355.117 2846.96 356.601 2771.34 212.705 2706.89Z" stroke="#494AFF" stroke-width="1.3" stroke-miterlimit="10"/>
<path d="M239.419 2671.05C121.604 2621.97 -154.358 2737.94 -261.653 2842.82C-307.363 2887.46 -315.261 2946.6 -313.431 2984.7C-306.826 3048.67 -321.425 3086.82 -338.709 3156.69C-342.767 3172.85 -344.986 3187.39 -347.555 3200.85C-361.739 3273.61 -349.259 3233.54 -379.565 3325.17C-380.422 3327.76 -381.699 3330.75 -383.025 3334.39C-400.212 3382.11 -491.085 3490.67 -486.307 3615.01C-484.944 3649.45 -473.228 3681.61 -461.201 3712.75C-445.113 3754.26 -427.559 3773.05 -402.923 3779.07C-349.216 3792.29 -296.468 3757.34 -252.951 3727.4C-210.878 3698.52 -172.491 3670.92 -139.138 3649.07C14.3296 3548.63 107.482 3509.17 172.401 3394.5C252.692 3253.74 33.6186 3113.67 198.153 2985.77C405.029 2824.87 401.58 2738.55 239.419 2671.05Z" stroke="#4554FF" stroke-width="1.3" stroke-miterlimit="10"/>
<path d="M265.95 2635.07C139.642 2585.83 -167.872 2719.92 -280.292 2838.53C-326.849 2887.72 -333.816 2948.49 -331.049 2989.19C-323.486 3054.95 -335.775 3096.12 -355.65 3169.85C-360.101 3186.57 -363.029 3201.72 -366.595 3216.01C-385.687 3293.35 -381.15 3252.53 -418.134 3347.92C-419.149 3350.53 -420.557 3353.71 -422.172 3357.56C-442.254 3406.43 -537.894 3521.34 -528.573 3652.23C-525.935 3688.4 -512.051 3721.82 -497.883 3754.05C-479.739 3795.2 -459.754 3814.88 -433.14 3821.04C-374.287 3834.85 -317.624 3797.11 -271.61 3765.6C-226.173 3734.51 -184.787 3705.43 -148.435 3682.08C22.6267 3572.27 121.611 3533.6 193.569 3413.48C282.503 3266.19 42.843 3112.41 224.737 2975.66C454.785 2802.8 446.534 2705.59 265.95 2635.07Z" stroke="#415EFF" stroke-width="1.3" stroke-miterlimit="10"/>
<path d="M292.665 2599.23C157.838 2549.66 -181.519 2702.08 -298.589 2834.36C-346.178 2887.95 -352.028 2950.48 -348.325 2993.79C-339.989 3061.2 -349.783 3105.53 -372.064 3183.26C-376.934 3200.37 -380.702 3216.32 -385.108 3231.4C-409.135 3313.17 -412.354 3271.73 -456.176 3370.9C-457.349 3373.54 -459.046 3376.93 -460.819 3380.81C-483.796 3430.82 -584.203 3552.09 -570.181 3689.49C-566.268 3727.4 -550.4 3761.94 -533.905 3795.4C-513.548 3836.17 -491.448 3856.79 -462.513 3863.2C-398.515 3877.59 -338.067 3837.25 -289.239 3804.11C-240.253 3770.95 -195.896 3740.21 -156.73 3715.25C31.1083 3596.04 135.87 3557.84 214.737 3432.46C312.287 3278.48 51.9083 3111.17 251.162 2965.58C504.54 2780.74 491.431 2672.31 292.665 2599.23Z" stroke="#3D68FF" stroke-width="1.3" stroke-miterlimit="10"/>
<path d="M319.38 2563.39C176.033 2513.49 -195.193 2684.09 -317.044 2830.2C-365.638 2888.37 -370.399 2952.5 -365.602 2998.39C-356.465 3067.62 -363.633 3114.91 -388.663 3196.53C-394.084 3214.22 -398.403 3230.75 -403.78 3246.82C-432.557 3333.15 -443.848 3291.14 -494.376 3393.91C-495.68 3396.73 -497.562 3399.99 -499.624 3404.09C-525.338 3455.22 -630.67 3582.87 -611.92 3726.95C-606.732 3766.58 -588.985 3802.59 -570.086 3836.78C-547.805 3877.38 -523.143 3898.7 -492.044 3905.39C-422.715 3920.49 -358.696 3877.26 -307.055 3842.5C-254.704 3807.13 -207.217 3774.71 -165.342 3748.47C39.5894 3619.81 150.129 3582.08 235.932 3451.61C342.097 3290.93 61.1586 3110.07 277.8 2955.79C554.295 2758.67 536.487 2639.01 319.38 2563.39Z" stroke="#3972FF" stroke-width="1.3" stroke-miterlimit="10"/>
<path d="M345.909 2527.41C194.016 2477.03 -209.21 2665.99 -335.711 2825.76C-385.311 2888.49 -389.009 2954.07 -383.221 3002.88C-373.126 3073.9 -377.984 3124.22 -405.578 3209.85C-411.419 3227.95 -416.42 3245.25 -422.636 3262.1C-456.348 3352.86 -475.369 3310.4 -532.761 3416.78C-534.223 3419.64 -536.394 3423.1 -538.746 3427.41C-567.196 3479.67 -677.453 3613.7 -654.16 3764.32C-647.725 3805.53 -627.939 3842.98 -606.74 3878.24C-582.377 3918.65 -555.498 3940.55 -522.207 3947.69C-447.733 3963.37 -379.772 3917.5 -325.66 3881.02C-269.918 3843.6 -219.46 3809.53 -174.586 3781.8C47.4658 3643.84 163.783 3606.59 256.468 3470.7C371.248 3303.34 69.5644 3108.79 303.75 2945.8C604.05 2736.61 581.489 2605.4 345.909 2527.41Z" stroke="#357CFF" stroke-width="1.3" stroke-miterlimit="10"/>
<path d="M372.624 2491.57C212.184 2440.7 -223.068 2647.87 -354.008 2821.59C-404.613 2888.88 -407.222 2956.06 -400.497 3007.48C-389.602 3080.31 -391.834 3133.6 -422.018 3223.1C-428.252 3241.75 -433.962 3259.66 -441.176 3277.34C-479.638 3372.65 -506.573 3329.6 -570.83 3439.6C-572.608 3442.51 -574.752 3446.14 -577.419 3450.5C-608.738 3504.06 -723.947 3644.32 -695.767 3801.58C-688.058 3844.53 -666.419 3883.29 -642.604 3919.56C-616.344 3959.64 -586.876 3982.41 -551.448 3989.66C-471.829 4005.92 -400.083 3957.45 -343.158 3919.34C-284.052 3879.72 -230.437 3844.14 -182.75 3814.78C56.2364 3667.4 178.332 3630.62 277.767 3489.5C401.163 3315.45 78.9188 3107.34 330.334 2935.69C653.805 2714.55 626.491 2571.78 372.624 2491.57Z" stroke="#3086FF" stroke-width="1.3" stroke-miterlimit="10"/>
<path d="M399.312 2455.57C230.167 2404.24 -237.112 2629.61 -372.49 2817.28C-424.285 2889.01 -425.619 2957.92 -417.959 3011.95C-406.29 3086.44 -406.027 3142.87 -438.802 3236.24C-445.456 3255.28 -452.006 3273.99 -460.06 3292.46C-503.429 3392.37 -538.093 3348.85 -609.269 3462.16C-611.205 3465.1 -613.665 3468.78 -616.464 3473.33C-650.492 3528.17 -770.654 3674.65 -737.773 3838.43C-728.788 3883.11 -705.27 3923.34 -679.024 3960.49C-650.813 4000.56 -618.968 4023.9 -581.219 4031.4C-496.269 4048.37 -420.793 3996.98 -361.213 3957.28C-298.716 3915.61 -241.971 3878.35 -191.601 3847.55C64.8489 3690.99 192.564 3654.7 299.039 3508.14C431.05 3327.4 88.088 3105.77 357.021 2925.25C703.746 2692.61 671.493 2538.16 399.312 2455.57Z" stroke="#2C90FF" stroke-width="1.3" stroke-miterlimit="10"/>
<path d="M425.87 2419.75C248.177 2367.94 -251.26 2611.7 -390.945 2813.13C-443.903 2889.45 -444.175 2959.81 -435.392 3016.57C-422.765 3092.85 -420.007 3152.44 -455.373 3249.66C-462.42 3269.27 -469.678 3288.58 -478.572 3307.85C-526.719 3412.16 -569.112 3368.18 -647.31 3485.14C-649.377 3488.27 -651.995 3491.97 -655.083 3496.73C-691.848 3552.7 -816.907 3705.71 -779.483 3876.04C-769.224 3922.45 -743.826 3964.15 -715.177 4002.03C-685.041 4041.93 -650.635 4065.96 -610.722 4073.75C-520.626 4091.3 -441.367 4037.31 -379.131 3996.01C-313.111 3952.1 -253.526 3913.37 -200.158 3881.08C73.4125 3715.23 206.878 3679.26 320.289 3527.6C460.915 3340.17 97.3934 3104.98 383.528 2915.64C753.501 2670.55 716.468 2504.39 425.87 2419.75Z" stroke="#289AFF" stroke-width="1.3" stroke-miterlimit="10"/>
<path d="M452.584 2383.91C266.187 2331.64 -265.435 2593.63 -409.4 2808.98C-463.363 2889.87 -462.546 2961.83 -452.8 3021.36C-439.372 3099.45 -433.988 3162 -472.103 3263.12C-479.728 3283.15 -487.51 3303.21 -497.402 3323.3C-550.456 3432.19 -600.579 3387.75 -685.826 3508.21C-688.052 3511.36 -690.959 3515.27 -694.363 3520.09C-733.837 3577.33 -864.007 3736.6 -821.724 3913.41C-810.19 3961.56 -783.043 4004.91 -751.832 4043.49C-719.745 4083.38 -682.962 4107.98 -640.885 4116.05C-545.644 4134.18 -462.601 4077.58 -397.579 4034.5C-328.168 3988.55 -265.453 3948.14 -209.271 3914.23C81.4193 3739.08 220.663 3703.58 340.955 3546.51C490.224 3352.54 106.142 3103.8 409.637 2905.62C803.283 2648.64 761.415 2470.46 452.584 2383.91Z" stroke="#24A4FF" stroke-width="1.3" stroke-miterlimit="10"/>
<path d="M479.272 2347.9C284.301 2295 -279.795 2575.42 -427.882 2804.67C-483.035 2890 -480.943 2963.69 -470.103 3025.79C-455.874 3105.71 -447.837 3171.38 -488.702 3276.39C-496.719 3296.98 -505.21 3317.64 -516.099 3338.56C-574.089 3451.88 -631.886 3407.3 -724.053 3531.05C-726.436 3534.23 -729.632 3538.36 -733.167 3543.36C-775.509 3601.91 -910.473 3767.37 -863.462 3950.86C-850.653 4000.74 -821.784 4045.59 -787.985 4085.02C-753.946 4124.91 -714.629 4150.05 -670.415 4158.23C-569.844 4177.07 -483.044 4117.72 -415.394 4072.88C-342.433 4024.85 -276.746 3982.8 -217.882 3947.45C89.9284 3763.01 234.95 3727.98 362.15 3565.65C519.85 3364.87 115.208 3102.57 436.062 2895.54C853.038 2626.58 806.362 2436.52 479.272 2347.9Z" stroke="#20AEFF" stroke-width="1.3" stroke-miterlimit="10"/>
<path d="M505.83 2312.09C302.154 2258.73 -294.128 2557.38 -446.336 2800.51C-502.653 2890.44 -499.313 2965.71 -487.536 3030.42C-472.377 3111.96 -461.817 3180.95 -505.3 3289.66C-513.737 3310.64 -523.068 3332.11 -534.797 3353.82C-597.695 3471.73 -663.221 3426.68 -762.279 3553.9C-764.821 3557.11 -768.175 3561.26 -771.999 3566.48C-817.051 3626.31 -957.125 3798.02 -905.413 3988.02C-891.329 4039.64 -860.553 4086.11 -824.35 4126.27C-788.36 4166.14 -746.667 4191.85 -700.131 4200.29C-594.414 4219.71 -503.83 4157.75 -433.524 4111.32C-357.172 4061.24 -288.514 4017.53 -226.651 3980.69C98.2795 3786.96 249.078 3752.41 383.161 3584.66C549.634 3377.16 124.116 3101.36 462.515 2885.62C902.821 2604.67 851.31 2402.59 505.83 2312.09Z" stroke="#1CB8FF" stroke-width="1.3" stroke-miterlimit="10"/>
<path d="M532.518 2276.08C320.137 2222.27 -308.302 2539.31 -464.818 2796.2C-522.297 2890.72 -517.737 2967.41 -504.997 3034.89C-489.037 3118.24 -475.693 3190.17 -522.083 3302.8C-530.913 3324.34 -540.98 3346.25 -553.522 3368.92C-621.197 3491.23 -694.398 3446.04 -800.533 3576.59C-803.205 3579.98 -806.876 3584.19 -810.857 3589.44C-858.592 3650.7 -1004.09 3828.72 -947.205 4025.16C-932.005 4078.53 -899.322 4126.63 -860.557 4167.49C-822.616 4207.35 -778.415 4233.44 -729.846 4242.34C-618.853 4262.16 -524.484 4197.59 -451.524 4149.57C-371.807 4097.29 -300.02 4051.9 -235.474 4013.62C106.734 3810.58 263.126 3776.36 404.144 3603.51C579.26 3389.48 133.182 3100.13 488.94 2875.54C952.604 2582.77 896.231 2368.5 532.518 2276.08Z" stroke="#18C3FF" stroke-width="1.3" stroke-miterlimit="10"/>
<path d="M559.232 2240.24C338.091 2185.65 -322.795 2521.29 -483.301 2791.9C-542.102 2891.04 -536.137 2969.28 -522.433 3039.51C-505.672 3124.69 -489.676 3199.74 -538.815 3316.26C-548.064 3338.19 -558.813 3360.88 -572.326 3384.52C-644.908 3511.42 -725.839 3465.77 -838.892 3599.63C-841.723 3603.05 -845.524 3607.44 -849.953 3612.92C-900.397 3675.47 -1050.85 3859.71 -989.261 4062.66C-972.787 4117.77 -938.354 4167.52 -897.055 4208.92C-857.32 4248.8 -810.427 4275.41 -759.695 4284.59C-643.556 4304.98 -545.403 4237.81 -469.629 4188.16C-386.522 4133.84 -311.604 4086.77 -244.218 4047.03C115.138 3834.85 277.28 3800.95 425.18 3622.68C608.884 3401.8 142.273 3099.05 515.364 2865.47C1002.52 2560.68 941.308 2334.38 559.232 2240.24Z" stroke="#14CDFF" stroke-width="1.3" stroke-miterlimit="10"/>
<path d="M585.947 2204.4C356.075 2149.19 -337.154 2503.09 -501.597 2787.72C-561.561 2891.45 -554.348 2971.27 -539.708 3044.11C-521.989 3131.07 -503.497 3209.27 -555.254 3329.5C-564.896 3351.99 -576.512 3375.31 -590.865 3399.75C-668.383 3531.08 -756.988 3485.28 -876.96 3622.45C-879.949 3625.89 -884.039 3630.5 -888.626 3636.01C-941.938 3699.87 -1097.19 3890.3 -1031.05 4099.8C-1013.3 4156.64 -977.122 4208.04 -933.262 4250.14C-891.548 4290.17 -842.306 4317.18 -789.279 4326.46C-667.967 4347.59 -566.058 4277.66 -487.656 4226.26C-401.184 4169.72 -323.268 4121.17 -252.883 4079.93C123.593 3858.46 291.513 3825.03 446.321 3641.51C638.51 3414.13 151.764 3098.4 541.817 2855.55C1052.78 2539.66 986.229 2300.29 585.947 2204.4Z" stroke="#10D7FF" stroke-width="1.3" stroke-miterlimit="10"/>
<path d="M612.478 2168.42C373.901 2112.76 -351.644 2485.07 -520.237 2783.43C-581.364 2891.76 -573.061 2973.18 -557.327 3048.6C-538.834 3137.22 -517.504 3218.68 -572.168 3342.83C-582.203 3365.87 -594.528 3389.8 -609.72 3415.04C-692.146 3550.96 -788.453 3504.85 -915.344 3645.32C-918.491 3648.8 -922.739 3653.43 -927.615 3659.15C-983.609 3724.45 -1143.84 3920.94 -1072.98 4137.11C-1053.95 4195.69 -1016.18 4248.77 -969.599 4291.54C-925.934 4331.56 -874.158 4359.12 -819.124 4368.7C-692.51 4390.39 -586.843 4317.69 -505.786 4264.69C-415.764 4206.08 -334.85 4156.04 -261.837 4113.05C132.239 3883.18 305.43 3849.17 467.147 3660.39C667.952 3426.32 160.302 3096.93 567.9 2845.37C1102.51 2517.44 1031.15 2266.2 612.478 2168.42Z" stroke="#0CE1FF" stroke-width="1.3" stroke-miterlimit="10"/>
<path d="M639.191 2132.58C391.882 2076.3 -365.979 2467.03 -538.535 2779.26C-600.853 2892.02 -591.303 2975.02 -574.446 3053.18C-555.153 3143.61 -531.17 3228.19 -588.453 3356.04C-599.065 3379.52 -611.914 3404.19 -628.104 3430.25C-715.465 3570.59 -819.447 3524.34 -953.256 3668.12C-956.534 3671.78 -961.099 3676.47 -966.105 3682.37C-1024.81 3748.95 -1189.99 3951.67 -1114.43 4174.35C-1094.13 4234.67 -1054.58 4289.55 -1005.31 4332.84C-959.664 4373.01 -905.538 4400.97 -848.183 4410.81C-716.395 4433.23 -606.972 4357.78 -523.101 4303.15C-429.715 4242.34 -345.644 4190.77 -269.79 4146.32C140.877 3906.92 319.9 3873.7 488.499 3679.51C697.946 3438.9 169.523 3095.67 594.667 2835.39C1152.08 2495.25 1076.07 2232.11 639.191 2132.58Z" stroke="#08EBFF" stroke-width="1.3" stroke-miterlimit="10"/>
<path d="M665.879 2096.58C409.838 2039.69 -380.47 2449.02 -557.017 2774.95C-620.656 2892.34 -609.7 2976.88 -591.88 3057.8C-571.629 3150.02 -544.807 3237.86 -605.209 3369.34C-616.056 3393.34 -629.772 3418.65 -646.96 3445.53C-739.071 3590.44 -850.542 3544.18 -991.641 3691C-995.235 3694.71 -999.772 3699.56 -1005.25 3705.55C-1066.83 3773.42 -1236.77 3982.5 -1156.67 4211.73C-1135.09 4273.78 -1093.77 4330.47 -1041.99 4374.14C-994.366 4414.46 -937.734 4442.81 -878.215 4452.92C-741.282 4475.92 -628.101 4397.71 -541.575 4341.49C-444.798 4278.62 -357.624 4225.22 -278.903 4179.46C149.173 3930.56 334.001 3897.97 509.694 3698.65C727.599 3451.38 178.589 3094.44 621.119 2825.47C1201.83 2473.18 1121.12 2197.83 665.879 2096.58Z" stroke="#04F5FF" stroke-width="1.3" stroke-miterlimit="10"/>
<path d="M-575.471 2770.8C-726.336 3054.88 -459.582 3143.78 -665.631 3460.95C-762.676 3610.29 -882.035 3563.59 -1029.84 3714C-1075.28 3760.23 -1290.73 3992.42 -1198.4 4249.18C-1154.48 4371.18 -1037.23 4473.75 -907.876 4495.29C-765.612 4519.01 -648.675 4438.03 -559.493 4380.21C87.3521 3960.07 314.672 3959.72 530.677 3717.5C757.197 3463.54 187.442 3092.91 647.545 2815.4C1251.4 2450.99 1166.01 2163.58 692.437 2060.76C427.663 2003.26 -394.988 2430.84 -575.471 2770.8Z" stroke="#00FFFF" stroke-width="1.3" stroke-miterlimit="10"/>
</g>
</svg>
