<svg width="2839" height="2762" viewBox="0 0 2839 2762" fill="none" xmlns="http://www.w3.org/2000/svg">
<g opacity="0.25">
<path d="M1216.91 1194.54C1235.84 1230.3 1217.19 1254.04 1232.24 1281.1C1265.16 1340.12 1325.09 1243.03 1370.64 1295.37C1397.84 1326.57 1356.38 1424.78 1384.63 1504.58C1396.87 1538.85 1404.75 1545.21 1411.64 1545.39C1432.12 1545.92 1453.39 1492.57 1461.88 1462.96C1468.67 1439.49 1483.84 1386.5 1463.52 1330.6C1438.9 1263.02 1389.23 1264.39 1383.4 1211.11C1377.52 1157.53 1401.43 1130.13 1372.16 1117.16C1317.76 1093.08 1279.94 1088.36 1235.24 1117.97C1205.47 1137.75 1215.24 1180.1 1216.91 1194.54Z" stroke="#6503FF" stroke-width="1.3" stroke-miterlimit="10"/>
<path d="M1378.6 1080.04C1315.82 1064.42 1264.41 1083.09 1219.64 1122.7C1191.93 1147.31 1202.05 1189.22 1205.51 1205.23C1225.73 1241.96 1209.65 1267.14 1224.65 1297.73C1229.29 1307.16 1234.62 1313.22 1240.29 1317.02C1271.22 1338.14 1311.55 1282.63 1346.64 1324C1347.77 1325.43 1348.9 1326.86 1350.09 1328.57C1368.94 1355.28 1348.2 1426.12 1357.14 1493.85C1359.7 1513.22 1365.06 1531.86 1372.96 1549.67C1387.62 1582.51 1396.56 1588.86 1405.21 1588.14C1421.44 1586.89 1435.55 1564.6 1446.99 1540.95C1455.51 1523.25 1462.43 1504.65 1467.95 1490.33C1482.78 1452.37 1503.85 1397.86 1486.74 1335.27C1466.16 1259.33 1394.36 1259.66 1399.52 1192.69C1405.26 1120.63 1421.75 1090.81 1378.6 1080.04Z" stroke="#610DFF" stroke-width="1.3" stroke-miterlimit="10"/>
<path d="M1385.13 1043.02C1315.55 1033.61 1249.06 1077.16 1204.23 1127.45C1178.36 1156.4 1189.06 1198.36 1194.21 1215.84C1215.65 1253.43 1202.36 1279.89 1217.36 1314.29C1221.72 1324.27 1226.94 1331.08 1232.25 1336C1261.22 1362.48 1294.73 1310.22 1326.66 1356.59C1327.69 1358.1 1328.68 1359.8 1329.75 1361.6C1346.53 1390.62 1325.05 1467.68 1339.99 1538.3C1344.17 1558.37 1352.03 1577.02 1361.5 1594.57C1378.5 1625.89 1388.77 1632.36 1399.09 1630.82C1419.51 1627.91 1435.43 1601.86 1448.26 1575.93C1458.48 1555.23 1466.94 1534.09 1474.21 1517.72C1497.54 1465.4 1524.04 1409.23 1510.07 1339.84C1493.45 1255.47 1400.11 1254.6 1415.94 1174.21C1433.63 1083.39 1442.84 1050.88 1385.13 1043.02Z" stroke="#5D17FF" stroke-width="1.3" stroke-miterlimit="10"/>
<path d="M1391.55 1006.08C1315.56 1001.59 1233.5 1070.74 1188.6 1132.36C1164.52 1165.37 1175.84 1207.67 1182.7 1226.62C1205.54 1265.09 1194.84 1292.81 1209.66 1331C1213.82 1341.64 1218.74 1349.19 1223.72 1355.03C1250.65 1386.78 1277.41 1337.88 1306.28 1389.33C1307.19 1390.93 1308.07 1392.71 1309.01 1394.79C1323.62 1426.01 1301.37 1509.5 1322.24 1582.88C1328.16 1603.57 1338.24 1622.12 1349.63 1639.64C1368.79 1669.42 1380.39 1675.99 1392.45 1673.74C1417.05 1669.17 1434.76 1639.55 1448.99 1611.35C1460.91 1587.64 1470.99 1564.07 1480.03 1545.46C1512.13 1478.88 1543.8 1420.95 1533.04 1344.87C1520.38 1252.04 1405.92 1249.83 1431.81 1156.16C1462.26 1046.27 1464.41 1010.23 1391.55 1006.08Z" stroke="#5921FF" stroke-width="1.3" stroke-miterlimit="10"/>
<path d="M1397.99 968.961C1315.77 968.909 1217.73 1063.83 1172.92 1136.99C1150.39 1173.75 1162.49 1216.58 1171.24 1237.03C1195.38 1276.46 1187.47 1305.46 1202.02 1347.35C1205.91 1358.53 1210.71 1366.83 1215.36 1373.6C1240.33 1410.72 1260.39 1364.8 1286.05 1421.6C1286.86 1423.29 1287.6 1425.35 1288.51 1427.62C1301.08 1460.96 1278.14 1550.97 1304.92 1627.12C1312.47 1648.52 1328.07 1664.85 1338.1 1684.45C1354.09 1716.07 1372.33 1719.37 1386.24 1716.31C1415.14 1710 1434.45 1676.79 1450.18 1646.24C1463.88 1619.63 1475.6 1593.42 1486.23 1572.56C1527.29 1491.75 1563.75 1432.02 1556.43 1349.07C1547.54 1247.78 1412.3 1244.45 1448.21 1137.2C1491.19 1009.08 1485.96 969.101 1397.99 968.961Z" stroke="#552BFF" stroke-width="1.3" stroke-miterlimit="10"/>
<path d="M1404.51 931.941C1315.95 935.755 1201.77 1056.9 1157.51 1141.74C1136.45 1182.14 1149.5 1225.72 1160.02 1247.74C1185.46 1288.14 1180.36 1318.22 1194.8 1364.01C1198.53 1375.65 1203.11 1384.8 1207.32 1392.58C1230.25 1434.96 1243.7 1392.12 1266.15 1454.29C1266.74 1456.15 1267.46 1458.4 1268.15 1460.84C1278.86 1496.31 1254.84 1592.81 1287.66 1671.65C1296.83 1693.75 1315.23 1709.36 1326.61 1729.55C1343.97 1760.42 1364.43 1762.95 1380 1759.07C1413.01 1751 1434.18 1714.32 1451.43 1681.42C1466.94 1651.71 1480.25 1623.25 1492.46 1600.14C1542.56 1505.2 1583.83 1443.48 1579.81 1353.93C1574.77 1244.29 1418.68 1239.72 1464.68 1119.01C1520.18 972.186 1507.6 927.408 1404.51 931.941Z" stroke="#5135FF" stroke-width="1.3" stroke-miterlimit="10"/>
<path d="M1410.93 895.006C1316.05 902.498 1185.35 1049.84 1141.88 1146.65C1122.1 1190.69 1136.28 1235.03 1148.51 1258.52C1175.27 1299.69 1172.95 1331.05 1187.1 1380.72C1190.55 1392.92 1195.02 1402.82 1198.79 1411.61C1219.68 1459.26 1226.74 1419.33 1245.77 1487.03C1246.32 1489.08 1246.85 1491.31 1247.4 1494.03C1256.18 1531.54 1231.17 1634.62 1270 1716.34C1280.79 1739.14 1301.69 1754.1 1314.64 1774.7C1333.54 1804.84 1355.94 1806.67 1373.25 1802.08C1410.45 1792.35 1433.43 1751.91 1451.96 1716.82C1469.26 1684.21 1484.21 1653.12 1498.09 1627.86C1557.43 1518.81 1603.29 1455.27 1602.51 1358.84C1601.43 1240.75 1424.46 1235.14 1480.28 1100.84C1549.19 935.098 1529.18 885.423 1410.93 895.006Z" stroke="#4D3FFF" stroke-width="1.3" stroke-miterlimit="10"/>
<path d="M1417.38 857.884C1316.17 869.053 1168.76 1042.58 1126.39 1151.29C1107.78 1199.05 1123.1 1244.15 1137.13 1269.03C1165.19 1311.16 1165.77 1343.71 1179.62 1397.27C1182.99 1410.03 1187.04 1420.75 1190.48 1430.47C1209.41 1483.49 1210 1446.36 1225.6 1519.6C1226.05 1521.73 1226.44 1524.24 1226.96 1527.15C1233.9 1566.6 1207.8 1676.37 1252.66 1760.76C1265.07 1784.27 1284.16 1802.32 1303.07 1819.69C1329.39 1843.96 1347.97 1850.15 1367.01 1844.84C1408.32 1833.35 1433.17 1789.44 1453.13 1751.9C1472.12 1716.28 1488.88 1682.77 1504.27 1655.14C1572.81 1532.17 1623.4 1466.54 1625.84 1363.42C1628.72 1236.88 1430.97 1230.15 1496.62 1082.25C1578.29 898.112 1550.61 843.235 1417.38 857.884Z" stroke="#494AFF" stroke-width="1.3" stroke-miterlimit="10"/>
<path d="M1423.9 820.864C1316.22 835.506 1151.96 1035.48 1110.87 1156.13C1093.35 1207.5 1109.91 1253.27 1125.8 1279.83C1155.16 1322.93 1158.66 1356.48 1172.22 1413.92C1175.31 1427.23 1179.17 1438.6 1182.36 1449.34C1199.36 1507.54 1193.52 1473.51 1205.54 1552.08C1205.88 1554.3 1206.05 1556.98 1206.44 1560.16C1211.63 1601.67 1184.34 1718.01 1235.31 1805.19C1249.46 1829.32 1270.56 1847.44 1291.5 1864.69C1319.46 1887.66 1339.88 1893.71 1360.78 1887.61C1406.38 1874.37 1432.91 1826.97 1454.37 1787.08C1475.15 1748.55 1493.63 1712.51 1510.5 1682.72C1588.16 1545.72 1643.49 1478 1648.84 1368.25C1655.87 1233.29 1437.05 1225.5 1512.61 1064.12C1607.57 861.142 1572.09 800.671 1423.9 820.864Z" stroke="#4554FF" stroke-width="1.3" stroke-miterlimit="10"/>
<path d="M1430.24 783.829C1316.08 801.944 1134.89 1028.27 1095.16 1160.94C1078.73 1215.93 1096.61 1262.47 1114.21 1290.51C1144.97 1334.48 1151.37 1369.22 1164.44 1430.53C1167.45 1444.41 1171 1456.52 1173.75 1468.28C1188.79 1531.84 1176.67 1500.63 1185.07 1584.72C1185.3 1587.03 1185.44 1589.9 1185.69 1593.35C1189.14 1636.91 1160.67 1759.82 1217.57 1849.78C1233.33 1874.61 1256.55 1892.71 1279.53 1909.84C1308.91 1931.69 1331.5 1937.35 1353.95 1930.51C1403.66 1915.51 1432.08 1864.46 1454.83 1822.38C1477.31 1780.85 1497.49 1742.47 1516.05 1710.34C1603.43 1559.17 1663.46 1489.54 1672.06 1372.92C1683.13 1229.61 1443.54 1220.69 1528.84 1045.62C1636.75 824.259 1593.49 758.005 1430.24 783.829Z" stroke="#415EFF" stroke-width="1.3" stroke-miterlimit="10"/>
<path d="M1436.76 746.808C1316.04 768.295 1117.79 1021.25 1079.75 1165.69C1064.22 1224.27 1083.62 1271.61 1102.91 1301.11C1134.88 1345.95 1144.37 1381.9 1157.15 1447.09C1159.99 1461.43 1163.22 1474.47 1165.63 1487.15C1178.63 1555.98 1160.41 1527.61 1165.09 1617.3C1165.21 1619.7 1165.22 1622.84 1165.36 1626.38C1167.05 1671.99 1137.41 1801.48 1200.33 1894.12C1217.73 1919.66 1242.87 1937.73 1268.07 1954.75C1298.98 1975.39 1323.52 1980.83 1347.82 1973.19C1401.64 1956.43 1431.93 1901.91 1456.19 1857.47C1480.55 1812.95 1502.35 1772.13 1522.42 1737.65C1618.89 1572.63 1683.46 1500.9 1695.28 1377.58C1710.3 1225.83 1449.91 1215.97 1544.96 1027.21C1665.92 787.375 1614.73 715.134 1436.76 746.808Z" stroke="#3D68FF" stroke-width="1.3" stroke-miterlimit="10"/>
<path d="M1443.29 709.788C1316.01 734.646 1100.61 1014.13 1064.23 1170.52C1049.68 1232.81 1070.51 1280.83 1091.61 1311.72C1124.88 1357.53 1137.48 1394.49 1149.67 1463.64C1152.31 1478.63 1155.35 1492.31 1157.4 1506.11C1168.55 1580.22 1144.02 1554.87 1145 1649.98C1145.09 1652.56 1144.91 1655.69 1144.91 1659.5C1144.97 1707.07 1114.03 1843.22 1183.07 1938.65C1202.09 1964.89 1229.21 1983.22 1256.51 1999.75C1288.8 2019.45 1315.54 2024.3 1341.58 2015.95C1399.7 1997.44 1431.58 1939.34 1457.35 1892.55C1483.42 1845.02 1506.94 1801.67 1528.57 1765.12C1634.35 1586.1 1703.47 1512.26 1718.58 1382.34C1737.56 1222.15 1456.48 1211.27 1561.35 1008.91C1695.1 750.491 1636.07 672.177 1443.29 709.788Z" stroke="#3972FF" stroke-width="1.3" stroke-miterlimit="10"/>
<path d="M1449.62 672.753C1315.71 700.881 1083.13 1007.07 1048.44 1175.23C1034.87 1241.22 1057.05 1289.84 1080.02 1322.4C1114.69 1369.08 1130.19 1407.24 1141.96 1480.35C1144.45 1495.81 1147.26 1510.33 1148.98 1525.06C1158.09 1604.44 1127.55 1582.02 1124.72 1682.63C1124.71 1685.3 1124.39 1688.7 1124.25 1692.79C1122.67 1742.32 1090.44 1885.13 1165.41 1983.34C1185.96 2010.18 1215.17 2028.68 1244.61 2045C1278.4 2063.68 1307.05 2068.03 1334.91 2059.06C1397.13 2038.79 1431 1977.13 1457.97 1928.06C1485.82 1877.62 1510.95 1831.83 1534.28 1792.95C1649.45 1600.01 1723.12 1524.06 1741.36 1387.35C1764.3 1218.71 1462.34 1206.79 1577.14 990.759C1724.28 713.608 1657.26 629.017 1449.62 672.753Z" stroke="#357CFF" stroke-width="1.3" stroke-miterlimit="10"/>
<path d="M1456.15 635.732C1315.59 667.13 1065.76 999.934 1033.03 1179.98C1020.44 1249.67 1044.06 1298.97 1068.72 1333.01C1104.69 1380.66 1123.3 1419.83 1134.59 1496.81C1136.99 1512.83 1139.5 1528.1 1140.78 1543.83C1148.04 1628.49 1111.29 1609 1104.66 1715.11C1104.43 1717.95 1104.19 1721.46 1103.84 1725.72C1100.58 1777.4 1066.99 1926.77 1148.17 2027.68C1170.35 2055.23 1201.46 2073.88 1233.26 2089.82C1268.36 2107.47 1299.29 2111.33 1328.81 2101.55C1395.14 2079.52 1430.87 2014.39 1459.35 1962.96C1488.9 1909.52 1515.84 1861.3 1540.68 1820.06C1665.05 1613.2 1743.26 1535.15 1764.61 1391.83C1791.51 1214.74 1468.86 1201.79 1593.37 972.261C1753.45 676.724 1678.44 585.856 1456.15 635.732Z" stroke="#3086FF" stroke-width="1.3" stroke-miterlimit="10"/>
<path d="M1462.59 598.61C1315.29 633.364 1048.19 992.779 1017.43 1184.7C1005.63 1258.08 1030.87 1308.09 1057.23 1343.61C1094.42 1392.11 1116.11 1432.49 1126.92 1513.34C1129.15 1529.82 1131.33 1546.01 1132.28 1562.68C1137.58 1652.7 1094.82 1636.15 1084.22 1747.56C1083.88 1750.49 1083.42 1754.17 1083.04 1758.62C1078.23 1812.36 1043.26 1968.3 1130.48 2071.89C1154.29 2100.14 1187.37 2119.05 1221.35 2134.6C1257.92 2151.41 1290.86 2154.68 1322.23 2144.09C1392.85 2120.32 1430.29 2051.51 1460.16 1997.81C1491.5 1941.47 1520.16 1890.73 1546.47 1847.32C1680.54 1626.48 1763.18 1546.4 1787.77 1396.2C1818.64 1210.67 1475.18 1196.78 1609.55 953.472C1782.82 639.856 1699.63 542.695 1462.59 598.61Z" stroke="#2C90FF" stroke-width="1.3" stroke-miterlimit="10"/>
<path d="M1469.01 561.676C1315.06 599.7 1030.69 985.914 1001.91 1189.53C990.979 1266.7 1017.57 1317.3 1045.83 1354.3C1084.42 1403.69 1109.2 1445.27 1119.52 1529.99C1121.66 1547.03 1123.54 1563.96 1124.16 1581.55C1127.53 1676.76 1078.75 1663.14 1064.24 1780.15C1063.87 1783.26 1063.3 1787.03 1062.79 1791.75C1056.33 1847.46 1020.16 2010.16 1113.3 2116.52C1138.73 2145.48 1173.79 2164.64 1209.86 2179.7C1247.82 2195.57 1282.96 2198.26 1316.07 2186.95C1390.81 2161.42 1430.1 2089.15 1461.38 2033.18C1494.52 1973.75 1524.77 1920.75 1552.78 1875C1696.24 1640.25 1783.34 1557.96 1811.23 1401.17C1846.06 1207.19 1481.91 1192.28 1625.91 935.366C1811.99 602.972 1720.73 499.433 1469.01 561.676Z" stroke="#289AFF" stroke-width="1.3" stroke-miterlimit="10"/>
<path d="M1475.53 524.657C1314.84 566.036 1013.1 978.949 986.386 1194.37C976.44 1275.24 1004.47 1326.52 1034.5 1365.1C1074.39 1415.45 1102.28 1458.05 1112.01 1546.72C1113.88 1564.32 1115.64 1582 1115.82 1600.6C1117.23 1701.18 1062.44 1690.5 1043.94 1812.99C1043.45 1816.19 1042.75 1820.23 1042.01 1825.13C1034 1882.9 996.35 2052.25 1095.63 2161.21C1122.68 2190.87 1159.7 2210.48 1197.97 2224.95C1237.4 2240 1274.55 2242.08 1309.4 2230.06C1388.24 2202.77 1429.41 2127.02 1462.11 2068.6C1497.03 2006.26 1529.01 1950.74 1558.53 1902.63C1711.37 1653.97 1803.02 1569.58 1834.05 1405.99C1872.91 1203.67 1488.07 1187.73 1641.81 917.128C1841.25 566.191 1741.76 456.069 1475.53 524.657Z" stroke="#24A4FF" stroke-width="1.3" stroke-miterlimit="10"/>
<path d="M1481.98 487.535C1314.56 532.082 995.318 971.967 970.785 1199.1C961.63 1283.65 991.281 1335.64 1023.12 1375.61C1064.31 1426.92 1095.39 1470.64 1104.53 1563.27C1106.31 1581.43 1107.77 1599.85 1107.51 1619.46C1106.88 1725.3 1046.24 1717.77 1023.77 1845.56C1023.18 1848.85 1022.33 1853.16 1021.57 1858.25C1011.89 1918.17 972.976 2093.99 1078.37 2205.74C1107.05 2236.1 1145.93 2256.06 1186.48 2270.05C1227.38 2284.26 1266.65 2285.66 1303.17 2272.83C1386.3 2243.79 1429.25 2164.47 1463.27 2103.68C1500.09 2038.35 1533.68 1980.38 1564.68 1930.11C1726.91 1667.54 1823.1 1581.04 1857.35 1410.75C1899.98 1199.97 1494.45 1183.01 1657.93 898.716C1870.42 529.308 1762.78 412.705 1481.98 487.535Z" stroke="#20AEFF" stroke-width="1.3" stroke-miterlimit="10"/>
<path d="M1488.39 450.6C1314.23 498.503 977.619 965.086 955.265 1203.93C946.981 1292.27 978.175 1344.86 1011.72 1386.3C1054.23 1438.39 1088.48 1483.41 1097.04 1579.81C1098.66 1598.43 1099.79 1617.78 1099.2 1638.32C1096.61 1749.53 1029.96 1744.94 1003.6 1878.13C1002.9 1881.5 1001.95 1885.9 1001.05 1891.26C989.807 1953.25 949.413 2135.72 1060.84 2250.15C1091.14 2281.22 1132.08 2301.54 1174.73 2315.03C1217.1 2328.41 1258.38 2329.21 1296.74 2315.57C1383.99 2284.77 1428.8 2201.99 1464.22 2138.92C1502.81 2070.69 1538.02 2010.28 1570.72 1957.67C1742.34 1681.19 1843.08 1592.59 1880.46 1415.5C1927.16 1196.19 1500.71 1178.38 1674.13 880.406C1899.68 492.525 1783.8 369.34 1488.39 450.6Z" stroke="#1CB8FF" stroke-width="1.3" stroke-miterlimit="10"/>
<path d="M1494.84 413.477C1313.93 464.736 960.03 958.118 939.665 1208.65C932.253 1300.79 964.908 1353.88 1000.23 1396.9C1044.04 1449.95 1081.51 1495.9 1089.37 1596.34C1090.91 1615.53 1091.65 1635.51 1090.81 1657.08C1086.28 1773.47 1013.78 1772.02 983.347 1910.59C982.619 1914.16 981.451 1918.73 980.44 1924.18C967.723 1988.33 925.632 2177.61 1043.42 2294.47C1075.23 2326.34 1118.24 2347.01 1163.08 2359.92C1206.92 2372.47 1250.24 2372.48 1290.32 2358.32C1381.7 2325.57 1428.38 2239.31 1465.19 2173.98C1505.49 2102.74 1542.42 2039.81 1576.59 1985.03C1757.72 1694.55 1862.81 1603.83 1903.49 1420.15C1954.23 1192.49 1507.09 1173.66 1690.25 861.993C1928.94 455.743 1804.75 325.873 1494.84 413.477Z" stroke="#18C3FF" stroke-width="1.3" stroke-miterlimit="10"/>
<path d="M1501.36 376.459C1313.54 430.87 942.223 951.326 924.064 1213.38C917.414 1309.39 951.721 1363 988.824 1407.59C1033.92 1461.61 1074.59 1508.68 1081.86 1613.07C1083.23 1632.72 1083.75 1653.55 1082.55 1676.23C1076.07 1797.99 997.551 1799.48 963.149 1943.35C962.312 1947 961.116 1951.76 959.859 1957.57C945.583 2023.79 902.121 2219.63 1025.94 2339.18C1059.38 2371.75 1104.33 2392.87 1151.29 2405.09C1196.5 2416.89 1242.05 2416.14 1283.86 2401.26C1379.35 2366.74 1427.9 2277.02 1466.22 2209.34C1508.3 2135.19 1546.96 2069.73 1582.71 2012.7C1773.32 1708.41 1882.87 1615.48 1926.68 1425C1981.3 1188.8 1513.55 1169.04 1706.37 843.583C1958.22 418.774 1825.8 282.321 1501.36 376.459Z" stroke="#14CDFF" stroke-width="1.3" stroke-miterlimit="10"/>
<path d="M1507.89 339.439C1313.24 397.104 924.443 944.344 908.653 1218.13C902.875 1317.93 938.724 1372.14 977.526 1418.2C1024.03 1473.09 1067.79 1521.37 1074.49 1629.53C1075.77 1649.75 1075.88 1671.39 1074.35 1695C1065.82 1822.03 981.457 1826.66 943.088 1975.83C942.142 1979.57 940.809 1984.61 939.443 1990.5C923.498 2058.87 878.775 2261.19 1008.52 2383.51C1043.58 2416.78 1090.48 2438.34 1139.65 2449.99C1186.4 2461.05 1233.88 2459.6 1277.47 2443.81C1377.14 2407.64 1427.48 2314.35 1467.11 2244.29C1510.89 2167.14 1551.25 2099.34 1588.7 2039.97C1788.69 1721.77 1902.79 1626.73 1949.81 1429.56C2008.36 1185.1 1520.47 1164.55 1722.57 825.273C1988.18 382.431 1846.74 238.855 1507.89 339.439Z" stroke="#10D7FF" stroke-width="1.3" stroke-miterlimit="10"/>
<path d="M1514.22 302.402C1312.82 363.423 906.636 937.549 892.943 1222.94C888.036 1326.53 925.319 1381.43 965.931 1428.88C1013.65 1484.63 1060.79 1534.05 1066.79 1646.25C1067.99 1667.03 1067.79 1689.41 1065.93 1713.95C1055.45 1846.34 965.145 1854.01 922.81 2008.49C921.755 2012.31 920.312 2017.43 918.809 2023.6C901.386 2094.14 855.212 2302.91 991.071 2428.02C1027.75 2462 1076.5 2484.09 1127.97 2495.07C1176.19 2505.3 1225.8 2503.16 1271.01 2486.75C1374.9 2448.73 1427.03 2351.86 1468.06 2279.54C1513.73 2199.4 1555.78 2129.26 1594.55 2067.52C1804.64 1735.85 1922.49 1638.16 1972.73 1434.29C2035.24 1181.39 1526.36 1159.89 1738.4 806.931C2017.28 345.445 1867.68 195.388 1514.22 302.402Z" stroke="#0CE1FF" stroke-width="1.3" stroke-miterlimit="10"/>
<path d="M1520.75 265.382C1312.52 329.657 888.938 930.67 877.532 1227.69C873.416 1334.96 912.241 1390.46 954.742 1439.4C1003.76 1496.12 1054.09 1546.66 1059.52 1662.62C1060.45 1683.95 1060.14 1707.09 1057.84 1732.63C1045.31 1870.29 949.16 1881.11 902.858 2040.88C901.775 2044.89 900.114 2050.19 898.583 2056.55C879.601 2129.15 832.056 2344.48 973.948 2472.27C1012.25 2506.96 1063.03 2529.6 1116.73 2539.8C1166.51 2549.31 1218.04 2546.47 1265.1 2529.25C1373.18 2489.58 1427.09 2389.14 1469.63 2314.46C1517 2231.31 1560.86 2158.74 1601.22 2094.75C1820.21 1749.23 1942.77 1649.64 1996.14 1438.97C2062.69 1177.73 1532.84 1155.08 1754.81 788.449C2046.26 308.546 1888.63 151.922 1520.75 265.382Z" stroke="#08EBFF" stroke-width="1.3" stroke-miterlimit="10"/>
<path d="M846.411 1237.25C840.669 1504.9 1076.01 1455.8 1041.19 1770.54C1024.77 1918.75 916.835 1935.75 862.491 2106.21C845.778 2158.6 771.492 2416.35 939.02 2561.49C1018.67 2630.44 1146.29 2654.41 1252.2 2615.12C1368.68 2571.94 1426.16 2464.36 1471.5 2385.14C1800.02 1810.01 1971.58 1713.57 2042.47 1448.38C2116.83 1170.33 1545.33 1145.52 1787.14 751.727C2104.42 234.763 1930.46 64.6988 1533.61 191.326C1311.72 262.11 853.242 916.98 846.411 1237.25Z" stroke="#00FFFF" stroke-width="1.3" stroke-miterlimit="10"/>
</g>
</svg>
